<svg width="256" height="256" viewBox="0 0 256 256" fill="none" xmlns="http://www.w3.org/2000/svg">
<path fill-rule="evenodd" clip-rule="evenodd" d="M128 256.002C198.692 256.002 256 198.694 256 128.001C256 57.3079 198.692 0 128 0C57.3075 0 0 57.3079 0 128.001C0 198.694 57.3075 256.002 128 256.002ZM50.5065 61.3619C37.3488 78.4706 29.2073 102.13 29.2073 128.267C29.2073 154.357 37.3198 177.978 50.4358 195.079L85.3551 195.079V61.3619H50.5065ZM201.694 195.085C214.853 177.977 222.994 154.317 222.994 128.179C222.994 102.09 214.883 78.4692 201.767 61.3679L166.847 61.3679V195.085H201.694ZM102.355 143.852C100.4 139.559 103.538 134.681 108.256 134.681H113.578C135.957 134.681 154.098 152.823 154.098 175.201V195.148L125.721 195.148L102.355 143.852ZM126.556 61.427H154.099V81.3736C154.099 103.752 135.957 121.894 113.578 121.894H108.317C103.565 121.894 100.427 116.95 102.451 112.65L126.556 61.427Z" fill="#20631C"/>
</svg>
