<svg width="256" height="256" viewBox="0 0 256 256" fill="none" xmlns="http://www.w3.org/2000/svg">
<path d="M216.731 212.283H204.235L205.174 211.426V211.424C212.735 203.898 215.867 192.998 213.457 182.606C211.045 172.214 203.433 163.806 193.331 160.377L194.556 159.274C199.003 154.796 201.67 148.853 202.06 142.554C202.45 136.255 200.536 130.029 196.677 125.038C192.817 120.044 187.275 116.624 181.08 115.416C184.278 111.647 186.053 106.88 186.103 101.939C186.103 91.4034 177.935 80.8257 160.089 80.8257H154.209C151.35 65.0632 138.405 42.4783 116.148 37.0891C109.446 35.6251 102.562 35.1839 95.7288 35.7819H95.3205C93.7197 35.8876 92.1337 36.1483 90.5842 36.5567L90.0537 36.7609L89.0327 37.2914L89.0309 37.2933C88.783 37.4464 88.5514 37.6233 88.3381 37.8238C87.4411 38.6624 86.9124 39.8219 86.8669 41.0489C86.8669 44.48 90.0519 45.377 91.7674 45.8272C93.9716 46.2902 96.0208 47.3021 97.7307 48.7679C101.054 53.5172 102.294 59.4184 101.16 65.103C100.613 69.7191 97.9386 73.8138 93.9314 76.1693C87.122 79.0335 79.837 80.5995 72.4517 80.7855H71.9212C67.0244 81.5712 62.5541 84.0398 59.2815 87.768C56.009 91.4945 54.1383 96.2455 53.9927 101.204C53.8924 106.398 55.7757 111.438 59.2614 115.294C54.1313 116.24 49.4146 118.734 45.7429 122.44C40.6749 127.516 37.931 134.462 38.1625 141.632C38.394 148.802 41.5827 155.559 46.9681 160.295C37.6263 163.42 30.3413 170.82 27.3622 180.209C24.3814 189.598 26.0678 199.846 31.8981 207.786C37.7284 215.725 47.0007 220.401 56.8512 220.369H216.73C218.985 220.369 220.814 218.54 220.814 216.285C220.814 214.03 218.985 212.201 216.73 212.201L216.731 212.283ZM139.872 188.759C139.872 191.015 138.045 192.843 135.788 192.843C133.533 192.843 131.704 191.015 131.704 188.759C131.704 180.183 126.477 173.201 120.065 173.201C113.653 173.201 108.426 180.183 108.426 188.759C108.426 191.015 106.599 192.843 104.342 192.843C102.087 192.843 100.258 191.015 100.258 188.759C100.107 184.346 101.168 179.974 103.329 176.122C105.489 172.269 108.665 169.084 112.51 166.911C117.35 164.405 123.108 164.405 127.948 166.911C131.725 169.134 134.832 172.339 136.93 176.187C139.031 180.034 140.048 184.381 139.871 188.76L139.872 188.759ZM73.999 123.05C74.639 121.867 75.4047 120.757 76.287 119.741H77.8385H76.3271C77.9114 117.816 79.8348 116.197 82.0043 114.963C85.4737 112.854 89.4592 111.738 93.5192 111.738C97.581 111.738 101.564 112.854 105.036 114.963C108.458 116.885 111.284 119.71 113.203 123.131C115.136 126.5 116.15 130.316 116.144 134.199C116.144 142.222 111.863 149.637 104.914 153.65C97.9641 157.662 89.4031 157.662 82.4532 153.65C75.5033 149.637 71.223 142.223 71.223 134.199C71.1537 130.303 72.1108 126.458 73.9996 123.05L73.999 123.05ZM158.125 114.883C160.304 116.168 162.227 117.843 163.802 119.823C164.683 120.839 165.45 121.949 166.088 123.13C168.021 126.5 169.034 130.316 169.029 134.199C169.029 142.222 164.748 149.637 157.799 153.65C150.849 157.662 142.288 157.662 135.338 153.65C128.388 149.637 124.108 142.222 124.108 134.199C124.102 130.315 125.116 126.5 127.049 123.13C128.968 119.71 131.794 116.884 135.216 114.963C138.687 112.854 142.671 111.738 146.733 111.738C150.793 111.738 154.778 112.853 158.248 114.963L158.125 114.883Z" fill="#20631C"/>
<path d="M228.898 213.473C227.731 212.296 225.965 211.942 224.433 212.578C222.902 213.214 221.906 214.715 221.916 216.374C221.906 218.033 222.902 219.531 224.433 220.168C225.965 220.804 227.731 220.45 228.898 219.273C229.664 218.501 230.089 217.459 230.083 216.374C230.069 215.293 229.646 214.255 228.898 213.473V213.473Z" fill="#20631C"/>
<path d="M99.6451 134.118C99.6451 137.502 96.9032 140.244 93.5195 140.244C90.1376 140.244 87.3938 137.502 87.3938 134.118C87.3938 130.734 90.1376 127.992 93.5195 127.992C96.9032 127.992 99.6451 130.734 99.6451 134.118Z" fill="#20631C"/>
<path d="M152.734 134.118C152.734 137.502 149.992 140.244 146.609 140.244C143.227 140.244 140.483 137.502 140.483 134.118C140.483 130.734 143.227 127.992 146.609 127.992C149.992 127.992 152.734 130.734 152.734 134.118Z" fill="#20631C"/>
</svg>
