<svg width="801" height="801" viewBox="0 0 801 801" fill="none" xmlns="http://www.w3.org/2000/svg">
<path fill-rule="evenodd" clip-rule="evenodd" d="M165.241 530.01L142.887 545.905C142.022 546.514 141.043 546.947 140.006 547.168L102.608 555.108C100.818 555.486 98.9553 555.221 97.3476 554.36L66.449 537.842C63.9319 536.495 62.3587 533.87 62.3587 531.008V514.411C62.3587 511.52 63.9662 508.87 66.5276 507.538L74.2019 503.546V477.323L45.6189 398.875L38.52 373.355C37.7825 370.715 38.5003 367.883 40.398 365.907L48.4655 357.53L30.6684 333.431C29.1984 331.44 28.7658 328.874 29.5032 326.519L43.9715 280.228C44.5074 278.517 45.6234 277.047 47.1228 276.064L96.7525 243.538C97.131 243.292 112.765 238.037 143.662 227.767C144.1 227.625 153.033 227.059 170.471 226.061L190.53 194.278V179.343C190.53 177.135 191.474 175.031 193.12 173.561L204 163.852C205.263 162.726 206.866 162.042 208.552 161.91L224.722 160.646L251.967 123.47C252.916 122.167 254.248 121.199 255.777 120.692L282.457 111.868C284.999 111.027 287.796 111.558 289.851 113.274L310.161 130.22H323.759L340.981 90.163C341.601 88.7177 342.648 87.4984 343.98 86.6627L376.934 66.0099C379.092 64.653 381.781 64.4514 384.121 65.4642L429.548 85.1341L462.123 78.2071C468.15 76.929 473.184 82.848 470.957 88.5853L452.035 137.3L481.129 163.258L522.681 185.828L534.465 167.177L537.425 118.748L550.831 54.5226C552.271 47.6645 561.352 46.0962 565.015 52.0694L587.28 88.4101C587.639 88.9951 587.919 89.6244 588.111 90.2881L597.52 122.549L615.218 130.975C617.234 131.934 618.733 133.713 619.343 135.857L631.053 177.237L639.622 207.54L683.017 236.659C684.6 237.721 685.736 239.333 686.207 241.182L690.426 257.809L716.422 279.297C717.307 280.025 718.015 280.944 718.502 281.986L732.513 311.965L760.614 339.584C761.819 340.769 762.605 342.317 762.846 343.989L771.852 405.436C771.966 406.218 771.961 407.009 771.833 407.786L761.292 473.339C761.106 474.504 760.653 475.615 759.975 476.579L730.719 518.008L710.773 574.122L707.794 602.188C707.43 605.586 704.893 608.344 701.535 608.978L662.388 616.421L638.195 638.745C635.58 641.159 631.657 641.479 628.682 639.522L608.27 626.086L594.981 639.315C592.636 641.651 589.062 642.236 586.087 640.771L556.029 625.934L523.361 620.722C520.466 620.265 518.081 618.205 517.196 615.408L501.774 566.585H491.701C487.753 566.585 484.44 563.616 484.002 559.687L482.483 545.932L473.044 553.557C467.311 558.188 458.963 552.952 460.63 545.774L464.888 527.491L448.506 544.9C444.947 548.685 438.738 547.957 436.152 543.449L414.54 505.845L396.365 486.018H381.041C380.215 486.018 379.389 485.885 378.603 485.625L361.224 479.853H330.281L296.904 492.552C296.024 492.886 295.09 493.058 294.151 493.058H266.94L239.631 506.474L236.484 523.661C235.811 527.338 232.605 530.013 228.864 530.013L165.241 530.01ZM670.008 667.507C675.263 666.416 680.003 670.87 679.251 676.179L671.262 732.303C670.972 734.358 669.865 736.211 668.194 737.445L650.019 750.856C648.692 751.84 647.079 752.37 645.423 752.37H626.466C623.551 752.37 620.881 750.733 619.559 748.133L606.752 722.879C606.437 722.254 606.206 721.591 606.069 720.902L597.101 676.312C596 670.84 600.877 666.032 606.334 667.217L638.172 674.104L670.008 667.507Z" fill="white"/>
</svg>
