<svg width="400" height="251" viewBox="0 0 400 251" fill="none" xmlns="http://www.w3.org/2000/svg">
<path d="M212.406 44.0078C179.466 44.0078 167.836 95.2171 157.017 136.366C153.103 132.404 141.067 120.397 141.047 120.416C138.626 118.014 135.848 118.783 134.137 120.459C132.432 122.18 132.176 125.354 134.137 127.272C134.234 127.359 150.45 143.537 156.07 149.142C157.621 150.654 159.848 151.539 162.076 150.219C164.405 148.804 164.724 146.277 164.772 146.277C183.999 60.1708 201.186 53.7587 212.362 53.7587C221.707 53.7587 232.512 60.683 232.512 74.5121C246.515 74.5121 255.275 92.8929 244.012 104.209C253.347 108.727 257.503 114.284 257.503 121.3C257.503 128.335 251.608 135.516 243.026 135.496C234.507 135.496 230.168 130.022 223.524 130.007C220.524 130.007 218.668 132.433 218.668 134.825V152.22H206.139V134.897C206.124 132.182 204.105 130.046 201.64 130.046C201.587 130.046 200.548 130.075 200.582 130.104L183.776 132.191C181.752 132.467 179.887 134.675 179.887 136.951C179.887 139.633 182.076 141.831 185.047 141.792C185.419 141.792 185.917 141.793 185.878 141.754C185.845 141.754 196.513 140.401 196.513 140.401C196.513 140.401 196.513 157.492 196.513 157.559C196.513 159.743 198.973 161.85 201.186 161.855H223.495C226.095 161.855 228.351 159.627 228.351 156.979V141.309C233.009 144.165 239.494 145.272 242.838 145.272C255.348 145.272 267.297 135.434 267.239 121.005C267.186 107.911 257.193 101.392 257.193 101.392C263.059 85.7416 253.574 70.6223 241.253 66.4233C236.802 50.2749 223.012 44.0078 212.406 44.0078Z" fill="white"/>
<path d="M198.326 181.028C198.326 185.068 202.843 187.503 210.285 191.031C216.17 193.804 219.562 196.723 219.562 199.066C219.562 202.859 215.455 204.212 211.662 204.212C205.733 204.212 202.22 201.849 200.292 196.558L200.133 196.095H199.645C198.591 196.095 197.765 196.143 197.311 196.728C196.905 197.249 197.016 197.965 197.2 198.651C197.18 198.636 198.495 204.087 198.495 204.087C198.838 205.415 199.321 205.628 201.442 206.039C202.355 206.208 207.154 207.039 211.193 207.039C222.524 207.039 227.564 202.439 227.564 197.882C227.564 194.572 224.273 191.379 217.209 187.861L213.962 186.305C209.135 183.99 206.187 182.604 206.187 180.173C206.187 177.825 209.231 176.163 213.595 176.163C219.248 176.163 220.736 179.332 221.447 182.087L221.577 182.608H222.099C223.37 182.608 224.152 182.507 224.636 181.995C224.916 181.71 225.008 181.318 224.959 180.845L224.495 176.124C224.37 174.631 223.205 174.404 221.63 174.085C219.717 173.737 217.436 173.336 214.02 173.336C204.182 173.336 198.326 176.211 198.326 181.028Z" fill="white"/>
<path d="M230.912 190.557C230.912 198.742 238.02 207.039 251.608 207.039C258.469 207.039 262.335 205.478 265.195 203.937L265.992 203.516L264.717 202.125L264.789 202.197C264.504 201.762 264.238 201.69 263.789 201.69L263.122 201.922C262.098 202.405 258.947 203.86 253.241 203.86C246.205 203.86 238.638 199.269 238.638 189.175C238.638 179.569 246.838 176.163 253.854 176.163C258.894 176.163 261.585 177.965 262.069 181.695L262.141 182.299H262.774C263.364 182.299 264.968 182.299 264.968 181.111V175.501C264.968 174.128 263.393 173.925 262.721 173.838L262.054 173.747C260.436 173.524 258.884 173.336 254.797 173.336C240.963 173.336 230.912 180.574 230.912 190.557Z" fill="white"/>
<path d="M179.655 173.721L167.41 173.832L159.244 173.682L158.002 173.648C157.278 173.648 156.751 174.185 156.751 174.939C156.751 175.286 156.751 176.383 158.109 176.383C163.037 176.383 163.216 176.789 163.264 178.674L163.293 179.867L163.38 184.907V195.774C163.38 197.576 163.322 200.442 163.206 202.751C163.173 203.409 163.134 204.042 158.776 204.042C157.563 204.042 156.819 204.278 156.819 205.491C156.819 205.839 156.819 206.772 158.002 206.772L158.278 206.767C158.8 206.738 160.187 206.68 166.995 206.68C174.257 206.68 175.721 206.747 176.2 206.767L176.475 206.772C177.417 206.772 178.244 206.675 178.244 205.491C178.244 204.138 177.132 204.042 175.291 204.042C170.909 204.042 170.885 203.409 170.856 202.756C170.754 200.635 170.672 197.77 170.672 195.774C170.672 195.774 170.672 192.875 170.672 191.865C171.658 191.865 174.33 191.865 174.33 191.865C179.944 191.865 180.582 192.015 181.384 196.349C181.611 197.286 182.36 197.402 182.989 197.402C184.317 197.402 184.453 196.682 184.453 196.354L184.351 194.75C184.264 193.822 184.158 192.657 184.158 191.077V184.424C184.158 183.419 182.964 183.419 182.322 183.419C181.254 183.419 181.012 184.1 180.336 187.246C180.036 188.444 177.722 189.13 173.982 189.13C173.982 189.13 171.634 189.13 170.672 189.13C170.672 187.912 170.672 179.365 170.672 179.365C170.672 176.697 171.136 176.678 171.725 176.659C173.866 176.562 179.08 176.383 180.645 176.383C182.129 176.383 183.501 176.712 184.39 177.301C187.154 179.031 188.584 180.201 189.439 180.901C190.285 181.587 190.758 181.984 191.459 181.984C191.846 181.984 193.044 181.984 193.044 180.959C193.044 180.708 192.942 180.476 192.546 179.645C192.097 178.64 191.329 176.992 190.367 174.455C190.096 173.648 189.174 173.648 187.458 173.648L179.655 173.721Z" fill="white"/>
</svg>
