<svg width="400" height="251" viewBox="0 0 400 251" fill="none" xmlns="http://www.w3.org/2000/svg">
<path d="M224.895 96.6562H222.955V114.277H224.895V96.6562Z" fill="white"/>
<path d="M232.007 101.664V103.28C232.977 102.149 234.271 101.502 235.725 101.34C237.504 101.179 239.282 102.634 239.444 104.412C239.444 104.574 239.444 104.897 239.444 105.058V114.273H237.827V105.058C237.827 103.442 237.019 102.795 235.725 102.795C234.271 102.957 232.977 103.765 232.007 104.735V114.273H230.391V101.502L232.007 101.664Z" fill="white"/>
<path d="M243.97 101.664V97.4609H245.586V101.664H248.658V103.119H245.748V112.171C245.748 112.818 246.233 113.141 247.203 113.141C247.688 113.141 248.335 113.141 248.658 112.98V114.435C248.011 114.596 247.203 114.596 246.718 114.596C244.94 114.596 243.97 114.111 243.97 112.495V103.119H242.03V101.664H243.97Z" fill="white"/>
<path d="M260.782 111.526C259.812 113.304 258.034 114.597 255.933 114.435C253.184 114.435 250.436 112.495 250.436 107.808C250.436 103.604 252.376 101.18 255.609 101.18C258.196 101.18 260.297 102.796 260.297 106.838V108.131H252.053C252.053 110.879 253.669 112.819 255.771 112.819C257.226 112.819 258.681 112.011 259.327 110.717L260.782 111.526ZM258.681 106.838C258.681 104.574 257.549 102.958 255.609 102.958C253.669 102.958 252.376 104.413 252.214 106.838H258.681Z" fill="white"/>
<path d="M263.53 101.667H265.147V104.092C265.793 102.475 267.41 101.344 269.35 101.344V102.96C267.248 102.96 265.955 104.415 265.147 107.163V114.276H263.53C263.53 114.276 263.53 101.667 263.53 101.667Z" fill="white"/>
<path d="M273.714 101.664V103.28C274.684 101.987 275.978 101.502 277.594 101.34C279.372 101.179 281.15 102.634 281.312 104.412C281.312 104.574 281.312 104.897 281.312 105.058V114.273H279.696V105.058C279.696 103.442 278.887 102.795 277.756 102.795C276.301 102.957 275.008 103.765 274.038 104.735V114.273H272.421V101.502L273.714 101.664Z" fill="white"/>
<path d="M284.707 104.086C285.677 102.47 287.455 101.338 289.395 101.5C291.496 101.5 293.759 102.631 293.759 105.379V111.846C293.759 112.816 293.759 113.624 294.083 114.594H292.304L291.981 112.816C290.85 114.109 289.395 114.755 287.778 114.755C286 114.917 284.222 113.462 284.222 111.684C284.222 111.522 284.222 111.361 284.222 111.199C284.222 108.451 286.323 106.996 291.819 106.026V105.379C291.819 103.763 290.688 103.116 289.233 103.116C287.778 103.116 286.646 103.925 286.162 105.056L284.707 104.086ZM291.981 107.481C287.94 108.289 286 109.259 286 111.199C286 112.331 286.97 113.139 288.101 113.139C289.556 112.977 291.011 112.169 291.981 111.199V107.481V107.481Z" fill="white"/>
<path d="M297.962 101.664V97.4609H299.579V101.664H302.489V103.119H299.579V112.171C299.579 112.818 300.064 113.141 301.034 113.141C301.519 113.141 302.165 113.141 302.489 112.98V114.435C301.842 114.596 301.034 114.596 300.549 114.596C298.771 114.596 297.801 114.111 297.801 112.495V103.119H295.861V101.664H297.962Z" fill="white"/>
<path d="M307.823 98.5937H306.045V96.4922H307.823V98.5937ZM306.045 101.665H307.661V114.274H306.045V101.665Z" fill="white"/>
<path d="M316.391 114.435C312.996 114.435 311.218 111.526 311.218 107.808C311.218 104.089 312.835 101.18 316.391 101.18C319.948 101.18 321.564 104.089 321.564 107.808C321.564 111.526 319.786 114.435 316.391 114.435ZM316.391 102.796C314.29 102.796 312.996 104.574 312.996 107.808C312.996 111.041 314.451 112.819 316.391 112.819C318.493 112.819 319.786 111.041 319.786 107.808C319.786 104.736 318.493 102.796 316.391 102.796Z" fill="white"/>
<path d="M326.252 101.664V103.28C327.222 102.149 328.515 101.502 329.97 101.34C331.748 101.179 333.526 102.634 333.688 104.412C333.688 104.574 333.688 104.897 333.688 105.058V114.273H332.072V105.058C332.072 103.442 331.263 102.795 330.132 102.795C328.677 102.957 327.384 103.765 326.414 104.735V114.273H324.797V101.502L326.252 101.664Z" fill="white"/>
<path d="M337.244 104.086C338.214 102.47 339.993 101.338 341.932 101.5C344.034 101.5 346.297 102.631 346.297 105.379V111.846C346.297 112.816 346.297 113.624 346.62 114.594H344.842L344.681 112.816C343.549 114.109 342.094 114.755 340.478 114.755C338.699 114.917 336.921 113.462 336.921 111.684C336.921 111.522 336.921 111.361 336.921 111.199C336.921 108.451 339.023 106.996 344.519 106.026V105.379C344.519 103.763 343.387 103.116 341.932 103.116C340.478 103.116 339.346 103.925 338.699 105.056L337.244 104.086ZM344.681 107.481C340.639 108.289 338.699 109.259 338.699 111.199C338.699 112.331 339.669 113.139 340.801 113.139C342.256 112.977 343.711 112.169 344.681 111.199V107.481Z" fill="white"/>
<path d="M352.278 96.6562H350.662V114.277H352.278V96.6562Z" fill="white"/>
<path d="M222.47 141.756V124.297H224.41V140.139H232.654V141.756H222.47Z" fill="white"/>
<path d="M234.917 131.571C235.887 129.954 237.665 128.822 239.605 128.984C241.707 128.984 243.97 130.116 243.97 132.864V139.33C243.97 140.3 243.97 141.108 244.293 142.078H242.515L242.353 140.3C241.222 141.593 239.767 142.24 238.15 142.24C236.372 142.401 234.594 140.947 234.594 139.168C234.594 139.007 234.594 138.845 234.594 138.683C234.594 135.935 236.695 134.48 242.353 133.51V132.864C242.353 131.247 241.222 130.601 239.767 130.601C238.312 130.439 237.019 131.409 236.534 132.54L234.917 131.571ZM242.192 134.965C238.15 135.774 236.211 136.744 236.211 138.683C236.211 139.815 237.18 140.623 238.312 140.623C239.767 140.462 241.222 139.653 242.192 138.522V134.965Z" fill="white"/>
<path d="M249.466 124.297V130.44H249.628C250.598 129.631 251.729 128.985 253.023 128.985C255.124 128.985 258.034 130.601 258.034 135.613C258.034 140.624 255.124 142.24 252.861 142.24C251.406 142.24 250.113 141.594 249.143 140.786L248.82 142.24H247.526C247.688 141.271 247.688 140.462 247.688 139.492V124.62L249.466 124.297ZM249.466 139.007C250.274 140.139 251.406 140.624 252.699 140.624C254.801 140.624 256.256 139.007 256.256 135.774C256.256 131.895 254.801 130.601 252.699 130.601C251.406 130.763 250.274 131.41 249.466 132.38V139.007Z" fill="white"/>
<path d="M265.147 142.084C261.752 142.084 259.974 139.174 259.974 135.456C259.974 131.738 261.59 128.828 265.147 128.828C268.703 128.828 270.32 131.738 270.32 135.456C270.32 139.174 268.542 142.084 265.147 142.084ZM265.147 130.606C263.045 130.606 261.752 132.385 261.752 135.618C261.752 138.851 263.207 140.629 265.147 140.629C267.087 140.629 268.542 138.851 268.542 135.618C268.542 132.546 267.248 130.606 265.147 130.606Z" fill="white"/>
<path d="M280.665 141.757V140.141C279.695 141.272 278.402 141.919 276.947 142.081C275.169 142.242 273.391 140.788 273.229 139.009C273.229 138.848 273.229 138.524 273.229 138.363V129.148H275.007V138.363C275.007 139.979 275.816 140.626 276.947 140.626C278.402 140.464 279.695 139.656 280.665 138.686V129.148H282.282V141.757H280.665Z" fill="white"/>
<path d="M286.323 129.151H287.94V131.576C288.586 129.96 290.365 128.828 292.143 128.828V130.445C290.041 130.445 288.748 131.9 287.94 134.648V141.76H286.162C286.323 141.76 286.323 129.151 286.323 129.151Z" fill="white"/>
<path d="M227.966 151.781C232.169 151.781 234.917 155.014 234.917 160.834C234.917 166.653 232.331 169.887 227.966 169.887C223.602 169.887 221.015 166.653 221.015 160.834C221.177 155.014 223.763 151.781 227.966 151.781ZM227.966 167.947C231.038 167.947 232.816 165.522 232.816 160.672C232.816 155.823 231.038 153.398 227.966 153.398C224.895 153.398 223.117 155.823 223.117 160.672C223.117 165.522 224.895 167.947 227.966 167.947Z" fill="white"/>
<path d="M237.827 156.956H239.444V159.381C240.09 157.764 241.707 156.633 243.647 156.633V158.249C241.545 158.249 240.252 159.704 239.444 162.452V169.565H237.827C237.827 169.403 237.827 156.956 237.827 156.956Z" fill="white"/>
<path d="M255.771 158.244C255.124 158.244 254.316 158.406 253.831 158.567C254.478 159.376 254.801 160.184 254.801 161.154C254.801 163.579 252.699 165.518 250.275 165.518C249.466 165.518 248.82 165.357 248.011 165.195C247.365 165.357 246.88 165.842 247.041 166.488C247.041 167.135 247.526 167.458 248.173 167.458C254.154 167.458 256.094 168.59 256.094 171.015C256.094 172.793 254.316 174.409 250.275 174.409C246.718 174.409 244.778 173.439 244.778 171.338C244.778 170.045 245.587 169.56 246.88 168.751C245.91 168.59 245.425 167.782 245.425 166.973C245.425 165.842 246.233 165.518 247.041 164.872C245.91 164.064 245.263 162.77 245.425 161.315C245.425 158.891 247.365 156.951 249.79 156.951C249.951 156.951 250.113 156.951 250.113 156.951C251.244 156.951 252.214 157.274 253.184 157.921C253.993 157.274 254.801 156.951 255.932 156.789V158.244H255.771ZM249.79 168.913C247.041 168.913 246.233 170.206 246.233 171.015C246.233 171.823 246.88 172.47 250.436 172.47C252.538 172.47 254.316 171.823 254.316 170.691C254.316 169.56 252.861 168.751 249.79 168.913ZM249.79 157.921C248.335 157.759 246.88 158.891 246.718 160.345C246.718 160.507 246.718 160.669 246.718 160.83C246.718 162.447 248.173 163.74 249.79 163.74C249.951 163.74 249.951 163.74 250.113 163.74C251.568 163.902 253.023 162.77 253.184 161.315C253.184 161.154 253.184 160.992 253.184 160.83C253.346 159.376 252.214 157.921 250.598 157.759C250.436 157.921 250.113 157.921 249.79 157.921Z" fill="white"/>
<path d="M257.872 159.055C258.842 157.438 260.621 156.307 262.56 156.468C264.662 156.468 266.925 157.6 266.925 160.348V166.653C266.925 167.623 266.925 168.431 267.248 169.401H265.47L265.308 167.784C264.177 169.078 262.722 169.724 261.105 169.724C259.327 169.886 257.549 168.431 257.549 166.653C257.549 166.491 257.549 166.329 257.549 166.168C257.549 163.42 259.651 161.965 265.147 160.995V160.348C265.147 158.732 264.015 158.085 262.56 158.085C261.105 157.923 259.812 158.893 259.327 160.025L257.872 159.055ZM265.147 162.773C261.105 163.581 259.166 164.551 259.166 166.491C259.166 167.623 260.136 168.431 261.267 168.431C262.722 168.269 264.177 167.461 265.147 166.329C265.147 166.168 265.147 162.773 265.147 162.773Z" fill="white"/>
<path d="M272.26 156.953V158.569C273.229 157.438 274.523 156.791 275.978 156.629C277.756 156.468 279.534 157.923 279.696 159.701C279.696 159.863 279.696 160.186 279.696 160.348V169.562H278.079V160.348C278.079 158.731 277.271 158.084 276.139 158.084C274.684 158.246 273.553 158.893 272.421 159.863V169.4H270.805V156.953H272.26V156.953Z" fill="white"/>
<path d="M286.162 153.883H284.384V151.781H286.162V153.883ZM284.545 156.954H286.162V169.563H284.384L284.545 156.954Z" fill="white"/>
<path d="M298.771 169.4H289.395V168.269L296.346 158.246H290.041V156.953H298.771V158.246L291.82 167.784H298.771V169.4Z" fill="white"/>
<path d="M300.872 159.055C301.842 157.438 303.621 156.307 305.56 156.468C307.662 156.468 309.763 157.6 309.763 160.348V166.653C309.763 167.623 309.763 168.431 310.087 169.401H308.47L308.308 167.784C307.177 169.078 305.722 169.724 304.105 169.724C302.327 169.886 300.549 168.431 300.549 166.653C300.549 166.491 300.549 166.329 300.549 166.168C300.549 163.42 302.651 161.965 308.147 160.995V160.348C308.147 158.732 307.015 158.085 305.56 158.085C304.105 157.923 302.812 158.893 302.327 160.025L300.872 159.055ZM308.308 162.773C304.267 163.581 302.327 164.551 302.327 166.491C302.327 167.623 303.297 168.431 304.429 168.431C305.884 168.269 307.339 167.461 308.308 166.329V162.773V162.773Z" fill="white"/>
<path d="M314.128 156.953V152.75H315.744V156.953H318.654V158.408H315.744V167.461C315.744 168.107 316.229 168.43 317.199 168.43C317.684 168.43 318.331 168.43 318.654 168.269V169.724C318.008 169.885 317.199 169.885 316.714 169.885C314.936 169.885 313.966 169.4 313.966 167.784V158.57H312.026V157.115H314.128V156.953V156.953Z" fill="white"/>
<path d="M323.989 153.883H322.372V151.781H323.989V153.883ZM322.211 156.954H323.827V169.563H322.211V156.954Z" fill="white"/>
<path d="M332.556 169.888C329.162 169.888 327.384 166.979 327.384 163.261C327.384 159.543 329 156.633 332.556 156.633C336.113 156.633 337.729 159.543 337.729 163.261C337.729 166.817 335.951 169.888 332.556 169.888ZM332.556 158.249C330.455 158.249 329.162 160.028 329.162 163.261C329.162 166.494 330.617 168.272 332.556 168.272C334.496 168.272 335.951 166.494 335.951 163.261C335.951 160.028 334.496 158.249 332.556 158.249Z" fill="white"/>
<path d="M342.579 156.953V158.569C343.549 157.276 344.842 156.791 346.297 156.629C348.075 156.468 349.854 157.923 350.015 159.701C350.015 159.863 350.015 160.186 350.015 160.348V169.562H348.399V160.348C348.399 158.731 347.59 158.084 346.459 158.084C345.004 158.246 343.711 158.893 342.741 159.863V169.4H341.124V156.953H342.579V156.953Z" fill="white"/>
<path d="M76.9103 93.3416C76.1967 94.5904 76.0183 94.9473 76.0183 94.9473C75.4831 96.0177 74.4126 96.5529 73.1638 96.0177L71.3798 95.3041C70.3094 94.9473 69.2389 95.4825 68.7037 96.5529L67.0981 100.478C66.7413 101.548 67.2765 102.619 68.3469 103.154L70.131 103.867C71.2014 104.403 71.7366 105.473 71.5582 106.543L70.6662 110.825C70.4878 112.074 69.4173 112.788 68.3469 112.788H66.5629C65.3141 112.788 64.6005 113.68 64.4221 114.75L64.2437 118.853C64.2437 120.102 65.1357 120.816 66.2061 120.994H68.1685C69.4174 120.994 70.3094 122.065 70.3094 122.957L70.8446 127.238C71.023 128.487 70.3094 129.379 69.2389 129.914L67.2765 130.628C66.2061 130.985 65.6709 132.234 65.8493 133.126L67.6333 139.013L78.6943 135.623C69.2389 112.609 80.3 86.3839 103.136 76.9285C106.704 75.3229 110.45 74.4309 114.197 73.8957L111.877 62.6562L105.812 64.0835C104.563 64.4403 104.028 65.5107 104.206 66.5811L104.741 68.5436C104.92 69.7924 104.384 70.8628 103.136 71.2196L99.2107 72.8252C98.1403 73.3605 96.8915 72.8252 96.1779 71.9332L94.929 70.3276C94.2154 69.2572 93.145 69.0788 92.0746 69.614L88.5065 71.5764C87.4361 72.29 87.0793 73.3605 87.7929 74.4309L88.8633 76.0365C89.3985 77.1069 89.2201 78.3557 88.3281 79.0694L85.1168 81.9238C84.2248 82.8158 82.976 82.8158 82.084 82.1022L80.4784 80.675C79.5863 79.9614 78.3375 80.1398 77.6239 81.0318L75.1263 84.4215C74.4126 85.3135 74.591 86.5623 75.4831 87.2759L77.0887 88.7031C77.9807 89.4168 78.1591 90.6656 77.6239 91.736C77.8023 91.736 77.6239 92.0928 76.9103 93.3416Z" fill="white"/>
<path d="M119.905 167.554C121.333 167.554 121.689 167.554 121.689 167.554C122.938 167.554 123.83 168.446 124.009 169.338L124.365 171.301C124.544 172.55 125.614 173.085 126.685 172.906L130.788 172.193C132.037 172.014 132.572 170.944 132.394 169.874L132.037 168.09C131.858 166.841 132.572 165.77 133.642 165.414L137.746 163.986C138.816 163.629 140.065 163.986 140.6 165.057L141.671 166.841C142.206 167.911 143.455 168.268 144.525 167.733L148.093 165.77C149.164 165.235 149.52 164.165 148.985 163.094L147.915 161.31C147.38 160.24 147.736 158.991 148.628 158.277L152.018 155.78C152.91 155.066 154.159 155.066 155.051 155.78L156.656 157.207C157.549 158.099 158.797 157.921 159.511 157.207L163.793 152.568L155.229 144.719C140.065 164.343 111.877 168.09 92.0745 152.747C89.0416 150.428 86.3656 147.752 84.0463 144.719L75.6614 152.568L80.1215 157.207C81.0135 158.099 82.0839 158.099 82.9759 157.385L84.5815 155.958C85.4736 155.245 86.7224 155.245 87.6144 155.958L91.0041 158.456C92.0745 159.169 92.2529 160.418 91.7177 161.489L90.6473 163.273C90.112 164.343 90.4689 165.414 91.5393 166.127L95.2857 167.911C96.3562 168.446 97.4266 168.09 97.9618 167.019L99.0322 165.235C99.5674 164.165 100.816 163.63 101.887 164.165L105.99 165.592C107.239 165.949 107.774 167.198 107.596 168.268L107.239 170.23C107.06 171.479 107.774 172.371 108.844 172.55L112.948 173.263C114.196 173.442 115.089 172.728 115.267 171.658L115.624 169.695C115.802 168.446 116.873 167.733 117.943 167.911C118.121 167.554 118.478 167.554 119.905 167.554Z" fill="white"/>
<path d="M162.722 93.3416C162.009 92.0928 161.652 91.736 161.652 91.736C160.938 90.6656 161.117 89.5952 162.187 88.7031L163.793 87.2759C164.685 86.5623 164.685 85.4919 164.149 84.5999L161.652 81.3886C160.938 80.4966 159.689 80.3182 158.797 81.0318L157.192 82.459C156.3 83.1726 155.051 83.1726 154.159 82.2806L150.769 79.2478C149.877 78.5341 149.52 77.2853 150.234 76.2149L151.483 74.6093C152.196 73.5389 151.84 72.4684 150.769 71.7548L147.201 69.614C146.131 68.9004 145.06 69.2572 144.347 70.3276L143.098 71.9332C142.384 73.0036 141.314 73.3605 140.065 72.8252L136.14 71.2196C135.07 70.8628 134.534 69.614 134.534 68.5436L135.07 66.5811C135.605 65.1539 134.713 64.0835 133.642 63.7267L127.577 62.6562L125.079 73.8957C149.699 77.2853 167.004 99.9425 163.614 124.562C163.079 128.487 162.009 132.234 160.581 135.623L171.642 139.013L173.426 133.126C173.783 132.055 173.07 130.985 171.999 130.628L170.037 129.914C168.788 129.557 168.253 128.309 168.431 127.238L168.966 122.957C169.145 121.708 170.037 120.994 171.107 120.816H173.07C174.318 120.816 175.032 119.745 175.032 118.853V114.572C175.032 113.323 173.962 112.609 172.891 112.609H170.929C169.68 112.609 168.788 111.717 168.61 110.647L167.896 106.543C167.718 105.295 168.253 104.224 169.323 103.867L171.107 103.154C172.178 102.797 172.713 101.548 172.356 100.478L170.929 96.5529C170.572 95.4825 169.323 94.9473 168.253 95.3041L166.29 96.0177C165.22 96.3745 163.971 95.8393 163.436 94.7689C163.614 94.9473 163.257 94.412 162.722 93.3416Z" fill="white"/>
<path d="M73.1636 69.0819C74.7692 68.1899 76.018 67.4762 77.6237 67.2978C88.8631 64.0866 88.3279 60.1617 92.9663 58.0209L92.7879 57.6641C91.5391 58.3777 90.2903 58.9129 88.8631 58.9129C75.6612 58.9129 76.7316 66.4058 73.1636 69.0819Z" fill="white"/>
<path d="M60.1401 83.5349C61.7458 81.9293 63.7082 80.6804 66.0274 79.9668C76.5532 76.934 80.1213 69.9762 82.9758 68.0138L82.7974 67.8354C78.8725 70.5115 74.4124 67.8354 66.5627 76.042H66.2059C72.6284 68.3706 72.8068 63.1969 75.6612 60.3425L75.4828 60.1641C57.1073 71.2251 65.1354 77.2908 60.1401 83.5349Z" fill="white"/>
<path d="M60.8539 70.8672C43.5488 87.9939 54.253 92.454 51.577 101.017H51.7554C53.0042 98.6981 54.9666 96.7357 57.4643 95.8437C64.9572 92.454 67.2765 83.8906 70.1309 81.393H69.9525C66.3844 85.3179 60.3187 82.9986 55.6802 92.8108L55.3234 92.6324C59.2483 84.2474 57.2859 76.5761 61.0323 71.4024C61.0323 71.0456 61.0323 70.8672 60.8539 70.8672Z" fill="white"/>
<path d="M48.1872 124.034H48.544C48.3656 120.644 49.7928 117.254 52.2904 115.113C60.497 107.442 59.2482 100.663 62.6378 95.3106L62.4594 95.1322C59.7834 99.7707 50.1496 104.588 49.6144 111.545C49.436 111.545 49.436 111.545 49.2576 111.545C50.6848 101.555 45.3327 94.9538 48.1872 88.7097L48.0088 88.5312C37.1262 111.367 46.2247 111.01 48.1872 124.034Z" fill="white"/>
<path d="M52.6473 145.614H53.0041C50.8633 140.619 54.6098 133.483 54.6098 133.126C59.6051 123.314 57.9994 114.572 59.2483 111.539H59.0699C56.3938 118.318 48.9009 121.886 50.1497 133.126H49.4361C48.1872 125.811 40.3375 119.032 40.5159 111.539H40.3375C35.5206 138.478 49.6145 138.3 52.6473 145.614Z" fill="white"/>
<path d="M63.7085 165.596C61.0324 162.028 59.7836 157.568 60.6756 153.108C62.9949 139.549 58.7132 137.23 58.5348 131.164H58.3564C58.178 137.943 51.0419 145.615 57.4644 155.07L57.286 155.427C50.3282 145.258 44.7977 147.577 41.4081 137.587C41.2297 137.587 41.2297 137.587 41.0513 137.587C46.0466 167.202 59.2484 158.281 63.7085 165.596Z" fill="white"/>
<path d="M91.004 178.448V178.092C81.7271 179.876 77.0886 178.092 75.4829 169.707C73.1637 157.932 64.9571 153.115 64.2435 148.477H64.0651C65.6708 156.862 61.7459 161.857 71.9149 171.847L71.3797 172.204C61.5675 164.354 54.9666 167.387 51.2201 161.857L50.8633 162.214C62.8163 182.373 75.8397 183.444 91.004 178.448Z" fill="white"/>
<path d="M68.3467 181.835C80.6565 188.971 93.68 178.802 109.379 178.445C113.304 178.445 125.079 179.159 135.783 191.647L132.929 192.539C129.361 186.295 123.83 181.835 118.835 180.586C104.563 177.018 104.384 190.398 88.5063 190.577C76.7316 190.755 68.5251 182.37 68.3467 181.835Z" fill="white"/>
<path d="M166.29 69.0819C164.684 68.1899 163.436 67.4762 161.83 67.2978C150.591 64.0866 151.126 60.1617 146.487 58.0209L146.666 57.6641C147.915 58.3777 149.163 58.9129 150.769 58.9129C163.971 58.9129 162.9 66.4058 166.29 69.0819Z" fill="white"/>
<path d="M179.492 83.5258C177.886 81.9202 175.924 80.6714 173.605 79.9577C163.079 76.9249 159.511 69.9671 156.656 68.0047L156.835 67.8263C160.76 70.5024 165.22 67.8263 173.07 76.0329L173.426 75.8545C167.004 68.1831 167.004 63.0094 163.971 60.155L164.149 59.9766C182.525 71.216 174.318 77.2817 179.492 83.5258Z" fill="white"/>
<path d="M178.6 70.8672C195.905 87.9939 185.201 92.454 187.877 101.017H187.699C186.45 98.6981 184.488 96.7357 181.99 95.8437C174.497 92.454 172.356 83.8906 169.323 81.393L169.502 81.2146C173.07 85.1395 179.135 82.8202 183.774 92.6324L184.131 92.454C180.206 84.069 182.168 76.3977 178.422 71.224L178.6 70.8672Z" fill="white"/>
<path d="M191.267 124.034H190.91C191.088 120.644 189.661 117.254 187.164 115.113C178.957 107.442 180.206 100.663 176.816 95.3106L177.173 95.1322C179.849 99.7707 189.483 104.588 189.84 111.545C190.018 111.545 190.018 111.545 190.196 111.545C188.769 101.555 194.121 94.9538 191.267 88.7097L191.624 88.5312C202.506 111.367 193.229 111.01 191.267 124.034Z" fill="white"/>
<path d="M186.985 145.614H186.628C188.769 140.619 185.023 133.483 185.023 133.126C180.027 123.314 181.633 114.572 180.384 111.539H180.562C183.238 118.318 190.731 121.886 189.483 133.126H189.839C191.088 125.99 198.938 119.21 198.581 111.717H198.938C203.933 138.478 189.839 138.3 186.985 145.614Z" fill="white"/>
<path d="M175.746 165.596C178.422 162.028 179.67 157.568 178.778 153.108C176.459 139.549 180.741 137.23 180.919 131.164H181.098C181.276 137.943 188.412 145.615 181.99 155.07L182.347 155.249C189.304 145.08 194.835 147.399 198.224 137.408C198.403 137.408 198.403 137.408 198.581 137.408C193.408 167.202 180.384 158.281 175.746 165.596Z" fill="white"/>
<path d="M148.628 178.448V178.092C157.727 179.876 162.544 178.092 164.15 169.707C166.469 157.932 174.675 153.115 175.389 148.477H175.567C173.962 156.862 177.887 161.857 167.718 171.847L168.074 172.026C177.887 164.176 184.487 167.209 188.234 161.678L188.412 161.857C176.638 182.373 163.793 183.444 148.628 178.448Z" fill="white"/>
<path d="M171.107 181.835C158.797 188.971 145.774 178.802 130.074 178.445C126.149 178.445 114.375 179.159 103.671 191.647L106.525 192.539C110.093 186.295 115.624 181.835 120.619 180.586C134.891 177.018 135.07 190.398 150.948 190.577C162.901 190.755 170.929 182.37 171.107 181.835Z" fill="white"/>
<path d="M138.995 92.8047C132.572 92.9831 127.042 96.908 124.723 102.795C123.296 106.363 122.939 110.288 123.117 113.856C122.939 117.781 123.474 121.528 124.723 124.917C127.399 131.161 132.929 135.443 138.817 135.443H138.995C144.704 135.443 150.234 131.161 153.089 124.917C154.516 121.349 154.873 117.424 154.694 113.856C154.873 109.931 154.338 106.185 153.089 102.795C150.77 96.908 145.239 92.9831 138.995 92.8047ZM147.915 114.035C147.915 117.781 147.737 120.992 147.737 120.992C147.558 124.025 147.38 127.058 146.131 129.021C144.526 131.161 142.028 132.589 139.352 132.589H139.173H138.995H138.817C136.141 132.589 133.643 131.161 132.037 129.021C130.61 127.058 130.432 124.025 130.432 120.992C130.432 120.992 130.432 117.781 130.432 114.035V113.856C130.432 110.11 130.432 106.899 130.432 106.899C130.61 103.866 130.788 100.833 132.037 98.8704C133.643 96.7296 136.141 95.3023 138.817 95.3023H138.995H139.352H139.53C142.206 95.3023 144.704 96.7296 146.31 98.8704C147.737 100.833 147.915 103.866 147.915 106.899C147.915 106.899 147.915 110.11 148.094 113.678L147.915 114.035Z" fill="white"/>
<path d="M143.277 137.401C142.563 139.185 141.493 140.791 140.065 142.039C138.816 142.931 137.389 143.467 135.784 143.467L121.69 144.002H118.478C117.051 144.002 116.159 142.931 115.981 141.861V91.9081C116.159 90.4808 117.23 89.5888 118.478 89.5888H121.69V86.7344H102.601V89.5888H105.812C105.812 89.5888 108.131 89.7672 108.309 91.9081V141.861C108.131 144.002 105.812 144.18 105.812 144.18H102.601V147.035H121.69H142.385L144.882 137.758V137.401H143.277Z" fill="white"/>
<path d="M98.6757 98.1489C98.8541 96.3648 100.638 96.1864 100.638 96.1864H103.314V93.8672H87.4363V96.1864H90.1123C90.1123 96.1864 92.0748 96.3648 92.0748 98.1489V130.083C91.8964 131.153 91.0043 132.045 90.1123 132.045H87.6147V134.365H103.493V132.045H100.817C99.5677 132.045 98.8541 131.153 98.8541 130.083C98.6757 130.083 98.6757 98.1489 98.6757 98.1489Z" fill="white"/>
</svg>
