<svg width="400" height="251" viewBox="0 0 400 251" fill="none" xmlns="http://www.w3.org/2000/svg">
<path d="M142.115 145.271C144.649 145.271 146.84 145.761 148.688 146.74C151.369 148.148 153.01 150.615 153.609 154.14H149.992C149.551 152.169 148.639 150.737 147.256 149.843C145.873 148.937 144.128 148.484 142.023 148.484C139.526 148.484 137.42 149.421 135.706 151.294C134.005 153.167 133.154 155.958 133.154 159.667C133.154 162.874 133.858 165.488 135.266 167.508C136.673 169.515 138.969 170.519 142.151 170.519C144.587 170.519 146.601 169.815 148.193 168.407C149.796 166.987 150.616 164.698 150.653 161.54H142.206V158.51H154.05V172.943H151.7L150.818 169.473C149.582 170.831 148.486 171.774 147.531 172.3C145.928 173.206 143.89 173.659 141.417 173.659C138.222 173.659 135.474 172.625 133.172 170.556C130.663 167.961 129.408 164.398 129.408 159.869C129.408 155.352 130.632 151.759 133.08 149.09C135.406 146.544 138.418 145.271 142.115 145.271Z" fill="white"/>
<path d="M173.246 145.234C178.008 145.234 181.533 146.765 183.823 149.825C185.61 152.212 186.503 155.266 186.503 158.988C186.503 163.015 185.481 166.363 183.437 169.032C181.038 172.166 177.616 173.733 173.172 173.733C169.023 173.733 165.76 172.361 163.385 169.619C161.268 166.975 160.209 163.633 160.209 159.594C160.209 155.946 161.115 152.824 162.926 150.229C165.252 146.899 168.692 145.234 173.246 145.234ZM173.613 170.464C176.833 170.464 179.159 169.313 180.591 167.012C182.035 164.698 182.758 162.042 182.758 159.043C182.758 155.872 181.925 153.32 180.26 151.386C178.608 149.452 176.343 148.484 173.466 148.484C170.675 148.484 168.398 149.445 166.636 151.367C164.873 153.277 163.991 156.099 163.991 159.832C163.991 162.819 164.744 165.341 166.25 167.398C167.768 169.442 170.222 170.464 173.613 170.464Z" fill="white"/>
<path d="M192.754 145.969H196.408V169.73H210.07V172.943H192.754V145.969Z" fill="white"/>
<path d="M225.923 169.821C227.16 169.821 228.176 169.693 228.972 169.436C230.392 168.958 231.555 168.04 232.46 166.681C233.183 165.592 233.703 164.196 234.021 162.495C234.205 161.479 234.297 160.536 234.297 159.667C234.297 156.325 233.629 153.73 232.295 151.881C230.973 150.033 228.837 149.109 225.887 149.109H219.405V169.821H225.923ZM215.732 145.969H226.658C230.367 145.969 233.244 147.285 235.288 149.917C237.112 152.292 238.024 155.334 238.024 159.043C238.024 161.907 237.486 164.496 236.408 166.81C234.511 170.899 231.249 172.943 226.621 172.943H215.732V145.969Z" fill="white"/>
<path fill-rule="evenodd" clip-rule="evenodd" d="M164.392 83.4918C157.297 85.4047 156.494 87.8277 156.284 107.945C156.102 125.441 156.363 128.979 158.093 132.528C162.139 140.825 177.013 139.825 179.924 131.06C181.796 125.424 181.688 94.807 179.778 89.7817C177.688 84.2821 171.238 81.6449 164.392 83.4918ZM194.544 83.3653C186.973 85.2766 186.062 88.1863 186.069 110.416C186.073 126.51 186.305 129.513 187.769 132.523C191.738 140.683 206.159 139.864 209.617 131.283L210.506 129.079V110.79C210.506 90.1148 210.463 89.7491 207.667 86.5723C205.129 83.689 199.1 82.2155 194.544 83.3653ZM133.431 110.603V137.103H143.323H153.213V133.371V129.638H147.054H140.896V106.871V84.1028H137.164H133.431V110.603ZM215.917 110.567V137.103H219.65H223.383V127.263V117.422L227.955 117.214C238.509 116.733 239.992 114.632 239.992 100.152V91.381L238.976 89.3128C236.882 85.0491 234.999 84.3955 224.222 84.1897L215.917 84.0306V110.567ZM171.5 91.1015C173.262 92.7023 173.421 94.5252 173.294 111.817C173.188 126.344 173.14 127.296 172.435 128.698C170.857 131.838 166.539 131.843 164.97 128.705C164.072 126.908 163.607 97.8627 164.415 93.9716C165.192 90.2266 168.889 88.729 171.5 91.1015ZM201.097 90.8267C202.962 92.294 203.041 93.099 203.041 110.603C203.041 126.463 203.022 126.879 202.233 128.587C200.767 131.758 196.632 131.923 194.844 128.882C193.859 127.205 193.642 94.6657 194.601 92.3926C195.554 90.1342 199.123 89.274 201.097 90.8267ZM230.726 92.1674C232.22 93.283 232.652 95.1711 232.683 100.712C232.728 108.856 232.027 109.965 226.712 110.174L223.383 110.304V100.711V91.1178L226.528 91.2498C229.007 91.353 229.896 91.5479 230.726 92.1674Z" fill="white"/>
<path fill-rule="evenodd" clip-rule="evenodd" d="M176.986 38.2249C108.354 42.3808 54.7603 101.442 59.6661 167.512C60.3774 177.084 63.5677 180.468 69.3124 177.742C72.4273 176.265 72.4805 176.005 72.5153 162.265C72.6274 117.76 95.6776 81.1516 135.561 62.1363C204.32 29.3547 286.334 71.3999 296.846 144.821C297.552 149.758 298.421 164.104 298.013 164.104C297.903 164.104 293.434 162.641 288.081 160.852C274.712 156.384 271.02 156.71 268.508 162.579C266.533 167.197 266.66 167.433 283.592 190.564C299.414 212.18 299.639 212.421 304.013 212.425C308.719 212.43 308.611 212.544 324.374 190.997C341.875 167.075 341.625 167.53 339.86 162.857C337.539 156.714 333.513 156.299 320.374 160.852C315.211 162.641 310.903 164.104 310.802 164.104C310.699 164.104 310.616 161.119 310.616 157.47C310.616 99.931 265.63 49.2378 206.012 39.5935C200.826 38.7546 187.156 37.6228 184.232 37.79C183.593 37.8268 180.332 38.022 176.986 38.2249ZM296.57 171.54C298.699 172.837 299.352 174.418 298.377 175.906L297.622 177.058L296.255 175.692C294.486 173.923 292.914 173.927 291.418 175.704C287.146 180.781 291.727 190.501 296.255 185.971L297.622 184.605L298.377 185.757C300.548 189.072 294.725 192.447 291.054 190.002C283.172 184.753 288.577 166.666 296.57 171.54ZM309.399 172.017C313.33 175.468 313.637 184.798 309.959 188.995C305.68 193.876 299.939 189.198 299.939 180.832C299.939 172.831 304.978 168.136 309.399 172.017ZM303.964 175.704C300.264 180.101 303.412 189.424 307.658 186.642C310.723 184.633 311.013 178.396 308.182 175.373C306.839 173.939 305.35 174.057 303.964 175.704ZM319.445 178.044C320.901 179.501 320.707 183.081 318.987 186.467L317.6 189.195H319.251C320.777 189.195 320.89 189.292 320.753 190.474C320.611 191.711 320.507 191.755 317.47 191.888C313.532 192.061 313.441 191.596 316.458 186.707C318.076 184.085 318.547 182.9 318.433 181.736C318.244 179.814 317.306 179.454 316.589 181.027C315.736 182.899 314.169 182.656 314.579 180.715C315.243 177.58 317.656 176.255 319.445 178.044ZM131.009 183.366C130.382 183.993 129.868 184.943 129.868 185.478C129.868 186.012 130.382 186.963 131.009 187.591C131.636 188.218 132.587 188.731 133.121 188.731C133.655 188.731 134.606 188.218 135.233 187.591C135.86 186.963 136.374 186.012 136.374 185.478C136.374 182.812 132.921 181.454 131.009 183.366ZM134.768 183.831C136.188 185.251 136.192 185.702 134.798 187.096C133.666 188.228 132.188 188.26 131.35 187.17C129.279 184.476 132.382 181.445 134.768 183.831ZM132.228 185.595C132.249 186.425 132.373 186.835 132.506 186.504C132.676 186.08 132.917 186.045 133.327 186.386C133.77 186.754 133.918 186.535 133.949 185.476C133.979 184.396 133.786 184.084 133.09 184.084C132.378 184.084 132.199 184.398 132.228 185.595ZM65.2958 191.271C64.2781 192.495 70.5968 210.569 72.0417 210.569C73.359 210.569 73.6373 210.099 75.9443 203.954C76.9069 201.39 77.8018 199.477 77.9314 199.703C78.0609 199.929 78.9442 202.466 79.8942 205.342C82.6216 213.594 83.0372 213.357 87.8067 200.805C91.0985 192.142 91.316 190.821 89.4516 190.821C88.4204 190.821 88.1286 191.28 86.7049 195.137C84.9073 200.006 84.9121 200.006 83.4402 195.235C82.0582 190.754 81.9006 190.588 79.0486 190.596C75.9037 190.606 75.6611 190.84 75.6804 193.842C75.6901 195.247 75.377 197.13 74.9836 198.024L74.2694 199.65L72.9666 195.7C72.2495 193.529 71.457 191.489 71.2038 191.17C70.5446 190.337 66.0061 190.414 65.2958 191.271ZM93.0256 190.879C91.6958 192.209 97.8773 210.264 99.7368 210.479C100.91 210.616 101.074 210.353 103.188 204.948L105.406 199.275L107.299 204.806C109.564 211.426 110.902 212.42 112.429 208.619C117.037 197.157 118.745 191.813 118.034 191.101C116.633 189.7 116.13 190.45 112.927 198.72C112.648 199.441 112.24 198.658 111.111 195.235L109.657 190.821H106.636H103.616L103.608 192.913C103.603 194.743 102.843 197.841 102.076 199.163C101.935 199.407 101.178 197.629 100.394 195.213L98.9694 190.821L96.1628 190.686C94.6184 190.611 93.2073 190.698 93.0256 190.879ZM120.787 191.171C120.66 191.505 120.612 195.953 120.681 201.057L120.808 210.336L123.785 210.478C127.461 210.651 127.529 210.558 127.538 205.363L127.545 201.318L130.681 201.181C133.68 201.05 133.818 200.993 133.818 199.882C133.818 198.772 133.68 198.715 130.681 198.583L127.545 198.446V195.912V193.377H131.99H136.436L136.289 192.099L136.141 190.821L128.58 190.694C122.704 190.594 120.968 190.701 120.787 191.171ZM141.019 195.235V198.953H142.414C143.343 198.953 143.808 198.72 143.808 198.256C143.808 197.869 143.395 197.559 142.879 197.559C142.045 197.559 141.949 197.249 141.949 194.539C141.949 192.835 141.746 191.518 141.484 191.518C141.214 191.518 141.019 193.068 141.019 195.235ZM147.47 191.986C147.056 192.228 146.456 193.058 146.136 193.831C144.619 197.493 149.169 200.604 151.96 197.813C154.959 194.814 151.131 189.847 147.47 191.986ZM154.96 191.888C154.96 192.133 155.296 193.823 155.707 195.643C156.586 199.536 157.388 199.888 158.225 196.746L158.812 194.539L159.476 196.773C160.511 200.259 161.33 199.26 162.542 193.029C162.761 191.898 162.67 191.518 162.178 191.518C161.756 191.518 161.41 192.264 161.209 193.605C160.839 196.073 160.309 195.985 159.894 193.387C159.544 191.197 158.38 190.844 157.945 192.796C157.252 195.909 157.137 196.002 156.607 193.876C156.16 192.087 154.96 190.637 154.96 191.888ZM169.575 192.659C166.487 195.747 170.711 200.896 174.224 198.326C175.551 197.356 174.751 196.606 173.067 197.242C171.295 197.911 170.12 197.265 169.911 195.509C169.651 193.325 172.346 191.899 173.865 193.417C174.228 193.782 174.469 193.761 174.725 193.347C175.84 191.544 171.297 190.937 169.575 192.659ZM179.357 192.099C179.248 192.419 178.732 193.83 178.21 195.235C177.689 196.642 177.263 198.053 177.263 198.373C177.262 199.296 178.1 199.045 178.424 198.024C178.844 196.701 181.115 196.774 182.033 198.14C183.361 200.114 183.413 198.529 182.134 195.026C180.939 191.748 179.866 190.618 179.357 192.099ZM185.626 195.275C185.626 199.195 186.528 200.377 187.02 197.102L187.252 195.555L188.058 197.254C188.501 198.189 189.076 198.953 189.336 198.953C189.954 198.953 189.932 198.341 189.263 196.872C188.846 195.956 188.846 195.548 189.263 195.13C190.752 193.641 189.516 191.518 187.16 191.518H185.626V195.275ZM192.228 195.119C192.36 198.644 192.39 198.723 193.613 198.865C195.177 199.046 197.009 197.391 196.512 196.245C196.327 195.818 196.136 194.77 196.089 193.917C195.993 192.168 195.28 191.536 193.389 191.526L192.092 191.518L192.228 195.119ZM199.599 192.743C196.807 196.294 200.87 200.752 204.382 197.99C205.316 197.255 205.606 196.614 205.606 195.283C205.606 191.837 201.633 190.158 199.599 192.743ZM208.026 195.083C208.189 199.361 209.324 200.651 209.324 196.558V194.086L210.962 196.52C213.164 199.79 213.505 199.618 213.505 195.235C213.505 191.117 212.705 190.113 212.484 193.954L212.344 196.389L210.785 193.954C208.517 190.41 207.858 190.679 208.026 195.083ZM221.348 191.986C220.935 192.228 220.335 193.058 220.015 193.831C218.497 197.493 223.048 200.604 225.84 197.813C228.838 194.814 225.009 189.847 221.348 191.986ZM229.303 195.235C229.303 197.404 229.497 198.953 229.767 198.953C230.023 198.953 230.232 198.221 230.232 197.327C230.232 195.902 230.376 195.7 231.394 195.7C232.838 195.7 232.969 194.432 231.547 194.223C230.059 194.004 229.9 192.913 231.355 192.913C232.112 192.913 232.556 192.655 232.556 192.215C232.556 191.729 232.066 191.518 230.929 191.518H229.303V195.235ZM234.879 195.275C234.879 199.095 235.856 200.515 236.186 197.175C236.295 196.076 236.562 195.7 237.231 195.7C237.726 195.7 238.131 195.387 238.131 195.003C238.131 194.616 237.718 194.307 237.202 194.307C236.686 194.307 236.273 193.996 236.273 193.61C236.273 193.222 236.686 192.913 237.202 192.913C237.718 192.913 238.131 192.603 238.131 192.215C238.131 191.729 237.641 191.518 236.505 191.518H234.879V195.275ZM240.454 195.275C240.454 198.072 240.602 198.981 241.035 198.838C241.973 198.528 242.102 191.518 241.171 191.518C240.585 191.518 240.454 192.201 240.454 195.275ZM245.188 192.466C242.98 194.524 244.57 198.953 247.517 198.953C248.813 198.953 250.212 198.101 250.212 197.31C250.212 196.534 249.48 196.399 249.05 197.095C248.563 197.883 246.683 197.608 245.786 196.615C244.262 194.933 245.334 193.156 247.906 193.098C250.855 193.034 250.957 192.99 249.953 192.231C248.652 191.247 246.377 191.359 245.188 192.466ZM253 195.235V198.953H254.859C257.042 198.953 257.532 197.714 255.443 197.474C253.543 197.254 253.408 195.7 255.289 195.7C257.095 195.7 257.255 194.432 255.475 194.222C253.666 194.007 253.507 192.913 255.285 192.913C256.248 192.913 256.717 192.685 256.717 192.215C256.717 191.713 256.201 191.518 254.859 191.518H253V195.235ZM151.149 193.471C151.456 193.777 151.707 194.571 151.707 195.235C151.707 197.439 149.356 198.395 147.791 196.829C146.225 195.263 147.181 192.913 149.383 192.913C150.048 192.913 150.843 193.163 151.149 193.471ZM188.555 193.603C188.605 193.855 188.281 194.132 187.833 194.218C187.325 194.316 187.02 194.088 187.02 193.61C187.02 192.801 188.393 192.795 188.555 193.603ZM194.919 193.61C194.919 193.992 194.605 194.307 194.223 194.307C193.839 194.307 193.525 193.992 193.525 193.61C193.525 193.226 193.839 192.913 194.223 192.913C194.605 192.913 194.919 193.226 194.919 193.61ZM203.946 193.643C204.887 194.583 204.873 195.642 203.908 196.709C202.811 197.921 201.125 197.778 200.219 196.397C198.696 194.073 201.962 191.658 203.946 193.643ZM225.029 193.471C225.335 193.777 225.585 194.571 225.585 195.235C225.585 197.439 223.235 198.395 221.669 196.829C220.104 195.263 221.06 192.913 223.263 192.913C223.927 192.913 224.721 193.163 225.029 193.471ZM180.972 195.584C180.976 195.904 180.666 196.165 180.282 196.165C179.582 196.165 179.312 194.735 179.902 194.144C180.265 193.782 180.962 194.719 180.972 195.584ZM195.151 196.63C195.151 197.006 194.785 197.385 194.339 197.471C193.767 197.58 193.525 197.33 193.525 196.63C193.525 195.93 193.767 195.679 194.339 195.789C194.785 195.875 195.151 196.253 195.151 196.63ZM141.696 204.74C138.4 208.035 143.102 213.259 146.508 210.086C148.02 208.678 147.913 205.831 146.3 204.563C144.677 203.285 143.09 203.346 141.696 204.74ZM150.158 203.909C149.468 204.599 149.818 211.034 150.545 211.034C151.032 211.034 151.242 210.543 151.242 209.408C151.242 208.151 151.432 207.781 152.079 207.781C153.998 207.781 154.797 204.973 153.131 204.08C152.111 203.534 150.618 203.448 150.158 203.909ZM156.663 203.909C156.493 204.08 156.353 205.752 156.353 207.626V211.034H158.212C159.554 211.034 160.07 210.84 160.07 210.336C160.07 209.903 159.632 209.64 158.909 209.64C158.057 209.64 157.747 209.392 157.747 208.711C157.747 208.029 158.057 207.781 158.909 207.781C159.632 207.781 160.07 207.518 160.07 207.084C160.07 206.65 159.632 206.387 158.909 206.387C158.186 206.387 157.747 206.124 157.747 205.691C157.747 205.257 158.186 204.994 158.909 204.994C159.632 204.994 160.07 204.73 160.07 204.296C160.07 203.581 157.305 203.267 156.663 203.909ZM162.703 203.909C162.014 204.599 162.363 211.034 163.091 211.034C163.583 211.034 163.793 210.521 163.808 209.292L163.829 207.549L164.748 209.292C165.255 210.249 165.982 211.034 166.366 211.034C166.976 211.034 166.97 210.852 166.316 209.586C165.777 208.546 165.709 207.998 166.071 207.635C166.91 206.796 166.668 204.61 165.677 204.08C164.656 203.534 163.164 203.448 162.703 203.909ZM170.068 207.106C168.83 210.5 168.813 212.121 170.034 210.452C170.77 209.444 173.34 209.364 173.713 210.336C173.86 210.72 174.29 211.034 174.669 211.034C175.258 211.034 175.27 210.817 174.759 209.524C174.429 208.693 173.795 207.02 173.35 205.807C172.232 202.761 171.554 203.029 170.068 207.106ZM176.798 204.247C176.798 204.602 177.111 205.014 177.495 205.161C178.008 205.358 178.192 206.169 178.192 208.231C178.192 209.79 178.398 211.034 178.657 211.034C178.919 211.034 179.121 209.717 179.121 208.014C179.121 205.638 179.27 204.994 179.818 204.994C180.201 204.994 180.515 204.68 180.515 204.296C180.515 203.793 179.999 203.599 178.657 203.599C177.378 203.599 176.798 203.801 176.798 204.247ZM182.374 207.278C182.374 210.352 182.503 211.034 183.09 211.034C184.021 211.034 183.892 204.024 182.954 203.714C182.522 203.571 182.374 204.481 182.374 207.278ZM187.315 204.563C184.739 206.589 186.335 211.034 189.641 211.034C192.743 211.034 194.197 207.018 191.92 204.74C190.526 203.346 188.939 203.285 187.315 204.563ZM195.383 207.316C195.383 211.681 196.606 212.924 196.869 208.827L197.01 206.619L198.403 208.826C200.446 212.058 200.96 211.747 200.96 207.278C200.96 203.027 199.976 202.207 199.565 206.117L199.333 208.33L197.958 205.965C195.96 202.529 195.383 202.832 195.383 207.316ZM207.464 207.316C207.464 210.938 208.189 212.525 208.481 209.542C208.593 208.39 208.891 207.989 209.787 207.781C212.323 207.194 211.248 203.599 208.537 203.599C207.506 203.599 207.464 203.743 207.464 207.316ZM213.969 207.316C213.969 209.485 214.164 211.034 214.434 211.034C214.689 211.034 214.899 210.407 214.899 209.64C214.899 208.873 215.083 208.246 215.307 208.246C215.532 208.246 215.975 208.873 216.293 209.64C216.611 210.407 217.159 211.034 217.511 211.034C218.312 211.034 218.311 210.83 217.498 209.26C216.937 208.174 216.937 207.871 217.498 207.104C218.625 205.562 217.299 203.599 215.131 203.599C213.989 203.599 213.969 203.661 213.969 207.316ZM221.235 204.825C219.659 206.4 219.627 208.37 221.15 209.894C223.948 212.691 228.24 209.974 226.993 206.195C226.111 203.524 223.223 202.836 221.235 204.825ZM230.444 204.74C228.161 207.023 229.676 211.034 232.821 211.034C234.621 211.034 236.273 209.7 236.273 208.246C236.273 207.494 235.963 207.316 234.646 207.316C233.51 207.316 233.02 207.527 233.02 208.014C233.02 208.407 233.436 208.711 233.977 208.711C234.503 208.711 234.805 208.92 234.646 209.176C234.061 210.122 231.674 209.68 230.886 208.478C229.443 206.275 231.944 204.137 234.417 205.46C235.631 206.109 236.215 205.046 235.093 204.226C233.748 203.243 231.716 203.468 230.444 204.74ZM239.061 207.316C239.061 209.485 239.254 211.034 239.526 211.034C239.781 211.034 239.99 210.407 239.99 209.64C239.99 208.873 240.173 208.246 240.398 208.246C240.623 208.246 241.066 208.873 241.384 209.64C241.701 210.407 242.249 211.034 242.602 211.034C243.403 211.034 243.401 210.83 242.589 209.26C242.028 208.174 242.028 207.871 242.589 207.104C243.716 205.562 242.389 203.599 240.223 203.599C239.08 203.599 239.061 203.661 239.061 207.316ZM247.688 204.012C247.36 204.545 245.101 210.479 245.101 210.812C245.101 210.934 245.414 211.034 245.798 211.034C246.182 211.034 246.495 210.72 246.495 210.336C246.495 209.849 246.987 209.64 248.136 209.64C249.165 209.64 249.877 209.9 250.044 210.336C250.192 210.72 250.599 211.034 250.951 211.034C251.437 211.034 251.28 210.177 250.296 207.463C249.051 204.029 248.296 203.03 247.688 204.012ZM254.177 205.08C254.029 205.926 253.73 207.613 253.513 208.827C253.215 210.503 253.261 211.034 253.707 211.034C254.038 211.034 254.476 210.073 254.713 208.827L255.133 206.619L255.847 208.711C256.836 211.605 257.832 211.656 258.599 208.849L259.208 206.619L259.667 208.827C259.923 210.06 260.386 211.034 260.715 211.034C261.307 211.034 261.295 210.778 260.476 205.691C260.063 203.129 259.023 203.287 258.169 206.039C257.317 208.779 257.123 208.782 256.252 206.065C255.4 203.401 254.543 202.994 254.177 205.08ZM263.935 205.08C263.786 205.926 263.487 207.613 263.271 208.827C262.972 210.503 263.019 211.034 263.464 211.034C263.796 211.034 264.233 210.073 264.471 208.827L264.891 206.619L265.605 208.711C266.595 211.605 267.59 211.656 268.356 208.849L268.965 206.619L269.424 208.827C269.68 210.06 270.143 211.034 270.473 211.034C271.064 211.034 271.053 210.778 270.233 205.691C269.821 203.129 268.781 203.287 267.926 206.039C267.075 208.779 266.881 208.782 266.01 206.065C265.157 203.401 264.3 202.994 263.935 205.08ZM273.445 207.288V211.034H275.303C276.646 211.034 277.162 210.84 277.162 210.336C277.162 209.873 276.697 209.64 275.768 209.64C274.684 209.64 274.374 209.434 274.374 208.711C274.374 207.988 274.684 207.781 275.768 207.781C276.697 207.781 277.162 207.549 277.162 207.084C277.162 206.619 276.697 206.387 275.768 206.387C274.838 206.387 274.374 206.155 274.374 205.691C274.374 205.222 274.842 204.994 275.807 204.994C277.854 204.994 277.289 203.868 275.151 203.687L273.445 203.543V207.288ZM145.912 205.937C147.206 207.367 146.378 209.359 144.409 209.551C143.252 209.664 142.769 209.439 142.157 208.506C140.535 206.031 143.908 203.723 145.912 205.937ZM152.787 205.299C153.139 205.651 152.259 206.852 151.65 206.852C151.425 206.852 151.242 206.434 151.242 205.923C151.242 205.03 152.151 204.663 152.787 205.299ZM165.446 205.51C165.622 205.794 165.477 206.21 165.125 206.432C164.131 207.062 163.787 206.932 163.787 205.923C163.787 204.931 164.914 204.651 165.446 205.51ZM191.477 206.155C193 208.48 189.734 210.894 187.75 208.91C186.81 207.97 186.823 206.91 187.789 205.843C188.886 204.631 190.572 204.774 191.477 206.155ZM210.02 205.929C210.02 206.925 208.67 206.781 208.474 205.764C208.354 205.144 208.544 204.954 209.165 205.074C209.635 205.164 210.02 205.549 210.02 205.929ZM216.525 205.929C216.525 206.925 215.176 206.781 214.979 205.764C214.86 205.144 215.049 204.954 215.669 205.074C216.14 205.164 216.525 205.549 216.525 205.929ZM225.321 205.723C226.886 207.289 225.929 209.64 223.727 209.64C223.063 209.64 222.268 209.389 221.961 209.082C221.655 208.776 221.404 207.981 221.404 207.316C221.404 205.114 223.755 204.158 225.321 205.723ZM241.616 205.929C241.616 206.925 240.266 206.781 240.07 205.764C239.951 205.144 240.139 204.954 240.761 205.074C241.232 205.164 241.616 205.549 241.616 205.929ZM172.616 207.344C172.616 207.84 172.302 208.246 171.919 208.246C171.169 208.246 171.058 207.821 171.503 206.66C171.866 205.715 172.616 206.176 172.616 207.344ZM249.283 207.87C249.283 208.077 248.842 208.246 248.304 208.246C247.602 208.246 247.404 208.038 247.607 207.511C247.762 207.106 247.895 206.531 247.904 206.233C247.919 205.64 249.283 207.258 249.283 207.87Z" fill="white"/>
</svg>
