<svg width="400" height="251" viewBox="0 0 400 251" fill="none" xmlns="http://www.w3.org/2000/svg">
<path d="M116.555 164.496C117.336 166.673 116.22 169.074 114.042 169.856C111.865 170.637 109.464 169.521 108.683 167.343C107.901 165.166 109.018 162.765 111.195 161.984C113.317 161.202 115.717 162.319 116.555 164.496Z" fill="white"/>
<path d="M111.921 154.837C112.535 156.456 111.642 158.242 110.023 158.856C108.404 159.47 106.617 158.633 106.003 156.958C105.389 155.339 106.226 153.553 107.901 152.938C109.52 152.38 111.307 153.218 111.921 154.837Z" fill="white"/>
<path d="M119.346 175.326C119.96 176.945 119.123 178.731 117.448 179.346C115.829 179.96 114.042 179.066 113.428 177.447C112.87 175.828 113.652 174.042 115.326 173.428C116.945 172.814 118.732 173.651 119.346 175.326Z" fill="white"/>
<path d="M121.635 184.604C122.026 185.72 121.468 186.949 120.351 187.339C119.234 187.73 118.006 187.172 117.615 186.055C117.224 184.939 117.783 183.71 118.899 183.32C120.016 182.929 121.244 183.487 121.635 184.604Z" fill="white"/>
<path d="M137.435 143.179C139.444 144.351 140.114 146.919 138.998 148.929C137.825 150.939 135.313 151.609 133.303 150.436C131.293 149.264 130.623 146.752 131.796 144.742C132.912 142.732 135.425 142.062 137.435 143.179Z" fill="white"/>
<path d="M127.721 138.815C129.228 139.653 129.73 141.607 128.893 143.114C128 144.622 126.102 145.124 124.594 144.287C123.087 143.449 122.584 141.495 123.422 139.988C124.315 138.425 126.213 137.922 127.721 138.815Z" fill="white"/>
<path d="M146.591 149.646C148.098 150.539 148.601 152.437 147.763 153.944C146.926 155.452 144.972 155.954 143.464 155.117C141.957 154.224 141.454 152.325 142.292 150.818C143.129 149.311 145.027 148.808 146.591 149.646Z" fill="white"/>
<path d="M154.295 155.285C155.3 155.899 155.691 157.183 155.077 158.188C154.519 159.193 153.179 159.528 152.174 158.969C151.169 158.355 150.834 157.071 151.392 156.066C152.006 155.061 153.29 154.726 154.295 155.285Z" fill="white"/>
<path d="M141.231 128.538C143.52 128.929 145.028 131.106 144.637 133.395C144.246 135.684 142.069 137.192 139.78 136.801C137.491 136.41 135.983 134.233 136.43 131.944C136.821 129.655 138.998 128.147 141.231 128.538Z" fill="white"/>
<path d="M130.568 127.707C132.243 127.986 133.415 129.661 133.08 131.336C132.801 133.011 131.126 134.183 129.451 133.904C127.776 133.625 126.604 131.95 126.939 130.275C127.274 128.544 128.893 127.428 130.568 127.707Z" fill="white"/>
<path d="M152.006 131.504C153.681 131.839 154.854 133.458 154.574 135.133C154.295 136.863 152.676 137.98 150.946 137.645C149.215 137.366 148.098 135.691 148.377 134.016C148.712 132.341 150.331 131.225 152.006 131.504Z" fill="white"/>
<path d="M161.218 134.133C162.39 134.357 163.116 135.417 162.949 136.59C162.725 137.762 161.609 138.544 160.492 138.32C159.32 138.097 158.538 137.036 158.761 135.864C158.985 134.692 160.046 133.966 161.218 134.133Z" fill="white"/>
<path d="M133.303 99.7912C135.313 98.6188 137.881 99.3446 138.998 101.299C140.17 103.308 139.444 105.821 137.49 106.993C135.481 108.166 132.912 107.44 131.796 105.43C130.623 103.476 131.293 100.908 133.303 99.7912Z" fill="white"/>
<path d="M124.594 105.997C126.101 105.16 128 105.662 128.893 107.17C129.786 108.677 129.228 110.575 127.72 111.468C126.213 112.306 124.315 111.803 123.422 110.296C122.528 108.789 123.087 106.89 124.594 105.997Z" fill="white"/>
<path d="M143.464 95.1065C144.972 94.2691 146.87 94.7716 147.763 96.279C148.601 97.7864 148.098 99.6846 146.591 100.578C145.083 101.415 143.185 100.913 142.292 99.4054C141.454 97.898 141.957 95.9998 143.464 95.1065Z" fill="white"/>
<path d="M152.174 91.1986C153.179 90.6403 154.519 90.9753 155.077 91.9802C155.635 92.9852 155.3 94.3251 154.295 94.8834C153.29 95.4975 152.006 95.1067 151.392 94.1018C150.834 93.0968 151.169 91.8128 152.174 91.1986Z" fill="white"/>
<path d="M122.473 89.1342C123.98 87.3477 126.604 87.1244 128.39 88.6318C130.121 90.1391 130.4 92.7631 128.893 94.5497C127.386 96.2804 124.762 96.5037 123.031 95.0521C121.244 93.5447 121.021 90.9208 122.473 89.1342Z" fill="white"/>
<path d="M116.443 98.0113C117.56 96.6714 119.514 96.5039 120.853 97.6205C122.193 98.737 122.361 100.691 121.244 102.031C120.128 103.315 118.174 103.538 116.834 102.422C115.494 101.305 115.326 99.2953 116.443 98.0113Z" fill="white"/>
<path d="M130.456 81.3056C131.573 80.0215 133.527 79.7982 134.867 80.9148C136.207 82.0314 136.374 83.9854 135.257 85.3253C134.141 86.6652 132.187 86.8327 130.847 85.7161C129.507 84.5995 129.34 82.6455 130.456 81.3056Z" fill="white"/>
<path d="M137.323 74.6696C138.105 73.7763 139.445 73.6647 140.338 74.3905C141.231 75.1162 141.343 76.512 140.617 77.4052C139.835 78.2985 138.496 78.4102 137.602 77.6844C136.709 76.9028 136.541 75.5629 137.323 74.6696Z" fill="white"/>
<path d="M108.683 82.8787C109.464 80.7014 111.865 79.5848 114.042 80.3664C116.22 81.148 117.336 83.5487 116.555 85.726C115.773 87.9034 113.372 89.0199 111.195 88.1825C109.018 87.4009 107.901 85.0561 108.683 82.8787Z" fill="white"/>
<path d="M106.059 93.2038C106.673 91.5847 108.459 90.7473 110.078 91.3056C111.698 91.9197 112.535 93.7062 111.977 95.3253C111.363 96.9443 109.576 97.7818 107.957 97.2235C106.282 96.6652 105.445 94.8228 106.059 93.2038Z" fill="white"/>
<path d="M113.484 72.7741C114.098 71.155 115.885 70.3176 117.504 70.8759C119.123 71.49 119.96 73.2765 119.402 74.8956C118.788 76.5146 117.001 77.3521 115.382 76.7938C113.707 76.1797 112.926 74.3931 113.484 72.7741Z" fill="white"/>
<path d="M117.671 64.174C118.062 63.0575 119.29 62.4992 120.407 62.89C121.523 63.2808 122.082 64.509 121.691 65.6256C121.3 66.7422 120.072 67.3005 118.955 66.9097C117.839 66.463 117.28 65.2906 117.671 64.174Z" fill="white"/>
<path d="M93.6089 81.6481C93.6089 79.3591 95.5071 77.4609 97.7961 77.4609C100.085 77.4609 101.983 79.3033 101.983 81.6481C101.983 83.9371 100.085 85.8353 97.7961 85.8353C95.4512 85.8353 93.6089 83.993 93.6089 81.6481Z" fill="white"/>
<path d="M94.6138 92.3139C94.6138 90.5832 96.0095 89.1875 97.7402 89.1875C99.4709 89.1875 100.867 90.5832 100.867 92.3139C100.867 94.0446 99.4709 95.4404 97.7402 95.4404C96.0095 95.4962 94.6138 94.0446 94.6138 92.3139Z" fill="white"/>
<path d="M94.6135 70.5327C94.6135 68.802 96.0093 67.4062 97.74 67.4062C99.4707 67.4062 100.866 68.802 100.866 70.5327C100.866 72.2634 99.4707 73.6591 97.74 73.6591C96.0651 73.6591 94.6694 72.2634 94.6135 70.5327Z" fill="white"/>
<path d="M95.6187 61.0434C95.6187 59.871 96.5678 58.9219 97.7402 58.9219C98.9126 58.9219 99.8617 59.871 99.8617 61.0434C99.8617 62.2158 98.9126 63.1649 97.7402 63.1649C96.5678 63.1649 95.6187 62.2158 95.6187 61.0434Z" fill="white"/>
<path d="M101.927 168.515C101.927 170.804 100.085 172.703 97.7402 172.703C95.4512 172.703 93.553 170.804 93.553 168.515C93.553 166.226 95.3953 164.328 97.7402 164.328C100.029 164.384 101.927 166.226 101.927 168.515Z" fill="white"/>
<path d="M100.867 157.853C100.867 159.584 99.4709 160.979 97.7402 160.979C96.0095 160.979 94.6138 159.584 94.6138 157.853C94.6138 156.122 96.0095 154.727 97.7402 154.727C99.4709 154.727 100.867 156.122 100.867 157.853Z" fill="white"/>
<path d="M100.867 179.626C100.867 181.357 99.4709 182.753 97.7402 182.753C96.0095 182.753 94.6138 181.357 94.6138 179.626C94.6138 177.896 96.0095 176.5 97.7402 176.5C99.4709 176.5 100.867 177.896 100.867 179.626Z" fill="white"/>
<path d="M99.8617 189.168C99.8617 190.341 98.9126 191.29 97.7402 191.29C96.5678 191.29 95.6187 190.341 95.6187 189.168C95.6187 187.996 96.5678 187.047 97.7402 187.047C98.9126 187.047 99.8617 187.996 99.8617 189.168Z" fill="white"/>
<path d="M128.893 155.685C130.4 157.471 130.121 160.095 128.39 161.603C126.604 163.054 123.98 162.831 122.528 161.1C121.077 159.314 121.3 156.69 123.031 155.238C124.761 153.731 127.385 153.954 128.893 155.685Z" fill="white"/>
<path d="M121.188 148.199C122.305 149.539 122.137 151.493 120.797 152.609C119.457 153.726 117.503 153.558 116.387 152.218C115.27 150.879 115.438 148.925 116.778 147.808C118.118 146.691 120.072 146.859 121.188 148.199Z" fill="white"/>
<path d="M135.257 164.886C136.374 166.226 136.206 168.18 134.866 169.297C133.527 170.413 131.573 170.246 130.456 168.906C129.339 167.566 129.507 165.612 130.847 164.495C132.131 163.379 134.085 163.546 135.257 164.886Z" fill="white"/>
<path d="M140.561 172.81C141.287 173.704 141.231 175.043 140.282 175.825C139.389 176.551 138.049 176.439 137.267 175.546C136.486 174.653 136.597 173.313 137.546 172.531C138.495 171.805 139.78 171.917 140.561 172.81Z" fill="white"/>
<path d="M139.78 113.476C142.069 113.085 144.246 114.592 144.637 116.881C145.028 119.17 143.52 121.292 141.231 121.738C138.942 122.129 136.821 120.622 136.43 118.333C136.039 116.044 137.546 113.866 139.78 113.476Z" fill="white"/>
<path d="M129.507 116.316C131.181 116.037 132.856 117.154 133.135 118.829C133.415 120.559 132.298 122.178 130.567 122.457C128.892 122.737 127.218 121.62 126.938 119.889C126.659 118.27 127.776 116.651 129.507 116.316Z" fill="white"/>
<path d="M150.945 112.582C152.62 112.303 154.239 113.419 154.574 115.15C154.853 116.881 153.737 118.5 152.006 118.779C150.331 119.058 148.656 117.941 148.377 116.266C148.098 114.48 149.215 112.861 150.945 112.582Z" fill="white"/>
<path d="M160.492 111.905C161.664 111.682 162.781 112.464 162.948 113.636C163.172 114.808 162.39 115.925 161.218 116.092C160.045 116.316 158.929 115.534 158.761 114.362C158.594 113.189 159.32 112.073 160.492 111.905Z" fill="white"/>
<path d="M78.9814 85.726C78.1998 83.5487 79.3164 81.148 81.4937 80.3664C83.6711 79.5848 86.0717 80.7014 86.8533 82.8787C87.6349 85.0561 86.5184 87.4567 84.341 88.2383C82.1637 88.9641 79.763 87.9034 78.9814 85.726Z" fill="white"/>
<path d="M83.6151 95.3864C83.0568 93.7674 83.8943 91.9808 85.5133 91.3667C87.1324 90.7526 88.9189 91.6459 89.533 93.2649C90.1472 94.884 89.2539 96.6705 87.6348 97.2846C86.0158 97.8429 84.1734 97.0055 83.6151 95.3864Z" fill="white"/>
<path d="M76.19 74.8933C75.5759 73.2743 76.4133 71.4877 78.0324 70.8736C79.6514 70.2595 81.4938 71.0969 82.0521 72.716C82.6104 74.335 81.7729 76.1215 80.1539 76.7357C78.5348 77.3498 76.7483 76.5123 76.19 74.8933Z" fill="white"/>
<path d="M73.845 65.6256C73.4542 64.509 74.0125 63.2808 75.1291 62.89C76.2457 62.4992 77.4739 63.0575 77.8647 64.174C78.2555 65.2906 77.6973 66.5189 76.5807 66.9097C75.4641 67.3005 74.2358 66.7422 73.845 65.6256Z" fill="white"/>
<path d="M66.6428 94.5412C65.1354 92.7547 65.4145 90.1307 67.1452 88.6792C68.9318 87.2276 71.5557 87.3951 73.0073 89.1816C74.5147 90.9682 74.2355 93.5921 72.5048 95.0437C70.7741 96.4953 68.1502 96.2719 66.6428 94.5412Z" fill="white"/>
<path d="M74.2919 101.968C73.1753 100.684 73.3428 98.6745 74.6827 97.558C76.0226 96.4414 77.9766 96.6089 79.0932 97.9488C80.2097 99.2328 80.0423 101.243 78.7024 102.359C77.3625 103.532 75.4084 103.308 74.2919 101.968Z" fill="white"/>
<path d="M60.2784 85.3357C59.1618 83.9958 59.3293 82.0417 60.6692 80.9252C62.0091 79.8086 63.9632 79.9761 65.0797 81.316C66.1963 82.6559 66.0288 84.6099 64.6889 85.7265C63.4049 86.7872 61.395 86.6197 60.2784 85.3357Z" fill="white"/>
<path d="M54.919 77.3427C54.1374 76.4495 54.3049 75.1096 55.1982 74.328C56.0915 73.6022 57.4314 73.7138 58.213 74.6071C58.9946 75.5004 58.8271 76.8403 57.9338 77.6219C57.0406 78.4035 55.7006 78.2918 54.919 77.3427Z" fill="white"/>
<path d="M58.0452 106.999C56.0354 105.826 55.3654 103.258 56.5378 101.304C57.7103 99.2944 60.2226 98.6244 62.2324 99.741C64.1864 100.913 64.9122 103.482 63.7398 105.436C62.6232 107.445 60.0551 108.171 58.0452 106.999Z" fill="white"/>
<path d="M67.8157 111.413C66.3083 110.575 65.8058 108.621 66.6991 107.17C67.5366 105.662 69.4906 105.16 70.998 105.997C72.5053 106.835 73.0078 108.789 72.1704 110.296C71.2213 111.803 69.3231 112.306 67.8157 111.413Z" fill="white"/>
<path d="M48.9452 100.515C47.4378 99.6221 46.9354 97.7239 47.7728 96.2165C48.6661 94.7091 50.5643 94.2066 52.0717 95.044C53.579 95.9373 54.0815 97.8355 53.2441 99.3429C52.3508 100.906 50.4526 101.409 48.9452 100.515Z" fill="white"/>
<path d="M41.185 94.8834C40.1801 94.3251 39.7893 92.9852 40.4034 91.9802C40.9617 90.9753 42.3016 90.6403 43.3065 91.1986C44.3114 91.8128 44.6464 93.0968 44.0881 94.1018C43.5298 95.1625 42.2457 95.4975 41.185 94.8834Z" fill="white"/>
<path d="M54.2489 121.676C51.9599 121.285 50.4526 119.108 50.8434 116.819C51.2342 114.53 53.4115 113.022 55.7005 113.413C57.9895 113.804 59.4969 115.981 59.0503 118.27C58.6595 120.559 56.5379 122.067 54.2489 121.676Z" fill="white"/>
<path d="M64.9124 122.457C63.2375 122.178 62.0651 120.559 62.4001 118.828C62.6792 117.153 64.2983 115.981 66.029 116.26C67.7038 116.539 68.8762 118.214 68.5971 119.889C68.2621 121.675 66.6431 122.792 64.9124 122.457Z" fill="white"/>
<path d="M43.474 118.716C41.7992 118.381 40.6267 116.818 40.9059 115.087C41.2409 113.357 42.8599 112.24 44.5348 112.519C46.2655 112.854 47.3821 114.473 47.0471 116.148C46.8238 117.879 45.2047 118.995 43.474 118.716Z" fill="white"/>
<path d="M34.2622 116.03C33.0898 115.807 32.3082 114.69 32.5315 113.574C32.699 112.401 33.8156 111.619 34.988 111.843C36.1604 112.066 36.8862 113.127 36.7187 114.299C36.5512 115.472 35.4346 116.253 34.2622 116.03Z" fill="white"/>
<path d="M55.7007 136.754C53.4117 137.145 51.2344 135.637 50.8436 133.348C50.4528 131.059 51.9602 128.882 54.2492 128.491C56.5382 128.101 58.6597 129.608 59.0505 131.897C59.4971 134.186 57.9897 136.363 55.7007 136.754Z" fill="white"/>
<path d="M66.0293 133.849C64.3544 134.128 62.7353 133.012 62.4004 131.281C62.1212 129.606 63.2378 127.931 64.9685 127.652C66.6434 127.373 68.3182 128.489 68.5974 130.22C68.8765 131.951 67.7041 133.57 66.0293 133.849Z" fill="white"/>
<path d="M44.5905 137.638C42.9157 137.917 41.2966 136.801 40.9616 135.07C40.6825 133.339 41.7991 131.72 43.5298 131.441C45.2047 131.162 46.8237 132.279 47.1587 134.009C47.4378 135.74 46.2654 137.359 44.5905 137.638Z" fill="white"/>
<path d="M35.0439 138.311C33.8715 138.535 32.7549 137.753 32.5874 136.581C32.3641 135.408 33.1457 134.292 34.3181 134.124C35.4905 133.901 36.6071 134.682 36.8304 135.855C36.9421 137.027 36.1605 138.088 35.0439 138.311Z" fill="white"/>
<path d="M62.2325 150.43C60.2226 151.602 57.6545 150.876 56.5379 148.922C55.4213 146.913 56.0913 144.344 58.0453 143.172C60.0551 142 62.5674 142.725 63.7399 144.735C64.9123 146.745 64.2423 149.257 62.2325 150.43Z" fill="white"/>
<path d="M70.942 144.179C69.4346 145.073 67.5364 144.514 66.6432 143.007C65.8057 141.5 66.3082 139.601 67.8156 138.708C69.323 137.871 71.2212 138.373 72.1144 139.881C72.9519 141.388 72.4494 143.342 70.942 144.179Z" fill="white"/>
<path d="M52.0717 155.069C50.5643 155.906 48.6661 155.404 47.7728 153.952C46.9354 152.445 47.4378 150.547 48.9452 149.653C50.4526 148.816 52.3508 149.318 53.2441 150.826C54.0815 152.333 53.579 154.231 52.0717 155.069Z" fill="white"/>
<path d="M43.3065 158.969C42.3016 159.528 40.9617 159.193 40.4034 158.188C39.7893 157.183 40.1801 155.843 41.185 155.285C42.2457 154.726 43.474 155.061 44.1439 156.066C44.7022 157.071 44.3672 158.355 43.3065 158.969Z" fill="white"/>
<path d="M73.0634 161.041C71.556 162.771 68.9321 163.051 67.2014 161.543C65.4148 160.092 65.1915 157.412 66.6989 155.681C68.2063 153.895 70.8303 153.671 72.561 155.179C74.2917 156.686 74.515 159.31 73.0634 161.041Z" fill="white"/>
<path d="M79.0931 152.216C77.9765 153.556 76.0225 153.724 74.6826 152.607C73.3985 151.49 73.1752 149.536 74.2918 148.197C75.4083 146.912 77.3624 146.745 78.7023 147.806C80.0422 148.922 80.2097 150.876 79.0931 152.216Z" fill="white"/>
<path d="M65.0797 168.922C63.9632 170.262 62.0091 170.429 60.6692 169.312C59.3293 168.196 59.1618 166.242 60.2784 164.902C61.395 163.562 63.4049 163.395 64.6889 164.511C66.0288 165.628 66.1963 167.582 65.0797 168.922Z" fill="white"/>
<path d="M58.1568 175.561C57.431 176.455 56.0353 176.566 55.142 175.841C54.2488 175.115 54.1371 173.719 54.8629 172.826C55.6445 171.933 56.9844 171.821 57.8777 172.547C58.8267 173.328 58.9384 174.668 58.1568 175.561Z" fill="white"/>
<path d="M86.8533 167.348C86.0717 169.525 83.6152 170.642 81.4937 169.86C79.3164 169.079 78.1998 166.678 78.9814 164.501C79.763 162.323 82.1637 161.207 84.341 162.044C86.4625 162.77 87.5791 165.171 86.8533 167.348Z" fill="white"/>
<path d="M89.4774 156.974C88.9191 158.593 87.1325 159.43 85.4577 158.872C83.8386 158.258 83.0012 156.471 83.6153 154.852C84.1736 153.233 86.016 152.396 87.635 152.954C89.254 153.568 90.0915 155.355 89.4774 156.974Z" fill="white"/>
<path d="M82.0519 177.458C81.4378 179.077 79.6513 179.915 78.0322 179.356C76.4132 178.742 75.5199 176.956 76.1341 175.337C76.7482 173.718 78.5347 172.88 80.1538 173.438C81.7728 173.997 82.6102 175.839 82.0519 177.458Z" fill="white"/>
<path d="M77.8091 186.055C77.4183 187.172 76.19 187.73 75.0734 187.339C73.9569 186.949 73.3986 185.72 73.7894 184.604C74.236 183.487 75.4084 182.929 76.525 183.32C77.6974 183.71 78.1999 184.939 77.8091 186.055Z" fill="white"/>
<path d="M223.244 157.632H194.938V92.3672H222.909C234.242 92.3672 241.221 99.0667 241.221 109.563C241.221 115.09 238.318 120.449 232.679 123.241C239.713 125.697 243.007 131.671 243.007 138.929C243.119 149.592 235.303 157.632 223.244 157.632ZM223.188 126.59H201.415V151.323H223.467C230.669 151.323 236.531 147.024 236.531 138.929C236.587 130.499 231.395 126.59 223.188 126.59ZM201.415 120.393H223.188C228.715 120.393 234.745 117.267 234.745 109.507C234.745 102.137 230.223 98.6201 222.909 98.6201H201.415V120.393Z" fill="white"/>
<path d="M275.388 159.087C261.599 159.087 250.935 150.992 250.935 137.537H257.579C257.579 147.363 265.507 152.834 275.388 152.834C287.113 152.834 293.365 147.81 293.365 139.77C293.365 133.461 290.072 129.721 275.388 127.041C261.878 124.585 252.833 120.342 252.833 109.12C252.833 98.1774 261.766 91.0312 275.388 91.0312C289.96 91.0312 298.111 99.4056 298.111 111.018H291.579C291.579 102.755 285.717 97.2283 275.444 97.2283C265.004 97.2283 259.421 102.085 259.421 108.952C259.421 115.094 263.274 118.22 276.784 120.788C291.188 123.58 299.898 127.655 299.898 139.714C299.898 152.053 290.016 159.087 275.388 159.087Z" fill="white"/>
<path d="M363.654 96.4985C364.045 96.4985 364.38 96.2752 364.38 95.7728C364.38 95.2145 364.101 95.047 363.654 95.047H362.259V96.4985H363.654ZM365.329 99.0109H364.324L363.431 97.336H362.259V99.0109H361.365V94.2095H363.654C364.659 94.2095 365.329 94.8237 365.329 95.7728C365.329 96.4427 364.938 97.001 364.324 97.2243L365.329 99.0109ZM363.152 93.2046C361.254 93.2046 359.635 94.7678 359.635 96.7219C359.635 98.6759 361.198 100.295 363.152 100.295C365.05 100.295 366.613 98.6759 366.613 96.7219C366.613 94.7678 365.05 93.2046 363.152 93.2046ZM363.152 101.077C360.751 101.077 358.797 99.1225 358.797 96.7219C358.797 94.3212 360.751 92.3672 363.152 92.3672C365.552 92.3672 367.506 94.2654 367.506 96.7219C367.506 99.1225 365.552 101.077 363.152 101.077Z" fill="white"/>
<path d="M317.149 121.231H336.801C344.17 121.231 350.479 117.825 350.479 110.121C350.479 102.416 345.845 98.7317 336.801 98.7317H317.149V121.231ZM351.149 157.632C350.032 154.617 350.032 148.308 349.865 145.907C349.306 137.031 348.636 127.149 337.136 127.595H317.149V157.632H311.119V92.3672H337.247C347.743 92.3672 356.508 97.3918 356.508 108.893C356.508 116.876 352.321 123.464 344.17 125.027V125.195C352.433 126.256 354.833 131.95 355.28 139.487C355.503 143.507 355.559 153.612 357.681 157.576L351.149 157.632Z" fill="white"/>
</svg>
