<svg width="400" height="251" viewBox="0 0 400 251" fill="none" xmlns="http://www.w3.org/2000/svg">
<path d="M139.105 123.849H131.371C133.318 127.66 134.394 131.72 134.533 135.894H142.93C142.762 131.459 141.381 127.335 139.105 123.849ZM120.182 160.116C123.342 157.58 125.946 154.764 127.929 151.751H120.182V160.116ZM123.114 160.238C128.961 159.266 134.084 156.165 137.66 151.751H130.259C128.426 154.782 126.039 157.636 123.114 160.238ZM120.182 149.757H129.144C131.218 146.013 132.382 142.007 132.555 137.885H120.182V149.757ZM123.114 113.373C126.036 115.972 128.426 118.827 130.256 121.852H137.652C134.081 117.443 128.958 114.346 123.114 113.373ZM120.182 121.852H127.926C125.946 118.842 123.339 116.032 120.182 113.492V121.852V121.852ZM120.182 135.894H132.56C132.41 131.71 131.247 127.645 129.139 123.849H120.182V135.894V135.894ZM142.927 137.885H134.528C134.365 141.999 133.292 145.997 131.373 149.757H139.111C141.355 146.313 142.733 142.253 142.927 137.885M170.023 102.163L137.864 82.8722H81.703C81.703 82.8722 80.6635 98.4757 97.141 98.4757H118.141V102.163H60.7027C56.679 102.163 53.4156 105.427 53.4156 109.45C53.4156 113.474 56.679 116.737 60.7027 116.737H99.7476C104.78 111.863 111.633 108.853 119.194 108.853C134.632 108.853 147.148 121.369 147.148 136.804C147.148 152.24 134.632 164.756 119.194 164.756C109.877 164.756 101.628 160.191 96.5514 153.181H75.2796C71.2533 153.181 67.9898 156.444 67.9898 160.468C67.9898 164.494 71.2533 167.758 75.2796 167.758H162.736C170.023 167.758 170.023 160.468 170.023 160.468V102.163V102.163ZM95.4653 137.885C95.6593 142.253 97.0376 146.313 99.2821 149.757H106.957C105.041 145.997 103.963 141.999 103.802 137.885H95.4653V137.885ZM118.209 151.751H110.396C112.395 154.784 115.023 157.616 118.209 160.163V151.751V151.751ZM115.201 160.222C112.284 157.626 109.897 154.776 108.069 151.751H100.733C104.291 156.147 109.385 159.237 115.201 160.222M91.3976 133.89C91.9665 128.403 94.1258 123.388 97.4022 119.313H53.4156C49.3893 119.313 46.1284 122.574 46.1284 126.6C46.1284 130.624 49.3893 133.89 53.4156 133.89H91.3976V133.89ZM118.209 137.885H105.775C105.949 142.007 107.11 146.013 109.186 149.757H118.209V137.885V137.885ZM95.4601 135.894H103.795C103.934 131.72 105.01 127.66 106.957 123.849H99.2847C97.0117 127.335 95.6282 131.459 95.4601 135.894ZM118.209 113.446C115.023 115.993 112.398 118.822 110.399 121.852H118.209V113.446ZM95.1447 151.04C92.6699 146.869 91.2425 142.007 91.2425 136.804L91.2528 136.46H60.7027C56.679 136.46 53.4156 139.724 53.4156 143.747C53.4156 147.776 56.679 151.04 60.7027 151.04H95.1447ZM100.738 121.852H108.072C109.9 118.83 112.284 115.982 115.201 113.389C109.385 114.374 104.296 117.464 100.738 121.852M118.209 123.849H109.186C107.084 127.645 105.918 131.71 105.77 135.894H118.209V123.849ZM217.557 131.976V131.689C224.299 129.282 228.534 123.794 228.534 117.438C228.534 112.339 226.414 108.488 223.045 105.985C219.098 102.711 213.707 101.268 205.331 101.268C199.557 101.268 193.681 101.845 190.025 102.711V166.442C192.818 166.827 197.247 167.212 203.022 167.212C213.611 167.212 220.927 165.286 225.354 161.146C228.723 157.97 230.942 153.734 230.942 148.149C230.942 138.524 223.717 133.422 217.557 131.976M198.401 108.297C199.748 108.005 201.961 107.718 205.809 107.718C214.283 107.718 219.965 110.798 219.965 118.307C219.965 124.565 214.764 129.282 206.006 129.282H198.401V108.297V108.297ZM205.427 160.667C202.442 160.667 200.133 160.572 198.401 160.282V135.54H205.331C214.477 135.54 222.083 139.295 222.083 148.056C222.083 157.487 214.092 160.667 205.427 160.667M261.647 129.861C252.695 126.393 248.746 123.409 248.746 117.343C248.746 112.918 252.118 107.622 260.975 107.622C266.845 107.622 271.182 109.45 273.199 110.702L275.508 103.867C272.718 102.23 267.81 100.689 261.262 100.689C248.65 100.689 240.277 108.199 240.277 118.307C240.277 127.358 246.822 132.941 257.409 136.791C266.17 140.065 269.635 143.626 269.635 149.594C269.635 156.238 264.634 160.667 256.064 160.667C250.287 160.667 244.896 158.839 241.141 156.431L238.927 163.457C242.39 165.767 249.232 167.693 255.488 167.693C270.794 167.693 278.107 158.935 278.107 148.919C278.107 139.39 272.622 134.192 261.647 129.861M334.909 164.611L333.27 157.874C329.903 159.514 324.702 160.572 319.505 160.572C303.813 160.572 294.664 150.461 294.664 134.482C294.664 117.438 304.775 107.718 319.988 107.718C325.377 107.718 329.903 108.871 332.983 110.412L335.098 103.578C332.884 102.424 327.687 100.689 319.696 100.689C299.578 100.689 285.81 114.358 285.81 134.772C285.81 156.142 299.479 167.693 317.772 167.693C325.667 167.693 331.925 166.152 334.909 164.611ZM353.872 101.749H345.398V166.633H353.872V101.749Z" fill="white"/>
</svg>
