<svg width="400" height="251" viewBox="0 0 400 251" fill="none" xmlns="http://www.w3.org/2000/svg">
<path fill-rule="evenodd" clip-rule="evenodd" d="M280.209 74.3121C263.904 91.2522 253.552 117.312 254.236 139.698C254.665 153.752 264.006 165.251 277.222 167.995L278.679 168.297V173.887V179.476H283.374H288.069V173.887V168.297L289.526 167.995C304.025 164.985 312.955 152.667 312.501 136.307C311.865 113.411 301.889 89.9804 285.652 73.2457L283.435 70.9609L280.209 74.3121ZM168.604 78.425C166.541 79.3189 165.176 81.3818 165.176 83.6073C165.176 91.0068 176.172 91.5409 176.641 84.1643C176.921 79.7737 172.605 76.6919 168.604 78.425ZM120.87 102.658V126.264H126.087H131.304V116.089V105.913L141.411 105.981L151.519 106.049L151.587 116.157L151.656 126.264H156.871H162.086L162.019 102.724L161.953 79.1827H156.736H151.519L151.45 87.9861L151.381 96.7895H141.343H131.304V87.921V79.0524H126.087H120.87V102.658ZM285.122 86.7472C299.865 106.703 307.447 134.956 301.511 147.817C294.402 163.222 272.142 163.063 265.111 147.557C261.081 138.667 264.385 117.749 272.315 101.951C275.352 95.9015 282.994 84.0328 283.503 84.5774C283.546 84.6232 284.274 85.5998 285.122 86.7472ZM188.608 93.5293C176.145 96.9556 173.314 115.868 184.036 124.075C188.76 127.691 197.097 127.604 201.305 123.895L202.574 122.776L202.466 125.629C202.166 133.496 194.676 136.041 186.032 131.212C184.499 130.356 183.149 129.66 183.032 129.665C182.915 129.671 181.623 131.48 180.161 133.684L177.502 137.692L178.525 138.369C179.088 138.741 179.612 139.046 179.689 139.046C179.767 139.046 180.268 139.321 180.804 139.657C188.125 144.259 202.92 142.986 208.26 137.295C212.336 132.952 212.522 131.835 212.625 111.071L212.711 93.9202H208.003H203.296V95.7636V97.607L201.796 96.4297C198.174 93.588 192.742 92.3931 188.608 93.5293ZM226.169 93.5293C216.84 96.094 212.105 108.716 216.857 118.353C220.98 126.718 232.807 129.559 239.107 123.697L240.412 122.482L240.27 125.11C239.8 133.839 231.14 136.416 222.347 130.444C221.459 129.841 220.703 129.388 220.667 129.437C220.631 129.485 219.391 131.333 217.91 133.544L215.219 137.563L216.105 138.299C219.877 141.434 228.81 143.129 235.916 142.058C243.26 140.951 247.54 137.282 249.624 130.307C250.049 128.885 250.099 127.156 250.179 111.332L250.268 93.9202H245.704H241.141L241.064 95.7736L240.988 97.627L239.433 96.4192C235.741 93.5487 230.361 92.3766 226.169 93.5293ZM165.996 110.093V126.264H170.951H175.908V110.093V93.9202H170.951H165.996V110.093ZM276.866 102.204C276.151 102.783 276.077 104.163 276.723 104.876C277.159 105.358 277.528 105.397 281.569 105.397H285.945L286.485 104.71C287.195 103.808 287.168 103.168 286.385 102.386C285.529 101.529 277.88 101.383 276.866 102.204ZM197.657 102.316C202.835 103.809 205.004 109.979 201.931 114.477C198.54 119.439 190.942 118.78 188.255 113.291C185.334 107.32 191.213 100.458 197.657 102.316ZM235.811 102.566C241.607 104.734 242.722 112.523 237.775 116.277C232.637 120.174 225.136 116.457 225.116 110.003C225.099 104.409 230.569 100.604 235.811 102.566ZM270.738 111.455C270.154 112.289 270.237 113.151 270.972 113.887L271.612 114.527H278.554C285.86 114.527 286.346 114.457 286.771 113.337C287.033 112.649 286.702 111.423 286.162 111.08C285.274 110.516 271.156 110.858 270.738 111.455ZM276.965 120.345C276.104 121.086 276.046 122.183 276.827 122.964C277.505 123.643 284.321 123.976 285.716 123.398C287.27 122.754 287.274 120.407 285.722 119.976C283.877 119.465 277.685 119.726 276.965 120.345ZM164.952 139.073V149.807L163.804 148.749C160.219 145.444 153.546 144.661 148.644 146.97C141.861 150.164 138.067 159.717 140.292 167.999C143.208 178.856 156.394 183.373 164.165 176.179L165.712 174.746L165.789 176.785L165.865 178.824H170.43H174.994V153.653V128.482L169.974 128.411L164.952 128.34V139.073ZM270.873 129.56C268.918 132.045 270.191 132.525 278.742 132.525H285.945L286.485 131.838C287.195 130.935 287.168 130.296 286.385 129.513L285.745 128.873H278.579H271.413L270.873 129.56ZM87.4824 155.348V178.954H92.6993H97.9162V155.348V131.742H92.6993H87.4824V155.348ZM276.763 138.479C276.145 139.163 276.215 140.482 276.902 141.122C277.65 141.819 285.199 141.939 286.155 141.269C287.144 140.576 287.135 138.867 286.139 138.202C285.441 137.736 277.215 137.979 276.763 138.479ZM121.131 145.853C119.083 146.253 116.831 147.55 115.404 149.151L114.088 150.627V148.488V146.35H109.263H104.437V162.521V178.694H109.366H114.296L114.413 169.108C114.545 158.396 114.657 157.598 116.26 156.044C118.312 154.056 122.214 153.918 123.923 155.775C125.386 157.365 125.424 157.665 125.565 168.652L125.696 178.824L130.717 178.895L135.738 178.966L135.733 168.853C135.726 154.787 135.274 151.833 132.687 148.956C130.222 146.213 125.616 144.977 121.131 145.853ZM194.521 145.952C176.074 149.3 175.103 174.695 193.253 179.122C197.519 180.163 202.526 179.639 206.395 177.747C208.167 176.88 212.263 173.461 211.904 173.148C211.391 172.7 205.45 168.436 205.205 168.339C205.036 168.273 204.466 168.696 203.938 169.28C199.902 173.747 192.597 172.489 190.658 166.992L190.277 165.912H201.905H213.533L213.406 162.065C213.019 150.328 205.546 143.951 194.521 145.952ZM216.117 147.197C216.445 147.664 218.001 149.806 219.574 151.957C224.317 158.445 226.25 161.204 226.25 161.488C226.25 161.636 224.839 163.661 223.115 165.987C215.861 175.772 213.729 178.686 213.729 178.816C213.729 179.069 224.71 178.959 225.191 178.701C225.451 178.562 227.28 176.156 229.254 173.354C231.228 170.552 232.915 168.262 233.003 168.265C233.09 168.267 234.509 170.344 236.156 172.88C237.803 175.416 239.427 177.82 239.766 178.223L240.381 178.954H246.097C249.24 178.954 251.812 178.895 251.812 178.822C251.812 178.749 249.046 174.862 245.666 170.185C242.155 165.328 239.578 161.526 239.658 161.32C239.734 161.122 242.03 157.785 244.761 153.906C247.492 150.026 249.725 146.737 249.725 146.596C249.725 146.433 247.74 146.365 244.322 146.409L238.919 146.48L237.997 147.826C237.49 148.566 236.253 150.471 235.249 152.059C234.245 153.646 233.319 154.914 233.191 154.874C233.063 154.834 231.87 153.126 230.539 151.077C227.09 145.767 228.22 146.35 221.366 146.35H215.52L216.117 147.197ZM270.984 147.499C270.205 148.279 270.15 149.197 270.83 150.038L271.329 150.653H278.548H285.766L286.396 149.921C287.155 149.039 287.19 148.436 286.527 147.617L286.029 147.002L278.833 146.925L271.636 146.847L270.984 147.499ZM200.197 153.599C201.922 154.5 203.04 156 203.228 157.667L203.364 158.87H196.809C193.203 158.87 190.254 158.782 190.255 158.674C190.286 154.573 196.241 151.532 200.197 153.599ZM160.038 154.791C166.836 156.391 167.927 166.908 161.616 170.007C156.058 172.736 149.823 168.936 149.823 162.82C149.823 156.8 154.145 153.404 160.038 154.791Z" fill="white"/>
</svg>
