<svg width="400" height="251" viewBox="0 0 400 251" fill="none" xmlns="http://www.w3.org/2000/svg">
<path d="M199.982 56.9531C162.394 56.9531 131.971 87.4122 131.971 124.964C131.971 162.552 162.43 192.975 199.982 192.975C237.534 192.975 267.993 162.516 267.993 124.964C267.993 87.4122 237.534 56.9531 199.982 56.9531Z" fill="white"/>
<path d="M151.269 186.068C154.365 188.48 155.157 191.972 152.637 195.177C150.225 198.237 146.409 198.309 143.456 196.005C142.484 195.249 141.476 194.241 140.792 193.233L142.16 191.684C142.628 192.656 143.384 193.485 144.212 194.169C146.337 195.825 148.749 195.573 150.405 193.449C151.917 191.54 152.133 189.236 150.045 187.616C149.541 187.22 149.001 186.896 148.353 186.68L146.733 188.732L147.993 189.74L146.877 191.144L143.708 188.66L147.345 184.016C148.821 184.448 150.081 185.168 151.269 186.068Z" fill="white"/>
<path d="M144.069 179.909L134.96 188.046L133.159 186.03L140.648 179.333L137.156 175.409L138.776 173.969L144.069 179.909Z" fill="white"/>
<path d="M134.167 166.942C136.256 170.255 135.248 173.351 132.043 175.367C128.911 177.347 125.563 176.915 123.51 173.675C121.422 170.363 122.394 167.266 125.635 165.214C128.803 163.198 132.115 163.666 134.167 166.942ZM125.131 172.667C126.391 174.683 128.875 174.035 130.567 172.955C132.223 171.911 133.879 169.931 132.619 167.915C131.323 165.862 128.911 166.51 127.183 167.59C125.419 168.707 123.798 170.615 125.131 172.667Z" fill="white"/>
<path d="M127.435 154.166L129.091 158.307L117.714 162.843L115.878 158.199C115.122 156.327 115.014 154.202 117.21 153.338C118.65 152.762 119.91 153.266 120.774 154.527C120.45 153.014 120.918 151.538 122.466 150.926C125.131 149.846 126.571 151.934 127.435 154.166ZM117.75 158.379L118.326 159.783L121.566 158.487L121.098 157.263C120.666 156.147 119.838 155.139 118.506 155.679C117.318 156.183 117.354 157.371 117.75 158.379ZM122.61 156.831L123.042 157.911L126.607 156.507L126.139 155.319C125.671 154.166 124.807 152.942 123.402 153.518C121.818 154.13 122.106 155.607 122.61 156.831Z" fill="white"/>
<path d="M122.79 137.28L119.982 138.936L121.026 144.049L124.231 144.517L124.771 147.145L111.845 144.985L111.125 141.493L122.214 134.508L122.79 137.28ZM113.213 142.933L119.118 143.869L118.326 139.872L113.213 142.933Z" fill="white"/>
<path d="M122.106 130.769L109.865 131.057L109.793 128.357L119.874 128.105L119.73 122.849L121.89 122.812L122.106 130.769Z" fill="white"/>
<path d="M124.77 105.415C123.762 109.195 120.81 110.564 117.138 109.591C113.537 108.619 111.593 105.883 112.565 102.175C113.573 98.3944 116.526 96.9902 120.198 97.9623C123.87 98.9704 125.778 101.707 124.77 105.415ZM114.401 102.679C113.789 104.983 115.949 106.351 117.858 106.855C119.766 107.359 122.322 107.215 122.934 104.947C123.546 102.607 121.458 101.275 119.478 100.735C117.534 100.231 115.049 100.303 114.401 102.679Z" fill="white"/>
<path d="M130.675 89.5091L126.967 89.1491C125.707 89.0051 125.275 89.1131 124.662 90.3012L124.23 91.2013L128.803 93.3975L127.651 95.8098L116.598 90.5172L118.758 86.0168C119.658 84.1446 121.278 82.5964 123.474 83.6765C124.987 84.3966 125.383 85.9808 124.915 87.4929C125.599 86.5928 126.283 86.4128 127.399 86.5208L131.863 86.9169L130.675 89.5091ZM119.982 87.7089L119.406 88.8971L122.61 90.4452L123.15 89.3291C123.69 88.213 123.906 86.8809 122.61 86.2328C121.314 85.5847 120.558 86.5208 119.982 87.7089Z" fill="white"/>
<path d="M137.588 78.9577C135.284 82.126 131.827 83.0261 128.551 80.6859C125.419 78.4177 125.203 74.5653 127.399 71.541C128.119 70.5329 129.091 69.5248 130.063 68.8047L131.647 70.1008C130.675 70.6049 129.883 71.397 129.271 72.261C127.687 74.4573 128.047 76.8335 130.207 78.4177C132.187 79.8578 134.492 79.9658 136.04 77.8416C136.436 77.3016 136.724 76.7615 136.904 76.1134L134.78 74.5653L133.843 75.8614L132.403 74.8173L134.78 71.541L139.568 74.9973C139.1 76.4735 138.452 77.7696 137.588 78.9577Z" fill="white"/>
<path d="M149.325 65.9938L146.445 64.4817L142.628 68.046L143.924 71.0344L141.98 72.8705L137.012 60.7373L139.604 58.2891L151.377 64.0136L149.325 65.9938ZM139.46 60.8093L141.764 66.3179L144.753 63.5096L139.46 60.8093Z" fill="white"/>
<path d="M160.09 58.3605L150.981 52.2758L156.274 60.7367L154.222 62.0328L147.777 51.6278L151.125 49.5396L160.27 55.6602L154.978 47.1273L157.03 45.8672L163.474 56.2722L160.09 58.3605Z" fill="white"/>
<path d="M168.191 54.1852L163.366 42.916L165.887 41.8359L170.675 53.1051L168.191 54.1852Z" fill="white"/>
<path d="M181.26 49.8621C177.444 50.9063 174.203 49.4661 173.123 45.5417C172.115 41.8333 174.311 38.665 177.912 37.6929C178.848 37.4409 180.036 37.2969 180.972 37.2969L181.404 39.2771C180.612 39.1691 179.64 39.2411 178.848 39.4571C176.328 40.1412 175.212 42.3014 175.86 44.7496C176.544 47.2699 178.488 48.53 181.08 47.8099C181.944 47.5579 182.772 47.1979 183.456 46.6218L184.068 48.494C183.348 49.1421 182.232 49.6101 181.26 49.8621Z" fill="white"/>
<path d="M203.15 37.4058L202.898 47.4868L200.162 47.4148L200.414 37.3338L196.562 37.2618L196.634 35.1016L207.039 35.3176L206.967 37.5138L203.15 37.4058Z" fill="white"/>
<path d="M210.351 48.0252L212.547 36L220.396 37.4041L220.036 39.2763L214.816 38.3042L214.239 41.4726L219.244 42.3726L218.884 44.2088L213.915 43.2727L213.303 46.6571L218.668 47.6292L218.344 49.4654L210.351 48.0252Z" fill="white"/>
<path d="M229.757 53.2829L228.605 47.5583L223.925 51.1227L221.152 50.0786L227.561 45.6501L225.833 38.7734L228.749 39.8535L229.829 45.0021L233.97 41.7617L236.67 42.7698L230.837 46.8743L232.782 54.363L229.757 53.2829Z" fill="white"/>
<path d="M244.771 49.5735L239.766 58.3223L237.39 56.9542L242.394 48.2413L239.082 46.3331L240.126 44.4609L249.163 49.6095L248.083 51.4816L244.771 49.5735Z" fill="white"/>
<path d="M253.446 52.7482L246.036 62.4922L248.186 64.1267L255.595 54.3826L253.446 52.7482Z" fill="white"/>
<path d="M252.547 67.719L261.188 59.0781L263.132 60.9863L256.004 68.115L259.748 71.8234L258.2 73.3716L252.547 67.719Z" fill="white"/>
<path d="M260.468 76.0774L270.297 68.8047L275.05 75.2133L273.538 76.3294L270.369 72.045L267.813 73.9532L270.801 78.0216L269.325 79.1377L266.301 75.0693L263.565 77.0855L266.805 81.514L265.293 82.6301L260.468 76.0774Z" fill="white"/>
<path d="M272.674 97.7123C272.241 96.5242 271.917 95.2641 271.845 94.004L273.826 93.3559C273.682 94.544 273.934 95.6961 274.33 96.8123C274.726 97.8924 275.518 98.8645 276.742 98.4324C277.606 98.1084 277.642 96.7042 277.678 95.7681L277.75 94.4C277.822 92.8159 278.254 91.5197 279.838 90.9437C282.323 90.0076 284.087 92.2758 284.843 94.364C285.203 95.3361 285.455 96.3442 285.563 97.3883L283.655 98.0004C283.691 97.0643 283.475 96.0562 283.151 95.1561C282.791 94.22 282.034 92.9959 280.882 93.4279C280.09 93.7159 280.054 94.8681 280.018 95.7321L279.982 97.1363C279.946 98.8645 279.586 100.269 277.786 100.953C275.338 101.889 273.502 99.9806 272.674 97.7123Z" fill="white"/>
<path d="M286.499 109.017L276.634 111.034L276.094 108.369L285.959 106.353L285.203 102.573L287.291 102.141L289.379 112.33L287.255 112.762L286.499 109.017Z" fill="white"/>
<path d="M278.038 126.404L281.062 125.216L280.882 120.032L277.786 119.024L277.714 116.359L290.099 120.608L290.207 124.172L278.146 129.249L278.038 126.404ZM288.407 122.408L282.755 120.536L282.899 124.64L288.407 122.408Z" fill="white"/>
<path d="M276.706 139.438L287.291 136.593L277.426 135.009L277.786 132.633L289.883 134.577L289.235 138.501L278.65 141.382L288.515 142.966L288.119 145.342L276.058 143.398L276.706 139.438Z" fill="white"/>
<path d="M273.249 152.149L274.69 148.297L286.139 152.653L284.519 156.902C283.114 160.61 280.342 161.978 276.598 160.574C272.709 159.062 271.845 155.894 273.249 152.149ZM282.934 155.822L283.439 154.49L275.482 151.465L275.122 152.401C274.15 154.994 274.978 156.83 277.606 157.838C279.91 158.738 281.998 158.27 282.934 155.822Z" fill="white"/>
<path d="M264.861 168.821L268.029 169.469L270.729 165.004L268.677 162.484L270.045 160.18L278.11 170.513L276.274 173.573L263.385 171.233L264.861 168.821ZM275.734 171.125L272.025 166.444L269.901 169.937L275.734 171.125Z" fill="white"/>
<path d="M256.832 178.83L260.288 180.198C261.476 180.666 261.909 180.702 262.809 179.694L263.457 178.938L259.64 175.59L261.404 173.609L270.585 181.71L267.273 185.455C265.905 187.039 263.925 188.047 262.089 186.427C260.828 185.311 260.9 183.69 261.728 182.358C260.828 183.042 260.108 183.006 259.064 182.61L254.852 181.026L256.832 178.83ZM266.625 183.474L267.489 182.502L264.825 180.162L263.997 181.098C263.169 182.034 262.593 183.258 263.673 184.23C264.789 185.131 265.761 184.446 266.625 183.474Z" fill="white"/>
<path d="M248.947 186.095L252.188 183.539L259.748 193.152L256.184 195.96C253.088 198.409 249.991 198.193 247.507 195.024C244.951 191.748 245.815 188.58 248.947 186.095ZM255.356 194.232L256.472 193.368L251.215 186.707L250.423 187.319C248.227 189.048 248.011 191.028 249.739 193.26C251.287 195.168 253.34 195.852 255.356 194.232Z" fill="white"/>
<path d="M178.92 212.82C175.103 211.848 172.943 208.967 173.951 205.007C174.887 201.226 178.38 199.57 182.052 200.506C183.24 200.794 184.572 201.334 185.617 201.983L185.005 203.963C184.176 203.243 183.132 202.811 182.124 202.523C179.496 201.875 177.372 203.099 176.724 205.727C176.112 208.103 176.868 210.299 179.424 210.947C180.072 211.127 180.684 211.199 181.368 211.127L182.016 208.571L180.432 208.175L180.864 206.447L184.788 207.419L183.348 213.18C181.836 213.324 180.36 213.18 178.92 212.82Z" fill="white"/>
<path d="M194.185 215.086C190.297 214.834 188.389 212.242 188.641 208.426C188.893 204.717 191.197 202.305 195.013 202.557C198.902 202.809 200.846 205.401 200.594 209.218C200.306 212.962 198.002 215.338 194.185 215.086ZM194.833 204.465C192.457 204.321 191.557 206.698 191.413 208.642C191.269 210.622 191.917 213.07 194.257 213.25C196.67 213.394 197.57 211.09 197.678 209.074C197.858 207.022 197.282 204.609 194.833 204.465Z" fill="white"/>
<path d="M209.451 204.825L210.459 214.798L207.759 215.086L206.751 205.113L202.97 205.473L202.754 203.313L213.051 202.305L213.267 204.429L209.451 204.825Z" fill="white"/>
<path d="M222.448 212.854C221.26 213.178 220 213.358 218.776 213.286L218.344 211.306C219.496 211.558 220.648 211.45 221.764 211.162C222.844 210.874 223.889 210.19 223.565 208.966C223.349 208.066 221.98 207.922 221.044 207.778L219.748 207.562C218.236 207.346 217.012 206.77 216.58 205.222C215.932 202.701 218.308 201.261 220.396 200.685C221.368 200.433 222.376 200.289 223.385 200.289L223.781 202.233C222.88 202.089 221.872 202.197 220.972 202.413C220.036 202.665 218.776 203.277 219.064 204.429C219.28 205.222 220.396 205.402 221.224 205.474L222.592 205.618C224.285 205.834 225.617 206.338 226.085 208.138C226.769 210.658 224.717 212.242 222.448 212.854Z" fill="white"/>
<path d="M162.001 199.51L160.924 201.789L163.463 202.989L164.54 200.71L162.001 199.51Z" fill="white"/>
<path d="M235.914 202.949L234.87 200.716L237.39 199.492L238.47 201.76L235.914 202.949Z" fill="white"/>
<path d="M143.528 119.35L160.018 135.84L175.356 120.502V169.323H198.686V97.6041L181.98 80.8984L143.528 119.35ZM218.02 80.9344L201.35 97.6041V169.323H224.681V120.502L239.982 135.804L256.472 119.314L218.02 80.9344Z" fill="#3E393D"/>
</svg>
