<svg width="400" height="251" viewBox="0 0 400 251" fill="none" xmlns="http://www.w3.org/2000/svg">
<path d="M315.3 152.663C315.3 149.702 316.225 148.222 317.89 148.222C319.37 148.222 320.295 149.517 320.295 152.292V152.663H315.3V152.663ZM320.295 156.548C320.295 158.768 319.37 160.063 317.89 160.063C316.04 160.063 315.3 158.398 315.3 154.883V154.143H322.33C322.33 153.773 322.33 153.218 322.33 152.848C322.33 148.407 320.85 146.372 317.89 146.372C314.56 146.372 313.265 148.962 313.265 154.143C313.265 159.138 314.745 161.728 317.89 161.728C320.665 161.728 322.33 159.878 322.33 156.363H320.295V156.548ZM304.384 161.543H306.604L310.675 146.927H308.639L305.494 158.398L302.719 146.927H300.499L304.384 161.543ZM295.319 144.707H297.354V142.117H295.319V144.707ZM295.319 161.543H297.354V146.927H295.319V161.543ZM290.324 158.583V148.777H292.729V147.112H290.324V143.227H288.289V147.112H286.254V148.777H288.289V159.693C288.289 161.173 289.214 161.913 291.064 161.913C291.434 161.913 291.804 161.913 292.544 161.913V160.063C292.359 160.063 292.174 160.063 291.989 160.063C290.694 160.063 290.324 159.878 290.324 158.583ZM281.629 153.773V156.548C281.629 158.768 280.519 160.063 278.854 160.063C277.744 160.063 277.004 159.323 277.004 157.843C277.004 155.808 277.744 155.438 279.224 154.883C280.334 154.513 281.074 154.328 281.629 153.773ZM284.774 161.543V160.063C284.589 160.063 284.589 160.063 284.404 160.063C283.849 160.063 283.479 159.693 283.479 158.953V150.442C283.479 147.667 282.184 146.557 279.409 146.557C276.449 146.557 275.153 147.852 275.153 150.812H277.004V150.627C277.004 148.962 277.744 148.407 279.224 148.407C280.704 148.407 281.444 148.962 281.444 150.072V151.367C281.444 152.292 280.889 152.477 279.224 153.218C276.264 154.143 274.968 155.068 274.968 158.028C274.968 160.618 276.264 162.098 278.299 162.098C279.964 162.098 281.074 161.358 281.814 159.878C281.814 161.173 282.554 161.913 283.664 161.913C284.034 161.728 284.404 161.728 284.774 161.543ZM269.233 144.707H271.268V142.117H269.233V144.707ZM269.233 161.543H271.268V146.927H269.233V161.543ZM264.053 158.583V148.777H266.458V147.112H264.053V143.227H262.018V147.112H259.983V148.777H262.018V159.693C262.018 161.173 262.943 161.913 264.793 161.913C265.163 161.913 265.533 161.913 266.273 161.913V160.063C266.088 160.063 265.903 160.063 265.718 160.063C264.423 160.063 264.053 159.878 264.053 158.583ZM255.543 144.707H257.578V142.117H255.543V144.707ZM255.543 161.543H257.578V146.927H255.543V161.543ZM242.408 161.543H244.443V151.737C244.443 149.702 245.553 148.592 247.403 148.592C248.883 148.592 249.438 149.332 249.438 150.997V161.728H251.473V150.997C251.473 148.037 250.733 146.742 247.958 146.742C246.293 146.742 244.998 147.482 244.258 148.962V147.112H242.408V161.543V161.543ZM235.747 161.543H237.967V142.117H235.747V161.543Z" fill="white"/>
<path d="M293.839 134.902H295.874V125.097C295.874 123.062 296.984 121.952 298.834 121.952C300.314 121.952 300.869 122.692 300.869 124.357V135.087H302.904V124.542C302.904 121.582 302.164 120.287 299.389 120.287C297.724 120.287 296.429 121.027 295.689 122.322V120.472H293.839V134.902V134.902ZM279.964 127.687C279.964 132.867 281.444 135.272 285.144 135.272C288.659 135.272 290.324 132.867 290.324 127.687C290.324 122.507 288.659 119.917 285.144 119.917C281.629 119.917 279.964 122.507 279.964 127.687ZM282.184 127.687C282.184 123.617 282.924 121.767 285.144 121.767C287.364 121.767 288.104 123.617 288.104 127.687C288.104 131.757 287.364 133.607 285.144 133.607C282.739 133.607 282.184 131.757 282.184 127.687ZM275.339 131.942V122.137H277.744V120.472H275.339V116.587H273.303V120.472H271.268V122.137H273.303V133.052C273.303 134.532 274.229 135.272 276.079 135.272C276.449 135.272 276.819 135.272 277.559 135.272V133.422C277.374 133.422 277.189 133.422 277.004 133.422C275.709 133.422 275.339 133.237 275.339 131.942ZM267.938 131.942V122.137H270.343V120.472H267.938V116.587H265.903V120.472H263.868V122.137H265.903V133.052C265.903 134.532 266.828 135.272 268.678 135.272C269.048 135.272 269.603 135.272 270.158 135.272V133.422C269.973 133.422 269.788 133.422 269.603 133.422C268.308 133.422 267.938 133.237 267.938 131.942ZM251.473 127.687C251.473 132.867 252.953 135.272 256.653 135.272C260.168 135.272 261.833 132.867 261.833 127.687C261.833 122.507 260.168 119.917 256.653 119.917C253.138 119.917 251.473 122.507 251.473 127.687ZM253.693 127.687C253.693 123.617 254.433 121.767 256.653 121.767C258.873 121.767 259.613 123.617 259.613 127.687C259.613 131.757 258.873 133.607 256.653 133.607C254.433 133.607 253.693 131.757 253.693 127.687ZM245.738 127.687V128.057C245.738 131.387 244.443 133.237 242.223 133.237C239.262 133.237 238.337 130.647 238.337 125.097C238.337 119.362 239.262 116.772 242.038 116.772C244.073 116.772 245.553 118.252 245.553 121.027H247.588V120.842C247.588 116.957 245.553 114.922 242.038 114.922C237.597 114.922 235.932 118.067 235.932 125.097C235.932 131.942 237.782 135.272 241.853 135.272C245.553 135.272 247.588 132.682 247.773 127.687H245.738Z" fill="white"/>
<path d="M290.509 108.269H292.544V99.3891C292.544 96.799 293.839 95.5039 295.874 95.5039C296.244 95.5039 296.429 95.5039 296.614 95.689V93.2839C296.244 93.2839 296.059 93.2839 295.689 93.2839C294.209 93.2839 292.914 94.2089 292.359 96.059V93.6539H290.509V108.269ZM279.779 99.3891C279.779 96.429 280.704 94.9489 282.369 94.9489C283.849 94.9489 284.774 96.244 284.774 99.0191V99.3891H279.779V99.3891ZM284.774 103.274C284.774 105.494 283.849 106.789 282.369 106.789C280.519 106.789 279.779 105.124 279.779 101.609V101.054H286.809C286.809 100.684 286.809 100.129 286.809 99.7591C286.809 95.3189 285.329 93.2839 282.369 93.2839C279.039 93.2839 277.744 95.874 277.744 101.054C277.744 106.049 279.224 108.639 282.369 108.639C285.144 108.639 286.809 106.789 286.809 103.274H284.774V103.274ZM272.933 105.309V95.5039H275.339V93.6539H272.933V89.7688H270.898V93.6539H268.863V95.3189H270.898V106.234C270.898 107.714 271.823 108.454 273.674 108.454C274.044 108.454 274.414 108.454 275.154 108.454V106.604C274.969 106.604 274.784 106.604 274.599 106.604C273.488 106.604 272.933 106.604 272.933 105.309ZM265.533 105.309V95.5039H267.938V93.6539H265.533V89.7688H263.498V93.6539H261.463V95.3189H263.498V106.234C263.498 107.714 264.423 108.454 266.273 108.454C266.643 108.454 267.013 108.454 267.753 108.454V106.604C267.568 106.604 267.383 106.604 267.198 106.604C265.903 106.604 265.533 106.604 265.533 105.309ZM252.583 99.3891C252.583 96.429 253.323 94.9489 255.173 94.9489C256.653 94.9489 257.578 96.244 257.578 99.0191V99.3891H252.583V99.3891ZM257.578 103.274C257.578 105.494 256.653 106.789 255.173 106.789C253.323 106.789 252.583 105.124 252.583 101.609V101.054H259.613C259.613 100.684 259.613 100.129 259.613 99.7591C259.613 95.3189 258.133 93.2839 255.173 93.2839C251.843 93.2839 250.548 95.874 250.548 101.054C250.548 106.049 252.028 108.639 255.173 108.639C257.948 108.639 259.613 106.789 259.613 103.274H257.578V103.274ZM237.967 96.984V90.5088H240.187C242.963 90.5088 244.073 91.2488 244.073 93.6539C244.073 96.244 242.963 96.984 240.373 96.984H237.967ZM237.967 106.234V98.834H240.373C243.333 98.834 244.443 99.9441 244.443 102.719C244.443 105.309 243.333 106.234 240.743 106.234H237.967ZM235.932 108.269H241.298C244.813 108.269 246.848 106.234 246.848 102.719C246.848 99.9441 245.738 98.464 243.518 97.909C245.368 97.354 246.293 96.059 246.293 93.6539C246.293 90.1388 244.628 88.8438 241.113 88.8438H236.117V108.269H235.932Z" fill="white"/>
<path d="M320.11 171.352H211.327L223.167 126.025C223.167 125.655 223.352 125.285 223.352 124.915C223.352 124.175 223.167 123.62 223.167 123.62L211.327 78.6641H320.11C320.665 78.6641 325.105 78.8491 329.73 81.0691C334.17 83.2892 339.535 87.9143 339.535 97.7196V152.481C339.535 153.036 339.351 157.476 337.13 161.917C334.91 166.172 330.1 171.352 320.11 171.352ZM215.212 168.392H320.11C331.395 168.392 335.095 160.992 336.205 154.886C336.39 153.406 336.39 152.481 336.39 152.481V97.7196C336.39 86.6193 328.805 83.1042 322.515 81.9942C321.035 81.8092 319.925 81.8092 319.925 81.8092H215.397L226.127 123.065C226.312 123.805 226.312 124.36 226.312 125.1C226.312 125.84 226.312 126.395 226.127 126.951L215.212 168.392Z" fill="white"/>
<path d="M341.755 87.5443V79.7741H338.795V78.6641H345.825V79.7741H342.865V87.5443H341.755Z" fill="white"/>
<path d="M346.935 87.5443V78.6641H348.785L350.82 84.9543C351.005 85.5093 351.19 86.0643 351.19 86.2493C351.375 85.8793 351.375 85.5093 351.745 84.7692L353.781 78.6641H355.261V87.5443H354.151V80.1441L351.56 87.5443H350.45L347.86 79.9591V87.5443H346.935Z" fill="white"/>
<path d="M71.2775 154.517H69.7975V132.502C69.7975 132.502 69.7975 132.132 69.7975 131.762C69.7975 131.577 69.7975 131.392 69.7975 131.207H70.9075C80.3428 131.207 84.4129 134.537 84.5979 142.122C84.4129 150.447 80.1578 154.332 71.2775 154.517ZM69.7975 95.8706C69.7975 95.8706 69.7975 95.5006 69.7975 95.1305C69.7975 94.9455 69.7975 94.7605 69.9825 94.5755C70.3525 94.5755 71.0925 94.5755 71.6475 94.5755C79.0477 94.5755 82.7479 98.0906 82.7479 104.196C82.7479 111.596 79.0477 114.741 70.7225 114.741H69.7975V95.8706V95.8706ZM95.6982 122.326C95.6982 122.326 95.5132 122.326 95.5132 122.141C95.3282 121.956 95.3282 121.771 95.3282 121.771C95.3282 121.586 95.3282 121.401 95.6982 121.216C101.618 116.221 104.579 110.301 104.579 102.346C104.579 93.2805 101.063 86.6203 94.4032 82.5502C88.298 78.8501 80.8978 78.8501 71.2775 78.8501H45.1917C45.1917 78.8501 44.8217 78.8501 44.8217 79.0351C44.6367 79.2201 44.8217 79.2201 44.8217 79.4051L54.997 123.621C54.997 123.621 55.182 124.176 55.182 125.101C55.182 125.471 55.182 126.026 54.997 126.396C54.997 126.396 44.8217 170.798 44.8217 170.983C44.8217 171.168 44.8217 171.353 44.8217 171.353C44.8217 171.353 45.0067 171.353 45.0067 171.353H73.3126C84.5979 171.353 92.7382 170.613 98.6583 164.323C103.653 159.327 106.614 151.557 106.799 143.047C106.799 133.057 102.543 125.841 95.6982 122.326ZM172.291 135.462C171.921 135.277 171.551 134.907 170.625 134.907H151.2C151.2 134.907 151.015 134.907 151.015 135.092L150.83 135.277V139.347C150.83 145.082 150.46 149.152 149.165 151.557C147.87 154.147 146.02 155.257 142.505 155.257C138.25 155.257 136.214 153.037 134.919 148.227C133.809 143.232 133.809 135.647 133.809 124.916V123.251C133.809 113.261 133.809 106.046 134.919 101.421C136.029 96.7956 138.065 94.7605 142.32 94.7605C145.65 94.7605 147.5 95.8706 148.98 98.4606C150.275 100.866 150.83 104.751 150.83 109.746C150.83 109.746 150.83 110.301 151.015 110.671C151.2 111.226 151.755 111.596 152.68 111.596H172.291C172.291 111.596 172.476 111.596 172.476 111.411L172.661 111.226V110.301C172.661 99.2007 170.255 90.8754 165.075 85.1402C159.895 79.7751 152.31 77 142.32 77C130.664 77 122.154 81.0701 116.974 89.0254C112.349 96.0556 111.794 107.896 111.794 125.101C111.794 142.307 112.349 154.147 116.974 161.178C122.154 169.318 130.664 173.203 142.69 173.203C152.865 173.203 160.45 170.428 165.445 164.878C170.44 159.327 172.846 151.002 172.846 139.902C172.846 138.237 172.846 136.942 172.846 136.017C172.661 136.017 172.661 135.832 172.291 135.462ZM200.781 79.7751C200.596 79.2201 200.041 78.8501 199.116 78.8501H180.801C180.801 78.8501 180.246 78.8501 179.876 79.0351C179.321 79.2201 178.951 79.7751 178.951 80.7001V169.503C178.951 169.503 178.951 170.058 179.136 170.428C179.321 170.983 179.876 171.353 180.801 171.353H199.116C199.116 171.353 199.486 171.353 200.041 171.168C200.596 170.983 200.966 170.428 200.966 169.503V80.7001C200.966 80.7001 200.966 80.1451 200.781 79.7751Z" fill="white"/>
</svg>
