<svg width="400" height="251" viewBox="0 0 400 251" fill="none" xmlns="http://www.w3.org/2000/svg">
<path d="M200 66.2003C232.53 66.2003 258.897 92.5674 258.897 125.097H290.074C290.074 75.3514 249.746 35.0234 200 35.0234C150.254 35.0234 109.926 75.3514 109.926 125.097H141.103C141.103 92.5674 167.47 66.2003 200 66.2003Z" fill="white"/>
<path d="M200 183.991C167.47 183.991 141.103 157.624 141.103 125.094H109.926C109.926 174.84 150.254 215.168 200 215.168C249.746 215.168 290.074 174.84 290.074 125.094H258.897C258.897 157.624 232.53 183.991 200 183.991Z" fill="#3E393D"/>
<path d="M139.446 85.4164L139.403 85.3916C136.69 83.8679 133.429 84.3862 132.011 86.9059C130.593 89.4287 131.822 92.4232 134.528 93.9468L134.574 93.9717C137.286 95.4953 140.548 94.9771 141.966 92.4573C143.384 89.9345 142.155 86.9431 139.446 85.4164ZM132.777 97.2703L132.734 97.2454C128.241 94.7164 126.357 89.4504 128.827 85.0595C131.297 80.6686 136.706 79.5639 141.199 82.093L141.243 82.1178C145.736 84.6468 147.62 89.9097 145.149 94.3037C142.679 98.6946 137.271 99.7993 132.777 97.2703Z" fill="#3E393D"/>
<path d="M148.78 73.7329C150.003 72.4824 149.966 71.0394 148.873 69.9688L148.836 69.9316C147.617 68.7338 146.236 68.8828 145.01 70.1302L142.512 72.6747L146.233 76.324L148.78 73.7329ZM137.423 72.7089L142.652 67.3871C144.104 65.9069 145.696 65.2149 147.297 65.2863C148.656 65.3452 150.015 65.9969 151.238 67.1947L151.275 67.2288C153.364 69.2831 153.683 71.5856 152.839 73.6677L160.259 75.362L157.32 78.3565L150.723 76.7833L148.746 78.7972L152.892 82.8653L150.375 85.4254L137.423 72.7089Z" fill="#3E393D"/>
<path d="M156.057 67.2403L156.032 67.1969C153.376 62.7781 154.301 57.2949 158.539 54.7441C161.059 53.2267 163.033 53.0684 165.32 53.5649L164.938 57.329C163.259 56.9815 161.953 56.9815 160.336 57.9558C158.093 59.3026 157.636 62.5733 159.222 65.214L159.25 65.2605C160.96 68.0999 163.973 69.1301 166.452 67.6375C167.573 66.961 168.386 66.0487 168.792 64.9564L167.455 62.7377L164.358 64.6058L162.583 61.6516L168.662 57.9931L172.718 64.7423C172.091 66.961 170.778 69.2636 168.218 70.8027C163.861 73.4279 158.822 71.8391 156.057 67.2403Z" fill="#3E393D"/>
<path d="M182.71 56.3988L179.02 51.3345L178.536 57.5841L182.71 56.3988ZM176.165 47.1608L179.349 46.2578L191.057 61.9254L187.448 62.9494L184.901 59.4429L178.263 61.3234L177.937 65.6429L174.418 66.639L176.165 47.1608Z" fill="#3E393D"/>
<path d="M191.749 43.8859L195.057 43.8331L202.886 54.8771L202.709 43.7121L206.253 43.6562L206.542 61.7877L203.485 61.8342L195.398 50.4365L195.581 61.9615L192.035 62.0173L191.749 43.8859Z" fill="#3E393D"/>
<path d="M212.484 44.6797L216.021 45.3065L212.853 63.1773L209.322 62.5505L212.484 44.6797Z" fill="#3E393D"/>
<path d="M218.181 54.7985L218.197 54.7519C219.99 49.9173 224.741 47.1741 229.439 48.9181C232.325 49.9887 233.656 51.6954 234.5 53.7807L231.341 55.7294C230.603 54.1003 229.669 52.9242 228.139 52.3594C225.557 51.4006 222.817 53.0949 221.737 56.0087L221.719 56.0583C220.639 58.9721 221.551 62.0753 224.176 63.0496C225.923 63.6982 227.286 63.3165 228.937 62.55L230.187 65.7462C227.922 67.034 225.74 67.5522 222.789 66.4568C218.284 64.7874 216.369 59.6828 218.181 54.7985Z" fill="#3E393D"/>
<path d="M245.911 62.7426L243.168 61.6534L244.533 58.5938L249.219 60.1701L251.174 61.641L240.189 76.2411L237.352 74.1093L245.911 62.7426Z" fill="#3E393D"/>
<path d="M255.98 79.3447L256.017 79.3075C258.456 77.1043 259.335 74.3611 257.895 72.7692C256.458 71.1773 253.737 71.7545 251.276 73.9794L251.239 74.0136C248.781 76.2385 247.906 78.9444 249.358 80.5549C250.813 82.1654 253.541 81.551 255.98 79.3447ZM248.731 71.3139L248.772 71.2797C252.669 67.7515 257.693 67.1681 260.598 70.3892C263.49 73.5885 262.425 78.4821 258.525 82.0103L258.487 82.0413C254.587 85.5727 249.578 86.1716 246.658 82.935C243.738 79.7016 244.831 74.8421 248.731 71.3139Z" fill="#3E393D"/>
<path d="M265.445 94.3076L265.491 94.2859C268.399 92.7374 269.91 90.2891 268.901 88.3962C267.89 86.5002 265.103 86.3978 262.177 87.9586L262.13 87.9804C259.201 89.5412 257.699 91.9554 258.72 93.8701C259.741 95.7878 262.543 95.856 265.445 94.3076ZM260.349 84.7531L260.393 84.7283C265.035 82.2551 270.059 82.913 272.104 86.7422C274.136 90.5528 271.918 95.0399 267.272 97.5131L267.226 97.5379C262.584 100.011 257.572 99.375 255.518 95.524C253.464 91.6731 255.704 87.2263 260.349 84.7531Z" fill="#3E393D"/>
<path d="M127.971 142.009C129.566 141.463 130.227 140.38 129.926 138.773C129.47 136.364 126.764 136.054 124.651 136.451C122.565 136.845 120.26 138.068 120.703 140.423C121.039 142.192 122.36 142.955 124.185 142.859L124.868 146.481C120.961 146.695 118.413 144.628 117.734 141.01C116.958 136.886 119.496 133.538 123.807 132.725C128.281 131.884 132.067 133.798 132.902 138.239C133.51 141.46 132.294 144.78 128.663 145.683L127.971 142.009Z" fill="white"/>
<path d="M125.765 156.908C126.792 159.304 129.237 159.105 131.394 158.177C133.553 157.25 135.406 155.605 134.373 153.209C133.355 150.839 130.888 151.05 128.731 151.977C126.571 152.902 124.747 154.537 125.765 156.908ZM137.159 152.015C138.888 156.039 137.193 159.841 132.902 161.687C128.635 163.518 124.713 162.131 122.981 158.103C121.262 154.1 122.956 150.302 127.22 148.468C131.515 146.625 135.437 148.012 137.159 152.015Z" fill="white"/>
<path d="M140.461 160.109L142.589 163.051L140.942 164.246L140.988 164.314C142.909 164.119 144.504 165.022 145.451 166.328C147.831 169.62 146.484 171.858 143.551 173.983L136.265 179.259L134.028 176.165L140.718 171.318C142.664 169.909 143.247 168.689 142.192 167.231C140.976 165.549 139.471 165.546 137.066 167.287L130.854 171.783L128.616 168.693L140.461 160.109Z" fill="white"/>
<path d="M153.094 175.372L155.095 177.326L153.218 179.253L151.216 177.295L146.155 182.481C145.205 183.455 145.199 183.924 146.124 184.827C146.431 185.128 146.742 185.388 147.049 185.571L144.855 187.821C144.312 187.449 143.697 186.887 143.157 186.36C141.463 184.706 140.399 182.912 142.453 180.805L148.482 174.627L146.825 173.007L148.709 171.086L150.363 172.703L153.426 169.562L156.159 172.231L153.094 175.372Z" fill="white"/>
<path d="M160.15 188.132C161.025 186.258 160.951 184.899 159.427 183.84C157.394 182.428 155.759 183.704 155.049 184.591L160.15 188.132ZM153.599 186.68C152.222 188.861 152.526 190.45 154.291 191.673C155.551 192.548 157.131 192.439 157.848 191.834L160.606 193.745C157.742 195.992 155.042 195.877 152.457 194.084C148.858 191.586 148.433 187.434 151.008 183.713C153.506 180.11 157.77 179.009 161.239 181.414C165.127 184.11 164.64 188.87 161.838 192.399L153.599 186.68Z" fill="white"/>
<path d="M167.805 186.203L171.16 187.584L170.381 189.468L170.455 189.499C171.988 188.326 173.822 188.251 175.315 188.869C179.066 190.414 179.094 193.027 177.71 196.375L174.275 204.695L170.744 203.242L173.9 195.602C174.815 193.378 174.676 192.034 173.012 191.345C171.095 190.56 169.81 191.345 168.677 194.091L165.751 201.182L162.22 199.726L167.805 186.203Z" fill="white"/>
<path d="M186.551 192.564L189.279 193.169L188.699 195.791L185.968 195.186L184.401 202.258C184.106 203.583 184.348 203.986 185.605 204.266C186.027 204.359 186.424 204.418 186.784 204.412L186.104 207.474C185.45 207.446 184.63 207.294 183.898 207.13C181.586 206.615 179.734 205.653 180.373 202.782L182.241 194.358L179.985 193.858L180.568 191.233L182.824 191.735L183.774 187.453L187.501 188.282L186.551 192.564Z" fill="white"/>
<path d="M200.298 203.769C200.366 205.497 201.843 206.174 203.324 206.115C204.4 206.075 205.806 205.569 205.75 204.151C205.707 202.937 204.074 202.546 201.338 202.056C199.088 201.606 196.881 200.927 196.779 198.323C196.636 194.587 199.665 193.507 202.647 193.392C205.657 193.274 208.521 194.239 208.956 197.823L205.325 197.963C205.157 196.412 204.016 196.03 202.644 196.083C201.781 196.117 200.528 196.309 200.571 197.526C200.627 198.968 202.812 199.08 204.984 199.536C207.233 199.983 209.443 200.75 209.548 203.465C209.694 207.316 206.545 208.684 203.398 208.808C200.174 208.929 196.956 207.781 196.674 203.912L200.298 203.769Z" fill="white"/>
<path d="M215.289 192.157L218.026 191.602L218.566 194.236L215.826 194.792L217.269 201.892C217.539 203.223 217.924 203.49 219.19 203.235C219.612 203.148 220 203.04 220.325 202.888L220.952 205.966C220.341 206.205 219.531 206.4 218.792 206.549C216.474 207.018 214.392 206.894 213.803 204.011L212.084 195.552L209.815 196.011L209.278 193.377L211.547 192.914L210.672 188.617L214.411 187.859L215.289 192.157Z" fill="white"/>
<path d="M229.75 195.336C229.365 196.121 228.12 196.633 227.096 197.272C226.076 197.911 225.235 198.721 225.765 200.093C226.296 201.464 227.469 201.436 228.62 200.989C231.407 199.91 230.618 197.576 230.293 196.732L229.75 195.336ZM220.453 195.751C219.308 192.189 221.874 189.949 224.782 188.822C227.366 187.823 230.708 187.224 231.975 190.498L234.721 197.595C235.199 198.836 235.804 200.027 236.347 200.453L232.735 201.855C232.446 201.48 232.173 201.07 231.975 200.633C231.323 202.308 229.867 203.388 228.26 204.012C225.781 204.974 223.348 204.428 222.265 201.632C219.919 195.41 229.933 195.354 228.598 192.35C227.984 190.768 226.83 190.914 225.576 191.401C224.198 191.931 223.568 192.844 224.015 194.371L220.453 195.751Z" fill="white"/>
<path d="M232.425 186.071L235.453 184.07L236.577 185.767L236.645 185.727C236.53 183.8 237.498 182.239 238.842 181.348C242.23 179.108 244.409 180.551 246.41 183.576L251.378 191.089L248.195 193.196L243.633 186.298C242.305 184.29 241.11 183.654 239.605 184.647C237.88 185.792 237.812 187.294 239.453 189.776L243.686 196.178L240.502 198.285L232.425 186.071Z" fill="white"/>
<path d="M251.295 174.731C249.56 176.534 250.612 178.746 252.322 180.397C253.972 181.989 256.393 182.945 258.034 181.241C259.769 179.438 258.64 177.266 256.908 175.596C255.198 173.942 253.007 172.953 251.295 174.731ZM260.899 179.37L260.861 179.407C261.386 181.148 260.812 182.724 259.564 184.018C256.65 187.041 252.526 185.899 249.594 183.066C246.761 180.335 245.569 176.307 248.402 173.362C249.544 172.183 251.192 171.534 252.827 171.916L252.865 171.879L247.568 166.765L250.215 164.016L264.762 178.054L262.242 180.667L260.899 179.37Z" fill="white"/>
<path d="M266.258 162.873C266.425 163.736 265.746 164.896 265.321 166.023C264.895 167.149 264.722 168.3 265.975 169.073C267.229 169.843 268.141 169.11 268.787 168.055C270.348 165.511 268.306 164.13 267.533 163.658L266.258 162.873ZM259.117 168.834C256.045 166.699 256.731 163.363 258.36 160.707C259.806 158.349 262.106 155.844 265.094 157.681L271.58 161.663C272.712 162.361 273.916 162.941 274.605 162.954L272.582 166.249C272.126 166.128 271.66 165.967 271.235 165.74C271.738 167.469 271.232 169.206 270.332 170.674C268.942 172.946 266.677 173.982 264.123 172.412C258.484 168.89 266.413 162.78 263.53 161.2C262.087 160.313 261.256 161.129 260.551 162.274C259.778 163.534 259.831 164.639 261.11 165.582L259.117 168.834Z" fill="white"/>
<path d="M262.639 153.72L263.968 150.341L266.497 151.334L266.515 151.284C265.069 149.934 264.542 147.79 265.24 146.012C265.348 145.739 265.497 145.509 265.674 145.289L269.153 146.654C268.948 146.949 268.687 147.455 268.52 147.88C267.49 150.512 269.094 152.15 271.52 153.106L277.655 155.517L276.262 159.073L262.639 153.72Z" fill="white"/>
<path d="M270.05 138.844C269.578 141.302 271.666 142.58 274.006 143.03C276.256 143.461 278.807 142.937 279.256 140.613C279.728 138.158 277.593 136.951 275.232 136.498C272.895 136.048 270.518 136.411 270.05 138.844ZM280.637 137.482L280.625 137.534C282.015 138.704 282.394 140.34 282.052 142.111C281.258 146.232 277.177 147.533 273.171 146.76C269.305 146.015 266.109 143.294 266.884 139.275C267.192 137.665 268.219 136.219 269.801 135.645L269.811 135.592L262.583 134.202L263.303 130.453L283.157 134.267L282.471 137.835L280.637 137.482Z" fill="white"/>
<path d="M290.074 125.098C290.074 174.844 249.746 215.172 200 215.172C150.254 215.172 109.926 174.844 109.926 125.098C109.926 75.3521 150.254 35.0242 200 35.0242C249.746 35.0242 290.074 75.3521 290.074 125.098Z" stroke="white" stroke-width="0.745333" stroke-miterlimit="10"/>
<path d="M190.008 166.175C190.005 166.172 190.002 166.172 189.999 166.172L187.442 177.889C187.442 177.889 191.522 180.089 193.822 179.146L195.975 166.488H195.972C192.844 166.929 190.008 166.175 190.008 166.175Z" fill="white"/>
<path d="M202.511 72.6953C202.511 72.6953 193.775 87.6554 190.638 91.9966C187.498 96.3379 168.563 123.695 168.981 141.479C169.4 159.256 182.362 165.745 189.999 166.167L190.567 163.567C190.567 163.567 193.04 154.534 193.831 152.448C194.622 150.363 196.419 145.758 196.419 145.758C196.419 145.758 189.155 143.092 182.319 123.524C182.319 123.524 189.729 137.482 197.356 141.798C197.356 141.798 199.659 133.308 200.593 124.315C200.593 124.315 194.262 119.925 192.534 107.981C192.534 107.981 197.716 118.631 200.593 119.279C200.593 119.279 201.459 95.3883 202.104 92.5831C202.104 92.5831 204.552 112.012 204.121 119.279C204.121 119.279 208.509 117.479 212.754 109.132C212.754 109.132 211.891 118.342 204.05 124.17C204.05 124.17 203.832 129.855 203.113 133.882C202.393 137.913 201.48 142.447 201.48 142.447C201.48 142.447 209.446 139.496 216.928 129.495C216.928 129.495 211.603 143.021 200.379 146.692C200.379 146.692 197.521 157.215 196.441 163.75L195.975 166.484C196.152 166.49 216.627 167.247 226.73 150.58C236.877 133.842 229.135 110.898 202.511 72.6953Z" fill="white"/>
</svg>
