<svg width="400" height="251" viewBox="0 0 400 251" fill="none" xmlns="http://www.w3.org/2000/svg">
<path fill-rule="evenodd" clip-rule="evenodd" d="M40.4426 134.361C33.7938 136.234 32.0858 144.088 37.5768 147.54C38.2967 147.993 41.815 149.448 42.1905 149.448C43.0627 149.448 45.7684 151.136 46.304 152.015C46.7488 152.744 46.8016 154.414 46.4044 155.178C45.0061 157.866 40.524 157.948 36.7072 155.356C35.7684 154.719 35.8437 154.68 34.7733 156.352C33.24 158.746 34.0326 159.847 38.2145 161.132C40.4504 161.819 45.4275 161.497 47.4471 160.534C50.4635 159.096 52.0616 156.474 52.0564 152.975C52.0495 149.237 50.6841 147.644 45.81 145.685C40.8459 143.693 40.1372 143.152 40.1372 141.359C40.1372 138.065 44.7846 137.193 48.9994 139.694C50.1736 140.392 50.1943 140.386 50.9869 139.119C51.9137 137.636 51.8894 137.09 50.8528 136.096C49.1093 134.426 43.5204 133.494 40.4426 134.361ZM55.8758 134.71C54.4671 135.152 53.928 136.058 54.0198 137.831L54.0777 138.968L58.116 139.064L62.1543 139.16L62.2503 149.929L62.3464 160.696H64.9422H67.538L67.5874 149.88L67.6375 139.064H70.0499C73.6218 139.064 74.8202 138.727 75.4934 137.528C75.9494 136.716 76.0533 135.062 75.6717 134.68C75.3524 134.361 56.9003 134.389 55.8758 134.71ZM81.9199 134.704C81.0754 135.014 81.0035 135.114 80.4472 136.757C80.1789 137.55 79.6035 139.194 79.1683 140.411C78.733 141.626 78.2147 143.097 78.0175 143.679C77.8193 144.261 77.3001 145.732 76.864 146.948C76.4271 148.164 75.9079 149.635 75.7097 150.217C75.5125 150.798 74.9933 152.269 74.5563 153.486C74.1194 154.702 73.6019 156.173 73.4055 156.755C73.2091 157.336 72.8266 158.415 72.5549 159.151C71.9319 160.84 71.8965 160.815 74.8549 160.751L77.333 160.696L78.3843 157.568L79.4365 154.44L84.0537 154.492L88.6708 154.543L89.0195 155.505C89.2116 156.033 89.6364 157.245 89.9644 158.197C90.8764 160.843 90.5061 160.6 93.6193 160.6C96.12 160.6 96.3155 160.574 96.1909 160.264C96.1165 160.078 95.8976 159.451 95.7047 158.87C95.5117 158.288 95.0799 157.077 94.7459 156.178C94.4119 155.279 93.9784 154.067 93.782 153.486C93.5856 152.904 93.0682 151.433 92.6312 150.217C92.1942 149 91.6751 147.529 91.4769 146.948C91.2796 146.366 90.7604 144.895 90.3235 143.679C89.8865 142.463 89.3691 140.992 89.1727 140.411C87.2786 134.799 87.0069 134.477 84.1705 134.478C83.2714 134.478 82.2591 134.58 81.9199 134.704ZM99.6002 134.609C99.4089 134.73 99.3683 137.483 99.4081 147.729L99.4574 160.696H101.86H104.264L104.314 152.38C104.345 147.172 104.434 144.064 104.551 144.064C104.724 144.064 107.604 148.229 107.874 148.871C107.941 149.03 109.425 151.323 111.172 153.966C112.919 156.61 114.634 159.206 114.983 159.735L115.618 160.696H117.921H120.224V148.486V136.276L119.775 135.647C119.198 134.838 118.249 134.45 116.851 134.45C114.952 134.45 115.128 133.521 115.128 143.508C115.128 148.361 115.058 152.332 114.971 152.332C114.885 152.332 114.611 151.964 114.362 151.515C114.113 151.066 113.578 150.205 113.173 149.603C112.768 149 112.437 148.458 112.437 148.398C112.437 148.293 112.061 147.689 110.194 144.787C109.735 144.074 109.36 143.443 109.36 143.383C109.36 143.322 109.014 142.764 108.59 142.141C108.167 141.518 107.821 140.956 107.821 140.891C107.821 140.827 107.475 140.264 107.052 139.641C106.63 139.018 106.284 138.456 106.284 138.391C106.284 138.219 104.756 135.965 104.285 135.442C103.513 134.586 100.484 134.047 99.6002 134.609ZM126.135 134.665L125.509 134.846L125.559 147.771L125.608 160.696L131.088 160.679C137.03 160.66 137.828 160.555 139.825 159.523C144.285 157.218 146.376 153.232 146.373 147.044C146.371 144.505 146.31 144.061 145.662 141.948C144.504 138.177 141.249 135.504 136.857 134.715C135.183 134.416 127.131 134.378 126.135 134.665ZM156.566 134.708C155.847 134.978 155.795 135.053 155.334 136.468C155.127 137.103 154.6 138.617 154.163 139.834C153.726 141.05 153.206 142.521 153.009 143.103C152.811 143.684 152.291 145.155 151.854 146.372C151.418 147.587 150.898 149.058 150.701 149.64C150.503 150.222 149.984 151.693 149.548 152.909C149.111 154.125 148.592 155.596 148.397 156.178C148.2 156.759 147.816 157.841 147.544 158.581C146.69 160.895 146.613 160.813 149.595 160.75L152.143 160.696L153.107 157.812C153.636 156.225 154.139 154.819 154.224 154.688C154.34 154.506 155.49 154.447 158.889 154.447H163.402L163.612 154.976C164.077 156.147 165.36 159.763 165.452 160.168C165.549 160.591 165.611 160.6 168.221 160.6C171.315 160.6 171.184 160.721 170.395 158.581C170.122 157.841 169.738 156.759 169.542 156.178C169.346 155.596 168.828 154.125 168.391 152.909C167.955 151.693 167.436 150.222 167.237 149.64C167.039 149.058 166.52 147.587 166.084 146.372C165.647 145.155 165.128 143.684 164.93 143.103C164.732 142.521 164.212 141.05 163.775 139.834C163.337 138.617 162.903 137.381 162.812 137.086C162.1 134.794 159.234 133.702 156.566 134.708ZM175.217 134.621L174.448 134.738V147.717V160.696H177.044H179.639L179.691 155.841L179.742 150.986L180.845 150.99L181.947 150.996L182.909 152.65C183.437 153.559 184.072 154.661 184.32 155.097C187.46 160.629 188.352 161.381 191.47 161.119C193.808 160.924 193.912 160.75 192.787 158.915C192.351 158.203 191.845 157.361 191.663 157.043C191.482 156.726 190.454 155.004 189.38 153.218C187.136 149.486 187.225 149.754 188.108 149.335C192.853 147.083 193.693 139.101 189.489 136.209C187.279 134.689 180.056 133.886 175.217 134.621ZM197.714 134.589C196.821 134.809 196.849 134.374 196.853 147.693C196.853 154.633 196.93 160.432 197.023 160.577C197.262 160.954 207.643 160.755 209.059 160.347C214.73 158.712 217.808 154.118 217.808 147.288C217.808 140.139 214.579 135.963 208.035 134.655C207.034 134.454 198.484 134.4 197.714 134.589ZM258.907 134.741C255.945 135.388 253.236 137.826 252.403 140.595C250.792 145.948 250.91 151.781 252.719 156.274C254.989 161.909 263.749 163.248 267.827 158.582C272.071 153.724 271.739 140.871 267.262 136.726C265.038 134.666 262.267 134.008 258.907 134.741ZM280.685 134.723C277.173 135.55 274.584 138.181 273.765 141.756C273.632 142.338 273.444 143.073 273.346 143.391C272.53 146.057 273.092 153.047 274.37 156.128C276.971 162.4 286.318 163.353 290.088 157.73C293.571 152.537 293.134 140.855 289.313 136.977C287.235 134.869 283.836 133.982 280.685 134.723ZM240.244 135.062C238.665 135.638 233.218 138.591 232.662 139.173C231.761 140.117 231.956 141.367 233.256 142.99L233.705 143.55L236.108 142.364C237.429 141.713 238.568 141.18 238.639 141.18C238.71 141.18 238.768 145.485 238.77 150.746C238.772 156.007 238.844 160.423 238.929 160.559C239.046 160.742 239.693 160.791 241.474 160.751L243.863 160.696L243.913 148.057L243.962 135.417L243.264 135.126C242.476 134.797 241.055 134.766 240.244 135.062ZM332.506 135.787C331.874 136.048 331.306 136.786 330.687 138.151C329.824 140.056 329.806 140.026 331.833 140.026H333.563V137.815C333.563 135.434 333.528 135.364 332.506 135.787ZM334.992 135.858C334.938 135.997 334.92 136.97 334.951 138.021L335.006 139.93L336.711 139.986L338.417 140.041L338.29 139.365C337.877 137.164 335.472 134.606 334.992 135.858ZM328.247 137.498C327.075 138.255 325.812 139.58 325.989 139.866C326.11 140.063 328.393 140.073 328.669 139.879C328.778 139.801 328.989 139.348 329.136 138.872C329.283 138.396 329.463 137.92 329.536 137.815C330.352 136.647 329.78 136.507 328.247 137.498ZM338.563 136.855C338.563 136.909 338.729 137.32 338.933 137.769C339.135 138.217 339.362 138.8 339.436 139.064C339.672 139.902 339.896 140.026 341.171 140.026C342.742 140.026 342.839 139.804 341.733 138.743C340.401 137.467 338.563 136.372 338.563 136.855ZM184.543 138.622C185.522 139.168 186.281 140.397 186.409 141.641C186.798 145.415 185.041 147.249 181.178 147.103L179.639 147.044L179.585 143.007C179.512 137.572 179.303 138.028 181.813 138.148C183.36 138.222 184.037 138.34 184.543 138.622ZM136.754 139.059C139.707 140.333 140.895 142.763 140.895 147.538C140.895 153.109 139.278 155.624 135.144 156.489C133.575 156.817 131.438 156.836 131.127 156.524C130.703 156.101 130.805 138.948 131.232 138.68C131.816 138.314 135.633 138.576 136.754 139.059ZM207.81 138.914C211.349 140.213 212.959 144.103 212.223 149.584C211.543 154.653 208.851 156.952 203.867 156.721L202.522 156.658L202.472 147.73C202.433 140.72 202.473 138.765 202.664 138.632C203.003 138.395 206.994 138.614 207.81 138.914ZM262.749 139.059C264.593 140.183 265.474 143.084 265.488 148.08C265.506 154.271 264.134 157.139 261.156 157.139C258.525 157.139 257.49 155.618 256.905 150.89C256.444 147.165 256.831 143.305 257.905 140.891C258.79 138.904 261.077 138.039 262.749 139.059ZM284.433 139.149C285.66 139.868 286.308 141.038 286.835 143.487C287.318 145.73 287.001 152.866 286.343 154.543C285.038 157.872 280.89 158.107 279.45 154.934C278.468 152.77 278.026 145.442 278.737 143.103C279.953 139.1 281.965 137.703 284.433 139.149ZM84.5088 140.362C84.6144 140.653 84.8973 141.54 85.137 142.333C85.5376 143.66 85.8344 144.6 87.0475 148.403C87.7458 150.593 87.8773 150.496 84.1159 150.558C80.2308 150.622 80.4359 150.864 81.5348 147.507C81.9986 146.089 82.7523 143.783 83.2109 142.381C84.09 139.691 84.2016 139.518 84.5088 140.362ZM159.522 141.117C159.788 142.065 160.166 143.285 161.09 146.179C162.645 151.051 162.87 150.601 158.873 150.601C154.947 150.601 155.135 150.966 156.661 146.307C157.326 144.28 158.036 142.102 158.24 141.468C158.445 140.834 158.65 140.196 158.697 140.052C158.842 139.602 159.24 140.116 159.522 141.117ZM324.492 142.077C324.116 142.928 323.588 144.814 323.572 145.362C323.567 145.54 324.129 145.602 325.765 145.602H327.964L328.068 144.785C328.126 144.336 328.196 143.362 328.225 142.621L328.276 141.276L326.586 141.22L324.896 141.164L324.492 142.077ZM329.697 141.604C329.389 142.178 329.169 145.402 329.425 145.569C329.74 145.775 333.251 145.76 333.516 145.552C333.767 145.354 333.866 142.076 333.64 141.484C333.432 140.943 329.994 141.048 329.697 141.604ZM334.91 143.384C334.91 144.604 334.975 145.613 335.053 145.626C335.569 145.711 338.721 145.746 338.996 145.67C339.405 145.556 339.432 144.424 339.071 142.525L338.833 141.276L336.871 141.221L334.91 141.166V143.384ZM340.178 141.451C340.121 141.6 340.166 142.054 340.279 142.46C340.391 142.866 340.484 143.739 340.485 144.4L340.486 145.602H342.719H344.952L344.82 144.689C344.661 143.585 344.218 142.202 343.834 141.613C343.487 141.078 340.373 140.94 340.178 141.451ZM323.766 146.938C323.419 147.158 323.693 148.505 324.552 150.8L324.77 151.384L326.62 151.329C328.148 151.284 328.456 151.224 328.399 150.986C328.361 150.828 328.266 149.889 328.189 148.901C328.094 147.691 327.96 147.048 327.777 146.933C327.42 146.707 324.125 146.712 323.766 146.938ZM329.399 146.996C329.206 147.307 329.304 149.715 329.548 150.656L329.736 151.384L331.698 151.329L333.66 151.274L333.715 149.283C333.751 147.981 333.693 147.2 333.547 147.024C333.248 146.664 329.621 146.639 329.399 146.996ZM340.599 146.996C340.493 147.379 340.102 150.483 340.102 150.948C340.102 151.352 340.178 151.37 341.828 151.37C343.971 151.37 344.215 151.102 344.707 148.198C344.938 146.834 344.822 146.756 342.571 146.756C341.211 146.756 340.647 146.824 340.599 146.996ZM334.8 147.202C334.746 147.342 334.727 148.315 334.758 149.365L334.814 151.274L336.84 151.329L338.868 151.382L339.1 150.027C339.228 149.282 339.332 148.284 339.332 147.81V146.948H337.115C335.455 146.948 334.873 147.012 334.8 147.202ZM325.962 152.726C325.683 153.179 329.454 156.313 329.828 155.94C329.918 155.85 329.138 153.614 328.771 152.909C328.582 152.546 326.171 152.39 325.962 152.726ZM330.172 152.76C330.085 152.901 331.112 155.139 331.829 156.37C332.137 156.899 332.324 157.03 332.7 156.981C333.034 156.938 333.179 157.011 333.179 157.221C333.179 157.819 333.516 157.509 333.633 156.803C333.807 155.743 333.776 153.238 333.583 152.935C333.405 152.654 330.335 152.495 330.172 152.76ZM334.846 152.653C334.641 152.858 334.698 156.466 334.91 156.678C335.69 157.458 337.403 156.035 338.05 154.067C338.207 153.589 338.396 153.046 338.47 152.861C338.608 152.515 335.18 152.318 334.846 152.653ZM339.734 152.957C339.643 153.195 339.343 153.945 339.066 154.624C338.79 155.302 338.605 155.898 338.654 155.949C338.981 156.275 342.601 153.372 342.601 152.783C342.601 152.274 339.934 152.435 339.734 152.957Z" fill="white"/>
<path fill-rule="evenodd" clip-rule="evenodd" d="M71.5374 72.4369C67.2646 73.4813 63.3458 77.5819 62.3464 82.0528C61.642 85.2015 61.5278 87.7437 61.9613 90.6095C62.2157 92.2864 62.3611 92.9614 62.7478 94.2454C66.1051 105.39 83.0447 105.811 87.051 94.8494C88.1577 91.8218 88.7201 85.25 88.0279 83.4294C87.9154 83.1344 87.8237 82.6965 87.8237 82.4569C87.8237 80.7903 86.139 77.4149 84.4586 75.7146C81.4474 72.6688 76.1208 71.3172 71.5374 72.4369ZM149.028 72.4291C142.831 73.9944 139.26 79.4881 139.272 87.4365C139.281 94.2152 141.648 99.1646 145.894 101.284C146.476 101.575 147.101 101.888 147.285 101.979C147.469 102.072 147.776 102.146 147.968 102.146C148.16 102.146 148.399 102.222 148.499 102.314C149.208 102.963 155.378 102.851 157.14 102.156C159.125 101.373 160.814 100.276 162.012 98.9924C162.841 98.1037 164.353 95.7943 164.353 95.4179C164.353 95.3089 164.431 95.0692 164.527 94.8858C165.652 92.7338 166.196 87.2081 165.601 83.9754C164.411 77.5092 162.044 74.3976 156.95 72.6056C155.698 72.1652 150.53 72.0493 149.028 72.4291ZM275.494 72.3616C269.931 73.8231 266.264 77.0177 264.147 82.2449C261.681 88.3373 263.959 95.7926 269.602 100.097C270.944 101.121 273.175 102.117 275.301 102.641C277.659 103.223 282.623 102.851 284.298 101.967C284.479 101.872 285.059 101.603 285.587 101.37C293.648 97.8173 296.685 86.6154 291.635 79.0727C289.367 75.686 286.1 73.3783 282.224 72.4239C281.02 72.128 276.541 72.0865 275.494 72.3616ZM116.755 72.7752C116.704 72.9076 116.686 79.5486 116.713 87.5335L116.763 102.05H119.647H122.531L122.582 95.546C122.637 88.5026 122.662 88.3659 123.586 90.1527C124.03 91.0128 124.628 91.8607 126.554 94.3588C126.879 94.7819 127.19 95.1713 127.243 95.2241C127.297 95.2777 127.6 95.6619 127.916 96.0798C131.838 101.25 132.261 101.684 133.973 102.288C134.912 102.62 137.426 102.595 138.262 102.246C139.468 101.742 139.483 101.792 137.214 98.7337C136.489 97.755 135.29 96.1326 134.549 95.128C132.911 92.9051 130.92 90.2054 129.586 88.3987C129.039 87.6581 128.591 86.9658 128.591 86.8603C128.591 86.7106 135.608 77.1769 136.745 75.7838C137.164 75.2707 138.01 73.9909 138.01 73.8715C138.01 73.6327 136.519 72.9517 135.552 72.7493C134.378 72.5027 133.141 72.7086 132.059 73.3307C131.267 73.785 130.498 74.7083 126.473 80.0349C125.574 81.2247 124.748 82.295 124.637 82.4136C124.339 82.7346 123.328 84.2826 123.022 84.8892C122.502 85.918 122.435 85.3616 122.435 80.0211C122.435 73.7478 122.392 73.5825 120.536 72.8064C119.704 72.4577 116.885 72.4343 116.755 72.7752ZM235.306 72.719C235.042 72.8038 234.458 72.9838 234.009 73.1187C232.936 73.4424 232.709 72.86 236.732 80.1016C238.679 83.6068 240.376 86.7028 240.502 86.9797C240.77 87.5741 240.734 87.6451 236.88 94.0707C236.087 95.3928 235.289 96.734 235.108 97.0515C233.68 99.5513 232.749 101.118 232.599 101.272C231.881 102.013 232.321 102.146 235.486 102.146H238.549L238.945 101.591C239.163 101.285 239.958 99.965 240.713 98.6584C241.466 97.3509 242.26 95.9795 242.474 95.6091C242.689 95.2388 243.029 94.6331 243.23 94.2627C243.957 92.925 244.329 92.5772 244.593 92.9865C244.813 93.3274 245.66 94.6954 247.225 97.2436C248.64 99.5453 249.57 100.974 249.902 101.357C250.808 102.402 253.524 102.852 255.59 102.299C256.776 101.982 256.857 102.292 254.538 98.301C253.77 96.9789 252.979 95.616 252.78 95.2725C252.582 94.929 252.257 94.3666 252.059 94.0231C251.86 93.6787 251.07 92.3159 250.302 90.9946C249.533 89.6724 248.738 88.2845 248.534 87.9107L248.162 87.2315L249.49 84.9307C250.221 83.6648 251.383 81.6781 252.071 80.5143C256.679 72.7389 256.449 73.3411 254.996 72.8462C251.632 71.6997 250.423 72.5182 247.226 78.1097C244.546 82.796 244.616 82.7069 244.234 81.9074C244 81.4203 241.903 77.4529 240.96 75.7163C239.44 72.9154 237.653 71.9679 235.306 72.719ZM93.5925 87.4348V102.146H102.999H112.405L112.529 101.586C112.846 100.144 112.163 98.4827 111.029 97.9333C110.249 97.556 109.881 97.5318 104.877 97.5318H99.5534V93.497V89.463L104.216 89.4111L108.879 89.3601V87.1484V84.9376L104.264 84.8321C101.726 84.7749 99.6278 84.71 99.601 84.6884C99.5751 84.6668 99.5534 83.0478 99.5534 81.0914V77.5343H104.336C111.144 77.5343 112.598 76.7875 111.933 73.6362L111.762 72.8237L102.677 72.7735L93.5925 72.7233V87.4348ZM186.082 72.8514C184.488 73.3818 183.538 75.1548 183.895 76.9381L184.014 77.5343L188.269 77.5369C190.609 77.5386 192.63 77.6087 192.761 77.6918C192.948 77.8094 193.012 80.5576 193.05 89.9467L193.1 102.05H196.08H199.061L199.11 90.0506C199.145 81.5769 199.223 77.9747 199.374 77.793C199.537 77.5957 200.337 77.5343 202.743 77.5343C207.359 77.5343 208.266 76.9814 208.155 74.2358L208.098 72.8237L197.234 72.7899C191.258 72.7709 186.24 72.7986 186.082 72.8514ZM211.655 87.4391V102.151L221.125 102.1L230.595 102.05L230.65 100.993C230.69 100.195 230.596 99.7227 230.264 99.0702C229.518 97.5967 229.31 97.5517 223.144 97.5413L217.808 97.5318V93.497V89.463L222.375 89.4111L226.942 89.3601V87.1484V84.9376L222.423 84.8407L217.905 84.7447L217.852 81.1399L217.8 77.5343H222.445C229.229 77.5343 230.115 77.1311 230.115 74.0411C230.115 72.6576 230.618 72.7268 220.654 72.7268H211.655V87.4391ZM280.583 75.9197C282.753 76.168 285.32 77.4858 286.981 79.2051C287.961 80.2201 289.338 82.2077 289.338 82.6083C289.338 82.7658 289.414 82.9423 289.508 83.0003C289.686 83.1101 289.708 83.1854 290.189 85.3218C291.447 90.9098 287.839 97.055 282.32 98.7215C274.492 101.086 267.071 95.5702 267.04 87.363C267.032 85.3235 267.221 84.4167 268.037 82.5815C268.892 80.6597 271.384 78.0041 273.108 77.1786C273.627 76.9294 274.181 76.6621 274.34 76.5825C275.076 76.2165 278.262 75.6203 278.955 75.7198C279.219 75.757 279.952 75.847 280.583 75.9197ZM77.4403 77.382C80.9542 78.4558 83.133 85.0665 81.8524 90.7644C80.654 96.098 78.9234 97.9419 75.0807 97.98C71.6421 98.0137 69.2556 95.783 68.4336 91.763C66.44 82.0216 70.6461 75.3053 77.4403 77.382ZM154.931 77.3794C161.077 79.3436 161.385 94.4635 155.341 97.5153C151.139 99.637 146.814 96.6873 145.779 90.9946C144.107 81.7941 148.464 75.3122 154.931 77.3794ZM274.29 79.5902C273.972 79.6732 273.954 80.1561 274.001 87.2107L274.051 94.7438H275.494H276.936L277.032 91.9559L277.128 89.1671H277.779C278.408 89.1671 278.471 89.2415 279.74 91.4627C281.543 94.6149 281.889 94.9368 283.471 94.9325C285.346 94.9273 285.345 94.8935 283.385 91.6522C281.369 88.3174 281.409 88.4853 282.464 87.7861C285.004 86.1032 284.865 81.2385 282.245 80.1872C280.742 79.5841 275.75 79.2095 274.29 79.5902ZM280.375 82.3201C281.238 83.1318 281.264 85.3902 280.419 86.2035C279.616 86.9762 277.745 87.4002 277.263 86.9174C277.005 86.6604 276.927 82.1272 277.177 81.8745C277.515 81.531 279.886 81.8607 280.375 82.3201ZM170.891 88.9932C170.891 92.0208 171.221 92.148 179.087 92.148H185.12V90.6961C185.12 87.556 185.063 87.5335 177.149 87.5335H170.891V88.9932ZM68.0918 112.505C64.4421 113.154 62.9114 118.644 65.3653 122.281C66.3024 123.67 68.7797 124.424 70.538 123.856C72.6094 123.186 73.0914 122.56 72.2928 121.574L71.9527 121.154L70.9671 121.649C69.1795 122.547 67.5934 121.996 66.8579 120.221C65.2987 116.455 68.8022 112.384 71.4664 114.866C71.9743 115.339 72.1431 115.316 72.535 114.718C73.4401 113.337 70.8019 112.023 68.0918 112.505ZM160.169 112.519C156.033 113.192 154.71 121.327 158.414 123.309C161.302 124.856 166.098 123.485 164.353 121.612L163.968 121.199L163.027 121.671C160.52 122.93 158.585 121.408 158.585 118.177C158.585 114.571 160.825 113.202 163.724 115.037C164.106 115.28 164.182 115.268 164.438 114.929C165.602 113.39 163.189 112.028 160.169 112.519ZM78.4631 113.107C74.6801 114.974 74.9743 122.133 78.9018 123.774C83.5414 125.713 87.4637 120.181 85.0989 115.033C84.0424 112.731 81.0079 111.85 78.4631 113.107ZM90.179 112.729L89.7463 112.903V118.302V123.702L90.8522 123.644L91.958 123.586L92.054 120.236L92.1501 116.885L93.5146 118.986C94.2648 120.142 95.2487 121.671 95.7003 122.384L96.5215 123.682H97.5572H98.5921V118.587C98.5921 112.84 98.541 112.628 97.186 112.759L96.5725 112.819L96.4765 116.216C96.4237 118.085 96.3251 119.669 96.2576 119.736C96.1901 119.803 95.2063 118.361 94.0719 116.531C91.5807 112.512 91.3298 112.266 90.179 112.729ZM120.96 112.668C119.931 112.797 119.925 112.833 119.98 118.418L120.031 123.586L122.465 123.64C126.816 123.736 128.637 122.197 128.671 118.395C128.71 113.925 126.143 112.019 120.96 112.668ZM144.019 112.666C143.402 112.785 143.376 113.038 143.436 118.587L143.491 123.586L144.5 123.644L145.509 123.703V120.328C145.509 116.477 145.545 116.417 146.727 118.251C147.187 118.965 148.161 120.477 148.892 121.613L150.22 123.675L151.23 123.679L152.24 123.682V118.587C152.24 112.835 152.212 112.723 150.797 112.723H150.124V116.28C150.124 118.236 150.059 119.836 149.98 119.834C149.802 119.832 149.317 119.094 147.388 115.895C145.983 113.565 145.104 112.497 144.644 112.557C144.539 112.571 144.257 112.62 144.019 112.666ZM192.475 112.666L192.042 112.749V118.226V123.703L193.051 123.644L194.061 123.586L194.157 120.221L194.253 116.856L195.799 119.164C196.649 120.433 197.641 121.969 198.002 122.577L198.661 123.682H199.678H200.695V118.699C200.695 113.209 200.696 113.217 199.893 112.801C198.649 112.158 198.58 112.341 198.58 116.293C198.58 118.242 198.515 119.836 198.436 119.835C198.3 119.834 197.783 119.053 196.08 116.28C194.348 113.46 194.087 113.079 193.706 112.813C193.296 112.525 193.239 112.518 192.475 112.666ZM233.431 112.765C232.846 113.047 232.867 113.106 234.942 116.917C235.702 118.312 235.69 118.369 234.056 121.08C232.328 123.949 232.352 123.682 233.829 123.682H235.045L235.962 122.048C237.076 120.064 236.954 120.069 238.198 121.964C239.251 123.568 240.029 124.183 240.759 123.989C241.626 123.757 241.705 123.597 241.304 122.894C241.098 122.535 240.393 121.311 239.738 120.175L238.546 118.111L238.915 117.579C240.399 115.445 241.524 113.053 241.169 112.794C240.315 112.169 239.423 112.739 238.31 114.626C237.207 116.494 237.236 116.495 236.191 114.553C235.203 112.717 234.49 112.255 233.431 112.765ZM285.957 112.907C282.84 114.294 283.297 117.682 286.766 118.899C288.674 119.57 288.954 119.801 288.954 120.714C288.954 122.155 286.936 122.73 285.325 121.748C284.564 121.284 284.214 121.366 283.947 122.069C283.197 124.039 288.349 124.844 290.259 123.055C292.411 121.039 291.387 118.386 287.975 117.139C286.278 116.519 285.751 115.552 286.659 114.729C287.171 114.267 288.917 114.259 289.613 114.715C290.432 115.251 291.069 114.932 291.069 113.983C291.069 112.819 287.732 112.117 285.957 112.907ZM102.951 112.851C102.88 112.921 102.822 115.387 102.822 118.331V123.682H103.97H105.118L105.172 121.327L105.225 118.972L106.908 118.916L108.59 118.86V118.01V117.16L106.908 117.104L105.225 117.049V115.799V114.549L107.234 114.494C109.469 114.432 109.745 114.31 109.745 113.372V112.723H106.412C104.578 112.723 103.021 112.78 102.951 112.851ZM113.526 112.851C113.455 112.921 113.398 115.391 113.398 118.34V123.702L114.504 123.644L115.609 123.586V118.427C115.609 113.542 115.589 113.253 115.236 112.995C114.852 112.715 113.754 112.622 113.526 112.851ZM132.72 113.155C132.662 113.393 132.638 115.838 132.669 118.587L132.722 123.586H136.279H139.837L139.794 123.011C139.728 122.123 139.314 121.952 137.228 121.952C135.001 121.952 134.89 121.87 134.972 120.286L135.03 119.164L136.559 119.107C138.347 119.041 138.628 118.874 138.549 117.931L138.491 117.241L136.761 117.145L135.03 117.049V115.799V114.549L136.761 114.501C139.265 114.432 140.272 113.882 139.53 112.989C139.094 112.463 132.852 112.615 132.72 113.155ZM168.862 112.966C168.811 113.099 168.792 115.543 168.821 118.398L168.872 123.586L172.381 123.639L175.89 123.691V123.121C175.89 122.191 175.331 121.952 173.159 121.952C171.015 121.952 171.003 121.941 171.119 120.112L171.18 119.164L172.813 119.068L174.448 118.972L174.507 118.066L174.565 117.16L172.872 117.104L171.18 117.049V115.799V114.549L173.191 114.453C175.328 114.351 175.995 113.966 175.64 113.041C175.479 112.623 169.022 112.551 168.862 112.966ZM185.406 113.155C185.348 113.393 185.324 115.838 185.355 118.587L185.408 123.586L186.514 123.644L187.62 123.702V118.597C187.62 113.748 187.6 113.472 187.235 113.107C186.677 112.549 185.547 112.578 185.406 113.155ZM210.544 113.022C210.27 113.214 210.117 113.52 210.117 113.88V114.438L211.799 114.494L213.481 114.549L213.533 119.116L213.585 123.682H214.732H215.878L215.93 119.116L215.981 114.549L217.375 114.493C218.897 114.431 219.741 113.718 219.143 112.997C218.793 112.575 211.15 112.597 210.544 113.022ZM222.704 112.961C222.652 113.097 222.632 115.543 222.66 118.398L222.711 123.586L226.221 123.639L229.73 123.691V123.121C229.73 122.194 229.17 121.952 227.019 121.952C224.799 121.952 224.687 121.869 224.768 120.286L224.827 119.164L226.411 119.108C228.152 119.047 228.471 118.825 228.348 117.76C228.288 117.247 228.267 117.24 226.558 117.145L224.827 117.049V115.799V114.549L226.91 114.453C229.14 114.35 229.628 114.115 229.497 113.205C229.428 112.72 222.886 112.486 222.704 112.961ZM244.536 113.107C243.629 114.015 243.991 114.453 245.651 114.453C247.722 114.453 247.612 114.181 247.612 119.308V123.702L248.718 123.644L249.823 123.586L249.875 119.119C249.934 114.02 249.732 114.506 251.836 114.406C252.962 114.353 253.601 113.766 253.323 113.041C253.117 112.505 245.077 112.565 244.536 113.107ZM256.794 112.833C256.714 112.913 256.649 115.387 256.649 118.331V123.682H257.804H258.957L258.951 118.635C258.946 114.63 258.89 113.514 258.678 113.235C258.399 112.867 257.045 112.578 256.794 112.833ZM263.428 112.85C263.244 112.924 263.188 114.201 263.188 118.315V123.682H266.649H270.11V123.238C270.11 122.254 269.72 122.056 267.578 121.952L265.591 121.856L265.543 117.625C265.487 112.743 265.215 112.128 263.428 112.85ZM273.85 112.966C273.798 113.099 273.779 115.543 273.808 118.398L273.859 123.586L277.369 123.639L280.877 123.691V123.121C280.877 122.205 280.311 121.952 278.262 121.952C276.149 121.952 276.027 121.857 276.109 120.286L276.167 119.164L277.696 119.107C279.483 119.041 279.765 118.874 279.686 117.931L279.628 117.241L277.897 117.145L276.167 117.049V115.799V114.549L278.179 114.453C280.316 114.351 280.982 113.966 280.627 113.041C280.467 112.623 274.009 112.551 273.85 112.966ZM81.5746 114.451C82.8604 114.47 83.8477 117.876 83.229 120.155C82.7367 121.967 80.6938 122.754 79.3708 121.64C76.993 119.64 78.2909 113.842 80.9975 114.373C81.2095 114.413 81.4691 114.449 81.5746 114.451ZM333.179 114.431C329.029 115.316 328.296 119.599 331.443 124.57C331.922 125.326 331.784 125.437 328.468 126.944C327.728 127.28 326.803 127.809 326.412 128.119C325.229 129.058 324.338 128.68 324.719 127.401C326.236 122.293 325.42 119.539 322.02 118.296C318.175 116.891 314.631 120.867 316.323 124.687C316.894 125.974 318.612 127.589 320.352 128.471C321.062 128.83 321.642 129.181 321.642 129.25C321.642 129.409 320.487 131.245 320.306 131.374C320.029 131.572 318.626 133.803 318.372 134.451C317.774 135.968 316.818 135.848 316.459 134.21C315.217 128.523 310.74 126.052 307.454 129.241C303.742 132.843 306.451 137.259 312.625 137.67L314.816 137.816L314.789 138.681C314.773 139.157 314.73 140.778 314.693 142.282C314.597 146.084 314.424 146.214 312.29 144.094C307.992 139.827 302.413 141.005 302.413 146.18C302.413 150.896 307.724 152.398 312.467 149.025C313.337 148.406 313.293 148.353 315.078 152.141C315.502 153.04 316.027 153.966 316.245 154.2C316.964 154.967 316.531 156.159 315.656 155.825C310.248 153.76 306.185 155.399 306.169 159.652C306.15 164.413 311.294 166.21 314.733 162.645C315.418 161.935 317.027 159.421 317.027 159.06C317.027 158.571 317.788 158.955 320.339 160.728C321.125 161.274 322.176 161.914 322.676 162.149C323.816 162.684 323.935 163.649 322.892 163.879C320.196 164.475 319.3 164.839 317.865 165.926C313.433 169.283 317.263 176.007 322.494 174.049C324.698 173.225 325.681 171.364 325.827 167.739L325.915 165.551L327.769 165.705C328.788 165.789 330.415 165.858 331.384 165.856C333.97 165.853 334.119 166.212 332.289 168.043C329.087 171.246 328.647 174.608 331.13 176.898C332.373 178.043 333.691 178.404 335.198 178.011C339.226 176.962 340.126 173.04 337.378 168.508C336.465 167.003 336.284 167.203 340.165 165.427C340.886 165.095 341.799 164.567 342.192 164.251C343.281 163.376 344.375 164.013 343.774 165.171C341.582 169.386 343.9 174.446 348.023 174.446C353.663 174.446 353.94 166.929 348.406 164.067C346.704 163.188 346.749 163.239 347.097 162.567C347.264 162.245 347.882 161.31 348.471 160.488C349.061 159.667 349.753 158.537 350.009 157.976C350.754 156.347 351.692 156.29 351.919 157.859C352.773 163.768 357.628 166.372 361.156 162.814C364.697 159.244 361.263 154.448 355.166 154.448H353.506L353.656 152.285C353.738 151.095 353.791 149.468 353.772 148.668C353.719 146.386 354.215 146.244 356.004 148.031C360.378 152.403 365.998 151.248 365.95 145.988C365.908 141.363 361.517 139.956 356.474 142.954C354.92 143.878 355.122 144.062 353.373 140.123C353.044 139.383 352.523 138.462 352.215 138.077C351.13 136.722 351.899 136.071 353.756 136.771C358.878 138.704 363.988 134.929 361.995 130.687C359.942 126.32 354.462 127.145 351.848 132.217C351.065 133.734 351.111 133.727 349.457 132.576C347.144 130.966 345.974 130.244 345.659 130.232C345.241 130.216 344.716 129.603 344.716 129.13C344.716 128.737 345.706 128.298 346.588 128.298C347.074 128.298 348.823 127.589 349.75 127.016C355.424 123.512 350.965 115.553 345.155 118.814C343.524 119.729 342.803 121.386 342.626 124.624L342.505 126.855L341.832 126.824C341.462 126.807 339.861 126.745 338.275 126.685C336.688 126.626 335.346 126.575 335.292 126.572C334.491 126.529 334.803 125.731 336.142 124.392C338.379 122.155 339.343 119.731 338.744 117.853C337.937 115.324 335.634 113.906 333.179 114.431ZM124.91 114.787C126.352 115.615 126.853 118.435 125.912 120.433C125.406 121.508 124.99 121.744 123.492 121.807L122.339 121.856L122.286 118.401C122.258 116.501 122.277 114.836 122.328 114.7C122.47 114.329 124.215 114.388 124.91 114.787ZM335.371 116.644C337.712 117.622 337.539 120.604 334.992 123.154C333.659 124.488 333.016 124.094 331.85 121.234C330.66 118.314 332.773 115.558 335.371 116.644ZM322.361 120.531C323.76 121.419 323.987 125.511 322.732 127.228C322.13 128.051 318.271 124.971 317.862 123.341C317.319 121.177 320.372 119.27 322.361 120.531ZM349.458 120.547C352.327 122.428 349.436 126.759 345.311 126.759H344.716V125.003C344.716 121.057 346.984 118.927 349.458 120.547ZM333.311 127.456C333.378 127.632 333.313 127.834 333.161 127.92C330.274 129.541 330.57 133.526 333.63 134.247C336.076 134.824 337.893 132.571 337.06 129.997C336.601 128.579 336.669 128.532 338.731 128.846C339.537 128.968 340.721 129.069 341.36 129.068C342.401 129.067 342.985 129.278 342.985 129.655C342.985 129.725 342.452 129.896 341.801 130.034C339.013 130.626 337.83 133.431 339.585 135.291C341.354 137.168 344.236 136.186 344.932 133.469C345.229 132.309 345.186 132.307 346.955 133.537C347.754 134.092 348.709 134.73 349.078 134.953C350.339 135.721 350.697 136.835 349.488 136.228C346.882 134.921 344.33 136.2 344.332 138.815C344.334 141.865 348.477 142.911 350.192 140.296C350.358 140.042 350.573 139.834 350.671 139.834C350.93 139.834 353.403 145.043 353.288 145.346C353.131 145.753 352.925 145.641 352.385 144.86C351.459 143.519 349.373 142.921 348.005 143.603C345.624 144.791 345.908 148.487 348.439 149.23C349.277 149.475 349.64 149.464 351.225 149.145L351.868 149.015L351.727 151.577C351.519 155.328 351.118 156.294 350.671 154.122C350.118 151.442 347.989 150.18 345.868 151.276C343.227 152.642 344.424 157.086 347.445 157.132C348.271 157.144 348.234 157.392 347.166 158.972C346.612 159.791 345.923 160.818 345.637 161.253C344.592 162.835 343.982 162.909 344.594 161.379C345.799 158.365 343.21 155.488 340.486 156.814C338.393 157.833 338.33 160.747 340.369 162.35L340.899 162.767L340.356 163.134C340.057 163.336 339.423 163.677 338.947 163.892C338.471 164.107 337.496 164.579 336.78 164.941C334.999 165.842 334.74 165.729 335.987 164.596C338.534 162.282 337.451 158.679 334.211 158.679C331.933 158.679 330.857 160.648 331.558 163.534L331.686 164.062L329.596 164.046C326.533 164.021 325.584 163.866 325.584 163.389C325.584 163.079 325.75 162.982 326.449 162.891C328.435 162.629 329.728 161.381 329.704 159.75C329.647 155.835 324.111 155.642 323.568 159.536C323.428 160.535 323.007 160.517 321.487 159.447C320.884 159.024 319.895 158.328 319.286 157.902C317.772 156.839 317.762 156.222 319.268 156.852C322.751 158.307 325.913 154.479 323.298 151.976C321.889 150.629 319.241 150.999 318.348 152.668C317.988 153.342 317.511 152.979 316.902 151.564C316.789 151.299 316.325 150.322 315.871 149.392C314.815 147.223 315.015 146.885 316.485 148.355C318.491 150.361 321.352 149.84 322.022 147.348C322.721 144.752 320.535 142.793 317.906 143.66C316.585 144.095 316.551 144.054 316.709 142.187C316.77 141.475 316.877 140.178 316.948 139.306C317.06 137.93 317.124 137.72 317.436 137.72C317.72 137.72 317.796 137.863 317.796 138.395C317.796 141.364 321.396 143.027 323.365 140.965C325.258 138.986 323.469 135.604 320.529 135.604C320.149 135.604 321.572 133.019 322.221 132.528C322.291 132.474 322.587 132.02 322.879 131.518C323.717 130.075 324.464 130.037 323.866 131.468C322.551 134.616 325.292 137.484 328.155 135.956C330.055 134.942 330.219 132.593 328.514 130.846C327.556 129.865 327.452 129.992 330.487 128.427C333.228 127.013 333.151 127.04 333.311 127.456ZM335.263 130.348C335.65 131.414 335.248 132.143 334.27 132.143C333.069 132.143 332.744 130.9 333.695 129.95C334.409 129.236 334.905 129.361 335.263 130.348ZM311.871 130.201C312.427 130.419 313.413 131.382 313.69 131.98C315.2 135.242 315.085 135.989 313.073 135.989C311.147 135.989 309.751 135.571 308.894 134.739C306.701 132.609 309.012 129.087 311.871 130.201ZM359.091 130.412C360.945 131.542 360.918 134.144 359.042 135.239C358.221 135.718 356.153 135.705 354.495 135.211C352.968 134.757 352.926 134.646 353.741 133.224C355.368 130.383 357.343 129.346 359.091 130.412ZM327.152 131.864C327.952 132.475 328.056 133.477 327.368 133.959C326.147 134.814 325.017 133.386 325.711 131.864C325.992 131.246 326.341 131.246 327.152 131.864ZM343.178 132.537C343.178 133.98 342.036 134.672 341.138 133.774C340.297 132.933 341.059 131.771 342.457 131.763C343.172 131.759 343.178 131.765 343.178 132.537ZM321.978 138.022C322.693 138.828 322.189 139.834 321.071 139.834C320.135 139.834 319.242 138.07 319.863 137.446C320.155 137.154 321.544 137.531 321.978 138.022ZM348.649 137.75C349.273 138.035 349.27 138.495 348.641 139.243C348.014 139.989 347.016 140.067 346.554 139.407C345.728 138.228 347.179 137.08 348.649 137.75ZM309.519 144.312C310.574 145.032 312.027 146.525 312.027 146.887C312.027 148.266 306.754 149.617 305.498 148.561C302.305 145.874 306.035 141.934 309.519 144.312ZM363.006 144.081C364.53 145.166 364.485 147.568 362.922 148.632C361.41 149.661 359.306 149 357.36 146.884C356.253 145.68 356.256 145.749 357.263 145.07C359.594 143.499 361.683 143.139 363.006 144.081ZM319.873 145.449C320.811 146.387 319.688 147.857 318.475 147.279C317.432 146.782 317.063 145.892 317.747 145.521C318.39 145.172 319.556 145.133 319.873 145.449ZM350.756 145.81C351.424 146.604 351.384 146.889 350.558 147.235C349.294 147.762 348.369 147.412 348.369 146.405C348.369 145.159 349.89 144.78 350.756 145.81ZM334.842 146.901C334.793 146.98 335.458 147.022 336.321 146.993C339.016 146.905 339.322 146.823 337.084 146.789C335.901 146.771 334.892 146.822 334.842 146.901ZM321.791 153.017C323.106 153.938 321.572 155.57 320.007 154.916C319.163 154.564 319.159 154.201 319.988 153.371C320.709 152.651 321.147 152.565 321.791 153.017ZM347.886 152.909C348.399 153.104 348.946 154.093 348.946 154.826C348.946 155.386 347.475 155.381 346.761 154.819C345.602 153.907 346.5 152.382 347.886 152.909ZM358.803 157.319C361.57 158.733 360.751 162.548 357.671 162.593C355.767 162.621 354.665 161.231 353.776 157.682C353.538 156.726 353.563 156.715 355.869 156.788C357.548 156.841 358.041 156.931 358.803 157.319ZM314.326 157.396C315.351 157.709 315.424 157.865 314.986 158.814C313.818 161.345 312.395 162.616 310.757 162.592C307.405 162.544 306.97 158.255 310.201 157.099C310.749 156.903 313.313 157.088 314.326 157.396ZM327.368 158.593C328.383 159.304 327.353 160.985 325.902 160.985C325.359 160.985 325.296 160.927 325.296 160.421C325.296 158.792 326.338 157.872 327.368 158.593ZM342.565 158.685C343.415 159.477 342.817 161.513 341.882 161.012C340.459 160.251 340.423 158.294 341.832 158.294C342.003 158.294 342.333 158.47 342.565 158.685ZM335.059 160.709C335.736 161.183 335.545 162.225 334.647 162.952C334.031 163.451 333.666 163.364 333.41 162.655C332.799 160.963 333.775 159.809 335.059 160.709ZM347.227 165.648C351.314 167.813 351.726 172.523 347.829 172.523C345.7 172.523 344.747 171.142 344.976 168.388C345.222 165.429 345.704 164.842 347.227 165.648ZM323.87 166.272C324.617 169.25 322.947 172.523 320.68 172.523C317.981 172.523 316.819 168.904 319.049 167.443C319.938 166.861 320.788 166.444 321.546 166.221C323.369 165.685 323.724 165.693 323.87 166.272ZM335.762 169.617C337.777 172.934 337.399 175.505 334.801 176.16C331.188 177.069 330.409 172.539 333.65 169.472C334.948 168.245 334.928 168.244 335.762 169.617Z" fill="white"/>
</svg>
