<svg width="400" height="251" viewBox="0 0 400 251" fill="none" xmlns="http://www.w3.org/2000/svg">
<path fill-rule="evenodd" clip-rule="evenodd" d="M122.759 53.8764C122.096 54.0515 121.484 54.2403 121.399 54.2954C121.314 54.3513 119.857 54.5718 118.161 54.7849C115.078 55.1731 109.967 56.1238 109.663 56.3645C109.575 56.435 109.028 56.6084 108.448 56.7503C107.868 56.8913 106.58 57.2471 105.586 57.5405C104.591 57.8338 103.524 58.1418 103.214 58.2237C102.902 58.3063 102.649 58.4222 102.649 58.4822C102.649 58.5422 102.36 58.6751 102.008 58.7772C100.834 59.12 98.1685 60.1298 97.0242 60.6655C96.4025 60.9565 95.5329 61.3333 95.0912 61.5035C94.6496 61.6729 93.9153 62.0133 93.459 62.2589C93.0035 62.5044 91.997 63.011 91.2222 63.3854C89.252 64.3369 85.8716 66.3119 83.4216 67.9417C80.098 70.1526 79.3597 70.6648 78.9925 71.0093C78.7818 71.2062 78.409 71.4972 78.1635 71.6552C75.0675 73.6473 67.4372 80.9648 64.009 85.2294C63.6775 85.6411 63.2188 86.1824 62.9887 86.4313C62.7593 86.6801 62.3184 87.2555 62.0096 87.7093C61.7009 88.164 61.3345 88.6381 61.1959 88.7637C61.0565 88.8893 60.5314 89.6025 60.0273 90.3481C59.524 91.0937 58.8035 92.1449 58.4258 92.683C58.0482 93.222 57.6 93.9295 57.4298 94.2553C57.2596 94.5819 57.0286 94.9401 56.9168 95.0512C56.8058 95.163 56.3276 95.9467 55.8543 96.7936C55.3818 97.6397 54.9506 98.3659 54.8972 98.4072C54.8437 98.4494 54.4052 99.2622 53.923 100.215C53.4408 101.168 52.8913 102.219 52.7025 102.55C52.5136 102.882 52.0484 103.886 51.6675 104.781C51.2874 105.677 50.7493 106.897 50.4721 107.493C50.1949 108.089 49.6779 109.423 49.3229 110.459C48.9687 111.494 48.5911 112.515 48.4849 112.725C48.2499 113.191 47.2141 116.655 46.753 118.518C46.5682 119.264 46.3607 119.985 46.2918 120.119C45.9855 120.721 45.0454 125.684 44.8111 127.941C44.581 130.148 44.3443 131.549 44.2009 131.549C43.6271 131.549 43.4812 149.351 44.0493 150.077C44.2503 150.334 44.3451 150.693 44.3476 151.207C44.3565 152.81 45.9101 161.911 46.2748 162.495C46.3299 162.583 46.3891 162.723 46.4061 162.806C46.6598 164.055 48.1364 168.944 48.4995 169.736C48.6138 169.984 48.9777 170.953 49.3083 171.887C50.2395 174.52 54.0186 182.462 54.7586 183.343C54.8753 183.481 55.3008 184.171 55.7044 184.875C57.634 188.245 58.5126 188.737 57.1008 185.657C56.6566 184.689 56.2563 183.76 56.2109 183.595C56.0561 183.025 55.3348 181.079 55.0471 180.454C54.5835 179.447 52.9367 174.242 52.9367 173.784C52.9367 173.684 52.8783 173.579 52.8078 173.552C52.6741 173.501 51.9431 170.602 51.1221 166.874C48.9071 156.817 48.5854 146.096 50.169 135.089C50.3838 133.598 50.6066 132.343 50.6642 132.302C50.7217 132.26 50.9146 131.481 51.0921 130.569C51.5127 128.408 52.6076 123.913 52.7916 123.59C52.871 123.452 53.3492 122.016 53.8549 120.401C54.3606 118.785 54.8258 117.43 54.8882 117.389C54.9506 117.347 55.1743 116.838 55.3859 116.258C56.2879 113.786 56.5391 113.164 57.241 111.664C58.3399 109.316 60.905 104.317 61.4529 103.454C61.7162 103.04 62.2536 102.13 62.6483 101.433C63.0421 100.737 63.4984 100.025 63.6621 99.8522C63.8258 99.6788 64.0844 99.3003 64.2359 99.0102C64.6225 98.2727 67.0814 94.8712 67.8846 93.9635C68.2509 93.5494 68.7096 92.9732 68.9049 92.683C70.3969 90.46 78.2648 82.7624 81.2577 80.5977C81.7132 80.2686 82.1873 79.9015 82.3121 79.7832C82.4361 79.664 83.1137 79.164 83.8179 78.672C84.5222 78.1793 85.2565 77.6565 85.4494 77.5099C85.6423 77.3624 86.2963 76.9377 86.9033 76.5649C87.5103 76.1921 88.1319 75.7747 88.2851 75.6369C88.4383 75.4991 88.8686 75.2228 89.2414 75.0218C90.941 74.106 92.0342 73.486 92.1031 73.3993C92.2668 73.195 97.3232 70.664 98.9206 69.9881C99.8526 69.5934 100.648 69.2287 100.69 69.1777C100.78 69.0674 103.175 68.1387 104.739 67.607C105.351 67.3995 105.927 67.1669 106.019 67.0899C106.207 66.936 109.386 65.9415 111.385 65.4123C112.09 65.2259 112.734 65.0217 112.817 64.9577C113.196 64.6659 121.565 63.0142 122.691 63.0085C122.903 63.0077 123.14 62.9445 123.219 62.8691C124.153 61.9655 144.138 61.9525 145.862 62.8546C145.998 62.9251 147.24 63.1593 148.624 63.3749C151.3 63.7914 155.7 64.7121 156.201 64.9601C156.367 65.0419 157.35 65.3459 158.385 65.6352C161.762 66.5786 166.134 68.1954 169.006 69.5634C169.586 69.8398 170.636 70.318 171.34 70.6259C172.045 70.9347 172.655 71.2346 172.696 71.2929C172.738 71.3505 173.619 71.827 174.654 72.3514C175.69 72.8749 176.741 73.4536 176.989 73.6367C177.238 73.8199 177.78 74.1408 178.194 74.3491C178.956 74.7333 182.357 76.9377 183.467 77.7676C183.799 78.0156 184.544 78.5561 185.124 78.9703C187.472 80.6463 189.783 82.5679 192.205 84.859C192.784 85.4085 193.326 85.885 193.409 85.919C193.685 86.0333 197.498 90.1577 198.665 91.6035C199.089 92.1287 199.726 92.9083 200.083 93.3363L200.731 94.1143L197.899 94.2926C196.341 94.3906 194.659 94.5422 194.163 94.6281C193.665 94.7148 192.428 94.8291 191.414 94.8834C189.267 94.9977 189.229 95.0414 190.435 96.0269C190.911 96.416 191.504 96.916 191.752 97.1372C192.176 97.5149 193.029 98.2289 194.991 99.8498C195.446 100.226 196.159 100.835 196.573 101.201C196.987 101.568 197.665 102.142 198.08 102.475C198.944 103.172 200.205 104.227 201.264 105.14C201.667 105.488 202.775 106.427 203.728 107.227C204.681 108.028 206.024 109.167 206.713 109.759C207.402 110.351 208.129 110.921 208.328 111.027C208.529 111.132 208.76 111.345 208.843 111.501C208.927 111.656 209.487 112.155 210.09 112.609C210.692 113.063 211.321 113.587 211.486 113.773C211.652 113.959 212.262 114.473 212.842 114.916C213.422 115.359 214.059 115.896 214.258 116.109C214.705 116.59 215.133 116.829 215.239 116.656C215.353 116.471 215.026 111.35 214.876 110.986C214.808 110.82 214.372 104.855 213.907 97.7297C212.964 83.2973 212.955 83.1927 212.704 83.1927C212.606 83.1927 212.072 83.7519 211.517 84.4359C210.961 85.1191 209.982 86.2967 209.339 87.0521C208.697 87.8082 207.814 88.8585 207.376 89.3869C206.939 89.9162 206.161 90.8069 205.649 91.3669L204.719 92.3848L204.403 92.0444C204.228 91.8564 203.694 91.127 203.213 90.4235C202.732 89.7192 202.212 89.0231 202.056 88.8756C201.902 88.7289 201.547 88.2539 201.269 87.8212C200.99 87.3884 200.559 86.8178 200.31 86.5536C200.061 86.2886 199.754 85.9158 199.628 85.7245C198.738 84.38 192.687 77.8648 191.056 76.4952C190.756 76.2439 189.907 75.4951 189.169 74.8321C187.613 73.4349 186.462 72.4616 185.712 71.9089C185.42 71.6941 184.879 71.2662 184.509 70.959C184.14 70.651 183.381 70.0935 182.824 69.7198C182.266 69.3462 181.64 68.9086 181.434 68.7473C180.742 68.2084 177.15 65.9116 176.463 65.5695C176.09 65.384 175.581 65.0817 175.333 64.8985C175.084 64.7145 174.067 64.1675 173.073 63.6828C172.079 63.1982 171.231 62.7541 171.19 62.6957C171.097 62.5652 169.385 61.7791 167.876 61.1737C167.254 60.9249 166.678 60.6655 166.595 60.5983C166.369 60.4143 164.066 59.5139 162.528 59.009C161.782 58.7634 161.139 58.5195 161.097 58.4668C160.996 58.3379 157.444 57.2519 155.749 56.8321C155.004 56.6473 154.326 56.4423 154.242 56.3767C154.1 56.264 151.968 55.764 149.494 55.2639C147.858 54.9332 145.678 54.6066 144.376 54.498C143.754 54.4462 143.11 54.3497 142.945 54.2833C141.278 53.6187 140.886 53.5928 132.249 53.5749C124.268 53.5587 123.92 53.5693 122.759 53.8764ZM130.978 103.593C130.817 103.788 130.826 103.844 131.034 103.923C131.363 104.049 131.482 103.913 131.31 103.606C131.186 103.384 131.153 103.383 130.978 103.593ZM190.066 109.271C189.954 109.408 189.937 109.571 190.02 109.706C190.199 109.996 190.358 109.814 190.296 109.392C190.254 109.107 190.217 109.087 190.066 109.271ZM163.042 112.323C163.419 112.7 163.537 112.748 163.693 112.586C163.913 112.359 163.407 111.924 162.878 111.885C162.627 111.866 162.651 111.931 163.042 112.323ZM141.274 120.156C141.146 120.489 141.316 120.659 141.546 120.429C141.682 120.293 141.683 120.209 141.548 120.075C141.415 119.941 141.349 119.96 141.274 120.156ZM222.373 125.782C222.643 125.817 223.05 125.816 223.276 125.781C223.503 125.747 223.281 125.719 222.784 125.72C222.287 125.721 222.102 125.749 222.373 125.782ZM220.505 130.87C220.505 131.699 220.53 132.019 220.561 131.581C220.591 131.144 220.591 130.465 220.56 130.075C220.529 129.684 220.504 130.042 220.505 130.87ZM140.977 133.695L140.535 134.184L141.024 133.742C141.48 133.33 141.583 133.205 141.467 133.205C141.441 133.205 141.22 133.426 140.977 133.695ZM344.04 133.846L343.598 134.335L344.088 133.893C344.544 133.48 344.646 133.356 344.53 133.356C344.505 133.356 344.284 133.577 344.04 133.846ZM245.644 136.778C245.872 136.813 246.244 136.813 246.472 136.778C246.701 136.744 246.514 136.715 246.058 136.715C245.603 136.715 245.416 136.744 245.644 136.778ZM327.743 136.778C327.971 136.813 328.343 136.813 328.572 136.778C328.8 136.744 328.613 136.715 328.157 136.715C327.702 136.715 327.515 136.744 327.743 136.778ZM139.297 138.704C139.298 139.118 139.328 139.27 139.362 139.041C139.397 138.812 139.396 138.473 139.36 138.288C139.325 138.102 139.296 138.289 139.297 138.704ZM170.477 138.629C170.477 139.002 170.507 139.154 170.543 138.968C170.579 138.781 170.579 138.476 170.543 138.289C170.507 138.103 170.477 138.256 170.477 138.629ZM182.372 142.244C182.372 142.534 182.403 142.653 182.441 142.508C182.479 142.363 182.479 142.125 182.441 141.98C182.403 141.835 182.372 141.954 182.372 142.244ZM162.452 142.893C162.452 142.919 162.673 143.14 162.943 143.383L163.432 143.825L162.99 143.336C162.577 142.88 162.452 142.778 162.452 142.893ZM343.523 142.893C343.523 142.919 343.743 143.14 344.013 143.383L344.502 143.825L344.06 143.336C343.647 142.88 343.523 142.778 343.523 142.893ZM165.656 144.612C165.885 144.646 166.224 144.646 166.409 144.61C166.595 144.573 166.407 144.546 165.993 144.547C165.578 144.548 165.427 144.577 165.656 144.612ZM355.839 144.692C355.691 145.091 355.912 148.282 356.083 148.225C356.359 148.134 356.397 144.504 356.122 144.504C356.004 144.504 355.877 144.588 355.839 144.692ZM88.7892 158.655C88.7892 158.733 88.8557 158.837 88.9359 158.888C89.017 158.937 89.1563 159.263 89.2463 159.611C89.4481 160.394 90.5989 163.452 91.1217 164.594C91.334 165.058 91.843 166.327 92.2523 167.411C92.6615 168.496 93.1664 169.734 93.3739 170.163C93.5814 170.59 93.9971 171.619 94.2978 172.447C94.5993 173.276 95.0037 174.293 95.1982 174.707C95.3919 175.122 95.9276 176.443 96.3871 177.645C96.8467 178.846 97.3589 180.1 97.525 180.432C97.6912 180.763 98.1337 181.848 98.5081 182.842C98.8825 183.836 99.3477 184.988 99.5422 185.402C99.8526 186.063 100.037 186.527 100.723 188.377C101.012 189.154 101.486 188.932 102.011 187.775C102.526 186.639 103.854 183.287 103.854 183.122C103.854 183.064 103.946 182.909 104.06 182.778C104.174 182.647 104.415 182.134 104.597 181.637C105.322 179.656 105.336 179.655 107.845 181.501C108.922 182.292 109.993 183.04 110.225 183.162C110.456 183.284 110.998 183.651 111.43 183.978C111.861 184.305 112.263 184.573 112.323 184.573C112.383 184.574 113.163 185.039 114.056 185.608C114.948 186.177 116.187 186.897 116.809 187.209C117.43 187.521 117.974 187.832 118.019 187.901C118.063 187.97 118.842 188.372 119.751 188.795C120.66 189.219 122.013 189.861 122.759 190.223C124.162 190.903 127.257 192.106 127.606 192.106C127.716 192.106 127.806 192.168 127.806 192.242C127.806 192.392 130.316 193.208 132.701 193.835C133.53 194.053 134.343 194.294 134.509 194.372C135.921 195.033 144.738 196.324 147.842 196.324C148.544 196.324 149.046 196.387 149.046 196.474C149.046 196.569 150 196.625 151.607 196.625C153.015 196.625 154.167 196.568 154.167 196.498C154.167 196.428 155.133 196.326 156.314 196.271C158.412 196.174 161.397 195.871 163.357 195.556C166.022 195.128 169.232 194.468 169.232 194.349C169.232 194.275 169.353 194.215 169.502 194.215C170.115 194.215 175.858 192.635 176.613 192.259C176.903 192.115 177.553 191.856 178.059 191.683C179.057 191.342 181.311 190.312 181.434 190.142C181.475 190.083 181.997 189.721 182.594 189.336C184.389 188.178 184.345 188.131 181.747 188.419C171.814 189.522 161.403 189.599 152.661 188.636C150.022 188.345 147.768 188.019 147.464 187.885C147.299 187.812 146.179 187.579 144.978 187.367C142.08 186.854 137.836 185.902 137.773 185.75C137.745 185.683 137.63 185.628 137.516 185.628C137.191 185.628 130.902 183.802 130.818 183.683C130.777 183.624 129.692 183.217 128.408 182.778C127.123 182.339 125.801 181.848 125.471 181.685C125.139 181.522 124.156 181.095 123.286 180.736C121.487 179.993 120.451 179.525 120.123 179.305C119.999 179.222 119.117 178.805 118.165 178.378C117.212 177.952 116.32 177.506 116.183 177.388C116.047 177.27 115.143 176.768 114.176 176.272C113.208 175.776 112.151 175.178 111.826 174.943L111.237 174.515L112.102 174.18C114.22 173.359 114.549 173.213 114.549 173.098C114.549 173.03 114.633 172.975 114.736 172.975C114.839 172.975 115.889 172.596 117.071 172.134C119.774 171.078 119.881 170.757 117.788 169.974C117.291 169.787 116.206 169.341 115.378 168.981C114.549 168.621 113.058 168.016 112.064 167.638C111.069 167.259 110.085 166.853 109.875 166.734C109.487 166.516 106.042 165.141 105.882 165.141C105.834 165.141 105.239 164.879 104.56 164.558C103.881 164.238 102.445 163.647 101.368 163.244C100.291 162.842 99.3745 162.463 99.3307 162.404C99.2877 162.345 98.1718 161.882 96.8515 161.376C95.5305 160.87 94.3797 160.398 94.2938 160.329C93.5117 159.691 88.7892 158.255 88.7892 158.655ZM309.895 163.744C310.166 163.778 310.573 163.777 310.799 163.743C311.025 163.708 310.804 163.681 310.306 163.681C309.809 163.682 309.625 163.711 309.895 163.744ZM314.349 168.606C314.349 169.227 314.375 169.482 314.408 169.171C314.441 168.86 314.441 168.352 314.408 168.042C314.375 167.73 314.349 167.985 314.349 168.606ZM305.597 169.661C305.597 169.95 305.627 170.069 305.666 169.924C305.703 169.779 305.703 169.542 305.666 169.397C305.627 169.252 305.597 169.371 305.597 169.661ZM215.593 169.918C215.781 169.953 216.051 169.953 216.195 169.915C216.34 169.877 216.187 169.847 215.855 169.849C215.524 169.85 215.405 169.882 215.593 169.918ZM278.182 169.915C278.328 169.953 278.565 169.953 278.709 169.915C278.854 169.877 278.736 169.846 278.446 169.846C278.156 169.846 278.037 169.877 278.182 169.915ZM273.214 173.276C273.214 173.649 273.244 173.801 273.28 173.615C273.316 173.429 273.316 173.123 273.28 172.937C273.244 172.75 273.214 172.903 273.214 173.276ZM255.663 175.491C255.851 175.528 256.122 175.526 256.266 175.489C256.41 175.451 256.257 175.422 255.925 175.423C255.594 175.425 255.476 175.456 255.663 175.491ZM309.892 175.491C310.078 175.527 310.384 175.527 310.57 175.491C310.757 175.456 310.604 175.426 310.231 175.426C309.858 175.426 309.706 175.456 309.892 175.491ZM212.955 175.941C213.1 175.978 213.337 175.978 213.482 175.941C213.627 175.903 213.509 175.872 213.219 175.872C212.929 175.872 212.81 175.903 212.955 175.941ZM275.621 175.941C275.767 175.978 276.004 175.978 276.149 175.941C276.293 175.903 276.175 175.872 275.885 175.872C275.595 175.872 275.476 175.903 275.621 175.941Z" fill="white"/>
<path fill-rule="evenodd" clip-rule="evenodd" d="M128.558 75.8173C124.187 76.1487 117.484 77.1415 116.432 77.6132C116.266 77.687 115.215 77.9674 114.097 78.2356C111.719 78.8054 109.939 79.3192 109.244 79.6369C108.972 79.7609 107.946 80.1369 106.964 80.4717C103.925 81.509 96.8887 84.934 95.7192 85.9446C95.5514 86.0897 95.3756 86.2088 95.3294 86.2088C95.2824 86.2088 94.792 86.4973 94.2385 86.8499C93.6858 87.2016 93.0471 87.5866 92.8186 87.7033C92.5909 87.8208 92.4045 87.974 92.4045 88.0437C92.4045 88.1134 92.0146 88.4189 91.5381 88.7228C88.5305 90.642 81.7333 97.0818 79.3247 100.295C79.0775 100.626 78.746 101.038 78.5896 101.211C78.0142 101.846 77.2475 102.865 77.0562 103.248C76.9484 103.465 76.7102 103.804 76.527 104.001C76.1177 104.443 74.7659 106.441 74.4174 107.118C74.2764 107.391 74.0422 107.734 73.8979 107.879C73.7529 108.024 73.3079 108.749 72.91 109.491C72.5112 110.232 72.1004 110.94 71.9974 111.064C71.6757 111.45 69.0887 116.574 68.5157 117.959C68.2167 118.683 67.7458 119.756 67.4703 120.346C67.1939 120.936 66.6809 122.325 66.33 123.434C65.9782 124.543 65.6346 125.473 65.5657 125.501C65.4968 125.528 65.4401 125.654 65.4401 125.78C65.4401 125.906 65.2731 126.562 65.0689 127.236C64.8647 127.911 64.4611 129.684 64.1709 131.175C63.8816 132.666 63.5761 134.191 63.4926 134.564C62.4358 139.28 62.3499 151.987 63.3427 156.683C63.4245 157.07 63.6239 158.132 63.7868 159.044C64.0915 160.759 64.3954 162.251 64.7812 163.939C65.124 165.435 67.4216 172.376 67.6494 172.604C67.7596 172.715 67.8504 172.88 67.8504 172.973C67.8504 173.259 68.9396 175.539 69.0766 175.539C69.3011 175.539 69.2208 175.056 68.6997 173.276C68.4217 172.325 68.1065 171.174 68.0003 170.718C67.8933 170.262 67.7531 169.854 67.6875 169.811C67.5327 169.709 66.4264 164.198 66.116 161.981C65.9823 161.028 65.8089 159.876 65.7286 159.42C65.3356 157.171 64.9271 150.701 65.1021 149.506C65.214 148.744 65.6808 148.506 66.5131 148.786C67.7458 149.201 69.2046 149.37 70.6237 149.264C73.8063 149.027 78.2119 148.227 79.3741 147.675C82.068 146.397 83.3534 146.642 83.9855 148.557C84.3665 149.709 85.3301 151.445 85.5505 151.376C85.8642 151.278 85.638 149.852 85.0886 148.463C84.484 146.936 84.4888 146.845 85.2085 145.879C85.5408 145.433 85.3358 145.109 84.7214 145.109C84.0666 145.109 83.3056 141.532 82.7188 135.694C82.7018 135.529 82.6434 135.358 82.5883 135.316C82.4019 135.174 82.2001 129.716 82.3582 129.094C82.5835 128.205 85.0529 126.142 87.1495 125.092C87.3659 124.983 87.7112 124.738 87.9162 124.549C88.1213 124.358 88.7575 123.919 89.3296 123.571C89.9026 123.224 90.6085 122.759 90.8978 122.539C91.53 122.056 92.9856 121.106 93.5675 120.795C93.7976 120.673 94.1899 120.393 94.4387 120.173C94.6867 119.953 95.0935 119.668 95.3423 119.539C95.5903 119.41 96.464 118.867 97.2825 118.331C99.5785 116.829 99.8768 116.868 101.443 118.867C102.311 119.974 102.632 119.103 101.934 117.537C101.23 115.958 101.362 115.714 103.553 114.547C104.211 114.196 104.791 113.843 104.84 113.764C104.889 113.684 105.333 113.415 105.825 113.167C106.317 112.918 107.55 112.221 108.563 111.619C109.577 111.016 110.779 110.331 111.234 110.096C111.691 109.861 112.132 109.593 112.217 109.5C112.301 109.408 113.081 108.965 113.949 108.517C114.817 108.069 115.698 107.585 115.905 107.443C116.364 107.126 118.182 106.164 121.478 104.489C122.846 103.795 124.049 103.158 124.153 103.072C124.579 102.721 127.522 101.574 127.996 101.574C128.623 101.574 129.747 102.286 130.397 103.096C131.138 104.019 131.45 103.115 130.818 101.876C130.236 100.734 130.521 100.054 131.799 99.5374C132.129 99.4045 132.739 99.1354 133.153 98.9401C133.567 98.744 134.415 98.4052 135.036 98.1856C135.657 97.966 136.844 97.5153 137.672 97.1847C144.525 94.4502 146.07 94.4316 148.594 97.0534C148.635 97.0963 148.906 97.3087 149.197 97.5243C150.267 98.3217 154.652 102.326 155.441 103.228C155.693 103.517 156.315 104.185 156.824 104.712C158.363 106.31 158.364 106.667 156.825 107.857C156.482 108.122 156.032 108.496 155.824 108.688C155.007 109.445 150.879 112.872 150.785 112.872C150.73 112.872 150.398 113.141 150.047 113.47C149.697 113.798 149.006 114.356 148.512 114.708C148.018 115.062 147.411 115.533 147.162 115.758C146.914 115.983 145.795 116.852 144.677 117.69C142.93 118.999 142.254 119.651 142.644 119.651C143.113 119.651 146.033 118.221 146.033 117.991C146.033 117.921 146.185 117.816 146.371 117.758C146.785 117.629 149.496 116.053 149.771 115.781C149.88 115.673 150.442 115.309 151.021 114.971C151.599 114.634 152.298 114.159 152.574 113.916C152.851 113.673 153.122 113.475 153.175 113.475C153.298 113.475 155.695 111.827 155.9 111.603C156.171 111.303 157.24 110.526 158.071 110.024C158.519 109.752 158.982 109.435 159.099 109.318C159.736 108.68 161.076 109.514 162.327 111.328C163.357 112.822 163.34 111.143 162.307 109.508C161.177 107.718 161.31 107.339 163.913 104.958C166.663 102.442 169.834 99.1557 169.834 98.8202C169.834 98.7472 170.078 98.4052 170.375 98.0592C170.991 97.3443 172.25 95.05 172.835 93.5741L173.23 92.5789L174.16 93.1973C175.024 93.7719 175.613 94.2525 177.586 95.9909C180.293 98.3744 185.416 103.844 186.45 105.453C186.783 105.971 187.104 106.395 187.161 106.395C187.219 106.395 187.458 106.682 187.692 107.035C188.294 107.942 189.893 109.443 190.069 109.268C190.225 109.113 189.513 107.761 189.167 107.554C189.056 107.488 188.965 107.369 188.965 107.289C188.965 107.103 187.485 104.71 187.247 104.511C187.147 104.428 186.706 103.818 186.266 103.155C185.825 102.493 185.269 101.756 185.031 101.518C184.792 101.281 184.597 101.03 184.597 100.961C184.597 100.841 184.169 100.307 181.887 97.5818C179.788 95.0735 174.525 90.1476 172.486 88.7812C172.063 88.4983 171.694 88.2066 171.665 88.1344C171.561 87.8735 165.961 84.2508 165.662 84.2508C165.562 84.25 165.427 84.1543 165.36 84.0376C165.239 83.8253 161.692 81.9904 161.402 81.9904C161.317 81.9904 161.247 81.9345 161.247 81.8664C161.247 81.7214 160.1 81.1905 158.084 80.4036C157.297 80.0956 156.585 79.7933 156.502 79.7309C156.148 79.4627 151.96 78.1368 150.552 77.8466C150.262 77.7866 149.957 77.6862 149.874 77.6229C149.437 77.289 144.699 76.4267 141.113 76.0288C138.645 75.7549 131.063 75.6268 128.558 75.8173ZM139.303 79.6799C139.358 79.735 139.624 79.803 139.893 79.8306C143.56 80.2099 151.27 81.522 151.682 81.8364C151.765 81.8997 152.51 82.1379 153.339 82.3641C155.126 82.8536 157.978 83.801 158.084 83.9412C158.125 83.9955 158.498 84.1665 158.912 84.3205C160.223 84.81 163.426 86.4139 164.751 87.2454C165.167 87.5063 165.164 87.5071 163.204 87.7624C162.125 87.9026 161.124 88.0801 160.98 88.1571C160.838 88.2341 160.279 88.3751 159.741 88.47C157.656 88.8363 153.425 89.9377 152.886 90.2537C152.804 90.3032 152.668 90.3559 152.586 90.3713C152.503 90.3875 151.521 90.7116 150.404 91.0917C147.583 92.0505 147.661 92.061 145.204 90.4191C144.376 89.8647 143.325 89.2261 142.869 88.9984C142.414 88.7714 141.838 88.4327 141.589 88.2471C141.086 87.8702 139.169 86.952 137.898 86.4787C137.443 86.3085 136.968 86.0832 136.844 85.9778C136.605 85.7752 132.317 84.3424 131.421 84.1657C131.131 84.1081 130.859 84.0101 130.818 83.946C130.459 83.3966 122.654 82.4427 118.519 82.4427C117.177 82.4427 116.356 82.3851 116.356 82.2919C116.356 82.2093 116.442 82.1412 116.544 82.1404C116.648 82.1396 116.937 82.0334 117.185 81.9029C118.606 81.1597 123.722 80.282 128.106 80.03C131.937 79.8103 132.328 79.7779 132.433 79.6726C132.558 79.5469 139.178 79.555 139.303 79.6799ZM114.778 84.7046C119.244 84.9891 125.248 85.7687 125.37 86.0799C125.398 86.1505 125.556 86.2088 125.721 86.2088C126.656 86.2088 129.161 87.0063 129.161 87.3029C129.161 87.5541 127.936 88.7374 127.052 89.3396C126.679 89.594 126.186 89.9806 125.955 90.2003C124.751 91.3438 123.516 91.5261 121.962 90.7878C121.489 90.5625 121.051 90.3891 120.989 90.4029C120.927 90.4158 120.875 90.3656 120.875 90.291C120.875 90.2165 120.61 90.0171 120.284 89.8469C119.959 89.6775 119.569 89.4692 119.418 89.3849C117.228 88.1555 114.428 87.0549 112.139 86.5225C111.351 86.3393 110.6 86.1326 110.468 86.0621C110.336 85.9924 109.576 85.849 108.78 85.7452C107.398 85.5645 106.819 85.2784 107.392 85.0588C108.751 84.5369 110.687 84.4445 114.778 84.7046ZM106.579 87.2778C107.773 87.7 108.868 88.0809 109.013 88.1239C109.158 88.1668 109.276 88.2455 109.276 88.2981C109.276 88.3516 109.463 88.4716 109.69 88.5648C112.187 89.5924 112.946 89.9288 113.72 90.3518C114.218 90.6241 115.302 91.1987 116.13 91.6299C116.959 92.0619 117.772 92.5319 117.938 92.6762C118.104 92.8196 118.563 93.1219 118.959 93.3472C119.354 93.5733 119.645 93.81 119.605 93.874C119.513 94.0248 117.468 95.2096 116.206 95.8442C115.668 96.1157 115.125 96.4221 115.001 96.5266C114.877 96.6312 113.893 97.1758 112.816 97.7374C111.739 98.2999 110.824 98.8048 110.783 98.8599C110.742 98.9158 109.793 99.385 108.675 99.9029C107.557 100.422 106.608 100.893 106.566 100.952C106.524 101.01 106.219 101.167 105.887 101.302C104.084 102.03 101.986 102.942 101.838 103.06C100.695 103.978 100.167 103.253 100.287 100.934C100.444 97.8906 101.605 89.4222 101.892 89.2212C101.951 89.1799 102.04 88.8857 102.09 88.5672C102.249 87.5623 103.288 86.537 104.169 86.516C104.302 86.5127 105.386 86.8555 106.579 87.2778ZM132.559 88.0339C132.927 88.1271 133.228 88.2544 133.228 88.3176C133.228 88.3808 133.381 88.4667 133.567 88.5089C133.753 88.5502 134.651 88.9019 135.563 89.2909C136.475 89.6799 137.424 90.0714 137.672 90.1614C137.921 90.2513 138.158 90.3721 138.2 90.4288C138.241 90.4855 139.021 90.9135 139.931 91.3795C141.778 92.3244 143.408 93.4194 143.219 93.5887C143.151 93.6503 142.587 93.8894 141.966 94.1212C141.344 94.353 140.802 94.584 140.761 94.635C140.719 94.6853 140.075 94.9511 139.329 95.2242C137.119 96.0339 136.114 96.4366 134.98 96.9683C133.678 97.5778 130.838 98.5608 130.381 98.5608C129.599 98.5608 129.084 98.0746 126.887 95.2631C125.739 93.7946 125.822 92.8366 127.203 91.5756C127.493 91.3106 128.059 90.7084 128.461 90.2359C129.125 89.4571 130.202 88.5429 131.029 88.0558C131.423 87.8248 131.71 87.8208 132.559 88.0339ZM100.09 89.1434C99.6507 89.6103 99.0501 91.1379 98.2802 93.7403C97.9244 94.9422 97.5832 95.9925 97.5208 96.0752C97.2282 96.4642 96.8206 99.2246 96.6326 102.086C96.4656 104.624 96.3076 104.89 94.8974 105.006C94.4346 105.045 94.0197 105.136 93.9751 105.208C93.7612 105.553 88.2477 105.358 88.0548 104.998C87.8741 104.66 88.8109 102.217 89.2186 101.965C89.2972 101.916 89.7373 101.102 90.1976 100.157C90.6571 99.2116 91.0964 98.3987 91.1734 98.3517C91.2496 98.3039 91.6726 97.6523 92.1119 96.9027C93.8811 93.8894 97.1472 90.334 99.0282 89.3744C99.3929 89.188 99.786 88.9416 99.9019 88.8257C100.258 88.47 100.438 88.7731 100.09 89.1434ZM168.385 91.3325C169.258 91.5918 169.738 92.1372 169.638 92.7572C169.531 93.4129 168.541 95.4366 168.086 95.9269C167.89 96.1384 167.668 96.4277 167.592 96.5696C167.165 97.367 165.645 99.1135 162.917 101.941C160.115 104.846 159.582 104.991 158.422 103.166C158.215 102.841 157.8 102.309 157.5 101.986C157.2 101.662 156.893 101.284 156.817 101.146C156.682 100.898 156.492 100.667 155.012 98.9466C154.062 97.8428 151.991 95.7599 150.707 94.6172C149.507 93.5498 149.573 93.4283 151.579 92.9906C152.381 92.8164 153.149 92.6121 153.284 92.5376C153.421 92.4638 154.742 92.2004 156.222 91.9524C158.563 91.561 159.984 91.373 162.528 91.1193C163.651 91.0075 167.797 91.1582 168.385 91.3325ZM123.103 96.1044C123.328 96.2446 123.711 96.5542 123.954 96.7932C124.198 97.0315 124.605 97.333 124.859 97.4627C126.062 98.0778 126.901 99.0325 126.901 99.787C126.901 100.161 126.357 100.82 126.047 100.82C125.937 100.82 125.847 100.878 125.847 100.947C125.847 101.016 125.253 101.223 124.529 101.406C123.804 101.589 122.666 101.974 122 102.26C121.333 102.545 120.711 102.779 120.617 102.779C120.522 102.779 120.349 102.875 120.232 102.992C120.114 103.11 118.985 103.62 117.72 104.127C116.456 104.633 115.327 105.142 115.21 105.259C115.095 105.376 114.847 105.516 114.661 105.572C114.364 105.66 112.991 106.246 111.385 106.97C111.096 107.1 110.824 107.254 110.783 107.311C110.742 107.368 110.267 107.599 109.729 107.824C108.581 108.304 106.522 109.284 106.414 109.401C106.373 109.447 105.458 109.922 104.38 110.457C103.303 110.992 102.37 111.515 102.305 111.618C102.159 111.851 101.193 112.129 100.908 112.019C100.641 111.917 100.393 111.044 100.381 110.161C100.375 109.788 100.283 108.703 100.175 107.75C99.8744 105.09 99.8014 105.16 103.91 104.136C105.53 103.731 107.078 103.298 107.35 103.172C107.622 103.046 108.523 102.729 109.352 102.469C110.986 101.955 113.222 101.115 113.344 100.97C113.385 100.921 113.792 100.722 114.248 100.53C115.536 99.9864 117.303 99.0755 118.053 98.5697C118.428 98.3161 118.783 98.1094 118.84 98.1094C119.023 98.1094 120.875 96.8459 120.875 96.7211C120.875 96.6563 120.94 96.6028 121.02 96.6028C121.099 96.6028 121.414 96.4334 121.718 96.2259C122.374 95.7818 122.559 95.7648 123.103 96.1044ZM87.7598 98.718C87.3043 99.0917 86.7467 99.8535 86.4404 100.52C86.3075 100.809 85.9679 101.428 85.6859 101.895C85.4046 102.361 85.1737 102.849 85.1737 102.978C85.1737 103.599 84.3365 103.424 84.1938 102.774C84.0018 101.901 86.1494 98.7116 86.9283 98.7116C87.0458 98.7116 87.1852 98.5932 87.2387 98.4482C87.3886 98.0413 87.6366 97.9465 87.8854 98.1994C88.0864 98.4044 88.0726 98.4611 87.7598 98.718ZM82.581 104.238C83.8016 104.997 83.7943 105.933 82.5478 108.353C82.1531 109.119 81.0971 112.223 80.8045 113.475C80.6984 113.93 80.5663 114.337 80.5112 114.378C80.1716 114.634 79.379 119.893 79.208 123.023C79.0726 125.495 78.7979 126.11 77.2653 127.362C76.685 127.837 76.155 128.227 76.0861 128.23C76.0181 128.235 75.7466 128.453 75.484 128.715C75.2206 128.978 74.7343 129.389 74.4028 129.628C73.4943 130.282 72.166 131.492 68.7313 134.795C68.04 135.46 67.2782 136.172 67.0391 136.376L66.6047 136.748L66.7093 135.543C66.8114 134.374 67.4395 131.397 67.6583 131.047C67.7175 130.951 67.779 130.806 67.7944 130.723C67.9476 129.908 69.4097 125.442 69.8173 124.546C69.9681 124.216 70.5111 122.877 71.0241 121.571C71.5371 120.266 72.0023 119.199 72.059 119.199C72.1149 119.199 72.2868 118.911 72.4399 118.559C73.0818 117.088 74.0211 115.269 74.3874 114.789C74.603 114.506 74.7797 114.21 74.7797 114.131C74.7797 114.053 75.0844 113.493 75.4572 112.889C75.8308 112.283 76.1356 111.733 76.1356 111.665C76.1356 111.597 76.1947 111.519 76.2677 111.491C76.3406 111.463 76.7904 110.831 77.2686 110.085C77.7467 109.34 78.2144 108.661 78.3076 108.579C78.4016 108.496 78.8433 107.92 79.2882 107.298C79.7339 106.677 80.3086 105.925 80.5647 105.625C80.8216 105.327 81.2203 104.835 81.4521 104.534C81.9303 103.909 82.0145 103.887 82.581 104.238ZM96.4632 106.309C96.5621 106.428 96.7679 107.305 96.9211 108.258C97.1999 109.999 97.2939 110.431 97.5135 110.989C97.9098 111.998 98.2867 113.434 98.2081 113.638C98.1181 113.871 97.8345 114.045 95.9445 115.028C95.4477 115.287 94.9266 115.602 94.7872 115.729C94.6478 115.856 94.2101 116.13 93.8155 116.336C93.035 116.746 91.3971 117.725 89.8273 118.719C89.2802 119.066 88.7712 119.35 88.6975 119.352C88.6237 119.354 88.2923 119.592 87.9608 119.881C87.6293 120.171 87.2387 120.445 87.092 120.492C86.844 120.571 84.9856 121.733 84.6469 122.021C83.7611 122.773 83.0584 123.114 82.7683 122.933C82.4765 122.751 82.3298 122.061 82.5827 122.061C82.6491 122.061 82.7877 121.476 82.8914 120.761C83.2618 118.199 84.441 112.866 84.7198 112.496C84.7814 112.412 85.1429 111.396 85.5213 110.236C86.81 106.288 86.5012 106.548 89.9148 106.536C91.3258 106.531 92.9888 106.438 93.6096 106.329C95.1932 106.052 96.2444 106.044 96.4632 106.309ZM79.5119 133.465C79.819 135.691 80.3069 138.242 80.4974 138.606C80.5687 138.744 80.8434 139.702 81.1068 140.736C81.3702 141.768 81.7876 143.216 82.0348 143.952C82.6961 145.927 82.8258 145.833 78.6479 146.419C71.1011 147.479 66.0423 146.816 66.0423 144.766C66.0423 143.999 67.1591 141.658 67.7831 141.117C67.8787 141.034 68.2929 140.56 68.7038 140.062C70.1253 138.343 72.5518 136.059 76.0099 133.186C79.1537 130.573 79.1131 130.569 79.5119 133.465ZM346.573 132.71C346.718 132.748 346.955 132.748 347.1 132.71C347.245 132.672 347.127 132.641 346.837 132.641C346.547 132.641 346.428 132.672 346.573 132.71ZM324.156 133.397L323.713 133.887L324.203 133.444C324.659 133.032 324.762 132.907 324.645 132.907C324.619 132.907 324.399 133.127 324.156 133.397ZM168.704 133.962C169.028 134.293 169.326 134.564 169.368 134.564C169.409 134.564 169.178 134.293 168.855 133.962C168.531 133.63 168.232 133.359 168.191 133.359C168.15 133.359 168.381 133.63 168.704 133.962ZM349.247 133.406C349.247 133.432 349.468 133.652 349.737 133.895L350.226 134.338L349.784 133.848C349.371 133.392 349.247 133.29 349.247 133.406ZM221.918 134.071C222.187 134.104 222.628 134.104 222.897 134.071C223.167 134.037 222.946 134.01 222.407 134.01C221.869 134.01 221.649 134.037 221.918 134.071ZM162.37 134.879C162.237 135.135 162.156 135.372 162.189 135.405C162.221 135.438 162.361 135.228 162.498 134.939C162.808 134.289 162.701 134.24 162.37 134.879ZM243.46 136.783C243.811 136.816 244.388 136.816 244.74 136.783C245.092 136.751 244.804 136.726 244.1 136.726C243.396 136.726 243.108 136.751 243.46 136.783ZM247.075 136.78C247.261 136.816 247.566 136.816 247.752 136.78C247.939 136.743 247.786 136.714 247.414 136.714C247.041 136.714 246.889 136.743 247.075 136.78ZM325.488 136.784C325.884 136.816 326.494 136.815 326.844 136.783C327.193 136.751 326.869 136.726 326.123 136.726C325.378 136.727 325.092 136.753 325.488 136.784ZM329.174 136.78C329.36 136.816 329.665 136.816 329.852 136.78C330.039 136.743 329.886 136.714 329.513 136.714C329.14 136.714 328.988 136.743 329.174 136.78ZM188.459 139.083C188.554 139.208 188.665 139.445 188.706 139.611C188.776 139.897 188.78 139.896 188.797 139.591C188.807 139.415 188.696 139.178 188.551 139.065C188.322 138.885 188.309 138.887 188.459 139.083ZM140.61 143.198C140.61 143.224 140.83 143.444 141.099 143.687L141.589 144.13L141.146 143.64C140.734 143.184 140.61 143.081 140.61 143.198ZM183.609 144.573C183.769 144.702 184.007 144.802 184.136 144.796C184.339 144.785 184.34 144.772 184.145 144.7C184.021 144.654 183.783 144.554 183.618 144.477C183.321 144.341 183.321 144.343 183.609 144.573ZM346.424 144.464C346.654 144.499 346.992 144.498 347.178 144.462C347.363 144.426 347.176 144.398 346.761 144.399C346.347 144.4 346.196 144.43 346.424 144.464ZM143.437 144.766C143.707 144.8 144.114 144.799 144.34 144.764C144.567 144.73 144.345 144.703 143.848 144.704C143.352 144.704 143.166 144.733 143.437 144.766ZM184.634 144.912C184.779 144.949 185.017 144.949 185.162 144.912C185.307 144.874 185.188 144.843 184.898 144.843C184.608 144.843 184.489 144.874 184.634 144.912ZM258.411 164.438C258.411 164.464 258.631 164.684 258.9 164.927L259.39 165.37L258.947 164.88C258.535 164.424 258.411 164.322 258.411 164.438ZM260.118 168.609C260.118 169.23 260.145 169.485 260.177 169.174C260.21 168.863 260.21 168.355 260.177 168.044C260.145 167.733 260.118 167.988 260.118 168.609ZM251.519 168.985C251.521 169.317 251.552 169.435 251.588 169.247C251.624 169.06 251.622 168.789 251.584 168.645C251.547 168.501 251.518 168.654 251.519 168.985ZM314.341 170.341C314.343 170.755 314.372 170.907 314.406 170.678C314.441 170.449 314.44 170.11 314.404 169.925C314.369 169.74 314.34 169.927 314.341 170.341ZM251.516 170.266C251.516 170.556 251.547 170.674 251.585 170.529C251.623 170.385 251.623 170.148 251.585 170.002C251.547 169.857 251.516 169.976 251.516 170.266ZM214.689 170.071C214.877 170.107 215.147 170.106 215.292 170.068C215.436 170.031 215.282 170.001 214.95 170.002C214.62 170.004 214.501 170.035 214.689 170.071ZM277.279 170.069C277.424 170.106 277.66 170.106 277.805 170.069C277.951 170.031 277.832 170 277.542 170C277.252 170 277.134 170.031 277.279 170.069ZM251.657 171.245C251.655 171.411 251.712 171.682 251.783 171.848C251.947 172.231 251.947 171.836 251.783 171.32C251.686 171.018 251.661 171.003 251.657 171.245ZM312.784 174.446L312.265 175.011L312.83 174.492C313.356 174.009 313.463 173.881 313.348 173.881C313.323 173.881 313.07 174.136 312.784 174.446Z" fill="white"/>
<path fill-rule="evenodd" clip-rule="evenodd" d="M126.064 121.066C125.663 121.36 125.598 147.492 125.997 147.868C126.399 148.247 129.951 148.334 130.392 147.978L130.743 147.693L130.786 135.064C130.833 121.819 130.826 121.614 130.358 121.146C129.978 120.766 126.561 120.703 126.064 121.066ZM157.18 121.047L156.803 121.238L156.686 134.469C156.556 149.175 156.469 148.012 157.722 148.272C159.425 148.626 160.674 147.975 161.032 146.547C161.163 146.028 161.19 146.037 162.388 146.992C164.862 148.963 168.398 149.068 171.132 147.251C171.599 146.941 172.101 146.617 172.247 146.531C172.699 146.265 172.991 145.986 173.187 145.632C173.289 145.446 173.64 144.895 173.965 144.409C175.06 142.768 175.439 141.256 175.436 138.53C175.432 136.3 174.794 133.205 174.337 133.205C174.263 133.205 174.203 133.098 174.203 132.967C174.203 132.219 172.454 130.308 171.19 129.675C168.552 128.355 164.268 128.765 162.485 130.508L162.021 130.962L161.969 126.396C161.912 121.445 161.912 121.44 161.176 121.09C160.544 120.791 157.747 120.761 157.18 121.047ZM198.318 121.116L197.996 121.38L198.037 134.591C198.064 143.143 198.132 147.855 198.229 147.951C198.532 148.251 202.478 148.227 202.781 147.925C203.034 147.672 203.053 146.943 203.097 135.648C203.147 122.725 203.112 121.593 202.659 121.14C202.247 120.727 198.815 120.709 198.318 121.116ZM309.716 121.141C309.474 121.408 309.457 122.296 309.472 134.216C309.488 147.565 309.498 147.778 310.091 148.079C310.848 148.464 314.028 148.247 314.318 147.791C314.531 147.454 314.482 121.248 314.268 121.034C313.934 120.698 310.033 120.79 309.716 121.141ZM351.31 120.952C350.822 121.09 350.753 121.717 350.753 126.059C350.753 128.415 350.713 130.343 350.664 130.343C350.614 130.343 350.382 130.206 350.147 130.039C346.769 127.634 340.68 129.092 338.971 132.715C338.805 133.068 338.618 133.356 338.556 133.356C338.239 133.356 337.681 135.48 337.501 137.375C337.283 139.659 337.924 143.968 338.519 144.228C338.582 144.255 338.863 144.65 339.146 145.106C339.709 146.016 340.341 146.763 340.548 146.763C340.676 146.763 341.597 147.41 341.971 147.761C342.923 148.657 349.096 148.579 349.096 147.672C349.096 147.613 349.266 147.487 349.472 147.393C349.68 147.299 350.154 146.94 350.527 146.596L351.205 145.971V146.442C351.205 146.701 351.268 146.914 351.344 146.914C351.42 146.914 351.529 147.123 351.585 147.38C351.747 148.116 352.379 148.3 354.312 148.176L355.902 148.073L355.914 146.401C355.921 145.482 355.919 139.561 355.909 133.245L355.892 121.761L355.505 121.345C355.125 120.933 352.313 120.67 351.31 120.952ZM110.934 122.001C110.726 122.039 110.422 122.127 110.255 122.197C110.09 122.266 109.31 122.496 108.523 122.708C106.743 123.187 105.614 123.682 104.803 124.338C104.457 124.617 103.891 125.048 103.544 125.297C103.196 125.545 102.76 125.985 102.573 126.276C102.387 126.566 102.024 127.02 101.768 127.287C101.246 127.827 100.499 129.371 100.146 130.639C100.017 131.098 99.7998 131.778 99.6612 132.151C99.4619 132.689 99.4092 133.374 99.4092 135.464V138.101L99.9968 139.909C101.209 143.643 103.546 146.196 106.697 147.229C107.245 147.409 107.762 147.605 107.845 147.665C108.994 148.495 117.964 148.503 119.144 147.675C119.226 147.616 119.565 147.491 119.896 147.397C120.228 147.302 120.734 147.028 121.022 146.788L121.545 146.351L121.538 140.227C121.533 135.604 121.486 134.057 121.347 133.917C121.099 133.669 112.89 133.566 112.443 133.806C112.165 133.955 112.139 134.118 112.139 135.691C112.139 137.759 112.073 137.692 114.268 137.863C116.464 138.033 116.432 137.984 116.432 141.08V143.524L115.83 143.825C114.676 144.402 110.282 144.14 109.729 143.463C109.59 143.293 108.381 142.545 108.245 142.545C108.112 142.545 107.214 141.603 106.298 140.502C104.3 138.1 104.286 131.818 106.274 129.724C106.475 129.512 106.929 129.022 107.28 128.636C107.974 127.877 109.916 126.838 111.009 126.642C111.341 126.582 111.659 126.46 111.717 126.37C111.861 126.148 115.75 126.15 116.225 126.372C117.472 126.956 119.481 127.22 119.785 126.841C119.942 126.644 120.575 124.091 120.575 123.651C120.575 123.113 119.913 122.702 118.754 122.522C118.139 122.425 117.502 122.268 117.335 122.172C117.034 121.998 111.719 121.855 110.934 122.001ZM219.696 122.003C219.075 122.035 218.431 122.124 218.265 122.2C218.099 122.276 217.602 122.368 217.161 122.403C216.598 122.449 216.259 122.566 216.03 122.794L215.704 123.121L215.664 134.678C215.613 149.162 215.423 148.009 217.888 148.173C220.764 148.364 220.64 148.61 220.667 142.657C220.692 137.274 220.546 137.649 222.615 137.649C225.22 137.649 226.325 138.761 227.174 142.237C227.407 143.194 227.639 144.01 227.688 144.051C227.739 144.092 227.957 144.862 228.174 145.761C228.776 148.253 228.593 148.119 231.379 148.119C233.342 148.119 233.729 148.082 233.804 147.887C233.93 147.558 232.278 140.89 231.824 139.898C231.616 139.443 231.446 139.003 231.446 138.92C231.446 138.504 230.578 137.145 229.894 136.49C229.154 135.781 229.095 135.477 229.693 135.467C230.039 135.461 232.254 133.069 232.624 132.301C233.514 130.458 233.094 126.382 231.876 125.032C231.559 124.68 231.299 124.345 231.297 124.287C231.288 123.828 228.566 122.633 227.077 122.436C226.622 122.375 226.168 122.26 226.069 122.18C225.878 122.026 221.583 121.907 219.696 122.003ZM225.581 126.117C229.872 127.452 229.055 133.093 224.445 133.945C220.972 134.587 220.307 133.955 220.492 130.193C220.534 129.322 220.516 128.272 220.45 127.858C220.326 127.074 220.527 126.28 220.911 126.044C221.613 125.609 224.074 125.648 225.581 126.117ZM142.493 128.938C136.93 129.631 133.753 134.055 134.433 140.159C134.671 142.289 135.288 144.024 136.112 144.871C136.349 145.114 136.542 145.397 136.542 145.499C136.542 145.768 137.665 146.689 138.561 147.154C138.983 147.375 139.368 147.615 139.415 147.689C139.826 148.33 143.885 148.743 145.944 148.354C149.471 147.687 152.962 144.153 152.962 141.25C152.962 141.065 153.047 140.885 153.151 140.85C153.403 140.766 153.421 136.26 153.169 136.099C153.077 136.04 152.925 135.635 152.832 135.2C151.924 130.931 147.586 128.303 142.493 128.938ZM182.864 129.117C179.39 129.756 179.074 129.979 179.218 131.693C179.348 133.253 179.634 133.705 180.428 133.61C181.047 133.536 182.677 133.034 183.369 132.704C185.069 131.894 188.272 133.279 188.272 134.824C188.272 135.569 187.928 135.766 186.621 135.766C184.842 135.766 181.455 136.491 181.142 136.939C181.095 137.006 180.742 137.243 180.356 137.465C176.257 139.833 176.787 146.781 181.172 148.163C183.138 148.783 187.007 148.435 187.007 147.639C187.007 147.571 187.099 147.516 187.211 147.516C187.322 147.516 187.7 147.308 188.051 147.055L188.687 146.594L189.027 146.942C190.375 148.326 192.496 148.825 193.405 147.972C193.795 147.605 194.014 144.804 193.652 144.804C193.578 144.804 193.486 142.459 193.445 139.569C193.366 133.938 193.259 133.115 192.43 131.774C190.975 129.419 187.091 128.341 182.864 129.117ZM242.819 129.057C240.014 129.707 236.576 132.912 236.567 134.885C236.567 134.997 236.468 135.276 236.348 135.507C235.598 136.944 235.638 140.837 236.419 142.506C236.584 142.857 236.718 143.241 236.718 143.359C236.718 144.807 240.179 147.62 242.647 148.178C245.034 148.719 251.029 148.357 251.029 147.673C251.029 147.607 251.229 147.513 251.473 147.465C252.179 147.324 252.302 146.914 252.012 145.657C251.875 145.063 251.733 144.426 251.695 144.239C251.609 143.813 250.96 143.786 249.62 144.155C246.051 145.136 242.383 144.064 241.292 141.72C240.572 140.175 240.214 140.27 246.715 140.282C252.725 140.292 252.832 140.279 253.24 139.427C253.544 138.794 253.602 136.375 253.323 136.027C253.24 135.925 253.125 135.604 253.066 135.314C252.679 133.417 250.507 130.367 249.06 129.688C247.37 128.897 244.683 128.625 242.819 129.057ZM263.533 128.987C259.873 129.479 256.883 132.019 255.831 135.532C255.656 136.116 255.453 136.713 255.38 136.856C255.193 137.224 255.209 140.586 255.397 140.586C255.481 140.586 255.548 140.745 255.548 140.939C255.548 142.918 257.748 146.287 259.613 147.165C260.07 147.38 260.478 147.607 260.519 147.671C261.062 148.49 268.436 148.68 269.688 147.906C269.971 147.731 270.531 146.41 270.348 146.348C270.244 146.314 270.161 146.039 270.16 145.734C270.157 143.981 269.853 143.789 267.643 144.135C263.633 144.764 261.2 143.122 260.678 139.435C260.053 135.02 263.587 132.104 268.131 133.288C269.622 133.677 269.833 133.485 270.106 131.491C270.159 131.103 270.261 130.751 270.332 130.706C270.513 130.595 270.495 130.042 270.311 130.042C270.229 130.042 270.161 129.938 270.161 129.812C270.161 129.163 266.042 128.65 263.533 128.987ZM298.707 129.086C297.448 129.355 295.72 130.146 295.087 130.742C294.836 130.978 294.368 131.399 294.046 131.677C293.458 132.187 292.223 134.161 292.054 134.862C292.005 135.069 291.826 135.544 291.658 135.917C291.124 137.1 291.142 142.035 291.681 142.386C291.752 142.432 291.902 142.741 292.015 143.072C292.551 144.646 294.156 146.407 295.733 147.149C296.208 147.373 296.632 147.607 296.673 147.671C297.101 148.318 300.47 148.625 303.3 148.274C306.243 147.91 306.246 147.907 306.101 145.966C305.928 143.666 306.017 143.72 303.177 144.204C299.196 144.883 296.305 142.197 296.562 138.063C296.729 135.405 298.434 133.463 300.967 133.048C302.032 132.873 302.279 132.896 304.393 133.373C305.41 133.603 305.455 133.574 305.85 132.443C306.262 131.262 306.386 130.034 306.127 129.688C305.611 128.994 300.918 128.614 298.707 129.086ZM324.597 129.135C322.66 129.643 319.571 131.91 319.571 132.824C319.571 132.95 319.517 133.054 319.45 133.054C319.257 133.054 318.729 134.25 318.347 135.549C316.975 140.214 318.626 145.243 322.131 147.079C322.67 147.361 323.144 147.627 323.186 147.671C323.675 148.187 327.228 148.624 329.313 148.424C332.76 148.094 334.277 147.485 334.132 146.488C334.054 145.947 333.752 144.485 333.634 144.068C333.566 143.832 332.857 143.882 330.793 144.268C327.015 144.973 323.665 143.686 323.058 141.293C322.792 140.245 322.562 140.285 328.9 140.285C333.268 140.285 334.638 140.241 334.841 140.093C335.78 139.406 335.374 134.054 334.329 133.356C334.268 133.314 334.115 133.037 333.992 132.741C332.77 129.804 328.416 128.134 324.597 129.135ZM286.053 129.283C285.074 129.756 284.958 129.992 284.159 133.135C283.738 134.789 283.299 136.346 283.184 136.594C282.995 137.004 281.871 140.836 281.726 141.566C281.688 141.759 281.57 141.543 281.397 140.963C281.249 140.466 281.077 140.026 281.016 139.984C280.955 139.942 280.478 138.519 279.955 136.82C279.433 135.122 278.963 133.699 278.909 133.657C278.856 133.616 278.544 132.772 278.215 131.783C277.399 129.331 277.45 129.363 274.481 129.363H272.194L272.148 129.844C272.12 130.128 272.255 130.652 272.477 131.125C272.683 131.565 273.204 132.908 273.632 134.109C274.062 135.31 274.458 136.327 274.513 136.369C274.567 136.41 274.835 137.054 275.109 137.799C275.896 139.946 276.655 141.854 276.788 142.018C276.993 142.271 278.003 144.821 278.309 145.856C278.977 148.122 278.423 149.218 275.817 150.777C273.748 152.016 273.353 152.966 274 155.147C274.341 156.291 275.553 156.877 276.023 156.124C276.072 156.047 276.382 155.91 276.714 155.82C277.57 155.589 279.399 154.41 280.065 153.66C280.375 153.31 280.773 152.886 280.947 152.718C281.306 152.371 282.814 150.005 282.814 149.788C282.814 149.711 282.907 149.553 283.021 149.44C283.384 149.078 285.074 145.148 285.074 144.667C285.074 144.577 285.139 144.503 285.219 144.503C285.299 144.503 285.463 144.181 285.583 143.788C285.996 142.439 287.177 139.155 287.384 138.779C287.498 138.572 288.025 137.115 288.554 135.54C289.084 133.966 289.56 132.644 289.614 132.603C289.74 132.503 290.648 129.786 290.648 129.506C290.648 129.335 290.397 129.288 289.48 129.287C288.838 129.286 287.872 129.253 287.334 129.212C286.795 129.171 286.219 129.203 286.053 129.283ZM246.319 132.548C247.817 133.083 249.191 135.775 248.38 136.586C248.172 136.794 247.662 136.82 244.504 136.786L240.868 136.745L240.73 136.352C240.535 135.799 240.689 135.336 241.425 134.24C242.661 132.401 244.311 131.831 246.319 132.548ZM328.232 132.489C329.743 133.032 331.163 135.695 330.419 136.592C330.092 136.986 323.104 136.928 322.89 136.529C321.763 134.424 325.582 131.535 328.232 132.489ZM145.686 132.918C148.487 134.274 149.27 140.252 147.032 143.186C144.696 146.249 140.487 144.909 139.581 140.813C138.384 135.405 141.772 131.023 145.686 132.918ZM348.686 133.026C350.735 133.938 351.761 137.846 350.85 141.264C349.579 146.038 343.72 145.537 342.545 140.553C341.362 135.536 344.816 131.303 348.686 133.026ZM167.665 133.04C170.385 134.276 171.386 138.962 169.64 142.288C168.002 145.409 163.558 145.361 162.133 142.207C161.64 141.118 161.595 136.81 162.062 135.469C162.831 133.256 165.547 132.078 167.665 133.04ZM188.656 139.146C188.977 139.534 188.763 141.925 188.319 142.895C187.686 144.277 186.137 145.1 184.511 144.917C182.153 144.651 181.609 141.271 183.701 139.885C184.974 139.043 188.174 138.565 188.656 139.146ZM260.395 152.083C260.075 152.425 260.068 152.519 260.068 156.903C260.068 159.363 260.041 161.375 260.008 161.375C259.976 161.375 259.471 161.172 258.886 160.923C258.303 160.674 257.725 160.471 257.603 160.471C257.481 160.471 257.359 160.404 257.331 160.32C257.167 159.83 252.425 159.79 252.105 160.277C252.052 160.357 251.701 160.54 251.325 160.682C249.343 161.43 246.962 164.692 246.962 166.661C246.962 166.805 246.877 166.952 246.773 166.986C246.534 167.066 246.5 172.474 246.739 172.64C246.823 172.7 246.976 173.073 247.079 173.471C248.036 177.169 250.523 179.153 254.346 179.272C257.013 179.353 258.191 178.96 259.904 177.412L260.519 176.856V177.535C260.519 178.753 260.789 178.917 262.847 178.964C263.887 178.988 264.722 178.938 264.902 178.842C265.201 178.682 265.203 178.563 265.158 165.642L265.114 152.605L264.593 152.169C263.859 151.557 260.946 151.497 260.395 152.083ZM314.537 152.198L314.148 152.661V157.034C314.148 160.475 314.108 161.39 313.96 161.327C313.856 161.284 313.331 161.066 312.792 160.844C312.253 160.622 311.745 160.387 311.662 160.319C311.324 160.047 309.558 159.831 308.272 159.904C306.102 160.027 303.899 161.247 302.828 162.915C302.574 163.311 302.313 163.635 302.249 163.635C301.717 163.635 300.739 167.578 300.743 169.707C300.751 174.962 303.18 178.526 307.217 179.206C307.786 179.302 308.302 179.43 308.363 179.491C308.519 179.648 309.28 179.63 309.593 179.463C309.737 179.386 310.247 179.252 310.727 179.165C311.803 178.971 313.322 178.14 314.137 177.3L314.75 176.668V177.451C314.75 178.72 315.24 179 317.464 179C318.355 179 318.71 178.937 318.957 178.737L319.279 178.472L319.237 165.593C319.214 158.509 319.142 152.611 319.079 152.487C318.613 151.575 315.243 151.359 314.537 152.198ZM180.176 153.034C179.014 153.284 177.517 153.811 177.517 153.97C177.517 154.029 177.262 154.206 176.952 154.365C176.124 154.789 175.311 155.608 174.861 156.472C174.643 156.89 174.412 157.266 174.348 157.308C173.607 157.785 173.599 162.34 174.337 163.206C174.63 163.55 175.242 164.446 175.431 164.809C175.695 165.312 178.321 167.011 179.55 167.475C181.339 168.151 182.851 168.814 183.152 169.053C185.194 170.687 185.572 171.626 184.792 173.129C184.202 174.266 182.732 175.075 181.243 175.082C181.014 175.082 180.69 175.168 180.523 175.271C180.306 175.406 180.188 175.413 180.11 175.295C180.051 175.204 179.643 175.088 179.202 175.037C178.762 174.986 177.678 174.698 176.792 174.398C174.579 173.646 174.191 173.816 173.678 175.761C173.111 177.916 173.732 178.48 177.353 179.097C184.115 180.25 189.413 177.779 190.161 173.125C190.519 170.902 190.063 168.23 189.198 167.475C189.103 167.393 188.779 167.014 188.477 166.633C188.175 166.252 187.738 165.845 187.506 165.728C186.931 165.44 185.594 164.649 185.5 164.542C185.433 164.465 184.916 164.237 181.866 162.94C181.4 162.742 180.948 162.58 180.862 162.58C180.776 162.58 180.682 162.529 180.655 162.467C180.627 162.405 180.35 162.164 180.04 161.932C178.984 161.143 178.731 159.959 179.354 158.711C180.229 156.96 183.283 156.52 186.536 157.676C187.825 158.134 188.514 157.911 188.514 157.036C188.514 156.687 189.13 155.145 189.298 155.073C189.453 155.008 189.453 154.596 189.299 154.596C189.234 154.596 189.064 154.398 188.921 154.156C188.262 153.041 183.183 152.389 180.176 153.034ZM197.929 155.214C195.043 155.628 193.992 156.766 194.365 159.071C194.526 160.066 194.42 160.17 193.246 160.17C191.993 160.17 191.774 160.556 191.924 162.505C192.044 164.068 192.269 164.324 193.37 164.16C194.481 163.993 194.453 163.856 194.544 169.871C194.614 174.472 194.66 175.257 194.898 175.911C195.458 177.45 196.967 178.968 198.208 179.237C198.468 179.293 198.725 179.408 198.779 179.491C198.904 179.689 201.771 179.691 201.899 179.494C201.952 179.412 202.235 179.301 202.528 179.247C203.642 179.042 203.743 178.862 203.706 177.142C203.661 175.065 203.675 175.083 202.239 175.083C199.791 175.083 199.55 174.616 199.413 169.624C199.271 164.391 199.228 164.481 201.961 164.245C203.884 164.08 203.879 164.085 203.879 162.284C203.879 160.339 203.804 160.252 202.004 160.107C199.534 159.908 199.362 159.689 199.361 156.743C199.359 154.829 199.508 154.988 197.929 155.214ZM212.842 159.812C211.626 159.912 209.754 160.221 209.754 160.321C209.754 160.377 209.375 160.514 208.91 160.626C207.482 160.968 207.295 161.208 207.375 162.593C207.494 164.633 207.954 164.887 210.102 164.098C213.261 162.935 216.382 163.798 216.382 165.833C216.382 166.472 216.287 166.519 214.882 166.575C214.236 166.601 213.579 166.688 213.424 166.767C213.27 166.847 212.533 167.023 211.787 167.159C209.182 167.633 207.109 169.087 206.117 171.136C205.475 172.462 205.587 175.63 206.306 176.458C206.472 176.651 206.747 177.047 206.915 177.339C208.219 179.599 213.296 180.046 216.115 178.148L216.881 177.633L217.272 178.007C218.149 178.847 220.002 179.323 221.168 179.009L221.805 178.838L221.8 173.383C221.795 168.089 221.642 164.878 221.387 164.701C221.319 164.653 221.184 164.342 221.086 164.011C220.715 162.743 219.718 161.526 218.568 160.936C217.989 160.639 217.48 160.355 217.438 160.305C217.195 160.016 214.222 159.697 212.842 159.812ZM234.421 159.975C233.945 160.1 233.555 160.263 233.555 160.337C233.555 160.411 233.464 160.471 233.352 160.471C233.24 160.471 232.868 160.674 232.524 160.923C232.181 161.172 231.852 161.375 231.793 161.375C231.735 161.375 231.472 161.583 231.21 161.836L230.734 162.298L230.653 161.578C230.521 160.408 230.097 160.172 228.127 160.171C225.847 160.169 226.049 159.236 226.126 169.434C226.206 180.123 225.893 178.974 228.721 178.974C231.497 178.974 231.206 179.691 231.296 172.648C231.378 166.138 231.33 166.458 232.373 165.367C232.69 165.035 232.95 164.71 232.95 164.644C232.954 164.416 234.04 164.069 234.768 164.064C235.896 164.055 236.444 164.306 237.044 165.105C237.961 166.328 237.966 166.363 238.062 172.471L238.15 178.068L238.707 178.609C239.455 179.336 242.615 179.337 243.147 178.612C243.686 177.878 243.199 164.38 242.618 163.936C242.562 163.895 242.351 163.521 242.147 163.107C241.562 161.921 241.117 161.414 240.204 160.897C239.737 160.632 239.313 160.353 239.261 160.277C238.919 159.772 235.909 159.584 234.421 159.975ZM275.283 159.816C274.016 159.921 272.571 160.197 272.571 160.334C272.571 160.409 272.448 160.471 272.296 160.471C271.116 160.471 269.859 161.381 269.86 162.234C269.863 164.081 270.858 165.051 272.012 164.33C273.802 163.213 277.765 163.418 278.565 164.669C278.704 164.887 278.904 165.155 279.009 165.265C279.614 165.898 279.105 166.323 277.433 166.581C273.601 167.172 270.613 168.19 270.613 168.903C270.613 168.989 270.513 169.057 270.392 169.057C269.083 169.057 267.985 173.348 268.695 175.686C269.77 179.225 274.285 180.454 278.405 178.329C279.602 177.712 279.648 177.701 279.741 178.006C280.005 178.88 280.305 178.994 282.314 178.978C284.646 178.961 284.474 179.274 284.461 175.056C284.436 166.753 284.14 163.755 283.257 162.873C283.097 162.712 282.965 162.519 282.965 162.444C282.965 162.174 281.347 160.842 280.77 160.639C280.445 160.523 280.141 160.371 280.095 160.301C279.906 160.011 276.762 159.694 275.283 159.816ZM297.351 159.814C296.199 159.984 294.95 160.801 293.903 162.072L293.209 162.916L293.205 162.409C293.192 160.552 292.783 160.17 290.807 160.17C288.448 160.17 288.69 159.101 288.69 169.543C288.69 180.117 288.389 178.976 291.171 178.984C293.043 178.989 293.078 178.983 293.506 178.575L293.94 178.16L294.001 173.044C294.071 167.247 294.14 166.812 295.133 165.866C295.687 165.337 296.849 164.84 297.528 164.84C297.721 164.84 297.879 164.772 297.879 164.689C297.879 164.607 298.17 164.538 298.526 164.538C299.493 164.538 299.535 164.44 299.535 162.191C299.535 159.804 299.285 159.531 297.351 159.814ZM257.886 164.049C259.702 164.976 260.143 166.059 260.143 169.585C260.143 173.896 259.074 175.404 256 175.431C253.369 175.454 251.707 173.508 251.52 170.187C251.259 165.53 254.557 162.349 257.886 164.049ZM311.595 163.863C313.972 164.702 315.097 168.091 314.28 171.95C313.351 176.331 307.734 176.762 306.166 172.571C304.305 167.597 307.529 162.429 311.595 163.863ZM216.701 170.13C217.523 170.951 216.66 174.374 215.421 175.207C213.327 176.616 210.935 175.91 210.588 173.782C210.217 171.507 212.262 169.985 215.892 169.831C216.211 169.818 216.494 169.922 216.701 170.13ZM279.099 169.952C280.279 170.4 279.707 173.758 278.229 175.055C276.833 176.28 274.369 176.15 273.586 174.808C272.336 172.666 274.023 170.335 277.09 169.968C278.513 169.797 278.688 169.796 279.099 169.952Z" fill="white"/>
</svg>
