<svg width="400" height="251" viewBox="0 0 400 251" fill="none" xmlns="http://www.w3.org/2000/svg">
<path fill-rule="evenodd" clip-rule="evenodd" d="M95.7061 65.0377C90.9782 65.5341 84.0017 67.1432 81.113 68.4032C80.8802 68.5045 80.2613 68.7453 79.7379 68.9378C75.4639 70.5102 66.4912 75.5744 64.9331 77.2937C64.8748 77.3579 63.9234 78.1396 62.8182 79.0311C59.2162 81.9373 54.5365 87.09 51.8191 91.1428C41.2369 106.925 38.4786 125.737 44.1198 143.65C45.0166 146.497 44.9116 146.414 46.7502 145.734C47.5616 145.435 48.915 144.944 49.7582 144.644C50.6015 144.343 51.4818 144.018 51.7146 143.92C51.9475 143.822 52.6135 143.581 53.1953 143.386C53.7766 143.19 54.4432 142.952 54.6755 142.857C56.0835 142.284 63.0696 139.871 65.3563 139.168C66.2287 138.9 67.5137 138.494 68.2116 138.267C68.9096 138.04 69.9087 137.72 70.4321 137.556C76.4822 135.663 80.6182 142.249 78.8793 151.005C77.8037 156.42 78.7334 161.364 81.0494 162.552C88.4379 166.341 97.6243 160.464 95.4993 153.308C95.0984 151.958 94.3946 151.153 90.599 147.7C78.5398 136.731 79.3534 131.079 94.0414 123.792L97.453 122.099L97.5808 121.113C97.8041 119.391 97.9961 112.924 97.8423 112.31L97.6943 111.721L95.9601 111.844C95.0061 111.912 93.6071 112.123 92.8508 112.313C88.6241 113.374 85.6813 113.876 83.6506 113.882C73.6104 113.909 67.6299 107.176 69.2856 97.7093C71.2319 86.5846 77.2522 80.8649 85.3429 82.4543C88.5716 83.0886 90.2777 83.969 95.8117 87.8563C98.0804 89.4494 100.055 90.8246 100.201 90.9121C100.411 91.0383 100.465 88.3898 100.465 77.9455V64.8203L98.8255 64.8511C97.9245 64.868 96.5202 64.9524 95.7061 65.0377Z" fill="white"/>
<path fill-rule="evenodd" clip-rule="evenodd" d="M106.598 80.0691C106.598 95.2668 106.595 95.3623 106.145 96.2935C104.793 99.0868 100.224 98.5607 95.2999 95.0451C86.3473 88.6536 84.3066 87.726 81.2042 88.6366C77.0448 89.8574 73.753 99.6176 75.9661 104.167C77.7082 107.747 82.3656 108.527 90.2787 106.564C98.0358 104.639 101.857 105.506 103.454 109.555C103.972 110.868 104.199 119.17 103.786 121.643L103.639 122.523L105.065 123.58C106.809 124.872 108.666 126.174 111.04 127.77C112.029 128.435 113.377 129.39 114.038 129.894C115.58 131.072 115.493 131.103 116.3 129.065C116.681 128.106 117.427 126.226 117.959 124.888C122.055 114.596 126.485 110.469 133.459 110.449C136.295 110.44 141.847 112.411 143.187 113.903C143.245 113.967 143.769 114.378 144.351 114.814C151.203 119.962 152.901 127.778 148.777 135.182C147.533 137.416 143.907 139.924 139.38 141.683C137.544 142.396 133.98 144.02 133.198 144.498C132.765 144.763 132.312 144.981 132.194 144.981C130.501 144.981 138.536 150.989 147.735 156.601C149.131 157.453 150.627 158.386 151.06 158.675C152.079 159.355 152.306 159.243 153.434 157.5C162.087 144.123 164.951 124.771 160.529 109.555C158.804 103.618 157.003 99.3811 154.044 94.2973C153.063 92.6114 150.331 88.5984 149.96 88.2993C149.888 88.241 149.61 87.8798 149.342 87.4959C148.59 86.4203 147.332 85.0335 144.673 82.3495C135.084 72.6715 122.034 66.4857 107.92 64.9276L106.598 64.7812V80.0691Z" fill="white"/>
<path fill-rule="evenodd" clip-rule="evenodd" d="M99.1433 64.7631C99.4048 64.8135 99.8333 64.8135 100.095 64.7631C100.357 64.7127 100.142 64.6719 99.619 64.6719C99.0956 64.6719 98.8813 64.7127 99.1433 64.7631ZM69.0009 99.7225C69.0009 100.13 69.0444 100.296 69.0974 100.093C69.151 99.889 69.151 99.556 69.0974 99.3523C69.0444 99.1492 69.0009 99.3157 69.0009 99.7225ZM130.47 117.354C128.53 118.364 126.056 120.997 126.056 122.051C126.056 122.198 125.983 122.35 125.893 122.388C125.638 122.498 124.243 125.68 122.858 129.311C121.136 133.822 120.458 135.135 119.417 135.979C116.794 138.103 114.329 138.041 111.559 135.783C111.089 135.399 109.614 134.347 108.281 133.445C106.948 132.543 105.62 131.624 105.33 131.403C103.687 130.153 100.347 127.852 100.176 127.852C99.916 127.852 93.9609 130.774 93.2742 131.238C92.983 131.435 92.1811 131.967 91.4917 132.421C87.4076 135.107 87.7423 136.624 93.5908 141.926C100.963 148.61 101.961 150.234 101.98 155.578C101.993 159.369 101.059 161.578 97.9941 165.001C94.8392 168.524 89.4277 170.502 84.5136 169.927C74.6712 168.775 71.0501 163.212 72.5441 151.54C73.0346 147.705 73.0622 146.618 72.7122 144.923L72.4544 143.674L71.7634 143.786C71.0464 143.902 67.6841 144.893 66.9427 145.207C66.7099 145.305 65.2345 145.815 63.6642 146.34C62.0939 146.866 60.0001 147.591 59.0116 147.953C58.0225 148.315 56.4522 148.88 55.5215 149.209C54.5913 149.538 52.7351 150.207 51.3976 150.696C50.0596 151.185 48.6558 151.686 48.2777 151.809C47.4504 152.079 47.4387 152.219 48.1435 153.443C48.4448 153.967 49.0318 155.014 49.4487 155.769C52.2011 160.766 57.069 166.707 61.8494 170.902C62.7701 171.711 63.6981 172.539 63.9113 172.742C64.1245 172.946 64.3791 173.112 64.4777 173.112C64.5758 173.112 64.8277 173.302 65.0367 173.533C65.2462 173.764 65.9032 174.261 66.4972 174.637C67.0912 175.012 67.6247 175.372 67.683 175.437C67.7812 175.546 68.9797 176.31 71.6133 177.944C88.9048 188.669 113.32 188.611 132.448 177.802C133.895 176.983 139.135 173.394 139.592 172.908C139.651 172.846 140.174 172.425 140.755 171.971C141.988 171.011 148.264 164.732 148.264 164.458C148.264 164.357 147.764 163.963 147.153 163.584C146.543 163.204 145.815 162.742 145.537 162.557C145.259 162.372 144.881 162.125 144.697 162.009C144.512 161.893 143.835 161.465 143.193 161.058C142.55 160.651 141.929 160.27 141.813 160.212C139.503 159.047 129.703 151.965 127.651 149.977C122.651 145.132 125.037 140.718 134.689 136.957C142.072 134.079 143.964 132.498 144.684 128.604C145.93 121.864 136.357 114.288 130.47 117.354ZM82.3255 135.043C82.3255 135.45 82.369 135.616 82.422 135.413C82.475 135.21 82.475 134.877 82.422 134.673C82.369 134.469 82.3255 134.636 82.3255 135.043ZM79.1716 146.887C79.1716 147.643 79.2098 147.952 79.2565 147.574C79.3037 147.196 79.3037 146.577 79.2565 146.199C79.2098 145.822 79.1716 146.131 79.1716 146.887ZM78.3209 155.981C78.3209 156.621 78.3607 156.883 78.409 156.563C78.4578 156.243 78.4578 155.72 78.409 155.399C78.3607 155.08 78.3209 155.341 78.3209 155.981Z" fill="white"/>
<path d="M189.465 118.263H200.344V121.692H189.465V118.263ZM189.808 130.046H185.756V108.226H201.685V111.624H189.808V130.046Z" fill="white"/>
<path d="M201.574 130.046L211.393 108.226H215.383L225.234 130.046H220.994L212.547 110.377H214.168L205.751 130.046H201.574ZM206.094 124.996L207.185 121.817H218.968L220.059 124.996H206.094Z" fill="white"/>
<path d="M228.009 130.046V108.226H232.061V130.046H228.009Z" fill="white"/>
<path d="M237.963 130.046V108.226H246.941C248.874 108.226 250.526 108.538 251.897 109.161C253.29 109.784 254.36 110.678 255.108 111.842C255.856 113.006 256.23 114.388 256.23 115.988C256.23 117.588 255.856 118.97 255.108 120.134C254.36 121.277 253.29 122.16 251.897 122.783C250.526 123.386 248.874 123.687 246.941 123.687H240.208L242.016 121.848V130.046H237.963ZM252.24 130.046L246.723 122.129H251.056L256.604 130.046H252.24ZM242.016 122.284L240.208 120.352H246.754C248.541 120.352 249.882 119.967 250.775 119.198C251.69 118.43 252.147 117.359 252.147 115.988C252.147 114.595 251.69 113.525 250.775 112.777C249.882 112.029 248.541 111.655 246.754 111.655H240.208L242.016 109.66V122.284Z" fill="white"/>
<path d="M265.908 130.046L258.676 108.226H262.884L269.337 127.958H267.248L273.95 108.226H277.691L284.206 127.958H282.18L288.788 108.226H292.653L285.421 130.046H281.12L275.166 112.247H276.288L270.241 130.046H265.908Z" fill="white"/>
<path d="M292.169 130.046L301.988 108.226H305.978L315.828 130.046H311.589L303.141 110.377H304.762L296.346 130.046H292.169ZM296.689 124.996L297.78 121.817H309.563L310.654 124.996H296.689Z" fill="white"/>
<path d="M328.492 130.358C326.788 130.358 325.219 130.088 323.785 129.548C322.372 128.987 321.136 128.207 320.076 127.21C319.016 126.191 318.195 124.996 317.613 123.625C317.031 122.253 316.74 120.757 316.74 119.136C316.74 117.515 317.031 116.019 317.613 114.647C318.195 113.276 319.016 112.091 320.076 111.094C321.156 110.075 322.414 109.296 323.848 108.756C325.282 108.195 326.851 107.914 328.555 107.914C330.404 107.914 332.067 108.215 333.542 108.818C335.038 109.421 336.296 110.304 337.314 111.468L334.758 113.961C333.906 113.109 332.981 112.486 331.984 112.091C331.007 111.676 329.926 111.468 328.742 111.468C327.599 111.468 326.539 111.655 325.562 112.029C324.585 112.403 323.744 112.933 323.037 113.619C322.331 114.304 321.78 115.115 321.385 116.05C321.011 116.985 320.824 118.014 320.824 119.136C320.824 120.238 321.011 121.256 321.385 122.191C321.78 123.126 322.331 123.947 323.037 124.654C323.744 125.339 324.575 125.869 325.531 126.243C326.487 126.617 327.547 126.804 328.711 126.804C329.791 126.804 330.83 126.638 331.828 126.306C332.846 125.952 333.812 125.371 334.727 124.56L337.034 127.584C335.891 128.498 334.561 129.194 333.043 129.672C331.547 130.13 330.03 130.358 328.492 130.358ZM333.199 127.054V118.887H337.034V127.584L333.199 127.054Z" fill="white"/>
<path d="M346.119 117.297H356.967V120.632H346.119V117.297ZM346.431 126.649H358.744V130.046H342.378V108.226H358.307V111.624H346.431V126.649Z" fill="white"/>
<path d="M186.353 148.856V136.127H188.299L196.282 145.928H195.318V136.127H197.664V148.856H195.718L187.735 139.055H188.699V148.856H186.353Z" fill="white"/>
<path d="M203.256 141.419H209.584V143.364H203.256V141.419ZM203.438 146.874H210.621V148.856H201.074V136.127H210.366V138.109H203.438V146.874Z" fill="white"/>
<path d="M215.838 148.856V138.127H211.62V136.127H222.421V138.127H218.202V148.856H215.838Z" fill="white"/>
<path d="M227.018 148.856L222.799 136.127H225.254L229.018 147.638H227.799L231.709 136.127H233.891L237.691 147.638H236.51L240.365 136.127H242.619L238.401 148.856H235.891L232.418 138.473H233.073L229.545 148.856H227.018Z" fill="white"/>
<path d="M250.367 149.038C249.373 149.038 248.458 148.874 247.622 148.547C246.785 148.219 246.058 147.765 245.44 147.183C244.821 146.589 244.342 145.898 244.003 145.11C243.664 144.31 243.494 143.437 243.494 142.491C243.494 141.546 243.664 140.679 244.003 139.891C244.342 139.091 244.821 138.4 245.44 137.818C246.058 137.224 246.785 136.764 247.622 136.436C248.458 136.109 249.367 135.945 250.349 135.945C251.343 135.945 252.252 136.109 253.077 136.436C253.913 136.764 254.641 137.224 255.259 137.818C255.877 138.4 256.356 139.091 256.695 139.891C257.035 140.679 257.204 141.546 257.204 142.491C257.204 143.437 257.035 144.31 256.695 145.11C256.356 145.91 255.877 146.601 255.259 147.183C254.641 147.765 253.913 148.219 253.077 148.547C252.252 148.874 251.349 149.038 250.367 149.038ZM250.349 146.965C250.992 146.965 251.586 146.856 252.131 146.637C252.677 146.419 253.149 146.11 253.55 145.71C253.95 145.298 254.259 144.825 254.477 144.292C254.707 143.746 254.822 143.146 254.822 142.491C254.822 141.837 254.707 141.243 254.477 140.709C254.259 140.164 253.95 139.691 253.55 139.291C253.149 138.879 252.677 138.564 252.131 138.346C251.586 138.127 250.992 138.018 250.349 138.018C249.707 138.018 249.113 138.127 248.567 138.346C248.034 138.564 247.561 138.879 247.149 139.291C246.749 139.691 246.434 140.164 246.203 140.709C245.985 141.243 245.876 141.837 245.876 142.491C245.876 143.134 245.985 143.728 246.203 144.274C246.434 144.819 246.749 145.298 247.149 145.71C247.549 146.11 248.022 146.419 248.567 146.637C249.113 146.856 249.707 146.965 250.349 146.965Z" fill="white"/>
<path d="M259.71 148.856V136.127H264.947C266.074 136.127 267.038 136.309 267.838 136.673C268.651 137.036 269.275 137.558 269.711 138.236C270.148 138.915 270.366 139.721 270.366 140.655C270.366 141.588 270.148 142.395 269.711 143.073C269.275 143.74 268.651 144.255 267.838 144.619C267.038 144.971 266.074 145.146 264.947 145.146H261.019L262.074 144.073V148.856H259.71ZM268.038 148.856L264.82 144.237H267.347L270.584 148.856H268.038ZM262.074 144.328L261.019 143.201H264.838C265.881 143.201 266.662 142.976 267.184 142.528C267.717 142.079 267.984 141.455 267.984 140.655C267.984 139.843 267.717 139.218 267.184 138.782C266.662 138.346 265.881 138.127 264.838 138.127H261.019L262.074 136.964V144.328Z" fill="white"/>
<path d="M275.12 145.856L274.993 143.055L281.666 136.127H284.321L278.775 142.019L277.466 143.455L275.12 145.856ZM273.011 148.856V136.127H275.375V148.856H273.011ZM281.884 148.856L277.011 143.055L278.575 141.328L284.648 148.856H281.884Z" fill="white"/>
</svg>
