<svg width="1656" height="1465" viewBox="0 0 1656 1465" fill="none" xmlns="http://www.w3.org/2000/svg">
<path d="M1636.82 1232.75C1644.67 1249.83 1640.93 1271.83 1620.27 1296.22C1599.16 1321.12 1560.92 1347.69 1502.11 1372.03C1384.56 1420.68 1186.29 1459.82 883.569 1459.82C600.601 1459.82 384.703 1427.51 237.705 1380.68C164.19 1357.27 108.117 1330.29 69.5273 1302.07C30.8357 1273.78 10.3615 1244.72 6.59145 1217.3C2.86795 1190.22 15.2633 1163.18 45.9929 1138.21C76.7981 1113.17 125.547 1090.69 192.901 1073.22C327.539 1038.3 535.025 1023.78 817.516 1047.57C1294.75 1087.76 1479.59 1112.72 1636.82 1232.75Z" fill="#76DCFF" stroke="#073B4C" stroke-width="10"/>
<path d="M717.172 1156.1C718.284 1155.26 719.159 1154.53 719.825 1153.9C711.949 1151.89 705.573 1147.98 699.986 1143.83C697.555 1142.03 695.208 1140.13 692.973 1138.32C692.629 1138.05 692.288 1137.77 691.95 1137.5C689.37 1135.42 686.922 1133.47 684.422 1131.74C679.455 1128.3 674.534 1125.88 668.777 1125.19C663.033 1124.51 655.925 1125.49 646.528 1129.81C636.744 1134.31 626.722 1138.77 616.497 1143.32C569.475 1164.23 518.14 1187.06 465.697 1224.75C460.817 1238.87 458.243 1249.85 457.463 1258.2C456.648 1266.93 457.85 1272.17 459.747 1275.18C461.468 1277.92 464.202 1279.51 468.576 1279.9C473.143 1280.3 479.126 1279.32 486.363 1277C500.795 1272.38 518.508 1263.01 536.471 1252.49C545.408 1247.25 554.319 1241.79 562.83 1236.55C563.293 1236.27 563.755 1235.99 564.216 1235.7C572.203 1230.79 579.832 1226.1 586.701 1222.08C604.637 1211.58 630.091 1199.72 654.044 1188.56C664.231 1183.82 674.146 1179.2 683.096 1174.87C698.342 1167.48 710.575 1161.03 717.172 1156.1Z" fill="#073B4C" stroke="white" stroke-width="10"/>
<path d="M1085.99 1321.23C1087.75 1323.77 1087.52 1325.51 1086.81 1326.76C1085.89 1328.37 1083.45 1330.42 1078.59 1331.67C1068.97 1334.16 1052.27 1332.8 1031.04 1322.04C979.552 1295.96 909.496 1240.46 845.248 1189.56C838.88 1184.52 832.57 1179.52 826.341 1174.6C846.508 1173.35 858.268 1174.45 867.029 1175.71C868.934 1175.99 870.742 1176.28 872.502 1176.56C880.381 1177.84 887.284 1178.96 897.439 1177.59C911.538 1175.69 927.435 1179.24 944.353 1187.08C961.237 1194.9 978.787 1206.84 996.018 1221.24C1030.48 1250.03 1063.14 1288.18 1085.99 1321.23Z" fill="#073B4C" stroke="white" stroke-width="10"/>
<path d="M1596.77 596.202L1593.92 598.045L1594.58 601.373C1595.98 608.443 1596.2 613.35 1595.74 616.697C1595.29 619.959 1594.25 621.402 1593.37 622.137C1592.42 622.937 1590.89 623.524 1588.36 623.682C1585.81 623.842 1582.77 623.538 1579.21 623.019C1578.07 622.853 1576.85 622.66 1575.59 622.46C1573.14 622.072 1570.54 621.66 1568.11 621.38C1564.34 620.946 1560.3 620.73 1556.5 621.373C1552.61 622.029 1548.75 623.623 1545.71 626.952C1542.92 630.01 1541.21 634.098 1540.44 639.135C1539.51 640.86 1539.18 642.852 1539.69 644.924C1540.25 647.217 1541.7 649.021 1543.06 650.351C1545.79 653.014 1550.1 655.592 1554.83 658.124C1558.67 660.177 1563.19 662.394 1568 664.762C1569.27 665.384 1570.56 666.018 1571.86 666.661C1578.17 669.776 1584.93 673.183 1591.68 676.973C1605.26 684.59 1618.44 693.567 1627.63 704.42C1635.62 713.86 1640.47 724.568 1640.03 737.106C1638.69 736.383 1637.14 735.233 1635.35 733.543C1632.46 730.82 1629.74 727.475 1626.95 724.06C1626.15 723.075 1625.34 722.085 1624.53 721.102C1622.79 719.009 1620.97 716.919 1619.17 715.256C1617.48 713.703 1615.2 711.93 1612.47 711.362C1610.98 711.051 1609.34 711.099 1607.71 711.739C1606.11 712.365 1604.87 713.427 1603.91 714.615C1602.26 716.649 1601.14 719.459 1600.28 722.722C1599.97 722.842 1599.39 723.012 1598.4 723.152C1595.88 723.506 1592.14 723.436 1587.23 722.941C1577.84 721.994 1565.5 719.651 1552.09 717.103C1551.56 717.004 1551.04 716.904 1550.51 716.803C1536.62 714.166 1521.77 711.384 1508.58 709.952C1495.67 708.55 1483.31 708.299 1474.95 711.471L1467.89 714.15L1473.11 719.603C1479.26 726.03 1488.7 739.739 1498.27 755.686C1507.77 771.522 1517.12 789.098 1523.14 802.979C1526.18 809.965 1528.26 815.773 1529.16 819.864C1529.24 820.219 1529.3 820.549 1529.36 820.856C1528.25 820.15 1526.88 819.155 1525.22 817.801C1519.98 813.525 1512.61 806.276 1502.65 795.229L1499.85 792.121L1496.3 794.33C1484.15 801.88 1477.12 801.97 1472.77 800.105C1468.06 798.089 1464.47 793.032 1461.02 785.662C1459.71 782.868 1458.52 779.98 1457.31 777.02C1456.96 776.17 1456.6 775.315 1456.25 774.455C1454.69 770.699 1453.01 766.848 1451.07 763.513C1449.14 760.209 1446.71 756.979 1443.41 754.84C1439.91 752.569 1435.81 751.761 1431.22 752.77C1398.98 759.859 1377 759.223 1362.27 754.472C1347.81 749.807 1340.09 741.108 1336.2 731.014C1332.22 720.668 1332.14 708.486 1333.92 697.071C1335.68 685.703 1339.2 675.587 1341.9 669.698C1348.88 654.428 1356.24 631.786 1363.36 609.841C1366.76 599.375 1370.11 589.069 1373.34 579.796C1378.45 565.116 1383.2 553.222 1387.41 546.582C1388.44 544.96 1389.34 543.812 1390.09 543.062C1390.32 542.834 1390.51 542.664 1390.67 542.539C1390.85 542.764 1391.09 543.095 1391.37 543.572C1397.71 554.408 1402.82 562.665 1407.1 568.736C1411.3 574.702 1415 579.016 1418.63 581.503C1420.52 582.796 1422.56 583.72 1424.78 584.023C1427.05 584.332 1429.16 583.947 1431.07 583.14C1434.59 581.66 1437.68 578.619 1440.48 575.695C1441.33 574.801 1442.21 573.86 1443.12 572.881C1448.56 567.053 1455.25 559.883 1465.72 553.252C1477.81 545.596 1495.12 538.594 1521.22 536.151C1522.54 536.245 1523.29 536.424 1523.66 536.549C1523.69 537.17 1523.63 537.736 1523.55 538.607C1523.49 539.161 1523.43 539.838 1523.36 540.731C1523.22 542.687 1523.16 545.242 1523.92 547.968C1525.58 553.901 1530.48 558.69 1540.13 562.176C1549.66 565.618 1564.65 568.127 1588.17 569.14L1588.28 569.145L1588.38 569.145C1594.07 569.145 1603.47 572.719 1612.58 580.129C1620.45 586.532 1627.58 595.385 1631.49 606.117C1627.83 606.995 1625.62 606.681 1624.26 606.167C1622.34 605.447 1620.96 603.955 1619.2 601.478C1619.02 601.222 1618.83 600.938 1618.62 600.638C1617.94 599.667 1617.14 598.519 1616.35 597.549C1615.26 596.215 1613.77 594.681 1611.71 593.666C1607.05 591.365 1602.03 592.798 1596.77 596.202ZM1600.59 722.569C1600.6 722.57 1600.59 722.575 1600.57 722.585C1600.59 722.574 1600.59 722.569 1600.59 722.569ZM1532.1 822.218C1532.1 822.218 1532.1 822.218 1532.08 822.215C1532.1 822.217 1532.1 822.218 1532.1 822.218Z" fill="#073B4C" stroke="white" stroke-width="10"/>
<path d="M218.309 520.768L220.84 523.027L219.676 526.214C217.203 532.984 216.237 537.8 216.179 541.178C216.121 544.47 216.919 546.054 217.676 546.917C218.498 547.853 219.913 548.668 222.39 549.213C224.884 549.762 227.939 549.93 231.537 549.965C232.687 549.975 233.923 549.972 235.201 549.968C237.68 549.961 240.312 549.953 242.758 550.05C246.546 550.2 250.569 550.608 254.227 551.827C257.968 553.073 261.538 555.241 264.033 558.998C266.325 562.449 267.385 566.751 267.365 571.846C268.025 573.694 268.043 575.712 267.222 577.681C266.314 579.861 264.604 581.421 263.054 582.526C259.949 584.738 255.3 586.624 250.229 588.398C246.118 589.836 241.32 591.334 236.196 592.933C234.849 593.354 233.478 593.782 232.092 594.217C225.379 596.326 218.176 598.653 210.92 601.36C196.337 606.802 181.928 613.646 171.186 622.959C161.842 631.059 155.402 640.894 153.906 653.351C155.344 652.843 157.053 651.944 159.082 650.549C162.35 648.302 165.559 645.416 168.834 642.469C169.779 641.619 170.729 640.765 171.687 639.919C173.728 638.118 175.846 636.332 177.882 634.966C179.785 633.69 182.314 632.289 185.093 632.147C186.618 632.069 188.234 632.369 189.744 633.252C191.223 634.115 192.292 635.356 193.058 636.678C194.369 638.94 195.051 641.89 195.395 645.246C195.684 645.412 196.228 645.668 197.192 645.96C199.624 646.697 203.329 647.202 208.259 647.467C217.685 647.974 230.231 647.555 243.878 647.098C244.412 647.081 244.948 647.063 245.485 647.045C259.615 646.574 274.72 646.106 287.969 646.718C300.944 647.316 313.197 648.968 320.969 653.386L327.533 657.118L321.535 661.705C314.467 667.11 303.036 679.205 291.133 693.493C279.312 707.682 267.372 723.612 259.285 736.402C255.215 742.839 252.264 748.258 250.747 752.162C250.615 752.501 250.499 752.817 250.396 753.111C251.601 752.584 253.109 751.813 254.957 750.73C260.79 747.309 269.189 741.279 280.724 731.893L283.97 729.253L287.141 731.981C297.98 741.307 304.918 742.477 309.503 741.303C314.463 740.034 318.786 735.588 323.33 728.837C325.053 726.277 326.671 723.605 328.329 720.868C328.805 720.082 329.284 719.291 329.77 718.496C331.89 715.025 334.135 711.476 336.57 708.48C338.981 705.511 341.883 702.694 345.468 701.086C349.272 699.379 353.455 699.212 357.835 700.915C388.598 712.873 410.415 715.622 425.699 713.19C440.706 710.802 449.674 703.393 455.065 694.017C460.59 684.406 462.535 672.38 462.538 660.828C462.54 649.324 460.616 638.787 458.858 632.554C455.458 620.499 452.58 605.6 449.901 590.569C449.112 586.143 448.34 581.708 447.577 577.319C445.729 566.7 443.93 556.355 442.044 547.068C439.343 533.771 436.611 523.454 433.669 517.885C432.723 516.094 432.022 515.317 431.678 514.998C431.381 515.208 430.893 515.638 430.196 516.492C422.237 526.248 415.851 533.438 410.581 538.41C405.446 543.254 400.791 546.567 396.267 547.618C393.853 548.179 391.471 548.098 389.195 547.293C386.978 546.509 385.17 545.147 383.671 543.621C380.817 540.715 378.395 536.455 376.032 532.153C375.668 531.49 375.299 530.814 374.923 530.125C370.21 521.492 364.436 510.912 354.289 500.763C343.463 489.935 327.467 479.439 302.189 473.039C300.863 472.928 300.101 472.991 299.709 473.056C299.589 473.666 299.557 474.234 299.508 475.107C299.476 475.663 299.438 476.342 299.366 477.235C299.207 479.189 298.873 481.724 297.701 484.301C295.153 489.908 289.572 493.887 279.502 495.849C269.558 497.785 254.36 497.961 230.963 495.349L230.856 495.337L230.75 495.32C225.13 494.446 215.297 496.535 205.156 502.456C196.392 507.573 187.986 515.226 182.47 525.229C185.955 526.659 188.184 526.688 189.613 526.391C191.619 525.974 193.209 524.711 195.326 522.534C195.545 522.309 195.784 522.059 196.037 521.794C196.853 520.938 197.819 519.927 198.752 519.09C200.036 517.94 201.742 516.652 203.93 515.965C208.889 514.408 213.634 516.596 218.309 520.768ZM195.109 645.047C195.108 645.047 195.114 645.053 195.127 645.065C195.116 645.052 195.109 645.046 195.109 645.047ZM247.476 754.036C247.476 754.036 247.482 754.036 247.494 754.036C247.482 754.036 247.476 754.036 247.476 754.036ZM432.032 514.813C432.033 514.808 432.002 514.812 431.938 514.842C432 514.833 432.032 514.818 432.032 514.813Z" fill="#073B4C" stroke="white" stroke-width="10"/>
<mask id="path-6-inside-1_3119_11327" fill="white">
<path fill-rule="evenodd" clip-rule="evenodd" d="M765.653 511.516C718.393 508.171 664.697 504.371 620.03 471.793C577.365 487.682 534.699 492.237 499.468 495.998C438.958 502.457 400.382 506.575 421.423 561.758C429.3 582.418 435.436 601.162 441.011 618.193C462.769 684.666 475.982 725.03 550.855 751.247C545.635 793.663 542.845 844.093 542.845 903.91C542.845 1152.4 803.561 1195.6 901.914 1179.72C992.982 1119.87 1030.97 1062.97 1064.54 946.841C1077.45 902.151 1088.09 862.428 1096.65 827.143C1119.94 825.768 1141.42 823.053 1159.18 820.185C1275.93 786.744 1332.7 734.91 1374.12 621.339C1395.12 563.752 1331.46 556.812 1252.48 548.202C1206.27 543.164 1154.81 537.554 1112.01 520.888C1067.34 554.949 1013.64 558.923 966.382 562.42C945.606 563.957 926.074 565.403 909.099 569.272C899.415 568.869 889.736 567.857 880.141 566.028C866.966 518.686 820.671 515.41 765.653 511.516Z"/>
</mask>
<path fill-rule="evenodd" clip-rule="evenodd" d="M765.653 511.516C718.393 508.171 664.697 504.371 620.03 471.793C577.365 487.682 534.699 492.237 499.468 495.998C438.958 502.457 400.382 506.575 421.423 561.758C429.3 582.418 435.436 601.162 441.011 618.193C462.769 684.666 475.982 725.03 550.855 751.247C545.635 793.663 542.845 844.093 542.845 903.91C542.845 1152.4 803.561 1195.6 901.914 1179.72C992.982 1119.87 1030.97 1062.97 1064.54 946.841C1077.45 902.151 1088.09 862.428 1096.65 827.143C1119.94 825.768 1141.42 823.053 1159.18 820.185C1275.93 786.744 1332.7 734.91 1374.12 621.339C1395.12 563.752 1331.46 556.812 1252.48 548.202C1206.27 543.164 1154.81 537.554 1112.01 520.888C1067.34 554.949 1013.64 558.923 966.382 562.42C945.606 563.957 926.074 565.403 909.099 569.272C899.415 568.869 889.736 567.857 880.141 566.028C866.966 518.686 820.671 515.41 765.653 511.516Z" fill="white"/>
<path d="M620.03 471.793L625.922 463.714L621.578 460.545L616.54 462.422L620.03 471.793ZM765.653 511.516L766.359 501.541L766.359 501.541L765.653 511.516ZM499.468 495.998L500.53 505.941L500.53 505.941L499.468 495.998ZM421.423 561.758L430.767 558.196L430.767 558.196L421.423 561.758ZM441.011 618.193L431.507 621.304L431.507 621.304L441.011 618.193ZM550.855 751.247L560.78 752.468L561.764 744.471L554.159 741.809L550.855 751.247ZM542.845 903.91L552.845 903.91L552.845 903.91L542.845 903.91ZM901.914 1179.72L903.508 1189.59L905.619 1189.25L907.405 1188.07L901.914 1179.72ZM1064.54 946.841L1074.14 949.618L1074.14 949.618L1064.54 946.841ZM1096.65 827.143L1096.06 817.16L1088.67 817.596L1086.93 824.786L1096.65 827.143ZM1159.18 820.185L1160.78 830.057L1161.36 829.962L1161.94 829.798L1159.18 820.185ZM1374.12 621.339L1383.51 624.765L1383.51 624.765L1374.12 621.339ZM1252.48 548.202L1253.57 538.261L1253.57 538.261L1252.48 548.202ZM1112.01 520.888L1115.63 511.57L1110.4 509.533L1105.94 512.936L1112.01 520.888ZM966.382 562.42L967.12 572.393L967.12 572.393L966.382 562.42ZM909.099 569.272L908.683 579.263L910.018 579.319L911.321 579.022L909.099 569.272ZM880.141 566.028L870.507 568.709L872.172 574.688L878.268 575.851L880.141 566.028ZM614.137 479.872C661.477 514.399 718.124 518.177 764.947 521.491L766.359 501.541C718.662 498.165 667.917 494.342 625.922 463.714L614.137 479.872ZM500.53 505.941C535.656 502.191 579.518 497.551 623.52 481.164L616.54 462.422C575.212 477.813 533.741 482.282 498.407 486.054L500.53 505.941ZM430.767 558.196C425.795 545.156 424.96 536.619 426.048 531.019C427.018 526.027 429.707 522.358 435.004 519.185C440.721 515.759 449.124 513.17 460.585 511.075C471.94 508.999 485.293 507.568 500.53 505.941L498.407 486.054C483.389 487.657 469.228 489.163 456.989 491.401C444.856 493.619 433.585 496.719 424.724 502.029C415.443 507.59 408.651 515.701 406.416 527.203C404.298 538.098 406.531 550.769 412.079 565.321L430.767 558.196ZM450.514 615.082C444.944 598.064 438.741 579.107 430.767 558.196L412.079 565.321C419.86 585.728 425.928 604.26 431.507 621.304L450.514 615.082ZM554.159 741.809C518.226 729.227 498.102 713.663 484.17 694.029C469.839 673.832 461.524 648.716 450.514 615.082L431.507 621.304C442.256 654.142 451.426 682.445 467.859 705.603C484.691 729.324 508.61 747.05 547.55 760.685L554.159 741.809ZM552.845 903.91C552.845 844.386 555.622 794.379 560.78 752.468L540.93 750.025C535.647 792.947 532.845 843.8 532.845 903.91L552.845 903.91ZM900.319 1169.85C853.114 1177.47 765.527 1170.9 690.073 1132.06C615.314 1093.58 552.845 1023.76 552.845 903.91L532.845 903.91C532.845 1032.55 600.734 1108.57 680.92 1149.84C760.413 1190.76 852.361 1197.85 903.508 1189.59L900.319 1169.85ZM1054.93 944.064C1038.29 1001.64 1020.77 1043.74 996.565 1078.7C972.426 1113.56 941.235 1141.91 896.422 1171.36L907.405 1188.07C953.661 1157.68 986.997 1127.65 1013.01 1090.08C1038.96 1052.6 1057.22 1008.18 1074.14 949.618L1054.93 944.064ZM1086.93 824.786C1078.41 859.902 1067.82 899.482 1054.93 944.064L1074.14 949.618C1087.09 904.82 1097.77 864.955 1106.36 829.499L1086.93 824.786ZM1157.59 810.313C1140.09 813.139 1118.95 815.809 1096.06 817.16L1097.24 837.125C1120.93 835.727 1142.75 832.968 1160.78 830.057L1157.59 810.313ZM1364.72 617.913C1344.35 673.786 1320.52 713.562 1288.12 743.461C1255.7 773.372 1213.92 794.103 1156.43 810.572L1161.94 829.798C1221.19 812.826 1266.17 790.92 1301.68 758.161C1337.2 725.39 1362.47 682.464 1383.51 624.765L1364.72 617.913ZM1251.4 558.143C1291.56 562.522 1325.38 566.317 1346.82 575.583C1357.3 580.113 1363.27 585.329 1366.06 591.142C1368.75 596.782 1369.42 605.039 1364.72 617.913L1383.51 624.765C1389.32 608.846 1389.9 594.639 1384.1 582.513C1378.38 570.559 1367.44 562.705 1354.76 557.224C1329.87 546.471 1292.38 542.492 1253.57 538.261L1251.4 558.143ZM1108.38 530.207C1152.64 547.442 1205.5 553.139 1251.4 558.143L1253.57 538.261C1207.04 533.189 1156.98 527.667 1115.63 511.57L1108.38 530.207ZM967.12 572.393C1013.96 568.927 1070.69 564.968 1118.07 528.84L1105.94 512.936C1063.99 544.931 1013.33 548.919 965.644 552.447L967.12 572.393ZM911.321 579.022C927.417 575.353 946.14 573.945 967.12 572.393L965.644 552.447C945.072 553.97 924.731 555.452 906.877 559.522L911.321 579.022ZM878.268 575.851C888.412 577.785 898.584 578.843 908.683 579.263L909.515 559.28C900.247 558.894 891.061 557.93 882.014 556.205L878.268 575.851ZM764.947 521.491C792.9 523.469 816.682 525.232 835.206 531.89C852.82 538.22 864.939 548.701 870.507 568.709L889.775 563.347C882.168 536.013 864.553 521.185 841.971 513.068C820.299 505.279 793.424 503.456 766.359 501.541L764.947 521.491Z" fill="#073B4C" mask="url(#path-6-inside-1_3119_11327)"/>
<path d="M983.748 51.1576L988.483 53.7455L990.704 48.8277C996.372 36.2733 1004.71 27.9377 1014.6 23.4179C1024.45 18.9153 1036.26 18.0077 1049.24 21.0629C1054.65 23.1175 1060.33 28.382 1066.15 37.2034C1071.98 46.032 1077.54 57.8216 1082.86 71.8355C1091.05 97.2408 1094.32 129.041 1083.03 153.945L1081.93 156.379L1083.34 158.649C1098.77 183.477 1115.83 229.152 1129.09 272.406C1135.69 293.948 1141.3 314.73 1145.26 331.784C1149.26 349.036 1151.44 361.971 1151.44 368.106C1151.44 429.062 1140.59 472.046 1123.15 502.347C1105.76 532.542 1081.61 550.513 1054.21 561.135C1026.68 571.805 995.795 575.079 965.087 575.624C949.753 575.896 934.548 575.488 919.883 575.008C917.696 574.937 915.52 574.863 913.357 574.79C901.056 574.376 889.167 573.976 878.093 573.976C825.58 573.976 753.825 567.642 697.811 538.686C669.893 524.255 646.069 504.298 630.38 476.858C614.709 449.448 606.92 414.16 611.749 368.634C612.068 365.621 613.567 360.235 616.322 352.626C619.027 345.158 622.795 335.942 627.393 325.456C636.585 304.492 649.015 278.645 662.69 251.911C690.093 198.337 722.259 141.671 743.22 113.672L745.607 110.484L743.033 107.445C729.474 91.4293 730.412 74.469 734.917 52.2814C740.5 36.2134 745.792 26.7818 752.576 20.4201C759.303 14.111 768.002 10.3436 781.538 6.72175C781.734 6.70448 781.929 6.68727 782.124 6.67015C793.955 5.62887 802.376 4.88762 810.118 8.05355C817.773 11.1844 825.64 18.6211 834.423 36.8173L836.446 41.0091L840.772 39.2907C859.58 31.8191 878.9 27.6095 898.439 27.6095C925.168 27.6095 959.585 37.95 983.748 51.1576Z" fill="white" stroke="#073B4C" stroke-width="10"/>
<path d="M823.292 45.3852C797.21 58.2718 775.394 73.1018 756.786 100.051C744.05 74.4533 746.013 63.7769 747.802 53.8521C751.238 34.7842 767.323 17.2763 789.967 17.2773C805.249 17.2781 813.692 21.4733 823.292 45.3852Z" fill="#073B4C"/>
<path d="M998.287 61.5114C1015.26 74.3531 1060.16 122.386 1071.94 143.163C1080.63 118.106 1076.85 103.324 1074.03 84.7828C1068.53 48.6187 1052.83 40.3373 1037.53 32.0546C1017.32 28.8434 1007.39 41.4199 998.287 61.5114Z" fill="#073B4C"/>
<path d="M1056.29 185.511C1065.21 199.17 1063.49 216.092 1052.45 223.307C1041.4 230.521 1025.22 225.297 1016.29 211.638C1007.37 197.979 1009.09 181.058 1020.14 173.843C1031.18 166.628 1047.37 171.852 1056.29 185.511Z" fill="#073B4C"/>
<ellipse rx="23.8867" ry="29.5411" transform="matrix(-0.837205 -0.546889 -0.546889 0.837205 782.338 172.446)" fill="#073B4C"/>
<path d="M992.725 380.257C979.133 412.126 935.364 507.476 876.476 502.693C817.589 497.91 789.668 407.728 784.769 357.374C793.661 316.171 781.226 400.992 884.425 404.827C989.788 416.417 994.365 325.396 992.725 380.257Z" fill="#073B4C"/>
<path d="M789.569 345.551C794.609 355.415 783.272 360.546 771.141 363.797C759.01 367.047 749.58 360.703 746.48 356.492C746.557 352.24 747.587 360.626 768.656 354.522C790.487 348.978 787.605 340.527 789.569 345.551Z" fill="#073B4C"/>
<path d="M990.281 364.598C985.24 374.462 996.578 379.593 1008.71 382.844C1020.84 386.094 1030.27 379.75 1033.37 375.539C1033.29 371.287 1032.26 379.673 1011.19 373.569C989.362 368.025 992.245 359.574 990.281 364.598Z" fill="#073B4C"/>
<path d="M932.025 427.524C930.698 443.865 904.865 482.868 879.228 480.786C854.373 478.767 838.618 435.496 839.872 420.056C841.536 399.573 859.266 434.735 882.813 436.647C906.36 438.56 933.689 407.043 932.025 427.524Z" fill="white"/>
<path d="M983.473 253.033C983.473 341.018 917.439 360.918 896.445 360.918C869.793 360.918 823.291 317.138 823.291 253.033C823.291 211.776 871.929 174.654 903.382 178.33C936.933 176.131 983.473 211.776 983.473 253.033Z" fill="#073B4C"/>
</svg>
