<svg width="800" height="800" viewBox="0 0 800 800" fill="none" xmlns="http://www.w3.org/2000/svg">
<g clip-path="url(#clip0_3649_1046)">
<circle cx="400" cy="400" r="400" fill="#3E393D"/>
<path d="M620.728 508.144C617.344 505.882 613.624 504.175 609.699 503.079C607.96 500.25 606.222 497.518 604.532 494.884C585.706 466.275 568.176 450.029 545.672 449.587C545.224 449.338 544.878 449.187 544.43 448.939C531.862 429.568 500.374 405.678 467.096 420.179V420.33C454.394 410.311 439.014 404.263 422.888 402.946C422.604 389.987 422.343 376.572 422.946 361.418L422.95 361.413C423.74 335.913 430.374 310.931 442.349 288.398C453.005 296.47 466.483 299.858 479.686 297.778C506.012 292.962 523.941 276.221 535.219 245.872C543.561 223.547 546.688 199.608 544.36 175.885C543.464 164.807 534.026 154.677 521.311 160.19C507.661 165.996 493.7 171.038 479.49 175.291C427.266 191.731 407.517 243.508 427.23 274.553C438.091 262.756 454.234 241.025 475.579 232.568C430.192 273.475 417.775 301.881 414.197 332.712C406.906 315.824 383.934 279.068 355.993 257.625C365.719 260.193 386.004 276.088 398.005 291.042C398.302 290.297 400.085 286.363 400.333 285.618C410.17 256.61 386.674 217.818 339.686 210.466V210.47C326.626 208.576 313.676 205.991 300.895 202.718C288.925 199.538 282.02 209.721 282.667 219.606H282.663C283.771 240.787 289.718 261.431 300.047 279.955C314.003 305.19 331.987 317.505 355.775 318.25L355.78 318.254C367.009 318.516 377.9 314.378 386.127 306.728C398.496 324.659 409.471 347.507 410.266 371.251V371.291C410.071 382.462 410.266 392.743 410.475 402.721C389.955 403.262 370.415 411.613 355.837 426.066C339.065 427.201 322.797 432.27 308.353 440.869C293.492 449.659 280.405 461.15 269.761 474.743C239.556 492.354 186.008 530.551 170.664 554.539C167.493 559.103 166.132 564.677 166.837 570.185C168.873 588.611 217.35 634.806 233.396 639.972C235.985 640.868 238.704 641.338 241.445 641.365C246.079 641.276 250.589 639.826 254.408 637.192C257.894 634.797 261.26 632.229 264.488 629.493C273.975 621.945 286.937 611.563 299.506 607.141C322.9 598.896 358.215 601.477 386.629 603.566C399.494 604.511 410.622 605.353 419.46 605.105C460.886 604.112 603.042 568.3 626.294 547.288C631.314 542.746 633.891 536.098 633.248 529.357C632.547 520.741 627.935 512.926 620.733 508.145L620.728 508.144ZM617.996 538.097C598.474 555.681 460.447 591.693 419.167 592.686C410.971 592.886 400.092 592.092 387.529 591.196C357.975 589.009 321.219 586.326 295.39 595.418C280.836 600.536 266.928 611.659 256.745 619.805C253.069 622.785 249.84 625.317 247.707 626.71C244.705 628.989 240.731 629.535 237.227 628.151C224.61 624.08 180.505 580.814 179.161 568.795C178.811 566.099 179.52 563.371 181.148 561.194C193.614 541.725 235.439 510.779 264.843 492.302C272.307 487.482 280.014 483.056 287.94 479.037C317.591 464.176 350.241 456.26 383.405 455.891C397.371 455.922 411.3 457.355 424.982 460.162C454.633 466.171 500.232 478.588 512.353 484.997H512.348C515.901 486.523 518.85 489.17 520.744 492.536C522.637 495.902 523.373 499.801 522.832 503.624C521.653 510.706 515.949 516.166 508.822 517.034C497.159 517.97 485.424 517.265 473.955 514.95C452.748 511.921 428.756 508.444 408.935 519.518C406.474 520.901 405.254 523.766 405.968 526.498C406.678 529.23 409.144 531.137 411.964 531.141C413.029 531.15 414.075 530.875 414.993 530.347C431.137 521.358 451.998 524.338 472.163 527.27L472.167 527.265C484.771 529.762 497.663 530.463 510.462 529.354H510.559C510.617 529.358 510.67 529.341 510.71 529.305H510.759C521.793 527.62 532.707 525.247 543.444 522.201C566.043 516.289 591.278 509.735 607.616 515.446C609.806 516.165 611.895 517.167 613.824 518.427C617.807 521.11 620.392 525.42 620.876 530.196C621.208 533.137 620.14 536.059 617.998 538.095L617.996 538.097Z" fill="white"/>
</g>
<defs>
<clipPath id="clip0_3649_1046">
<rect width="800" height="800" fill="white"/>
</clipPath>
</defs>
</svg>
