<svg width="800" height="800" viewBox="0 0 800 800" fill="none" xmlns="http://www.w3.org/2000/svg">
<g clip-path="url(#clip0_3649_1062)">
<circle cx="400" cy="400" r="400" fill="#3E393D"/>
<path fill-rule="evenodd" clip-rule="evenodd" d="M419.362 589.686C397.499 601.728 369.741 602.005 336.634 590.552C322.252 604.63 311.002 618.086 301.604 631.626C299.224 635.076 294.501 635.939 291.051 633.558C287.604 631.177 286.741 626.454 289.118 623.006C301.155 605.656 315.964 588.536 335.888 570.359C353.577 554.225 375.341 537.223 402.857 518.435C403.418 516.55 403.19 514.441 402.051 512.652C399.967 509.376 395.62 508.409 392.346 510.493C363.894 528.595 338.066 549.171 315.115 571.983C309.988 531.749 316.947 501.325 335.882 481.421C361.887 454.094 411.776 444.656 484.228 453.346C474.208 525.628 452.4 571.479 419.358 589.686L419.362 589.686Z" fill="white"/>
<path d="M440.796 329.021L646.029 475.468L646.033 475.465C669.224 492.017 670.521 506.661 667.522 516.023C664.523 525.394 654.963 536.561 626.472 536.561H493.58C493.58 536.561 485.61 532.949 485.034 520.611C484.458 508.273 493.58 504.661 493.58 504.661H626.47L626.469 504.667C628.916 504.667 630.032 504.042 630.234 503.823C630.139 503.907 629.99 503.741 629.695 503.414C629.3 502.973 628.642 502.241 627.499 501.431L422.266 354.985C413.499 348.72 401.651 345.274 388.915 345.274C375.136 345.274 361.979 349.414 352.82 356.622L172.138 498.888C169.992 500.573 169.407 501.784 169.376 502.081C169.678 502.598 172.715 504.661 179.023 504.661H292.966C292.966 504.661 305.06 507.697 305.06 520.611C305.061 533.525 292.966 536.561 292.966 536.561H174.139C145.868 536.561 136.024 525.252 132.745 515.765C129.457 506.279 130.198 491.299 152.404 473.82L333.085 331.564C342.232 324.36 353.481 319.07 365.832 316.123C369.106 293.561 386.041 278.727 399.828 266.649L399.847 266.633C404.332 262.709 408.407 259.133 411.427 255.845L412.168 255.091C420.061 247.764 423.922 237.673 422.922 227.247C421.164 208.937 405.09 195.362 386.426 197.167C380.859 197.701 375.478 199.635 370.873 202.767L370.218 203.185C359.8 209.406 353.501 220.19 353.243 232.115C353.048 240.727 345.983 247.724 337.492 247.724L336.811 247.711C328.16 247.513 321.163 240.206 321.352 231.417C321.856 208.561 333.864 187.86 353.475 176.038C362.19 170.175 372.621 166.444 383.388 165.414C419.768 161.902 451.235 188.415 454.673 224.183C456.625 244.445 449.206 264.065 434.321 278.037C430.517 282.167 425.913 286.203 421.041 290.474L420.954 290.55C412.418 298.027 403.739 305.631 399.626 314.007C415.002 315.67 429.387 320.883 440.796 329.021Z" fill="white"/>
</g>
<defs>
<clipPath id="clip0_3649_1062">
<rect width="800" height="800" fill="white"/>
</clipPath>
</defs>
</svg>
