<svg width="801" height="800" viewBox="0 0 801 800" fill="none" xmlns="http://www.w3.org/2000/svg">
<g clip-path="url(#clip0_3479_267)">
<circle cx="400.678" cy="400" r="400" fill="#3E393D"/>
<mask id="path-2-outside-1_3479_267" maskUnits="userSpaceOnUse" x="132.397" y="154.633" width="537" height="491" fill="black">
<rect fill="white" x="132.397" y="154.633" width="537" height="491"/>
<path d="M666.774 185.265C665.809 177.029 661.439 169.575 654.718 164.713C648.876 160.367 641.617 158.368 634.37 159.096C627.123 159.83 620.407 163.24 615.546 168.66L562.991 226.799C552.681 239.404 533.863 259.729 514.007 268.258C526.681 255.429 533.507 237.935 532.865 219.909C532.223 201.883 524.178 184.923 510.627 173.023C497.074 161.124 479.212 155.339 461.255 157.038C443.299 158.731 426.84 167.758 415.756 181.992C404.671 196.22 399.949 214.389 402.695 232.213C405.446 250.042 415.426 265.94 430.279 276.169L426.037 276.007H424.211H374.891L371.123 276.152C385.999 265.934 395.996 250.024 398.766 232.183C401.528 214.348 396.812 196.161 385.722 181.915C374.638 167.67 358.167 158.626 340.194 156.926C322.226 155.221 304.351 161.012 290.787 172.917C277.224 184.828 269.174 201.807 268.538 219.851C267.902 237.887 274.739 255.392 287.431 268.222C267.51 259.692 248.71 239.32 238.204 226.508L185.856 168.658C178.852 160.885 168.253 157.406 158 159.504C147.748 161.607 139.374 168.976 135.987 178.876C132.601 188.776 134.704 199.733 141.518 207.674L265.112 351.691L265.118 636.164C265.118 640.14 268.342 643.365 272.318 643.365C276.294 643.365 279.519 640.14 279.519 636.164V348.94C279.519 347.217 278.901 345.547 277.768 344.247L152.441 198.253C149.736 195.138 148.465 191.029 148.933 186.926C149.43 182.661 151.724 178.812 155.243 176.344C161.41 171.761 170.056 172.639 175.176 178.367L227.282 235.974C243.58 255.913 268.609 280.752 295.246 285.779C318.756 290.195 345.733 291.784 375.167 290.455H398.729V290.46C395.261 295.685 393.418 301.822 393.441 308.099V636.171C393.441 640.148 396.666 643.372 400.642 643.372C404.618 643.372 407.843 640.148 407.843 636.171V308.025C407.826 303.292 409.727 298.755 413.119 295.449C416.5 292.138 421.054 290.311 425.787 290.369C455.528 291.699 482.538 290.127 506.031 285.711C532.731 280.678 557.812 255.839 573.832 236.161L626.232 178.374C631.508 172.589 640.345 171.838 646.523 176.64C649.852 179.102 652.007 182.841 652.475 186.962C652.938 191.077 651.666 195.203 648.967 198.341L523.686 344.254C522.559 345.554 521.94 347.225 521.94 348.947V636.171C521.94 640.148 525.159 643.372 529.141 643.372C533.117 643.372 536.342 640.148 536.342 636.171V351.61L659.954 207.592C665.207 201.403 667.675 193.329 666.779 185.261L666.774 185.265ZM333.972 171.152C347.519 171.152 360.515 176.538 370.092 186.114C379.674 195.696 385.054 208.688 385.054 222.24C385.054 235.786 379.674 248.783 370.092 258.359C360.516 267.941 347.518 273.321 333.972 273.321C320.42 273.321 307.429 267.941 297.846 258.359C288.27 248.783 282.885 235.786 282.885 222.24C282.902 208.693 288.288 195.713 297.87 186.137C307.446 176.555 320.426 171.17 333.972 171.152ZM416.337 222.24C416.332 208.681 421.712 195.684 431.293 186.096C440.875 176.508 453.873 171.122 467.425 171.122C480.983 171.117 493.98 176.497 503.569 186.078C513.15 195.666 518.536 208.664 518.542 222.216C518.542 235.768 513.156 248.771 503.574 258.353C493.992 267.941 480.995 273.321 467.437 273.321C453.891 273.31 440.904 267.924 431.323 258.347C421.741 248.771 416.355 235.786 416.337 222.24Z"/>
</mask>
<path d="M666.774 185.265C665.809 177.029 661.439 169.575 654.718 164.713C648.876 160.367 641.617 158.368 634.37 159.096C627.123 159.83 620.407 163.24 615.546 168.66L562.991 226.799C552.681 239.404 533.863 259.729 514.007 268.258C526.681 255.429 533.507 237.935 532.865 219.909C532.223 201.883 524.178 184.923 510.627 173.023C497.074 161.124 479.212 155.339 461.255 157.038C443.299 158.731 426.84 167.758 415.756 181.992C404.671 196.22 399.949 214.389 402.695 232.213C405.446 250.042 415.426 265.94 430.279 276.169L426.037 276.007H424.211H374.891L371.123 276.152C385.999 265.934 395.996 250.024 398.766 232.183C401.528 214.348 396.812 196.161 385.722 181.915C374.638 167.67 358.167 158.626 340.194 156.926C322.226 155.221 304.351 161.012 290.787 172.917C277.224 184.828 269.174 201.807 268.538 219.851C267.902 237.887 274.739 255.392 287.431 268.222C267.51 259.692 248.71 239.32 238.204 226.508L185.856 168.658C178.852 160.885 168.253 157.406 158 159.504C147.748 161.607 139.374 168.976 135.987 178.876C132.601 188.776 134.704 199.733 141.518 207.674L265.112 351.691L265.118 636.164C265.118 640.14 268.342 643.365 272.318 643.365C276.294 643.365 279.519 640.14 279.519 636.164V348.94C279.519 347.217 278.901 345.547 277.768 344.247L152.441 198.253C149.736 195.138 148.465 191.029 148.933 186.926C149.43 182.661 151.724 178.812 155.243 176.344C161.41 171.761 170.056 172.639 175.176 178.367L227.282 235.974C243.58 255.913 268.609 280.752 295.246 285.779C318.756 290.195 345.733 291.784 375.167 290.455H398.729V290.46C395.261 295.685 393.418 301.822 393.441 308.099V636.171C393.441 640.148 396.666 643.372 400.642 643.372C404.618 643.372 407.843 640.148 407.843 636.171V308.025C407.826 303.292 409.727 298.755 413.119 295.449C416.5 292.138 421.054 290.311 425.787 290.369C455.528 291.699 482.538 290.127 506.031 285.711C532.731 280.678 557.812 255.839 573.832 236.161L626.232 178.374C631.508 172.589 640.345 171.838 646.523 176.64C649.852 179.102 652.007 182.841 652.475 186.962C652.938 191.077 651.666 195.203 648.967 198.341L523.686 344.254C522.559 345.554 521.94 347.225 521.94 348.947V636.171C521.94 640.148 525.159 643.372 529.141 643.372C533.117 643.372 536.342 640.148 536.342 636.171V351.61L659.954 207.592C665.207 201.403 667.675 193.329 666.779 185.261L666.774 185.265ZM333.972 171.152C347.519 171.152 360.515 176.538 370.092 186.114C379.674 195.696 385.054 208.688 385.054 222.24C385.054 235.786 379.674 248.783 370.092 258.359C360.516 267.941 347.518 273.321 333.972 273.321C320.42 273.321 307.429 267.941 297.846 258.359C288.27 248.783 282.885 235.786 282.885 222.24C282.902 208.693 288.288 195.713 297.87 186.137C307.446 176.555 320.426 171.17 333.972 171.152ZM416.337 222.24C416.332 208.681 421.712 195.684 431.293 186.096C440.875 176.508 453.873 171.122 467.425 171.122C480.983 171.117 493.98 176.497 503.569 186.078C513.15 195.666 518.536 208.664 518.542 222.216C518.542 235.768 513.156 248.771 503.574 258.353C493.992 267.941 480.995 273.321 467.437 273.321C453.891 273.31 440.904 267.924 431.323 258.347C421.741 248.771 416.355 235.786 416.337 222.24Z" fill="white"/>
<path d="M333.966 172.152H333.972V170.152H333.966V172.152ZM416.332 223.24H416.337V221.24H416.332V223.24ZM666.774 185.265L664.787 185.498L665.175 188.807L667.913 186.908L666.774 185.265ZM654.718 164.713L653.525 166.318L653.535 166.326L653.546 166.334L654.718 164.713ZM634.37 159.096L634.17 157.106L634.168 157.106L634.37 159.096ZM615.546 168.66L617.03 170.002L617.035 169.996L615.546 168.66ZM562.991 226.799L561.507 225.458L561.474 225.495L561.443 225.533L562.991 226.799ZM514.007 268.258L512.584 266.853L514.797 270.096L514.007 268.258ZM532.865 219.909L530.866 219.98V219.981L532.865 219.909ZM510.627 173.023L511.946 171.521V171.521L510.627 173.023ZM461.255 157.038L461.443 159.029L461.444 159.029L461.255 157.038ZM415.756 181.992L417.333 183.221L417.333 183.221L415.756 181.992ZM402.695 232.213L400.718 232.517L400.718 232.518L402.695 232.213ZM430.279 276.169L430.203 278.168L437.089 278.43L431.414 274.522L430.279 276.169ZM426.037 276.007L426.114 274.009L426.076 274.007H426.037V276.007ZM374.891 276.007V274.007H374.853L374.815 274.009L374.891 276.007ZM371.123 276.152L369.991 274.503L364.296 278.415L371.2 278.15L371.123 276.152ZM398.766 232.183L400.742 232.49L400.742 232.49L398.766 232.183ZM385.722 181.915L384.144 183.144L384.144 183.144L385.722 181.915ZM340.194 156.926L340.006 158.917L340.006 158.917L340.194 156.926ZM290.787 172.917L289.468 171.414L289.468 171.414L290.787 172.917ZM268.538 219.851L266.539 219.78V219.78L268.538 219.851ZM287.431 268.222L286.643 270.06L288.852 266.815L287.431 268.222ZM238.204 226.508L239.751 225.24L239.72 225.202L239.687 225.166L238.204 226.508ZM185.856 168.658L184.37 169.997L184.373 170L185.856 168.658ZM158 159.504L157.6 157.544L157.598 157.544L158 159.504ZM135.987 178.876L137.88 179.523L137.88 179.523L135.987 178.876ZM141.518 207.674L140 208.976L140 208.976L141.518 207.674ZM265.112 351.691L267.112 351.691L267.112 350.951L266.629 350.389L265.112 351.691ZM265.118 636.164H267.118V636.164L265.118 636.164ZM277.768 344.247L276.251 345.55L276.255 345.555L276.26 345.561L277.768 344.247ZM152.441 198.253L153.958 196.95L153.951 196.941L152.441 198.253ZM148.933 186.926L146.946 186.694L146.946 186.699L148.933 186.926ZM155.243 176.344L156.392 177.982L156.414 177.966L156.437 177.949L155.243 176.344ZM175.176 178.367L173.685 179.7L173.693 179.708L175.176 178.367ZM227.282 235.974L228.83 234.709L228.799 234.67L228.765 234.633L227.282 235.974ZM295.246 285.779L294.875 287.745L294.877 287.745L295.246 285.779ZM375.167 290.455V288.455H375.122L375.077 288.457L375.167 290.455ZM398.729 290.455H400.729V288.455H398.729V290.455ZM398.729 290.46L400.395 291.566L400.729 291.064V290.46H398.729ZM393.441 308.099H395.441L395.441 308.091L393.441 308.099ZM407.843 308.025H409.843L409.843 308.017L407.843 308.025ZM413.119 295.449L414.515 296.882L414.519 296.878L413.119 295.449ZM425.787 290.369L425.877 288.371L425.844 288.37L425.812 288.369L425.787 290.369ZM506.031 285.711L506.4 287.677L506.401 287.677L506.031 285.711ZM573.832 236.161L572.35 234.817L572.315 234.857L572.281 234.898L573.832 236.161ZM626.232 178.374L624.754 177.026L624.75 177.031L626.232 178.374ZM646.523 176.64L645.295 178.219L645.314 178.234L645.334 178.248L646.523 176.64ZM652.475 186.962L654.463 186.739L654.463 186.736L652.475 186.962ZM648.967 198.341L647.451 197.037L647.45 197.038L648.967 198.341ZM523.686 344.254L525.197 345.564L525.203 345.557L523.686 344.254ZM536.342 351.61L534.825 350.307L534.342 350.869V351.61H536.342ZM659.954 207.592L661.471 208.895L661.478 208.886L659.954 207.592ZM666.779 185.261L668.767 185.04L668.396 181.706L665.639 183.618L666.779 185.261ZM333.972 171.152V169.152L333.97 169.152L333.972 171.152ZM370.092 186.114L371.506 184.7L371.506 184.699L370.092 186.114ZM370.092 258.359L368.678 256.945L368.677 256.946L370.092 258.359ZM297.846 258.359L296.432 259.774L296.432 259.774L297.846 258.359ZM282.885 222.24L280.885 222.237V222.24H282.885ZM297.87 186.137L299.284 187.552L299.285 187.551L297.87 186.137ZM416.337 222.24L414.337 222.24V222.242L416.337 222.24ZM431.293 186.096L429.879 184.682L429.879 184.682L431.293 186.096ZM467.425 171.122V173.122H467.426L467.425 171.122ZM503.569 186.078L504.983 184.664L504.982 184.664L503.569 186.078ZM518.542 222.216H520.542V222.215L518.542 222.216ZM503.574 258.353L502.16 256.939L502.16 256.94L503.574 258.353ZM467.437 273.321L467.435 275.321H467.437V273.321ZM431.323 258.347L432.737 256.933L432.737 256.933L431.323 258.347ZM668.76 185.032C667.73 176.241 663.066 168.283 655.89 163.093L653.546 166.334C659.813 170.867 663.887 177.818 664.787 185.498L668.76 185.032ZM655.912 163.109C649.668 158.464 641.912 156.328 634.17 157.106L634.57 161.086C641.322 160.407 648.083 162.271 653.525 166.318L655.912 163.109ZM634.168 157.106C626.426 157.89 619.251 161.533 614.057 167.325L617.035 169.996C621.563 164.947 627.819 161.77 634.571 161.086L634.168 157.106ZM614.063 167.319L561.507 225.458L564.475 228.14L617.03 170.002L614.063 167.319ZM561.443 225.533C551.143 238.125 532.588 258.1 513.218 266.421L514.797 270.096C535.138 261.358 554.219 240.682 564.539 228.066L561.443 225.533ZM515.43 269.664C528.491 256.442 535.525 238.415 534.863 219.838L530.866 219.981C531.488 237.456 524.871 254.415 512.584 266.853L515.43 269.664ZM534.863 219.838C534.202 201.262 525.912 183.783 511.946 171.521L509.307 174.526C522.445 186.062 530.244 202.505 530.866 219.98L534.863 219.838ZM511.946 171.521C497.98 159.258 479.572 153.296 461.067 155.047L461.444 159.029C478.851 157.382 496.169 162.99 509.307 174.526L511.946 171.521ZM461.067 155.047C442.562 156.792 425.6 166.095 414.178 180.763L417.333 183.221C428.079 169.422 444.035 160.67 461.443 159.029L461.067 155.047ZM414.178 180.763C402.755 195.426 397.888 214.15 400.718 232.517L404.671 231.908C402.009 214.629 406.587 197.015 417.333 183.221L414.178 180.763ZM400.718 232.518C403.553 250.891 413.838 267.275 429.145 277.816L431.414 274.522C417.014 264.605 407.338 249.192 404.671 231.908L400.718 232.518ZM430.356 274.171L426.114 274.009L425.961 278.006L430.203 278.168L430.356 274.171ZM426.037 274.007H424.211V278.007H426.037V274.007ZM424.211 274.007H374.891V278.007H424.211V274.007ZM374.815 274.009L371.047 274.153L371.2 278.15L374.968 278.006L374.815 274.009ZM372.256 277.8C387.587 267.271 397.888 250.875 400.742 232.49L396.789 231.877C394.104 249.174 384.412 264.598 369.991 274.503L372.256 277.8ZM400.742 232.49C403.589 214.11 398.729 195.368 387.3 180.687L384.144 183.144C394.896 196.955 399.468 214.587 396.789 231.877L400.742 232.49ZM387.301 180.687C375.878 166.007 358.904 156.686 340.383 154.935L340.006 158.917C357.43 160.565 373.398 169.333 384.144 183.144L387.301 180.687ZM340.383 154.935C321.866 153.178 303.446 159.145 289.468 171.414L292.107 174.42C305.257 162.878 322.586 157.264 340.006 158.917L340.383 154.935ZM289.468 171.414C275.49 183.689 267.195 201.186 266.539 219.78L270.536 219.921C271.153 202.428 278.957 185.967 292.107 174.42L289.468 171.414ZM266.539 219.78C265.884 238.367 272.929 256.407 286.009 269.628L288.852 266.815C276.548 254.377 269.92 237.407 270.536 219.921L266.539 219.78ZM288.218 266.383C268.786 258.063 250.251 238.046 239.751 225.24L236.658 227.776C247.169 240.595 266.233 261.321 286.643 270.06L288.218 266.383ZM239.687 225.166L187.339 167.316L184.373 170L236.721 227.85L239.687 225.166ZM187.342 167.319C179.862 159.019 168.546 155.304 157.6 157.544L158.401 161.463C167.961 159.507 177.841 162.751 184.37 169.997L187.342 167.319ZM157.598 157.544C146.653 159.79 137.711 167.658 134.095 178.229L137.88 179.523C141.037 170.294 148.844 163.424 158.402 161.463L157.598 157.544ZM134.095 178.229C130.479 188.798 132.725 200.498 140 208.976L143.036 206.371C136.684 198.969 134.722 188.753 137.88 179.523L134.095 178.229ZM140 208.976L263.594 352.994L266.629 350.389L143.036 206.371L140 208.976ZM263.112 351.691L263.118 636.164L267.118 636.164L267.112 351.691L263.112 351.691ZM263.118 636.164C263.118 641.245 267.238 645.365 272.318 645.365V641.365C269.447 641.365 267.118 639.036 267.118 636.164H263.118ZM272.318 645.365C277.399 645.365 281.519 641.245 281.519 636.164H277.519C277.519 639.036 275.19 641.365 272.318 641.365V645.365ZM281.519 636.164V348.94H277.519V636.164H281.519ZM281.519 348.94C281.519 346.74 280.73 344.602 279.276 342.933L276.26 345.561C277.072 346.493 277.519 347.695 277.519 348.94H281.519ZM279.286 342.944L153.958 196.95L150.923 199.555L276.251 345.55L279.286 342.944ZM153.951 196.941C151.614 194.251 150.515 190.7 150.92 187.152L146.946 186.699C146.414 191.358 147.858 196.025 150.93 199.564L153.951 196.941ZM150.919 187.157C151.35 183.459 153.339 180.122 156.392 177.982L154.095 174.706C150.109 177.501 147.509 181.862 146.946 186.694L150.919 187.157ZM156.437 177.949C161.772 173.984 169.254 174.743 173.685 179.7L176.667 177.034C170.858 170.535 161.048 169.538 154.05 174.739L156.437 177.949ZM173.693 179.708L225.799 237.316L228.765 234.633L176.66 177.025L173.693 179.708ZM225.733 237.24C233.934 247.273 244.365 258.581 256.135 268.028C267.887 277.462 281.105 285.146 294.875 287.745L295.617 283.814C282.751 281.386 270.135 274.137 258.639 264.909C247.161 255.696 236.928 244.615 228.83 234.709L225.733 237.24ZM294.877 287.745C318.568 292.194 345.702 293.787 375.257 292.453L375.077 288.457C345.763 289.78 318.945 288.195 295.615 283.814L294.877 287.745ZM375.167 292.455H398.729V288.455H375.167V292.455ZM396.729 290.455V290.46H400.729V290.455H396.729ZM397.063 289.354C393.376 294.908 391.417 301.433 391.441 308.106L395.441 308.091C395.419 302.212 397.146 296.461 400.395 291.566L397.063 289.354ZM391.441 308.099V636.171H395.441V308.099H391.441ZM391.441 636.171C391.441 641.252 395.561 645.372 400.642 645.372V641.372C397.77 641.372 395.441 639.043 395.441 636.171H391.441ZM400.642 645.372C405.723 645.372 409.843 641.252 409.843 636.171H405.843C405.843 639.043 403.513 641.372 400.642 641.372V645.372ZM409.843 636.171V308.025H405.843V636.171H409.843ZM409.843 308.017C409.827 303.826 411.511 299.809 414.515 296.882L411.723 294.017C407.943 297.701 405.824 302.757 405.843 308.032L409.843 308.017ZM414.519 296.878C417.52 293.939 421.561 292.318 425.763 292.369L425.812 288.369C420.547 288.305 415.481 290.337 411.72 294.02L414.519 296.878ZM425.698 292.367C455.556 293.702 482.725 292.126 506.4 287.677L505.661 283.746C482.351 288.127 455.499 289.695 425.877 288.371L425.698 292.367ZM506.401 287.677C520.202 285.075 533.448 277.391 545.187 267.989C556.944 258.573 567.319 247.33 575.383 237.424L572.281 234.898C564.325 244.671 554.15 255.686 542.686 264.867C531.205 274.062 518.559 281.314 505.66 283.746L506.401 287.677ZM575.314 237.504L627.714 179.718L624.75 177.031L572.35 234.817L575.314 237.504ZM627.71 179.722C632.282 174.708 639.941 174.057 645.295 178.219L647.75 175.061C640.749 169.619 630.734 170.47 624.754 177.026L627.71 179.722ZM645.334 178.248C648.215 180.379 650.083 183.617 650.488 187.188L654.463 186.736C653.932 182.066 651.488 177.825 647.712 175.032L645.334 178.248ZM650.488 187.185C650.888 190.748 649.787 194.321 647.451 197.037L650.484 199.645C653.546 196.085 654.987 191.405 654.463 186.739L650.488 187.185ZM647.45 197.038L522.168 342.951L525.203 345.557L650.485 199.644L647.45 197.038ZM522.174 342.944C520.73 344.611 519.94 346.747 519.94 348.947H523.94C523.94 347.702 524.388 346.498 525.197 345.564L522.174 342.944ZM519.94 348.947V636.171H523.94V348.947H519.94ZM519.94 636.171C519.94 641.251 524.054 645.372 529.141 645.372V641.372C526.265 641.372 523.94 639.044 523.94 636.171H519.94ZM529.141 645.372C534.222 645.372 538.342 641.252 538.342 636.171H534.342C534.342 639.043 532.013 641.372 529.141 641.372V645.372ZM538.342 636.171V351.61H534.342V636.171H538.342ZM537.86 352.913L661.471 208.895L658.436 206.29L534.825 350.307L537.86 352.913ZM661.478 208.886C667.088 202.277 669.723 193.656 668.767 185.04L664.791 185.482C665.626 193.003 663.326 200.528 658.429 206.298L661.478 208.886ZM665.639 183.618L665.634 183.621L667.913 186.908L667.918 186.905L665.639 183.618ZM333.972 173.152C346.988 173.152 359.476 178.327 368.678 187.528L371.506 184.699C361.555 174.749 348.049 169.152 333.972 169.152V173.152ZM368.678 187.528C377.885 196.735 383.054 209.218 383.054 222.24H387.054C387.054 208.157 381.463 194.657 371.506 184.7L368.678 187.528ZM383.054 222.24C383.054 235.256 377.884 247.744 368.678 256.945L371.506 259.774C381.463 249.822 387.054 236.316 387.054 222.24H383.054ZM368.677 256.946C359.477 266.152 346.988 271.321 333.972 271.321V275.321C348.048 275.321 361.555 269.731 371.507 259.773L368.677 256.946ZM333.972 271.321C320.95 271.321 308.468 266.151 299.261 256.945L296.432 259.774C306.39 269.73 319.89 275.321 333.972 275.321V271.321ZM299.261 256.945C290.06 247.744 284.885 235.255 284.885 222.24H280.885C280.885 236.316 286.481 249.822 296.432 259.774L299.261 256.945ZM284.885 222.242C284.901 209.225 290.077 196.753 299.284 187.552L296.456 184.723C286.499 194.673 280.903 208.161 280.885 222.237L284.885 222.242ZM299.285 187.551C308.486 178.344 320.958 173.169 333.975 173.152L333.97 169.152C319.894 169.17 306.406 174.767 296.456 184.724L299.285 187.551ZM418.337 222.239C418.332 209.211 423.502 196.723 432.708 187.51L429.879 184.682C419.922 194.646 414.331 208.152 414.337 222.24L418.337 222.239ZM432.708 187.51C441.915 178.297 454.404 173.122 467.425 173.122V169.122C453.342 169.122 439.836 174.719 429.879 184.682L432.708 187.51ZM467.426 173.122C480.453 173.117 492.941 178.286 502.155 187.493L504.982 184.664C495.019 174.707 481.513 169.116 467.424 169.122L467.426 173.122ZM502.154 187.492C511.361 196.705 516.537 209.195 516.542 222.217L520.542 222.215C520.536 208.133 514.94 194.627 504.983 184.664L502.154 187.492ZM516.542 222.216C516.542 235.238 511.367 247.732 502.16 256.939L504.989 259.768C514.945 249.81 520.542 236.299 520.542 222.216H516.542ZM502.16 256.94C492.953 266.152 480.465 271.321 467.437 271.321V275.321C481.525 275.321 495.032 269.731 504.989 259.767L502.16 256.94ZM467.439 271.321C454.422 271.31 441.943 266.135 432.737 256.933L429.909 259.762C439.865 269.712 453.359 275.309 467.435 275.321L467.439 271.321ZM432.737 256.933C423.53 247.731 418.354 235.254 418.337 222.237L414.337 222.242C414.356 236.317 419.952 249.811 429.909 259.762L432.737 256.933Z" fill="white" mask="url(#path-2-outside-1_3479_267)"/>
<path d="M337.074 495.648C332.545 495.648 328.873 499.321 328.873 503.849V636.17C328.873 640.699 332.545 644.371 337.074 644.371C341.608 644.371 345.275 640.698 345.275 636.17V503.849C345.275 501.677 344.413 499.591 342.873 498.051C341.338 496.51 339.25 495.648 337.074 495.648Z" fill="white" stroke="white" stroke-width="2"/>
<path d="M464.338 495.648C459.803 495.648 456.137 499.321 456.137 503.849V636.17C456.137 640.698 459.803 644.371 464.338 644.371C468.866 644.371 472.538 640.699 472.538 636.17V503.849C472.538 499.321 468.866 495.648 464.338 495.648Z" fill="white" stroke="white" stroke-width="2"/>
</g>
<defs>
<clipPath id="clip0_3479_267">
<rect width="800" height="800" fill="white" transform="translate(0.677979)"/>
</clipPath>
</defs>
</svg>
