<svg width="170" height="40" viewBox="0 0 170 40" fill="none" xmlns="http://www.w3.org/2000/svg">
<path d="M4.48437 12.2425H5.8721C6.35368 12.2425 6.73389 12.1854 7.0127 12.0714C7.30419 11.9446 7.57666 11.7355 7.83013 11.444L16.8979 1.17862C17.1767 0.861789 17.4429 0.640006 17.6963 0.513272C17.9625 0.373865 18.2983 0.304161 18.7039 0.304161H21.8405L11.461 12.0334C11.1949 12.3248 10.9414 12.572 10.7006 12.7747C10.4725 12.9775 10.2254 13.1423 9.95925 13.269C10.3141 13.3831 10.6246 13.5542 10.8907 13.7823C11.1569 14.0104 11.4357 14.2955 11.7272 14.6377L22.5629 27.5455H19.3692C19.1284 27.5455 18.9257 27.5265 18.7609 27.4885C18.5961 27.4505 18.4504 27.3998 18.3237 27.3364C18.2096 27.2731 18.1019 27.1907 18.0005 27.0893C17.8991 26.9879 17.7977 26.8802 17.6963 26.7661L8.28637 15.9494C8.14696 15.7973 8.0139 15.6706 7.88716 15.5692C7.7731 15.4552 7.63369 15.3601 7.46894 15.2841C7.31686 15.208 7.1331 15.1573 6.91765 15.132C6.71488 15.094 6.46141 15.075 6.15725 15.075H4.48437V27.5455H0.81543V0.304161H4.48437V12.2425Z" fill="white"/>
<path d="M23.2725 0.304161H26.3331C26.6626 0.304161 26.9351 0.386538 27.1506 0.551292C27.366 0.716046 27.5118 0.925156 27.5878 1.17862L33.2148 20.1126C33.3161 20.4548 33.4049 20.8223 33.4809 21.2152C33.5696 21.6081 33.652 22.02 33.728 22.4508C33.8167 22.02 33.9055 21.6081 33.9942 21.2152C34.0829 20.8096 34.1843 20.4421 34.2983 20.1126L40.7047 1.17862C40.7808 0.963176 40.9265 0.766739 41.1419 0.589311C41.3701 0.399211 41.6425 0.304161 41.9594 0.304161H43.0239C43.3534 0.304161 43.6196 0.386538 43.8224 0.551292C44.0378 0.716046 44.1899 0.925156 44.2786 1.17862L50.647 20.1126C50.8751 20.7716 51.0779 21.5257 51.2553 22.3748C51.3313 21.9566 51.401 21.5574 51.4644 21.1772C51.5278 20.797 51.6101 20.4421 51.7115 20.1126L57.3575 1.17862C57.4209 0.950502 57.5603 0.747729 57.7757 0.570303C58.0038 0.392875 58.2763 0.304161 58.5932 0.304161H61.4637L52.9662 27.5455H49.6584L42.7578 6.76757C42.6184 6.3747 42.4917 5.91846 42.3776 5.39885C42.3142 5.65232 42.2509 5.89945 42.1875 6.14024C42.1368 6.36836 42.0798 6.57747 42.0164 6.76757L35.0777 27.5455H31.77L23.2725 0.304161Z" fill="white"/>
<path d="M90.342 13.9344C90.342 15.9748 90.0188 17.8504 89.3725 19.5613C88.7261 21.2596 87.8136 22.7233 86.635 23.9526C85.4564 25.182 84.037 26.1388 82.3768 26.8232C80.7292 27.4948 78.9043 27.8307 76.9019 27.8307C74.8995 27.8307 73.0745 27.4948 71.427 26.8232C69.7795 26.1388 68.3664 25.182 67.1878 23.9526C66.0091 22.7233 65.0967 21.2596 64.4503 19.5613C63.804 17.8504 63.4808 15.9748 63.4808 13.9344C63.4808 11.8939 63.804 10.0246 64.4503 8.3264C65.0967 6.61549 66.0091 5.14538 67.1878 3.91607C68.3664 2.67408 69.7795 1.7109 71.427 1.02654C73.0745 0.342181 74.8995 0 76.9019 0C78.9043 0 80.7292 0.342181 82.3768 1.02654C84.037 1.7109 85.4564 2.67408 86.635 3.91607C87.8136 5.14538 88.7261 6.61549 89.3725 8.3264C90.0188 10.0246 90.342 11.8939 90.342 13.9344ZM86.559 13.9344C86.559 12.2615 86.3309 10.7597 85.8746 9.42898C85.4184 8.09828 84.772 6.97668 83.9356 6.0642C83.0992 5.13905 82.0853 4.42934 80.894 3.93508C79.7027 3.44082 78.372 3.19369 76.9019 3.19369C75.4445 3.19369 74.1201 3.44082 72.9288 3.93508C71.7375 4.42934 70.7173 5.13905 69.8682 6.0642C69.0317 6.97668 68.3854 8.09828 67.9292 9.42898C67.4729 10.7597 67.2448 12.2615 67.2448 13.9344C67.2448 15.6072 67.4729 17.109 67.9292 18.4397C68.3854 19.7578 69.0317 20.8794 69.8682 21.8045C70.7173 22.717 71.7375 23.4204 72.9288 23.9146C74.1201 24.3962 75.4445 24.637 76.9019 24.637C78.372 24.637 79.7027 24.3962 80.894 23.9146C82.0853 23.4204 83.0992 22.717 83.9356 21.8045C84.772 20.8794 85.4184 19.7578 85.8746 18.4397C86.3309 17.109 86.559 15.6072 86.559 13.9344Z" fill="white"/>
<path d="M99.4231 12.2425H100.811C101.292 12.2425 101.673 12.1854 101.951 12.0714C102.243 11.9446 102.515 11.7355 102.769 11.444L111.837 1.17862C112.115 0.861789 112.382 0.640006 112.635 0.513272C112.901 0.373865 113.237 0.304161 113.643 0.304161H116.779L106.4 12.0334C106.134 12.3248 105.88 12.572 105.639 12.7747C105.411 12.9775 105.164 13.1423 104.898 13.269C105.253 13.3831 105.563 13.5542 105.83 13.7823C106.096 14.0104 106.374 14.2955 106.666 14.6377L117.502 27.5455H114.308C114.067 27.5455 113.864 27.5265 113.7 27.4885C113.535 27.4505 113.389 27.3998 113.262 27.3364C113.148 27.2731 113.041 27.1907 112.939 27.0893C112.838 26.9879 112.736 26.8802 112.635 26.7661L103.225 15.9494C103.086 15.7973 102.953 15.6706 102.826 15.5692C102.712 15.4552 102.572 15.3601 102.408 15.2841C102.256 15.208 102.072 15.1573 101.856 15.132C101.654 15.094 101.4 15.075 101.096 15.075H99.4231V27.5455H95.7542V0.304161H99.4231V12.2425Z" fill="white"/>
<path d="M143.666 27.5455H140.814C140.485 27.5455 140.219 27.4632 140.016 27.2984C139.813 27.1337 139.661 26.9245 139.56 26.6711L137.012 20.0936H124.789L122.241 26.6711C122.153 26.8992 122.001 27.102 121.785 27.2794C121.57 27.4568 121.304 27.5455 120.987 27.5455H118.135L129.028 0.304161H132.773L143.666 27.5455ZM125.815 17.4322H135.986L131.708 6.34935C131.43 5.66499 131.157 4.80954 130.891 3.783C130.752 4.3026 130.612 4.78419 130.473 5.22776C130.346 5.65865 130.219 6.03885 130.093 6.36836L125.815 17.4322Z" fill="white"/>
<path d="M169.184 27.5455H165.477V15.151H150.802V27.5455H147.095V0.304161H150.802V12.4516H165.477V0.304161H169.184V27.5455Z" fill="white"/>
<path d="M34.6977 37.9013V39.9392H33.9639V34.4909H35.5721C35.9168 34.4909 36.2159 34.5315 36.4694 34.6126C36.7254 34.6911 36.937 34.8039 37.1043 34.9509C37.2716 35.098 37.3958 35.2754 37.4769 35.4832C37.5606 35.6911 37.6024 35.923 37.6024 36.179C37.6024 36.4325 37.558 36.6644 37.4693 36.8748C37.3806 37.0851 37.2501 37.2664 37.0777 37.4184C36.9079 37.5705 36.6962 37.6897 36.4428 37.7758C36.1893 37.8595 35.8991 37.9013 35.5721 37.9013H34.6977ZM34.6977 37.3158H35.5721C35.7825 37.3158 35.9675 37.2879 36.1272 37.2321C36.2894 37.1764 36.425 37.0991 36.534 37.0002C36.643 36.8988 36.7254 36.7784 36.7812 36.639C36.8369 36.4996 36.8648 36.3463 36.8648 36.179C36.8648 35.8317 36.7571 35.5605 36.5416 35.3654C36.3287 35.1702 36.0055 35.0726 35.5721 35.0726H34.6977V37.3158Z" fill="white"/>
<path d="M47.2164 34.4909V35.0916H44.6006V36.9014H46.7183V37.4793H44.6006V39.3385H47.2164V39.9392H43.8592V34.4909H47.2164Z" fill="white"/>
<path d="M58.0829 39.9392H57.5126C57.4467 39.9392 57.3935 39.9227 57.3529 39.8898C57.3124 39.8568 57.2819 39.815 57.2617 39.7643L56.7522 38.4488H54.3075L53.798 39.7643C53.7803 39.8099 53.7499 39.8505 53.7068 39.8859C53.6637 39.9214 53.6105 39.9392 53.5471 39.9392H52.9768L55.1554 34.4909H55.9044L58.0829 39.9392ZM54.5128 37.9165H56.5469L55.6914 35.6999C55.6357 35.5631 55.5812 35.392 55.528 35.1867C55.5001 35.2906 55.4722 35.3869 55.4443 35.4756C55.419 35.5618 55.3936 35.6378 55.3683 35.7037L54.5128 37.9165Z" fill="white"/>
<path d="M64.9013 37.6656V39.9392H64.1675V34.4909H65.7074C66.0521 34.4909 66.3499 34.5264 66.6008 34.5974C66.8518 34.6658 67.0583 34.7659 67.2206 34.8977C67.3853 35.0295 67.507 35.1892 67.5855 35.3768C67.6641 35.5618 67.7034 35.7696 67.7034 36.0003C67.7034 36.1929 67.673 36.3729 67.6122 36.5402C67.5513 36.7075 67.4626 36.8583 67.346 36.9926C67.232 37.1244 67.0913 37.2372 66.924 37.331C66.7592 37.4248 66.5717 37.4958 66.3613 37.5439C66.4525 37.5971 66.5337 37.6744 66.6046 37.7758L68.1939 39.9392H67.5399C67.4056 39.9392 67.3067 39.8872 67.2434 39.7833L65.829 37.8367C65.7859 37.7758 65.739 37.7327 65.6883 37.7074C65.6376 37.6795 65.5616 37.6656 65.4602 37.6656H64.9013ZM64.9013 37.1295H65.6731C65.8886 37.1295 66.0774 37.1041 66.2396 37.0535C66.4044 37.0002 66.5413 36.9267 66.6502 36.8329C66.7618 36.7366 66.8454 36.6226 66.9012 36.4908C66.9569 36.359 66.9848 36.2132 66.9848 36.0535C66.9848 35.7291 66.8771 35.4845 66.6617 35.3197C66.4487 35.155 66.1306 35.0726 65.7074 35.0726H64.9013V37.1295Z" fill="white"/>
<path d="M75.0455 39.3194H77.4027V39.9392H74.3079V34.4909H75.0455V39.3194Z" fill="white"/>
<path d="M90.3298 39.9392V34.4909H92.0673C92.4019 34.4909 92.6896 34.5239 92.9304 34.5898C93.1737 34.6557 93.3727 34.7494 93.5273 34.8711C93.6844 34.9928 93.7998 35.1423 93.8733 35.3197C93.9493 35.4946 93.9873 35.6923 93.9873 35.9129C93.9873 36.0472 93.9658 36.1765 93.9227 36.3007C93.8821 36.4249 93.8188 36.5402 93.7326 36.6466C93.6489 36.7531 93.5425 36.8481 93.4132 36.9318C93.2865 37.0154 93.1369 37.0839 92.9646 37.1371C93.3625 37.2157 93.6629 37.3589 93.8657 37.5667C94.0684 37.7746 94.1698 38.0483 94.1698 38.388C94.1698 38.6186 94.1267 38.829 94.0406 39.0191C93.9569 39.2092 93.8327 39.3727 93.668 39.5096C93.5057 39.6464 93.3055 39.7529 93.0672 39.8289C92.8315 39.9024 92.5616 39.9392 92.2574 39.9392H90.3298ZM91.0674 37.4565V39.3537H92.246C92.4564 39.3537 92.6363 39.3296 92.7859 39.2814C92.938 39.2333 93.0622 39.1661 93.1585 39.0799C93.2573 38.9912 93.3296 38.8873 93.3752 38.7682C93.4208 38.6465 93.4436 38.5134 93.4436 38.3689C93.4436 38.0876 93.3435 37.8658 93.1433 37.7036C92.9456 37.5388 92.6452 37.4565 92.2422 37.4565H91.0674ZM91.0674 36.9318H92.0407C92.2485 36.9318 92.4285 36.909 92.5806 36.8634C92.7327 36.8177 92.8581 36.7544 92.957 36.6733C93.0584 36.5921 93.1331 36.4946 93.1813 36.3805C93.2295 36.2639 93.2535 36.1372 93.2535 36.0003C93.2535 35.6809 93.1572 35.4465 92.9646 35.2969C92.7719 35.1474 92.4729 35.0726 92.0673 35.0726H91.0674V36.9318Z" fill="white"/>
<path d="M103.933 34.4909V35.0916H101.317V36.9014H103.435V37.4793H101.317V39.3385H103.933V39.9392H100.576V34.4909H103.933Z" fill="white"/>
<path d="M114.8 39.9392H114.229C114.163 39.9392 114.11 39.9227 114.07 39.8898C114.029 39.8568 113.999 39.815 113.978 39.7643L113.469 38.4488H111.024L110.515 39.7643C110.497 39.8099 110.467 39.8505 110.424 39.8859C110.38 39.9214 110.327 39.9392 110.264 39.9392H109.694L111.872 34.4909H112.621L114.8 39.9392ZM111.23 37.9165H113.264L112.408 35.6999C112.352 35.5631 112.298 35.392 112.245 35.1867C112.217 35.2906 112.189 35.3869 112.161 35.4756C112.136 35.5618 112.11 35.6378 112.085 35.7037L111.23 37.9165Z" fill="white"/>
<path d="M124.485 38.8138C124.525 38.8138 124.562 38.8303 124.595 38.8632L124.884 39.1788C124.661 39.4373 124.39 39.6388 124.07 39.7833C123.754 39.9278 123.371 40 122.922 40C122.529 40 122.173 39.9328 121.854 39.7985C121.535 39.6616 121.262 39.4715 121.036 39.2282C120.811 38.9823 120.636 38.6883 120.512 38.3461C120.388 38.004 120.325 37.6276 120.325 37.2169C120.325 36.8063 120.391 36.4299 120.523 36.0877C120.658 35.7456 120.845 35.4515 121.086 35.2057C121.327 34.9598 121.614 34.7697 121.949 34.6354C122.286 34.4985 122.657 34.4301 123.063 34.4301C123.463 34.4301 123.808 34.4922 124.097 34.6164C124.389 34.7406 124.647 34.9091 124.873 35.122L124.633 35.4604C124.615 35.4858 124.595 35.5073 124.572 35.525C124.55 35.5403 124.517 35.5479 124.473 35.5479C124.441 35.5479 124.405 35.5365 124.367 35.5136C124.332 35.4883 124.288 35.4579 124.238 35.4224C124.187 35.3869 124.127 35.3489 124.059 35.3083C123.991 35.2678 123.91 35.2298 123.816 35.1943C123.722 35.1588 123.613 35.1296 123.489 35.1068C123.365 35.0815 123.221 35.0688 123.059 35.0688C122.768 35.0688 122.5 35.1195 122.257 35.2209C122.016 35.3197 121.808 35.4617 121.633 35.6467C121.458 35.8317 121.322 36.0573 121.223 36.3235C121.126 36.5896 121.078 36.8874 121.078 37.2169C121.078 37.5566 121.126 37.8595 121.223 38.1256C121.322 38.3918 121.455 38.6173 121.622 38.8024C121.792 38.9849 121.992 39.1243 122.223 39.2206C122.453 39.3169 122.702 39.3651 122.968 39.3651C123.13 39.3651 123.276 39.3562 123.405 39.3385C123.534 39.3182 123.654 39.2878 123.763 39.2472C123.874 39.2067 123.977 39.156 124.07 39.0951C124.167 39.0318 124.263 38.957 124.359 38.8708C124.403 38.8328 124.444 38.8138 124.485 38.8138Z" fill="white"/>
<path d="M135.591 39.9392H134.85V37.4603H131.915V39.9392H131.173V34.4909H131.915V36.9204H134.85V34.4909H135.591V39.9392Z" fill="white"/>
</svg>
