<svg width="750" height="672" viewBox="0 0 750 672" fill="none" xmlns="http://www.w3.org/2000/svg">
<path fill-rule="evenodd" clip-rule="evenodd" d="M386.233 72.1842C426.493 72.1842 465.017 84.3811 500.924 104.726C522.935 40.3548 588.006 -1.98268 645.682 0.816432C714.911 4.17622 747.27 71.2936 743.984 158.042C741.797 215.799 715.007 265.068 676.912 290.557C722.81 367.09 749.747 444.1 749.747 484.989C747.89 557.132 725.071 619.647 689.973 671.25H52.6462C20.384 621.672 0.291283 560.062 0.294922 484.989C0.297081 440.462 38.9507 349.26 100.61 263.88C78.4976 236.804 64.1736 199.626 62.5989 158.048C59.3134 71.2996 91.6722 4.18228 160.901 0.82249C214.145 -1.76152 273.691 34.1205 299.845 90.2933C327.861 78.7556 356.816 72.1842 386.233 72.1842Z" fill="white"/>
<path d="M270.431 94.9482C214.71 123.111 163.597 168.391 121.149 218.086C104.846 199.154 94.303 173.337 93.1329 144.502C90.6682 83.6594 114.993 36.5818 167.033 34.2246C206.367 32.4439 250.267 56.7175 270.431 94.9482Z" fill="#073B4C"/>
<path d="M656.83 240.347C688.096 223.502 710.499 187.328 712.24 144.502C714.705 83.6596 690.38 36.5821 638.339 34.2248C593.449 32.1898 542.607 64.0949 527.893 111.952C577.7 144.739 621.573 191.336 656.83 240.347Z" fill="#073B4C"/>
<ellipse cx="527.235" cy="222.88" rx="32.9836" ry="40.7913" transform="rotate(-33.1539 527.235 222.88)" fill="#073B4C"/>
<ellipse rx="32.9836" ry="40.7913" transform="matrix(-0.837205 -0.546889 -0.546889 0.837205 231.796 222.88)" fill="#073B4C"/>
<path d="M525.838 439.415C510.693 484.795 461.112 620.919 379.53 620.919C297.949 620.919 249.441 499.923 237.068 431.167C244.701 373.465 237.068 491.595 379.53 485.337C525.838 489.51 521.961 363.726 525.838 439.415Z" fill="#073B4C"/>
<path d="M443.419 519.383C443.419 542.022 412.225 598.59 376.708 598.59C342.274 598.59 315.754 540.797 315.754 519.406C315.754 491.029 344.087 537.441 376.708 537.441C409.33 537.441 443.419 491.008 443.419 519.383Z" fill="white"/>
<path d="M492.886 342.14C473.503 401.19 411.282 445.292 382.294 445.292C345.492 445.292 281.231 393.03 271.701 342.14C271.701 285.17 338.861 233.911 382.294 238.987C428.622 235.95 492.886 285.17 492.886 342.14Z" fill="#073B4C"/>
</svg>
