<svg width="375" height="150" viewBox="0 0 375 150" fill="none" xmlns="http://www.w3.org/2000/svg">
<path d="M29.9625 45.12H32.0425C33.8825 45.12 35.2825 44.5067 36.2425 43.28L51.6425 23.36C52.3358 22.4267 53.1092 21.8 53.9625 21.48C54.8425 21.1333 55.8692 20.96 57.0425 20.96H67.0425L47.5225 45C46.9092 45.7733 46.2958 46.4133 45.6825 46.92C45.0692 47.4267 44.4292 47.8533 43.7625 48.2C44.6158 48.52 45.3492 48.9867 45.9625 49.6C46.6025 50.1867 47.1492 50.96 47.6025 51.92L61.2425 79H50.9625C49.6292 79 48.6692 78.8133 48.0825 78.44C47.4958 78.04 47.0292 77.4933 46.6825 76.8L36.0825 55.72C35.7358 54.9733 35.2425 54.4533 34.6025 54.16C33.9892 53.8667 33.1092 53.72 31.9625 53.72H28.9225L25.8025 79H14.2825L21.3625 20.92H32.9625L29.9625 45.12ZM145.352 20.96L121.632 79H111.152L105.152 40.4C105.045 39.8667 104.952 39.2667 104.872 38.6C104.792 37.9333 104.725 37.24 104.672 36.52C104.139 37.96 103.645 39.2533 103.192 40.4L87.7919 79H77.3519L67.9119 20.96H76.9919C78.0052 20.96 78.8052 21.2 79.3919 21.68C80.0052 22.1333 80.3785 22.7467 80.5119 23.52L85.1119 57.2C85.1919 58.1333 85.2719 59.12 85.3519 60.16C85.4319 61.2 85.4985 62.2933 85.5519 63.44C85.9252 62.2933 86.2985 61.2 86.6719 60.16C87.0719 59.0933 87.4585 58.1067 87.8319 57.2L101.112 23.52C101.272 23.2 101.472 22.8933 101.712 22.6C101.979 22.28 102.285 22 102.632 21.76C103.005 21.52 103.405 21.3333 103.832 21.2C104.259 21.04 104.712 20.96 105.192 20.96H107.912C108.925 20.96 109.712 21.2133 110.272 21.72C110.859 22.2 111.259 22.8 111.472 23.52L116.672 57.2C116.805 58.0533 116.939 58.9867 117.072 60C117.205 61.0133 117.312 62.08 117.392 63.2C117.712 62.08 118.032 61.0267 118.352 60.04C118.699 59.0267 119.019 58.08 119.312 57.2L132.032 23.52C132.245 22.8533 132.752 22.2667 133.552 21.76C134.352 21.2267 135.232 20.96 136.192 20.96H145.352ZM199.227 46.16C199.227 49.3333 198.867 52.3733 198.147 55.28C197.427 58.16 196.4 60.84 195.067 63.32C193.76 65.8 192.16 68.04 190.267 70.04C188.374 72.04 186.254 73.76 183.907 75.2C181.587 76.6133 179.054 77.7067 176.307 78.48C173.587 79.2533 170.72 79.64 167.707 79.64C163.947 79.64 160.574 78.9867 157.587 77.68C154.6 76.3467 152.067 74.5333 149.987 72.24C147.907 69.92 146.307 67.1867 145.187 64.04C144.067 60.8933 143.507 57.4933 143.507 53.84C143.507 50.6667 143.867 47.64 144.587 44.76C145.307 41.8533 146.32 39.16 147.627 36.68C148.96 34.2 150.574 31.96 152.467 29.96C154.36 27.9333 156.467 26.2133 158.787 24.8C161.134 23.36 163.667 22.2533 166.387 21.48C169.134 20.7067 172.014 20.32 175.027 20.32C178.787 20.32 182.16 20.9867 185.147 22.32C188.134 23.6533 190.667 25.48 192.747 27.8C194.827 30.12 196.427 32.8533 197.547 36C198.667 39.1467 199.227 42.5333 199.227 46.16ZM187.347 46.44C187.347 43.9333 187.04 41.6533 186.427 39.6C185.814 37.52 184.907 35.76 183.707 34.32C182.534 32.8533 181.094 31.72 179.387 30.92C177.707 30.12 175.787 29.72 173.627 29.72C170.827 29.72 168.294 30.2933 166.027 31.44C163.787 32.5867 161.867 34.2 160.267 36.28C158.694 38.36 157.48 40.8667 156.627 43.8C155.774 46.7333 155.347 49.9867 155.347 53.56C155.347 56.0933 155.654 58.3867 156.267 60.44C156.88 62.4667 157.76 64.2133 158.907 65.68C160.08 67.1467 161.507 68.28 163.187 69.08C164.894 69.8533 166.827 70.24 168.987 70.24C171.787 70.24 174.32 69.68 176.587 68.56C178.854 67.4133 180.774 65.8 182.347 63.72C183.947 61.64 185.174 59.1467 186.027 56.24C186.907 53.3067 187.347 50.04 187.347 46.44ZM219.494 45.12H221.574C223.414 45.12 224.814 44.5067 225.774 43.28L241.174 23.36C241.867 22.4267 242.64 21.8 243.494 21.48C244.374 21.1333 245.4 20.96 246.574 20.96H256.574L237.054 45C236.44 45.7733 235.827 46.4133 235.214 46.92C234.6 47.4267 233.96 47.8533 233.294 48.2C234.147 48.52 234.88 48.9867 235.494 49.6C236.134 50.1867 236.68 50.96 237.134 51.92L250.774 79H240.494C239.16 79 238.2 78.8133 237.614 78.44C237.027 78.04 236.56 77.4933 236.214 76.8L225.614 55.72C225.267 54.9733 224.774 54.4533 224.134 54.16C223.52 53.8667 222.64 53.72 221.494 53.72H218.454L215.334 79H203.814L210.894 20.92H222.494L219.494 45.12ZM287.123 57.04L283.683 38.68C283.496 37.72 283.283 36.5867 283.043 35.28C282.803 33.9733 282.576 32.56 282.363 31.04C281.776 32.56 281.203 33.9733 280.643 35.28C280.083 36.5867 279.59 37.7333 279.163 38.72L271.283 57.04H287.123ZM303.203 79H294.243C293.23 79 292.443 78.76 291.883 78.28C291.323 77.8 290.936 77.1733 290.723 76.4L288.603 65.08H267.843L262.963 76.4C262.616 77.0933 262.083 77.7067 261.363 78.24C260.643 78.7467 259.816 79 258.883 79H249.763L277.683 20.96H289.523L303.203 79ZM361.821 20.96L354.661 79H342.981L346.061 53.88H323.221L320.141 79H308.501L315.661 20.96H327.301L324.221 45.8H347.061L350.141 20.96H361.821Z" fill="#073B4C"/>
<path d="M37.6195 135.975L34.4245 127.62C34.1945 127.05 33.9645 126.33 33.7345 125.46C33.6245 125.89 33.5095 126.29 33.3895 126.66C33.2795 127.03 33.1695 127.36 33.0595 127.65L29.8795 135.975H37.6195ZM43.9345 144H41.4745C41.1945 144 40.9645 143.93 40.7845 143.79C40.6045 143.65 40.4745 143.47 40.3945 143.25L38.4895 138.255H28.9945L27.0895 143.25C27.0195 143.44 26.8895 143.615 26.6995 143.775C26.5095 143.925 26.2795 144 26.0095 144H23.5495L32.1295 122.46H35.3545L43.9345 144ZM75.5257 141.435C76.3857 141.435 77.1557 141.29 77.8357 141C78.5157 140.71 79.0907 140.305 79.5607 139.785C80.0307 139.255 80.3907 138.63 80.6407 137.91C80.8907 137.18 81.0157 136.375 81.0157 135.495V122.46H84.1957V135.495C84.1957 136.755 83.9957 137.92 83.5957 138.99C83.1957 140.06 82.6207 140.985 81.8707 141.765C81.1207 142.545 80.2107 143.155 79.1407 143.595C78.0707 144.035 76.8657 144.255 75.5257 144.255C74.1857 144.255 72.9807 144.035 71.9107 143.595C70.8407 143.155 69.9307 142.545 69.1807 141.765C68.4307 140.985 67.8557 140.06 67.4557 138.99C67.0557 137.92 66.8557 136.755 66.8557 135.495V122.46H70.0507V135.48C70.0507 136.36 70.1707 137.165 70.4107 137.895C70.6607 138.625 71.0207 139.255 71.4907 139.785C71.9607 140.305 72.5357 140.71 73.2157 141C73.8957 141.29 74.6657 141.435 75.5257 141.435ZM121.39 125.97C121.29 126.14 121.185 126.265 121.075 126.345C120.965 126.425 120.825 126.465 120.655 126.465C120.475 126.465 120.27 126.385 120.04 126.225C119.81 126.055 119.52 125.87 119.17 125.67C118.83 125.46 118.42 125.275 117.94 125.115C117.46 124.945 116.885 124.86 116.215 124.86C115.585 124.86 115.03 124.945 114.55 125.115C114.08 125.275 113.685 125.5 113.365 125.79C113.045 126.07 112.8 126.405 112.63 126.795C112.47 127.175 112.39 127.59 112.39 128.04C112.39 128.62 112.535 129.1 112.825 129.48C113.125 129.86 113.515 130.185 113.995 130.455C114.475 130.725 115.02 130.96 115.63 131.16C116.24 131.36 116.865 131.57 117.505 131.79C118.145 132 118.77 132.245 119.38 132.525C119.99 132.805 120.535 133.16 121.015 133.59C121.495 134.01 121.88 134.53 122.17 135.15C122.47 135.76 122.62 136.51 122.62 137.4C122.62 138.35 122.455 139.24 122.125 140.07C121.805 140.9 121.335 141.625 120.715 142.245C120.095 142.865 119.33 143.355 118.42 143.715C117.52 144.065 116.495 144.24 115.345 144.24C114.655 144.24 113.985 144.17 113.335 144.03C112.685 143.9 112.07 143.715 111.49 143.475C110.91 143.225 110.365 142.93 109.855 142.59C109.355 142.24 108.905 141.85 108.505 141.42L109.42 139.89C109.51 139.77 109.615 139.67 109.735 139.59C109.865 139.51 110.01 139.47 110.17 139.47C110.38 139.47 110.62 139.58 110.89 139.8C111.17 140.02 111.51 140.265 111.91 140.535C112.32 140.795 112.805 141.035 113.365 141.255C113.935 141.475 114.625 141.585 115.435 141.585C116.095 141.585 116.685 141.5 117.205 141.33C117.725 141.15 118.16 140.9 118.51 140.58C118.87 140.25 119.145 139.855 119.335 139.395C119.525 138.935 119.62 138.425 119.62 137.865C119.62 137.235 119.475 136.72 119.185 136.32C118.895 135.92 118.51 135.585 118.03 135.315C117.55 135.045 117.005 134.815 116.395 134.625C115.785 134.435 115.16 134.24 114.52 134.04C113.88 133.83 113.255 133.59 112.645 133.32C112.035 133.05 111.49 132.7 111.01 132.27C110.53 131.83 110.145 131.285 109.855 130.635C109.565 129.975 109.42 129.165 109.42 128.205C109.42 127.435 109.57 126.69 109.87 125.97C110.17 125.25 110.605 124.615 111.175 124.065C111.755 123.505 112.465 123.06 113.305 122.73C114.145 122.39 115.105 122.22 116.185 122.22C117.395 122.22 118.505 122.415 119.515 122.805C120.535 123.185 121.42 123.735 122.17 124.455L121.39 125.97ZM162.248 125.13H155.408V144H152.228V125.13H145.358V122.46H162.248V125.13ZM192.451 132.84C193.271 132.84 193.991 132.74 194.611 132.54C195.241 132.34 195.766 132.06 196.186 131.7C196.606 131.33 196.921 130.895 197.131 130.395C197.341 129.885 197.446 129.325 197.446 128.715C197.446 127.475 197.036 126.54 196.216 125.91C195.406 125.28 194.186 124.965 192.556 124.965H189.541V132.84H192.451ZM202.501 144H199.651C199.081 144 198.666 143.775 198.406 143.325L193.081 135.855C192.911 135.605 192.726 135.43 192.526 135.33C192.326 135.22 192.026 135.165 191.626 135.165H189.541V144H186.346V122.46H192.556C193.946 122.46 195.141 122.605 196.141 122.895C197.151 123.175 197.981 123.58 198.631 124.11C199.291 124.63 199.776 125.26 200.086 126C200.406 126.74 200.566 127.57 200.566 128.49C200.566 129.24 200.451 129.945 200.221 130.605C199.991 131.265 199.651 131.86 199.201 132.39C198.761 132.91 198.221 133.36 197.581 133.74C196.941 134.12 196.216 134.41 195.406 134.61C195.806 134.85 196.151 135.185 196.441 135.615L202.501 144ZM237.717 135.975L234.522 127.62C234.292 127.05 234.062 126.33 233.832 125.46C233.722 125.89 233.607 126.29 233.487 126.66C233.377 127.03 233.267 127.36 233.157 127.65L229.977 135.975H237.717ZM244.032 144H241.572C241.292 144 241.062 143.93 240.882 143.79C240.702 143.65 240.572 143.47 240.492 143.25L238.587 138.255H229.092L227.187 143.25C227.117 143.44 226.987 143.615 226.797 143.775C226.607 143.925 226.377 144 226.107 144H223.647L232.227 122.46H235.452L244.032 144ZM280.051 141.315V144H267.721V122.46H270.916V141.315H280.051ZM307.371 144H304.161V122.46H307.371V144ZM345.131 135.975L341.936 127.62C341.706 127.05 341.476 126.33 341.246 125.46C341.136 125.89 341.021 126.29 340.901 126.66C340.791 127.03 340.681 127.36 340.571 127.65L337.391 135.975H345.131ZM351.446 144H348.986C348.706 144 348.476 143.93 348.296 143.79C348.116 143.65 347.986 143.47 347.906 143.25L346.001 138.255H336.506L334.601 143.25C334.531 143.44 334.401 143.615 334.211 143.775C334.021 143.925 333.791 144 333.521 144H331.061L339.641 122.46H342.866L351.446 144Z" fill="#073B4C"/>
<rect y="96" width="375" height="6.27741" fill="#073B4C"/>
</svg>
