<svg width="2111" height="813" viewBox="0 0 2111 813" fill="none" xmlns="http://www.w3.org/2000/svg">
<path d="M563.012 727.612C562.627 728.242 562.224 728.714 561.804 729.029C561.384 729.309 560.859 729.449 560.229 729.449C559.564 729.449 558.812 729.169 557.972 728.609C557.167 728.049 556.152 727.437 554.927 726.772C553.737 726.072 552.319 725.442 550.674 724.882C549.029 724.287 547.069 723.989 544.794 723.989C542.694 723.989 540.839 724.252 539.229 724.777C537.654 725.302 536.324 726.037 535.239 726.982C534.154 727.927 533.332 729.047 532.772 730.342C532.247 731.602 531.984 732.984 531.984 734.489C531.984 736.414 532.492 738.024 533.507 739.319C534.522 740.579 535.852 741.664 537.497 742.574C539.177 743.484 541.084 744.289 543.219 744.989C545.354 745.654 547.524 746.372 549.729 747.142C551.969 747.912 554.157 748.787 556.292 749.767C558.427 750.747 560.317 751.989 561.962 753.494C563.642 754.999 564.989 756.837 566.004 759.007C567.019 761.177 567.527 763.819 567.527 766.934C567.527 770.294 566.949 773.444 565.794 776.384C564.639 779.324 562.959 781.897 560.754 784.102C558.584 786.272 555.889 787.987 552.669 789.247C549.484 790.507 545.844 791.137 541.749 791.137C539.334 791.137 536.972 790.892 534.662 790.402C532.387 789.947 530.199 789.299 528.099 788.459C526.034 787.584 524.092 786.534 522.272 785.309C520.452 784.084 518.824 782.719 517.389 781.214L520.959 775.334C521.274 774.844 521.677 774.459 522.167 774.179C522.657 773.899 523.199 773.759 523.794 773.759C524.599 773.759 525.492 774.144 526.472 774.914C527.452 775.649 528.624 776.472 529.989 777.382C531.389 778.257 533.069 779.079 535.029 779.849C536.989 780.584 539.334 780.952 542.064 780.952C546.509 780.952 549.939 779.867 552.354 777.697C554.804 775.527 556.029 772.534 556.029 768.719C556.029 766.584 555.522 764.852 554.507 763.522C553.492 762.157 552.144 761.019 550.464 760.109C548.819 759.199 546.929 758.429 544.794 757.799C542.659 757.169 540.489 756.504 538.284 755.804C536.079 755.069 533.909 754.229 531.774 753.284C529.639 752.304 527.732 751.044 526.052 749.504C524.407 747.929 523.077 746.004 522.062 743.729C521.047 741.419 520.539 738.549 520.539 735.119C520.539 732.389 521.064 729.747 522.114 727.192C523.199 724.637 524.757 722.379 526.787 720.419C528.852 718.424 531.389 716.832 534.399 715.642C537.409 714.452 540.839 713.857 544.689 713.857C549.029 713.857 553.002 714.539 556.607 715.904C560.247 717.269 563.379 719.212 566.004 721.732L563.012 727.612ZM597.966 735.487C598.491 731.917 599.471 728.784 600.906 726.089C602.376 723.394 604.214 721.154 606.419 719.369C608.624 717.549 611.144 716.184 613.979 715.274C616.849 714.329 619.946 713.857 623.271 713.857C626.631 713.857 629.676 714.347 632.406 715.327C635.171 716.272 637.534 717.602 639.494 719.317C641.489 721.032 643.011 723.079 644.061 725.459C645.146 727.839 645.689 730.447 645.689 733.282C645.689 735.697 645.391 737.832 644.796 739.687C644.236 741.507 643.414 743.117 642.329 744.517C641.279 745.917 639.984 747.089 638.444 748.034C636.904 748.979 635.171 749.767 633.246 750.397C637.936 751.762 641.454 753.949 643.799 756.959C646.144 759.934 647.316 763.679 647.316 768.194C647.316 771.834 646.634 775.072 645.269 777.907C643.904 780.742 642.049 783.139 639.704 785.099C637.394 787.059 634.681 788.564 631.566 789.614C628.486 790.629 625.214 791.137 621.749 791.137C617.864 791.137 614.504 790.682 611.669 789.772C608.834 788.827 606.384 787.497 604.319 785.782C602.289 784.032 600.591 781.932 599.226 779.482C597.861 777.032 596.706 774.284 595.761 771.239L600.644 769.192C601.939 768.632 603.164 768.474 604.319 768.719C605.509 768.964 606.366 769.612 606.891 770.662C607.451 771.782 608.081 772.989 608.781 774.284C609.481 775.544 610.374 776.717 611.459 777.802C612.579 778.852 613.944 779.744 615.554 780.479C617.199 781.179 619.211 781.529 621.591 781.529C624.006 781.529 626.106 781.144 627.891 780.374C629.711 779.569 631.216 778.554 632.406 777.329C633.631 776.069 634.541 774.669 635.136 773.129C635.731 771.589 636.029 770.067 636.029 768.562C636.029 766.672 635.801 764.939 635.346 763.364C634.891 761.754 633.999 760.389 632.669 759.269C631.374 758.149 629.519 757.274 627.104 756.644C624.724 755.979 621.591 755.647 617.706 755.647V747.509C620.891 747.474 623.569 747.159 625.739 746.564C627.944 745.934 629.694 745.094 630.989 744.044C632.319 742.959 633.264 741.664 633.824 740.159C634.419 738.654 634.716 737.009 634.716 735.224C634.716 733.299 634.419 731.602 633.824 730.132C633.229 728.662 632.389 727.437 631.304 726.457C630.254 725.442 628.994 724.689 627.524 724.199C626.054 723.709 624.426 723.464 622.641 723.464C620.926 723.464 619.334 723.709 617.864 724.199C616.429 724.689 615.134 725.372 613.979 726.247C612.859 727.122 611.914 728.172 611.144 729.397C610.374 730.587 609.814 731.899 609.464 733.334C608.974 734.769 608.309 735.732 607.469 736.222C606.664 736.712 605.474 736.817 603.899 736.537L597.966 735.487ZM678.824 735.487C679.349 731.917 680.329 728.784 681.764 726.089C683.234 723.394 685.072 721.154 687.277 719.369C689.482 717.549 692.002 716.184 694.837 715.274C697.707 714.329 700.804 713.857 704.129 713.857C707.489 713.857 710.534 714.347 713.264 715.327C716.029 716.272 718.392 717.602 720.352 719.317C722.347 721.032 723.869 723.079 724.919 725.459C726.004 727.839 726.547 730.447 726.547 733.282C726.547 735.697 726.249 737.832 725.654 739.687C725.094 741.507 724.272 743.117 723.187 744.517C722.137 745.917 720.842 747.089 719.302 748.034C717.762 748.979 716.029 749.767 714.104 750.397C718.794 751.762 722.312 753.949 724.657 756.959C727.002 759.934 728.174 763.679 728.174 768.194C728.174 771.834 727.492 775.072 726.127 777.907C724.762 780.742 722.907 783.139 720.562 785.099C718.252 787.059 715.539 788.564 712.424 789.614C709.344 790.629 706.072 791.137 702.607 791.137C698.722 791.137 695.362 790.682 692.527 789.772C689.692 788.827 687.242 787.497 685.177 785.782C683.147 784.032 681.449 781.932 680.084 779.482C678.719 777.032 677.564 774.284 676.619 771.239L681.502 769.192C682.797 768.632 684.022 768.474 685.177 768.719C686.367 768.964 687.224 769.612 687.749 770.662C688.309 771.782 688.939 772.989 689.639 774.284C690.339 775.544 691.232 776.717 692.317 777.802C693.437 778.852 694.802 779.744 696.412 780.479C698.057 781.179 700.069 781.529 702.449 781.529C704.864 781.529 706.964 781.144 708.749 780.374C710.569 779.569 712.074 778.554 713.264 777.329C714.489 776.069 715.399 774.669 715.994 773.129C716.589 771.589 716.887 770.067 716.887 768.562C716.887 766.672 716.659 764.939 716.204 763.364C715.749 761.754 714.857 760.389 713.527 759.269C712.232 758.149 710.377 757.274 707.962 756.644C705.582 755.979 702.449 755.647 698.564 755.647V747.509C701.749 747.474 704.427 747.159 706.597 746.564C708.802 745.934 710.552 745.094 711.847 744.044C713.177 742.959 714.122 741.664 714.682 740.159C715.277 738.654 715.574 737.009 715.574 735.224C715.574 733.299 715.277 731.602 714.682 730.132C714.087 728.662 713.247 727.437 712.162 726.457C711.112 725.442 709.852 724.689 708.382 724.199C706.912 723.709 705.284 723.464 703.499 723.464C701.784 723.464 700.192 723.709 698.722 724.199C697.287 724.689 695.992 725.372 694.837 726.247C693.717 727.122 692.772 728.172 692.002 729.397C691.232 730.587 690.672 731.899 690.322 733.334C689.832 734.769 689.167 735.732 688.327 736.222C687.522 736.712 686.332 736.817 684.757 736.537L678.824 735.487ZM758.633 783.787C758.633 782.772 758.808 781.827 759.158 780.952C759.543 780.042 760.05 779.254 760.68 778.589C761.345 777.924 762.115 777.399 762.99 777.014C763.9 776.629 764.863 776.437 765.878 776.437C766.893 776.437 767.838 776.629 768.713 777.014C769.623 777.399 770.41 777.924 771.075 778.589C771.74 779.254 772.265 780.042 772.65 780.952C773.035 781.827 773.228 782.772 773.228 783.787C773.228 784.837 773.035 785.799 772.65 786.674C772.265 787.549 771.74 788.319 771.075 788.984C770.41 789.649 769.623 790.157 768.713 790.507C767.838 790.892 766.893 791.084 765.878 791.084C764.863 791.084 763.9 790.892 762.99 790.507C762.115 790.157 761.345 789.649 760.68 788.984C760.05 788.319 759.543 787.549 759.158 786.674C758.808 785.799 758.633 784.837 758.633 783.787ZM804.447 735.487C804.972 731.917 805.952 728.784 807.387 726.089C808.857 723.394 810.695 721.154 812.9 719.369C815.105 717.549 817.625 716.184 820.46 715.274C823.33 714.329 826.427 713.857 829.752 713.857C833.112 713.857 836.157 714.347 838.887 715.327C841.652 716.272 844.015 717.602 845.975 719.317C847.97 721.032 849.492 723.079 850.542 725.459C851.627 727.839 852.17 730.447 852.17 733.282C852.17 735.697 851.872 737.832 851.277 739.687C850.717 741.507 849.895 743.117 848.81 744.517C847.76 745.917 846.465 747.089 844.925 748.034C843.385 748.979 841.652 749.767 839.727 750.397C844.417 751.762 847.935 753.949 850.28 756.959C852.625 759.934 853.797 763.679 853.797 768.194C853.797 771.834 853.115 775.072 851.75 777.907C850.385 780.742 848.53 783.139 846.185 785.099C843.875 787.059 841.162 788.564 838.047 789.614C834.967 790.629 831.695 791.137 828.23 791.137C824.345 791.137 820.985 790.682 818.15 789.772C815.315 788.827 812.865 787.497 810.8 785.782C808.77 784.032 807.072 781.932 805.707 779.482C804.342 777.032 803.187 774.284 802.242 771.239L807.125 769.192C808.42 768.632 809.645 768.474 810.8 768.719C811.99 768.964 812.847 769.612 813.372 770.662C813.932 771.782 814.562 772.989 815.262 774.284C815.962 775.544 816.855 776.717 817.94 777.802C819.06 778.852 820.425 779.744 822.035 780.479C823.68 781.179 825.692 781.529 828.072 781.529C830.487 781.529 832.587 781.144 834.372 780.374C836.192 779.569 837.697 778.554 838.887 777.329C840.112 776.069 841.022 774.669 841.617 773.129C842.212 771.589 842.51 770.067 842.51 768.562C842.51 766.672 842.282 764.939 841.827 763.364C841.372 761.754 840.48 760.389 839.15 759.269C837.855 758.149 836 757.274 833.585 756.644C831.205 755.979 828.072 755.647 824.187 755.647V747.509C827.372 747.474 830.05 747.159 832.22 746.564C834.425 745.934 836.175 745.094 837.47 744.044C838.8 742.959 839.745 741.664 840.305 740.159C840.9 738.654 841.197 737.009 841.197 735.224C841.197 733.299 840.9 731.602 840.305 730.132C839.71 728.662 838.87 727.437 837.785 726.457C836.735 725.442 835.475 724.689 834.005 724.199C832.535 723.709 830.907 723.464 829.122 723.464C827.407 723.464 825.815 723.709 824.345 724.199C822.91 724.689 821.615 725.372 820.46 726.247C819.34 727.122 818.395 728.172 817.625 729.397C816.855 730.587 816.295 731.899 815.945 733.334C815.455 734.769 814.79 735.732 813.95 736.222C813.145 736.712 811.955 736.817 810.38 736.537L804.447 735.487ZM930.77 779.639C931.995 779.639 932.958 780.007 933.658 780.742C934.358 781.442 934.708 782.352 934.708 783.472V790.297H883.573V786.464C883.573 785.694 883.73 784.889 884.045 784.049C884.36 783.209 884.868 782.439 885.568 781.739L909.088 758.167C911.083 756.172 912.85 754.264 914.39 752.444C915.965 750.624 917.295 748.804 918.38 746.984C919.5 745.164 920.34 743.327 920.9 741.472C921.495 739.582 921.793 737.604 921.793 735.539C921.793 733.544 921.478 731.794 920.848 730.289C920.253 728.749 919.413 727.489 918.328 726.509C917.278 725.494 916 724.742 914.495 724.252C913.025 723.727 911.398 723.464 909.613 723.464C907.898 723.464 906.305 723.709 904.835 724.199C903.4 724.689 902.105 725.372 900.95 726.247C899.83 727.122 898.885 728.172 898.115 729.397C897.38 730.587 896.838 731.899 896.488 733.334C895.963 734.769 895.28 735.732 894.44 736.222C893.635 736.712 892.445 736.817 890.87 736.537L884.938 735.487C885.463 731.917 886.443 728.784 887.878 726.089C889.348 723.394 891.185 721.154 893.39 719.369C895.595 717.549 898.115 716.184 900.95 715.274C903.82 714.329 906.918 713.857 910.243 713.857C913.603 713.857 916.683 714.364 919.483 715.379C922.318 716.359 924.75 717.777 926.78 719.632C928.845 721.452 930.455 723.674 931.61 726.299C932.765 728.924 933.343 731.882 933.343 735.172C933.343 737.972 932.923 740.562 932.083 742.942C931.278 745.322 930.175 747.597 928.775 749.767C927.375 751.937 925.73 754.054 923.84 756.119C921.985 758.149 920.025 760.214 917.96 762.314L899.69 781.004C901.195 780.584 902.7 780.252 904.205 780.007C905.745 779.762 907.198 779.639 908.563 779.639H930.77ZM964.063 731.234C964.063 728.819 964.518 726.544 965.428 724.409C966.338 722.274 967.581 720.419 969.156 718.844C970.731 717.269 972.586 716.027 974.721 715.117C976.891 714.207 979.218 713.752 981.703 713.752C984.188 713.752 986.516 714.207 988.686 715.117C990.856 716.027 992.728 717.269 994.303 718.844C995.913 720.419 997.173 722.274 998.083 724.409C998.993 726.544 999.448 728.819 999.448 731.234C999.448 733.614 998.993 735.854 998.083 737.954C997.173 740.054 995.913 741.892 994.303 743.467C992.728 745.042 990.856 746.302 988.686 747.247C986.516 748.157 984.188 748.612 981.703 748.612C979.218 748.612 976.891 748.157 974.721 747.247C972.586 746.302 970.731 745.042 969.156 743.467C967.581 741.892 966.338 740.054 965.428 737.954C964.518 735.854 964.063 733.614 964.063 731.234ZM971.991 731.287C971.991 732.652 972.236 733.929 972.726 735.119C973.216 736.309 973.881 737.342 974.721 738.217C975.596 739.092 976.628 739.792 977.818 740.317C979.008 740.807 980.303 741.052 981.703 741.052C983.103 741.052 984.398 740.807 985.588 740.317C986.778 739.792 987.811 739.092 988.686 738.217C989.561 737.342 990.243 736.309 990.733 735.119C991.223 733.929 991.468 732.652 991.468 731.287C991.468 729.887 991.223 728.592 990.733 727.402C990.243 726.177 989.561 725.127 988.686 724.252C987.811 723.342 986.778 722.642 985.588 722.152C984.398 721.627 983.103 721.364 981.703 721.364C980.303 721.364 979.008 721.627 977.818 722.152C976.628 722.642 975.596 723.342 974.721 724.252C973.881 725.127 973.216 726.177 972.726 727.402C972.236 728.592 971.991 729.887 971.991 731.287ZM1079.67 780.374L1079.62 790.297H1032.48V714.697H1079.62V724.619H1044.81V747.404H1072.64V757.012H1044.81V780.374H1079.67ZM1157.86 781.739V790.297H1116.65V781.739H1132.4V734.384C1132.4 732.704 1132.45 730.989 1132.56 729.239L1120.43 739.477C1119.91 739.897 1119.36 740.177 1118.8 740.317C1118.28 740.422 1117.77 740.422 1117.28 740.317C1116.83 740.212 1116.41 740.054 1116.02 739.844C1115.67 739.599 1115.39 739.337 1115.18 739.057L1111.66 734.122L1134.45 714.539H1143.64V781.739H1157.86ZM1205.02 742.627C1206.84 742.242 1208.57 741.962 1210.21 741.787C1211.89 741.612 1213.5 741.524 1215.04 741.524C1219 741.524 1222.48 742.119 1225.49 743.309C1228.54 744.464 1231.07 746.074 1233.1 748.139C1235.17 750.204 1236.71 752.637 1237.72 755.437C1238.77 758.202 1239.3 761.212 1239.3 764.467C1239.3 768.492 1238.6 772.149 1237.2 775.439C1235.8 778.729 1233.86 781.547 1231.37 783.892C1228.89 786.202 1225.95 787.987 1222.55 789.247C1219.19 790.507 1215.55 791.137 1211.63 791.137C1209.32 791.137 1207.12 790.909 1205.02 790.454C1202.95 789.999 1201.01 789.387 1199.19 788.617C1197.37 787.812 1195.69 786.902 1194.15 785.887C1192.61 784.837 1191.23 783.752 1190 782.632L1193.47 777.802C1194.2 776.752 1195.18 776.227 1196.41 776.227C1197.18 776.227 1198.02 776.507 1198.93 777.067C1199.84 777.627 1200.89 778.239 1202.08 778.904C1203.3 779.534 1204.74 780.129 1206.38 780.689C1208.03 781.249 1209.99 781.529 1212.26 781.529C1214.75 781.529 1216.97 781.127 1218.93 780.322C1220.89 779.517 1222.53 778.397 1223.86 776.962C1225.23 775.492 1226.26 773.742 1226.96 771.712C1227.66 769.682 1228.01 767.459 1228.01 765.044C1228.01 762.839 1227.68 760.862 1227.01 759.112C1226.38 757.362 1225.42 755.874 1224.13 754.649C1222.87 753.424 1221.27 752.497 1219.35 751.867C1217.42 751.202 1215.2 750.869 1212.68 750.869C1210.83 750.869 1208.92 751.027 1206.96 751.342C1205.03 751.657 1203.07 752.147 1201.08 752.812L1194.04 750.817L1200.24 714.697H1236.83V719.579C1236.83 721.189 1236.32 722.502 1235.31 723.517C1234.29 724.532 1232.6 725.039 1230.22 725.039H1208.06L1205.02 742.627ZM1319.58 781.739V790.297H1278.37V781.739H1294.12V734.384C1294.12 732.704 1294.17 730.989 1294.27 729.239L1282.15 739.477C1281.62 739.897 1281.08 740.177 1280.52 740.317C1279.99 740.422 1279.49 740.422 1279 740.317C1278.54 740.212 1278.12 740.054 1277.74 739.844C1277.39 739.599 1277.11 739.337 1276.9 739.057L1273.38 734.122L1296.16 714.539H1305.35V781.739H1319.58ZM1351.67 783.787C1351.67 782.772 1351.84 781.827 1352.19 780.952C1352.58 780.042 1353.08 779.254 1353.71 778.589C1354.38 777.924 1355.15 777.399 1356.02 777.014C1356.93 776.629 1357.9 776.437 1358.91 776.437C1359.93 776.437 1360.87 776.629 1361.75 777.014C1362.66 777.399 1363.44 777.924 1364.11 778.589C1364.77 779.254 1365.3 780.042 1365.68 780.952C1366.07 781.827 1366.26 782.772 1366.26 783.787C1366.26 784.837 1366.07 785.799 1365.68 786.674C1365.3 787.549 1364.77 788.319 1364.11 788.984C1363.44 789.649 1362.66 790.157 1361.75 790.507C1360.87 790.892 1359.93 791.084 1358.91 791.084C1357.9 791.084 1356.93 790.892 1356.02 790.507C1355.15 790.157 1354.38 789.649 1353.71 788.984C1353.08 788.319 1352.58 787.549 1352.19 786.674C1351.84 785.799 1351.67 784.837 1351.67 783.787ZM1445.2 781.739V790.297H1403.99V781.739H1419.74V734.384C1419.74 732.704 1419.79 730.989 1419.9 729.239L1407.77 739.477C1407.24 739.897 1406.7 740.177 1406.14 740.317C1405.62 740.422 1405.11 740.422 1404.62 740.317C1404.16 740.212 1403.74 740.054 1403.36 739.844C1403.01 739.599 1402.73 739.337 1402.52 739.057L1399 734.122L1421.79 714.539H1430.97V781.739H1445.2ZM1502.59 782.212C1504.87 782.212 1506.9 781.897 1508.68 781.267C1510.47 780.602 1511.96 779.692 1513.15 778.537C1514.37 777.347 1515.3 775.947 1515.93 774.337C1516.56 772.727 1516.87 770.977 1516.87 769.087C1516.87 766.777 1516.51 764.782 1515.77 763.102C1515.07 761.422 1514.07 760.039 1512.78 758.954C1511.52 757.834 1510.01 757.012 1508.26 756.487C1506.51 755.927 1504.62 755.647 1502.59 755.647C1500.56 755.647 1498.67 755.927 1496.92 756.487C1495.17 757.012 1493.65 757.834 1492.36 758.954C1491.1 760.039 1490.1 761.422 1489.36 763.102C1488.66 764.782 1488.31 766.777 1488.31 769.087C1488.31 770.977 1488.63 772.727 1489.26 774.337C1489.89 775.947 1490.8 777.347 1491.99 778.537C1493.21 779.692 1494.72 780.602 1496.5 781.267C1498.29 781.897 1500.32 782.212 1502.59 782.212ZM1502.59 722.519C1500.53 722.519 1498.71 722.834 1497.13 723.464C1495.59 724.094 1494.32 724.934 1493.3 725.984C1492.29 727.034 1491.52 728.277 1490.99 729.712C1490.5 731.112 1490.26 732.599 1490.26 734.174C1490.26 735.749 1490.47 737.289 1490.89 738.794C1491.34 740.299 1492.04 741.647 1492.99 742.837C1493.97 743.992 1495.24 744.919 1496.82 745.619C1498.39 746.319 1500.32 746.669 1502.59 746.669C1504.87 746.669 1506.79 746.319 1508.37 745.619C1509.94 744.919 1511.2 743.992 1512.15 742.837C1513.13 741.647 1513.83 740.299 1514.25 738.794C1514.7 737.289 1514.93 735.749 1514.93 734.174C1514.93 732.599 1514.67 731.112 1514.14 729.712C1513.65 728.277 1512.88 727.034 1511.83 725.984C1510.82 724.934 1509.54 724.094 1508 723.464C1506.46 722.834 1504.66 722.519 1502.59 722.519ZM1514.51 750.869C1519.17 752.304 1522.65 754.579 1524.96 757.694C1527.3 760.809 1528.48 764.677 1528.48 769.297C1528.48 772.622 1527.85 775.632 1526.59 778.327C1525.33 781.022 1523.56 783.314 1521.28 785.204C1519.01 787.094 1516.28 788.564 1513.09 789.614C1509.94 790.629 1506.44 791.137 1502.59 791.137C1498.74 791.137 1495.23 790.629 1492.04 789.614C1488.89 788.564 1486.18 787.094 1483.9 785.204C1481.63 783.314 1479.86 781.022 1478.6 778.327C1477.34 775.632 1476.71 772.622 1476.71 769.297C1476.71 764.677 1477.87 760.809 1480.18 757.694C1482.52 754.579 1486.02 752.304 1490.68 750.869C1486.9 749.364 1484.04 747.177 1482.12 744.307C1480.23 741.437 1479.28 737.989 1479.28 733.964C1479.28 731.129 1479.84 728.487 1480.96 726.037C1482.08 723.587 1483.66 721.469 1485.69 719.684C1487.75 717.864 1490.22 716.447 1493.09 715.432C1495.96 714.382 1499.13 713.857 1502.59 713.857C1506.06 713.857 1509.21 714.382 1512.04 715.432C1514.91 716.447 1517.36 717.864 1519.39 719.684C1521.46 721.469 1523.05 723.587 1524.17 726.037C1525.33 728.487 1525.9 731.129 1525.9 733.964C1525.9 737.989 1524.94 741.437 1523.02 744.307C1521.13 747.177 1518.29 749.364 1514.51 750.869ZM1557.1 731.234C1557.1 728.819 1557.55 726.544 1558.46 724.409C1559.37 722.274 1560.61 720.419 1562.19 718.844C1563.76 717.269 1565.62 716.027 1567.75 715.117C1569.92 714.207 1572.25 713.752 1574.74 713.752C1577.22 713.752 1579.55 714.207 1581.72 715.117C1583.89 716.027 1585.76 717.269 1587.34 718.844C1588.95 720.419 1590.21 722.274 1591.12 724.409C1592.03 726.544 1592.48 728.819 1592.48 731.234C1592.48 733.614 1592.03 735.854 1591.12 737.954C1590.21 740.054 1588.95 741.892 1587.34 743.467C1585.76 745.042 1583.89 746.302 1581.72 747.247C1579.55 748.157 1577.22 748.612 1574.74 748.612C1572.25 748.612 1569.92 748.157 1567.75 747.247C1565.62 746.302 1563.76 745.042 1562.19 743.467C1560.61 741.892 1559.37 740.054 1558.46 737.954C1557.55 735.854 1557.1 733.614 1557.1 731.234ZM1565.02 731.287C1565.02 732.652 1565.27 733.929 1565.76 735.119C1566.25 736.309 1566.91 737.342 1567.75 738.217C1568.63 739.092 1569.66 739.792 1570.85 740.317C1572.04 740.807 1573.34 741.052 1574.74 741.052C1576.14 741.052 1577.43 740.807 1578.62 740.317C1579.81 739.792 1580.84 739.092 1581.72 738.217C1582.59 737.342 1583.28 736.309 1583.77 735.119C1584.26 733.929 1584.5 732.652 1584.5 731.287C1584.5 729.887 1584.26 728.592 1583.77 727.402C1583.28 726.177 1582.59 725.127 1581.72 724.252C1580.84 723.342 1579.81 722.642 1578.62 722.152C1577.43 721.627 1576.14 721.364 1574.74 721.364C1573.34 721.364 1572.04 721.627 1570.85 722.152C1569.66 722.642 1568.63 723.342 1567.75 724.252C1566.91 725.127 1566.25 726.177 1565.76 727.402C1565.27 728.592 1565.02 729.887 1565.02 731.287Z" fill="white"/>
<path d="M152.68 596.153V624.148H137.885V544.618H163.79C169.107 544.618 173.709 545.242 177.595 546.488C181.482 547.735 184.69 549.477 187.22 551.713C189.75 553.95 191.62 556.627 192.83 559.743C194.04 562.86 194.645 566.27 194.645 569.973C194.645 573.823 194.004 577.362 192.72 580.588C191.437 583.778 189.512 586.528 186.945 588.838C184.379 591.148 181.17 592.945 177.32 594.228C173.47 595.512 168.96 596.153 163.79 596.153H152.68ZM152.68 584.603H163.79C166.504 584.603 168.869 584.273 170.885 583.613C172.902 582.917 174.57 581.945 175.89 580.698C177.21 579.415 178.2 577.875 178.86 576.078C179.52 574.245 179.85 572.21 179.85 569.973C179.85 567.847 179.52 565.922 178.86 564.198C178.2 562.475 177.21 561.008 175.89 559.798C174.57 558.588 172.902 557.672 170.885 557.048C168.869 556.388 166.504 556.058 163.79 556.058H152.68V584.603ZM316.8 544.618V556.388H281.545V578.443H309.32V589.828H281.545V612.323H316.8V624.148H266.64V544.618H316.8ZM459.995 624.148H448.555C447.271 624.148 446.208 623.837 445.365 623.213C444.558 622.553 443.971 621.747 443.605 620.793L437.665 604.568H404.72L398.78 620.793C398.486 621.637 397.9 622.407 397.02 623.103C396.176 623.8 395.131 624.148 393.885 624.148H382.39L413.63 544.618H428.755L459.995 624.148ZM408.515 594.118H433.87L424.19 567.663C423.75 566.49 423.255 565.115 422.705 563.538C422.191 561.925 421.678 560.183 421.165 558.313C420.651 560.183 420.138 561.925 419.625 563.538C419.148 565.152 418.671 566.563 418.195 567.773L408.515 594.118ZM543.975 593.073V624.148H529.18V544.618H553.435C558.862 544.618 563.5 545.187 567.35 546.323C571.237 547.423 574.409 548.982 576.865 550.998C579.359 553.015 581.174 555.435 582.31 558.258C583.484 561.045 584.07 564.125 584.07 567.498C584.07 570.175 583.667 572.705 582.86 575.088C582.09 577.472 580.954 579.635 579.45 581.578C577.984 583.522 576.15 585.227 573.95 586.693C571.787 588.16 569.312 589.333 566.525 590.213C568.395 591.277 570.009 592.798 571.365 594.778L591.275 624.148H577.965C576.682 624.148 575.582 623.892 574.665 623.378C573.785 622.865 573.034 622.132 572.41 621.178L555.69 595.713C555.067 594.76 554.37 594.082 553.6 593.678C552.867 593.275 551.767 593.073 550.3 593.073H543.975ZM543.975 582.458H553.215C556.002 582.458 558.422 582.11 560.475 581.413C562.565 580.717 564.27 579.763 565.59 578.553C566.947 577.307 567.955 575.84 568.615 574.153C569.275 572.467 569.605 570.615 569.605 568.598C569.605 564.565 568.267 561.467 565.59 559.303C562.95 557.14 558.899 556.058 553.435 556.058H543.975V582.458ZM676.06 611.938H707.905V624.148H661.265V544.618H676.06V611.938ZM860.361 624.148V544.618H887.806C893.013 544.618 897.449 545.113 901.116 546.103C904.819 547.093 907.844 548.505 910.191 550.338C912.574 552.172 914.316 554.39 915.416 556.993C916.516 559.597 917.066 562.53 917.066 565.793C917.066 567.663 916.791 569.46 916.241 571.183C915.691 572.87 914.829 574.465 913.656 575.968C912.519 577.435 911.053 578.773 909.256 579.983C907.496 581.193 905.388 582.22 902.931 583.063C913.858 585.52 919.321 591.423 919.321 600.773C919.321 604.147 918.679 607.263 917.396 610.123C916.113 612.983 914.243 615.458 911.786 617.548C909.329 619.602 906.304 621.215 902.711 622.388C899.118 623.562 895.011 624.148 890.391 624.148H860.361ZM875.156 589.278V612.598H890.171C892.921 612.598 895.213 612.268 897.046 611.608C898.916 610.948 900.401 610.068 901.501 608.968C902.638 607.868 903.444 606.585 903.921 605.118C904.434 603.652 904.691 602.093 904.691 600.443C904.691 598.72 904.416 597.18 903.866 595.823C903.316 594.43 902.454 593.257 901.281 592.303C900.108 591.313 898.604 590.562 896.771 590.048C894.938 589.535 892.719 589.278 890.116 589.278H875.156ZM875.156 579.048H886.981C892.004 579.048 895.818 578.132 898.421 576.298C901.024 574.465 902.326 571.55 902.326 567.553C902.326 563.41 901.153 560.458 898.806 558.698C896.459 556.938 892.793 556.058 887.806 556.058H875.156V579.048ZM1042.67 544.618V556.388H1007.42V578.443H1035.19V589.828H1007.42V612.323H1042.67V624.148H992.511V544.618H1042.67ZM1185.87 624.148H1174.43C1173.14 624.148 1172.08 623.837 1171.24 623.213C1170.43 622.553 1169.84 621.747 1169.48 620.793L1163.54 604.568H1130.59L1124.65 620.793C1124.36 621.637 1123.77 622.407 1122.89 623.103C1122.05 623.8 1121 624.148 1119.76 624.148H1108.26L1139.5 544.618H1154.63L1185.87 624.148ZM1134.39 594.118H1159.74L1150.06 567.663C1149.62 566.49 1149.13 565.115 1148.58 563.538C1148.06 561.925 1147.55 560.183 1147.04 558.313C1146.52 560.183 1146.01 561.925 1145.5 563.538C1145.02 565.152 1144.54 566.563 1144.07 567.773L1134.39 594.118ZM1306.43 605.393C1307.24 605.393 1307.94 605.705 1308.52 606.328L1314.35 612.653C1311.13 616.65 1307.15 619.712 1302.42 621.838C1297.73 623.965 1292.08 625.028 1285.48 625.028C1279.58 625.028 1274.26 624.02 1269.53 622.003C1264.84 619.987 1260.82 617.182 1257.48 613.588C1254.15 609.995 1251.58 605.705 1249.78 600.718C1248.02 595.732 1247.14 590.287 1247.14 584.383C1247.14 578.407 1248.13 572.943 1250.11 567.993C1252.09 563.007 1254.88 558.717 1258.47 555.123C1262.07 551.53 1266.36 548.743 1271.34 546.763C1276.37 544.747 1281.9 543.738 1287.95 543.738C1293.86 543.738 1299.01 544.692 1303.41 546.598C1307.85 548.468 1311.64 550.962 1314.79 554.078L1309.84 560.953C1309.55 561.393 1309.17 561.778 1308.69 562.108C1308.25 562.438 1307.63 562.603 1306.82 562.603C1305.98 562.603 1305.11 562.273 1304.23 561.613C1303.35 560.953 1302.24 560.238 1300.88 559.468C1299.52 558.698 1297.8 557.983 1295.71 557.323C1293.66 556.663 1291.03 556.333 1287.84 556.333C1284.1 556.333 1280.66 556.993 1277.5 558.313C1274.39 559.597 1271.69 561.448 1269.42 563.868C1267.18 566.288 1265.42 569.24 1264.14 572.723C1262.89 576.17 1262.27 580.057 1262.27 584.383C1262.27 588.857 1262.89 592.835 1264.14 596.318C1265.42 599.802 1267.15 602.735 1269.31 605.118C1271.47 607.502 1274.02 609.335 1276.95 610.618C1279.89 611.865 1283.04 612.488 1286.41 612.488C1288.43 612.488 1290.25 612.378 1291.86 612.158C1293.51 611.938 1295.01 611.59 1296.37 611.113C1297.76 610.637 1299.06 610.032 1300.27 609.298C1301.52 608.528 1302.75 607.593 1303.96 606.493C1304.33 606.163 1304.71 605.907 1305.11 605.723C1305.52 605.503 1305.96 605.393 1306.43 605.393ZM1453.16 624.148H1438.26V589.388H1400.97V624.148H1386.06V544.618H1400.97V578.828H1438.26V544.618H1453.16V624.148ZM1619.23 544.618C1619.89 544.618 1620.44 544.655 1620.88 544.728C1621.32 544.765 1621.71 544.875 1622.04 545.058C1622.4 545.205 1622.75 545.443 1623.08 545.773C1623.41 546.067 1623.78 546.47 1624.18 546.983L1665.93 600.168C1665.78 598.885 1665.67 597.638 1665.6 596.428C1665.56 595.182 1665.54 594.027 1665.54 592.963V544.618H1678.58V624.148H1670.93C1669.76 624.148 1668.79 623.965 1668.02 623.598C1667.25 623.232 1666.49 622.572 1665.76 621.618L1624.18 568.653C1624.29 569.827 1624.36 571 1624.4 572.173C1624.47 573.31 1624.51 574.355 1624.51 575.308V624.148H1611.48V544.618H1619.23ZM1797.75 559.083C1797.34 559.89 1796.87 560.458 1796.32 560.788C1795.8 561.118 1795.18 561.283 1794.45 561.283C1793.71 561.283 1792.89 561.008 1791.97 560.458C1791.05 559.872 1789.97 559.23 1788.73 558.533C1787.48 557.837 1786.01 557.213 1784.33 556.663C1782.68 556.077 1780.71 555.783 1778.44 555.783C1776.39 555.783 1774.59 556.04 1773.05 556.553C1771.55 557.03 1770.26 557.708 1769.2 558.588C1768.17 559.468 1767.4 560.532 1766.89 561.778C1766.38 562.988 1766.12 564.327 1766.12 565.793C1766.12 567.663 1766.63 569.222 1767.66 570.468C1768.72 571.715 1770.12 572.778 1771.84 573.658C1773.56 574.538 1775.53 575.327 1777.73 576.023C1779.93 576.72 1782.16 577.472 1784.44 578.278C1786.75 579.048 1789 579.965 1791.2 581.028C1793.4 582.055 1795.36 583.375 1797.09 584.988C1798.81 586.565 1800.18 588.508 1801.21 590.818C1802.27 593.128 1802.81 595.933 1802.81 599.233C1802.81 602.827 1802.18 606.2 1800.94 609.353C1799.73 612.47 1797.93 615.202 1795.55 617.548C1793.2 619.858 1790.32 621.692 1786.91 623.048C1783.5 624.368 1779.6 625.028 1775.2 625.028C1772.67 625.028 1770.17 624.772 1767.72 624.258C1765.26 623.782 1762.89 623.085 1760.62 622.168C1758.38 621.252 1756.28 620.152 1754.3 618.868C1752.35 617.585 1750.61 616.155 1749.07 614.578L1753.36 607.483C1753.76 606.97 1754.24 606.548 1754.79 606.218C1755.38 605.852 1756.02 605.668 1756.72 605.668C1757.63 605.668 1758.62 606.053 1759.69 606.823C1760.75 607.557 1762 608.382 1763.43 609.298C1764.89 610.215 1766.6 611.058 1768.54 611.828C1770.52 612.562 1772.89 612.928 1775.64 612.928C1779.85 612.928 1783.12 611.938 1785.43 609.958C1787.74 607.942 1788.89 605.063 1788.89 601.323C1788.89 599.233 1788.36 597.528 1787.3 596.208C1786.27 594.888 1784.89 593.788 1783.17 592.908C1781.45 591.992 1779.49 591.222 1777.29 590.598C1775.09 589.975 1772.85 589.297 1770.58 588.563C1768.3 587.83 1766.07 586.95 1763.87 585.923C1761.67 584.897 1759.7 583.558 1757.98 581.908C1756.26 580.258 1754.86 578.205 1753.8 575.748C1752.77 573.255 1752.26 570.193 1752.26 566.563C1752.26 563.667 1752.83 560.843 1753.97 558.093C1755.14 555.343 1756.83 552.905 1759.03 550.778C1761.26 548.652 1763.99 546.947 1767.22 545.663C1770.45 544.38 1774.13 543.738 1778.28 543.738C1782.97 543.738 1787.3 544.472 1791.26 545.938C1795.22 547.405 1798.59 549.458 1801.38 552.098L1797.75 559.083ZM1867.23 544.618H1879.66C1880.94 544.618 1882 544.93 1882.85 545.553C1883.73 546.14 1884.31 546.947 1884.61 547.973L1898.14 595.548C1898.47 596.722 1898.76 598.005 1899.02 599.398C1899.31 600.755 1899.58 602.203 1899.84 603.743C1900.13 602.203 1900.45 600.755 1900.78 599.398C1901.14 598.005 1901.53 596.722 1901.93 595.548L1917.55 547.973C1917.84 547.13 1918.41 546.36 1919.26 545.663C1920.14 544.967 1921.2 544.618 1922.45 544.618H1926.79C1928.07 544.618 1929.14 544.93 1929.98 545.553C1930.82 546.14 1931.41 546.947 1931.74 547.973L1947.25 595.548C1948.06 597.895 1948.75 600.498 1949.34 603.358C1949.6 601.928 1949.85 600.553 1950.11 599.233C1950.4 597.913 1950.7 596.685 1950.99 595.548L1964.52 547.973C1964.78 547.057 1965.35 546.268 1966.23 545.608C1967.11 544.948 1968.17 544.618 1969.42 544.618H1981.02L1956.33 624.148H1942.96L1925.58 569.808C1925.36 569.112 1925.12 568.36 1924.87 567.553C1924.65 566.747 1924.43 565.885 1924.21 564.968C1923.99 565.885 1923.75 566.747 1923.49 567.553C1923.27 568.36 1923.05 569.112 1922.83 569.808L1905.29 624.148H1891.92L1867.23 544.618Z" fill="white"/>
<path d="M336.839 402.25H253.839L142.839 222.25L226.339 111.25C217.005 106.917 210.505 102.417 206.839 97.75L211.839 57.25H325.839L330.839 97.75C326.172 103.083 317.505 108.417 304.839 113.75L218.339 220.25L297.339 339.25C319.005 343.917 333.839 351.083 341.839 360.75L336.839 402.25ZM162.339 57.25L167.339 98.75C162.005 105.083 152.839 110.75 139.839 115.75V344.25C153.172 349.583 162.339 355.083 167.339 360.75L162.339 402.25H45.3387L40.3387 360.75C44.6721 355.083 53.8387 349.583 67.8387 344.25V115.75C54.1721 110.75 45.0054 105.083 40.3387 98.75L45.3387 57.25H162.339ZM560.815 215.25L518.815 404.75H441.815L361.815 115.75C348.149 110.75 338.982 105.083 334.315 98.75L339.315 57.25H454.815L459.815 98.75C454.149 105.417 445.149 110.917 432.815 115.25L468.315 262.75C473.649 284.083 477.815 305.25 480.815 326.25L481.815 334.75H488.815C489.149 315.083 492.315 291.417 498.315 263.75L543.315 60.75H619.815L664.815 262.75C670.149 287.083 673.815 308.25 675.815 326.25L676.815 335.25H683.815C684.482 314.917 688.482 291.083 695.815 263.75L735.315 117.25C721.315 112.25 711.649 106.083 706.315 98.75L711.315 57.25H821.815L826.815 98.75C820.482 106.75 809.315 113.25 793.315 118.25L709.315 404.75H630.815L590.315 215.75C585.649 193.083 582.149 170.917 579.815 149.25L578.815 139.25H571.815C570.482 162.25 566.815 187.583 560.815 215.25ZM964.784 406.25C917.451 406.25 881.951 392.583 858.284 365.25C834.951 337.917 823.284 293.75 823.284 232.75C823.284 171.417 836.117 126.25 861.784 97.25C887.784 67.9167 924.617 53.25 972.284 53.25C1020.28 53.25 1055.95 66.25 1079.28 92.25C1102.95 118.25 1114.78 161.75 1114.78 222.75C1114.78 283.75 1101.62 329.583 1075.28 360.25C1048.95 390.917 1012.12 406.25 964.784 406.25ZM916.284 135.75C904.284 153.083 898.284 183.25 898.284 226.25C898.284 269.25 904.617 300.583 917.284 320.25C929.951 339.917 947.284 349.75 969.284 349.75C991.617 349.75 1008.95 340.583 1021.28 322.25C1033.62 303.583 1039.78 272.75 1039.78 229.75C1039.78 149.75 1015.78 109.75 967.784 109.75C945.451 109.75 928.284 118.417 916.284 135.75ZM1437.07 402.25H1354.07L1243.07 222.25L1326.57 111.25C1317.24 106.917 1310.74 102.417 1307.07 97.75L1312.07 57.25H1426.07L1431.07 97.75C1426.41 103.083 1417.74 108.417 1405.07 113.75L1318.57 220.25L1397.57 339.25C1419.24 343.917 1434.07 351.083 1442.07 360.75L1437.07 402.25ZM1262.57 57.25L1267.57 98.75C1262.24 105.083 1253.07 110.75 1240.07 115.75V344.25C1253.41 349.583 1262.57 355.083 1267.57 360.75L1262.57 402.25H1145.57L1140.57 360.75C1144.91 355.083 1154.07 349.583 1168.07 344.25V115.75C1154.41 110.75 1145.24 105.083 1140.57 98.75L1145.57 57.25H1262.57ZM1628.05 54.75L1727.55 343.25C1741.55 348.25 1751.38 354.083 1757.05 360.75L1752.05 402.25H1635.05L1630.05 360.75C1634.05 355.417 1642.05 350.417 1654.05 345.75L1640.55 303.75H1540.55L1528.05 344.25C1539.72 348.917 1548.38 354.417 1554.05 360.75L1549.05 402.25H1435.05L1430.05 360.75C1436.05 353.083 1447.22 346.75 1463.55 341.75L1559.55 54.75H1628.05ZM1586.55 124.75C1586.55 145.083 1582.38 168.75 1574.05 195.75L1554.55 257.75H1626.05L1607.05 196.75C1599.38 173.417 1595.05 152.25 1594.05 133.25L1593.55 124.75H1586.55ZM1975.82 244.25H1865.82V344.25C1879.15 349.583 1888.32 355.083 1893.32 360.75L1888.32 402.25H1771.32L1766.32 360.75C1770.65 355.083 1779.82 349.583 1793.82 344.25V115.75C1780.15 110.75 1770.98 105.083 1766.32 98.75L1771.32 57.25H1888.32L1893.32 98.75C1887.98 105.083 1878.82 110.75 1865.82 115.75V194.25H1975.82V115.75C1962.15 110.75 1952.98 105.083 1948.32 98.75L1953.32 57.25H2070.32L2075.32 98.75C2069.98 105.083 2060.82 110.75 2047.82 115.75V344.25C2061.15 349.583 2070.32 355.083 2075.32 360.75L2070.32 402.25H1953.32L1948.32 360.75C1952.65 355.083 1961.82 349.583 1975.82 344.25V244.25Z" fill="white"/>
</svg>
