<svg width="1652" height="637" viewBox="0 0 1652 637" fill="none" xmlns="http://www.w3.org/2000/svg">
<path d="M93.3788 210.31H103.051C111.607 210.31 118.117 207.458 122.581 201.754L194.191 109.126C197.415 104.786 201.011 101.872 204.979 100.384C209.071 98.7715 213.845 97.9655 219.301 97.9655H265.801L175.033 209.752C172.181 213.348 169.329 216.324 166.477 218.68C163.625 221.036 160.649 223.02 157.549 224.632C161.517 226.12 164.927 228.29 167.779 231.142C170.755 233.87 173.297 237.466 175.405 241.93L238.831 367.852H191.029C184.829 367.852 180.365 366.984 177.637 365.248C174.909 363.388 172.739 360.846 171.127 357.622L121.837 259.6C120.225 256.128 117.931 253.71 114.955 252.346C112.103 250.982 108.011 250.3 102.679 250.3H88.5429L74.0348 367.852H20.4668L53.3888 97.7796H107.329L93.3788 210.31ZM629.939 97.9655L519.641 367.852H470.909L443.009 188.362C442.513 185.882 442.079 183.092 441.707 179.992C441.335 176.892 441.025 173.668 440.777 170.32C438.297 177.016 436.003 183.03 433.895 188.362L362.285 367.852H313.739L269.843 97.9655H312.065C316.777 97.9655 320.497 99.0815 323.225 101.314C326.077 103.422 327.813 106.274 328.433 109.87L349.823 266.482C350.195 270.822 350.567 275.41 350.939 280.246C351.311 285.082 351.621 290.166 351.869 295.498C353.605 290.166 355.341 285.082 357.077 280.246C358.937 275.286 360.735 270.698 362.471 266.482L424.223 109.87C424.967 108.382 425.897 106.956 427.013 105.592C428.253 104.104 429.679 102.802 431.291 101.686C433.027 100.57 434.887 99.7016 436.871 99.0816C438.855 98.3375 440.963 97.9655 443.195 97.9655H455.843C460.555 97.9655 464.213 99.1435 466.817 101.5C469.545 103.732 471.405 106.522 472.397 109.87L496.577 266.482C497.197 270.45 497.817 274.79 498.437 279.502C499.057 284.214 499.553 289.174 499.925 294.382C501.413 289.174 502.901 284.276 504.389 279.688C506.001 274.976 507.489 270.574 508.853 266.482L568.001 109.87C568.993 106.77 571.349 104.042 575.069 101.686C578.789 99.2055 582.881 97.9655 587.345 97.9655H629.939ZM880.458 215.146C880.458 229.902 878.784 244.038 875.436 257.554C872.088 270.946 867.314 283.408 861.114 294.94C855.038 306.472 847.598 316.888 838.794 326.188C829.99 335.488 820.132 343.486 809.22 350.182C798.432 356.754 786.652 361.838 773.88 365.434C761.232 369.03 747.902 370.828 733.89 370.828C716.406 370.828 700.72 367.79 686.832 361.714C672.944 355.514 661.164 347.082 651.492 336.418C641.82 325.63 634.38 312.92 629.172 298.288C623.964 283.656 621.36 267.846 621.36 250.858C621.36 236.102 623.034 222.028 626.382 208.636C629.73 195.12 634.442 182.596 640.518 171.064C646.718 159.532 654.22 149.116 663.024 139.816C671.828 130.392 681.624 122.394 692.412 115.822C703.324 109.126 715.104 103.98 727.752 100.384C740.524 96.7875 753.916 94.9895 767.928 94.9895C785.412 94.9895 801.098 98.0895 814.986 104.29C828.874 110.49 840.654 118.984 850.326 129.772C859.998 140.56 867.438 153.27 872.646 167.902C877.854 182.534 880.458 198.282 880.458 215.146ZM825.216 216.448C825.216 204.792 823.79 194.19 820.938 184.642C818.086 174.97 813.87 166.786 808.29 160.09C802.834 153.27 796.138 148 788.202 144.28C780.39 140.56 771.462 138.7 761.418 138.7C748.398 138.7 736.618 141.366 726.078 146.698C715.662 152.03 706.734 159.532 699.294 169.204C691.978 178.876 686.336 190.532 682.368 204.172C678.4 217.812 676.416 232.94 676.416 249.556C676.416 261.336 677.842 272 680.694 281.548C683.546 290.972 687.638 299.094 692.97 305.914C698.426 312.734 705.06 318.004 712.872 321.724C720.808 325.32 729.798 327.118 739.842 327.118C752.862 327.118 764.642 324.514 775.182 319.306C785.722 313.974 794.65 306.472 801.966 296.8C809.406 287.128 815.11 275.534 819.078 262.018C823.17 248.378 825.216 233.188 825.216 216.448ZM974.699 210.31H984.371C992.927 210.31 999.437 207.458 1003.9 201.754L1075.51 109.126C1078.74 104.786 1082.33 101.872 1086.3 100.384C1090.39 98.7715 1095.17 97.9655 1100.62 97.9655H1147.12L1056.35 209.752C1053.5 213.348 1050.65 216.324 1047.8 218.68C1044.95 221.036 1041.97 223.02 1038.87 224.632C1042.84 226.12 1046.25 228.29 1049.1 231.142C1052.08 233.87 1054.62 237.466 1056.73 241.93L1120.15 367.852H1072.35C1066.15 367.852 1061.69 366.984 1058.96 365.248C1056.23 363.388 1054.06 360.846 1052.45 357.622L1003.16 259.6C1001.55 256.128 999.251 253.71 996.275 252.346C993.423 250.982 989.331 250.3 983.999 250.3H969.863L955.355 367.852H901.787L934.709 97.7796H988.649L974.699 210.31ZM1289.18 265.738L1273.18 180.364C1272.31 175.9 1271.32 170.63 1270.2 164.554C1269.09 158.478 1268.03 151.906 1267.04 144.838C1264.31 151.906 1261.65 158.478 1259.04 164.554C1256.44 170.63 1254.15 175.962 1252.16 180.55L1215.52 265.738H1289.18ZM1363.95 367.852H1322.28C1317.57 367.852 1313.91 366.736 1311.31 364.504C1308.71 362.272 1306.91 359.358 1305.92 355.762L1296.06 303.124H1199.52L1176.83 355.762C1175.22 358.986 1172.74 361.838 1169.39 364.318C1166.04 366.674 1162.2 367.852 1157.86 367.852H1115.45L1245.28 97.9655H1300.34L1363.95 367.852ZM1636.52 97.9655L1603.23 367.852H1548.92L1563.24 251.044H1457.03L1442.71 367.852H1388.58L1421.88 97.9655H1476L1461.68 213.472H1567.89L1582.21 97.9655H1636.52Z" fill="white"/>
<path d="M76.5259 564.605L60.5509 522.83C59.4009 519.98 58.2509 516.38 57.1009 512.03C56.5509 514.18 55.9759 516.18 55.3759 518.03C54.8259 519.88 54.2759 521.53 53.7259 522.98L37.8259 564.605H76.5259ZM108.101 604.73H95.8009C94.4009 604.73 93.2509 604.38 92.3509 603.68C91.4509 602.98 90.8009 602.08 90.4009 600.98L80.8759 576.005H33.4009L23.8759 600.98C23.5259 601.93 22.8759 602.805 21.9259 603.605C20.9759 604.355 19.8259 604.73 18.4759 604.73H6.17588L49.0759 497.03H65.2009L108.101 604.73ZM266.057 591.905C270.357 591.905 274.207 591.18 277.607 589.73C281.007 588.28 283.882 586.255 286.232 583.655C288.582 581.005 290.382 577.88 291.632 574.28C292.882 570.63 293.507 566.605 293.507 562.205V497.03H309.407V562.205C309.407 568.505 308.407 574.33 306.407 579.68C304.407 585.03 301.532 589.655 297.782 593.555C294.032 597.455 289.482 600.505 284.132 602.705C278.782 604.905 272.757 606.005 266.057 606.005C259.357 606.005 253.332 604.905 247.982 602.705C242.632 600.505 238.082 597.455 234.332 593.555C230.582 589.655 227.707 585.03 225.707 579.68C223.707 574.33 222.707 568.505 222.707 562.205V497.03H238.682V562.13C238.682 566.53 239.282 570.555 240.482 574.205C241.732 577.855 243.532 581.005 245.882 583.655C248.232 586.255 251.107 588.28 254.507 589.73C257.907 591.18 261.757 591.905 266.057 591.905ZM495.377 514.58C494.877 515.43 494.352 516.055 493.802 516.455C493.252 516.855 492.552 517.055 491.702 517.055C490.802 517.055 489.777 516.655 488.627 515.855C487.477 515.005 486.027 514.08 484.277 513.08C482.577 512.03 480.527 511.105 478.127 510.305C475.727 509.455 472.852 509.03 469.502 509.03C466.352 509.03 463.577 509.455 461.177 510.305C458.827 511.105 456.852 512.23 455.252 513.68C453.652 515.08 452.427 516.755 451.577 518.705C450.777 520.605 450.377 522.68 450.377 524.93C450.377 527.83 451.102 530.23 452.552 532.13C454.052 534.03 456.002 535.655 458.402 537.005C460.802 538.355 463.527 539.53 466.577 540.53C469.627 541.53 472.752 542.58 475.952 543.68C479.152 544.73 482.277 545.955 485.327 547.355C488.377 548.755 491.102 550.53 493.502 552.68C495.902 554.78 497.827 557.38 499.277 560.48C500.777 563.53 501.527 567.28 501.527 571.73C501.527 576.48 500.702 580.93 499.052 585.08C497.452 589.23 495.102 592.855 492.002 595.955C488.902 599.055 485.077 601.505 480.527 603.305C476.027 605.055 470.902 605.93 465.152 605.93C461.702 605.93 458.352 605.58 455.102 604.88C451.852 604.23 448.777 603.305 445.877 602.105C442.977 600.855 440.252 599.38 437.702 597.68C435.202 595.93 432.952 593.98 430.952 591.83L435.527 584.18C435.977 583.58 436.502 583.08 437.102 582.68C437.752 582.28 438.477 582.08 439.277 582.08C440.327 582.08 441.527 582.63 442.877 583.73C444.277 584.83 445.977 586.055 447.977 587.405C450.027 588.705 452.452 589.905 455.252 591.005C458.102 592.105 461.552 592.655 465.602 592.655C468.902 592.655 471.852 592.23 474.452 591.38C477.052 590.48 479.227 589.23 480.977 587.63C482.777 585.98 484.152 584.005 485.102 581.705C486.052 579.405 486.527 576.855 486.527 574.055C486.527 570.905 485.802 568.33 484.352 566.33C482.902 564.33 480.977 562.655 478.577 561.305C476.177 559.955 473.452 558.805 470.402 557.855C467.352 556.905 464.227 555.93 461.027 554.93C457.827 553.88 454.702 552.68 451.652 551.33C448.602 549.98 445.877 548.23 443.477 546.08C441.077 543.88 439.152 541.155 437.702 537.905C436.252 534.605 435.527 530.555 435.527 525.755C435.527 521.905 436.277 518.18 437.777 514.58C439.277 510.98 441.452 507.805 444.302 505.055C447.202 502.255 450.752 500.03 454.952 498.38C459.152 496.68 463.952 495.83 469.352 495.83C475.402 495.83 480.952 496.805 486.002 498.755C491.102 500.655 495.527 503.405 499.277 507.005L495.377 514.58ZM699.669 510.38H665.469V604.73H649.569V510.38H615.219V497.03H699.669V510.38ZM850.685 548.93C854.785 548.93 858.385 548.43 861.485 547.43C864.635 546.43 867.26 545.03 869.36 543.23C871.46 541.38 873.035 539.205 874.085 536.705C875.135 534.155 875.66 531.355 875.66 528.305C875.66 522.105 873.61 517.43 869.51 514.28C865.46 511.13 859.36 509.555 851.21 509.555H836.135V548.93H850.685ZM900.935 604.73H886.685C883.835 604.73 881.76 603.605 880.46 601.355L853.835 564.005C852.985 562.755 852.06 561.88 851.06 561.38C850.06 560.83 848.56 560.555 846.56 560.555H836.135V604.73H820.16V497.03H851.21C858.16 497.03 864.135 497.755 869.135 499.205C874.185 500.605 878.335 502.63 881.585 505.28C884.885 507.88 887.31 511.03 888.86 514.73C890.46 518.43 891.26 522.58 891.26 527.18C891.26 530.93 890.685 534.455 889.535 537.755C888.385 541.055 886.685 544.03 884.435 546.68C882.235 549.28 879.535 551.53 876.335 553.43C873.135 555.33 869.51 556.78 865.46 557.78C867.46 558.98 869.185 560.655 870.635 562.805L900.935 604.73ZM1077.01 564.605L1061.04 522.83C1059.89 519.98 1058.74 516.38 1057.59 512.03C1057.04 514.18 1056.46 516.18 1055.86 518.03C1055.31 519.88 1054.76 521.53 1054.21 522.98L1038.31 564.605H1077.01ZM1108.59 604.73H1096.29C1094.89 604.73 1093.74 604.38 1092.84 603.68C1091.94 602.98 1091.29 602.08 1090.89 600.98L1081.36 576.005H1033.89L1024.36 600.98C1024.01 601.93 1023.36 602.805 1022.41 603.605C1021.46 604.355 1020.31 604.73 1018.96 604.73H1006.66L1049.56 497.03H1065.69L1108.59 604.73ZM1288.69 591.305V604.73H1227.04V497.03H1243.01V591.305H1288.69ZM1425.28 604.73H1409.23V497.03H1425.28V604.73ZM1614.08 564.605L1598.11 522.83C1596.96 519.98 1595.81 516.38 1594.66 512.03C1594.11 514.18 1593.53 516.18 1592.93 518.03C1592.38 519.88 1591.83 521.53 1591.28 522.98L1575.38 564.605H1614.08ZM1645.66 604.73H1633.36C1631.96 604.73 1630.81 604.38 1629.91 603.68C1629.01 602.98 1628.36 602.08 1627.96 600.98L1618.43 576.005H1570.96L1561.43 600.98C1561.08 601.93 1560.43 602.805 1559.48 603.605C1558.53 604.355 1557.38 604.73 1556.03 604.73H1543.73L1586.63 497.03H1602.76L1645.66 604.73Z" fill="white"/>
<rect x="0.285156" y="413.336" width="1651.29" height="10.0752" fill="white"/>
</svg>
