<svg width="2111" height="1451" viewBox="0 0 2111 1451" fill="none" xmlns="http://www.w3.org/2000/svg">
<g filter="url(#filter0_d_3748_11)">
<path d="M563.012 1365.61C562.627 1366.24 562.224 1366.71 561.804 1367.03C561.384 1367.31 560.859 1367.45 560.229 1367.45C559.564 1367.45 558.812 1367.17 557.972 1366.61C557.167 1366.05 556.152 1365.44 554.927 1364.77C553.737 1364.07 552.319 1363.44 550.674 1362.88C549.029 1362.29 547.069 1361.99 544.794 1361.99C542.694 1361.99 540.839 1362.25 539.229 1362.78C537.654 1363.3 536.324 1364.04 535.239 1364.98C534.154 1365.93 533.332 1367.05 532.772 1368.34C532.247 1369.6 531.984 1370.98 531.984 1372.49C531.984 1374.41 532.492 1376.02 533.507 1377.32C534.522 1378.58 535.852 1379.66 537.497 1380.57C539.177 1381.48 541.084 1382.29 543.219 1382.99C545.354 1383.65 547.524 1384.37 549.729 1385.14C551.969 1385.91 554.157 1386.79 556.292 1387.77C558.427 1388.75 560.317 1389.99 561.962 1391.49C563.642 1393 564.989 1394.84 566.004 1397.01C567.019 1399.18 567.527 1401.82 567.527 1404.93C567.527 1408.29 566.949 1411.44 565.794 1414.38C564.639 1417.32 562.959 1419.9 560.754 1422.1C558.584 1424.27 555.889 1425.99 552.669 1427.25C549.484 1428.51 545.844 1429.14 541.749 1429.14C539.334 1429.14 536.972 1428.89 534.662 1428.4C532.387 1427.95 530.199 1427.3 528.099 1426.46C526.034 1425.58 524.092 1424.53 522.272 1423.31C520.452 1422.08 518.824 1420.72 517.389 1419.21L520.959 1413.33C521.274 1412.84 521.677 1412.46 522.167 1412.18C522.657 1411.9 523.199 1411.76 523.794 1411.76C524.599 1411.76 525.492 1412.14 526.472 1412.91C527.452 1413.65 528.624 1414.47 529.989 1415.38C531.389 1416.26 533.069 1417.08 535.029 1417.85C536.989 1418.58 539.334 1418.95 542.064 1418.95C546.509 1418.95 549.939 1417.87 552.354 1415.7C554.804 1413.53 556.029 1410.53 556.029 1406.72C556.029 1404.58 555.522 1402.85 554.507 1401.52C553.492 1400.16 552.144 1399.02 550.464 1398.11C548.819 1397.2 546.929 1396.43 544.794 1395.8C542.659 1395.17 540.489 1394.5 538.284 1393.8C536.079 1393.07 533.909 1392.23 531.774 1391.28C529.639 1390.3 527.732 1389.04 526.052 1387.5C524.407 1385.93 523.077 1384 522.062 1381.73C521.047 1379.42 520.539 1376.55 520.539 1373.12C520.539 1370.39 521.064 1367.75 522.114 1365.19C523.199 1362.64 524.757 1360.38 526.787 1358.42C528.852 1356.42 531.389 1354.83 534.399 1353.64C537.409 1352.45 540.839 1351.86 544.689 1351.86C549.029 1351.86 553.002 1352.54 556.607 1353.9C560.247 1355.27 563.379 1357.21 566.004 1359.73L563.012 1365.61ZM597.966 1373.49C598.491 1369.92 599.471 1366.78 600.906 1364.09C602.376 1361.39 604.214 1359.15 606.419 1357.37C608.624 1355.55 611.144 1354.18 613.979 1353.27C616.849 1352.33 619.946 1351.86 623.271 1351.86C626.631 1351.86 629.676 1352.35 632.406 1353.33C635.171 1354.27 637.534 1355.6 639.494 1357.32C641.489 1359.03 643.011 1361.08 644.061 1363.46C645.146 1365.84 645.689 1368.45 645.689 1371.28C645.689 1373.7 645.391 1375.83 644.796 1377.69C644.236 1379.51 643.414 1381.12 642.329 1382.52C641.279 1383.92 639.984 1385.09 638.444 1386.03C636.904 1386.98 635.171 1387.77 633.246 1388.4C637.936 1389.76 641.454 1391.95 643.799 1394.96C646.144 1397.93 647.316 1401.68 647.316 1406.19C647.316 1409.83 646.634 1413.07 645.269 1415.91C643.904 1418.74 642.049 1421.14 639.704 1423.1C637.394 1425.06 634.681 1426.56 631.566 1427.61C628.486 1428.63 625.214 1429.14 621.749 1429.14C617.864 1429.14 614.504 1428.68 611.669 1427.77C608.834 1426.83 606.384 1425.5 604.319 1423.78C602.289 1422.03 600.591 1419.93 599.226 1417.48C597.861 1415.03 596.706 1412.28 595.761 1409.24L600.644 1407.19C601.939 1406.63 603.164 1406.47 604.319 1406.72C605.509 1406.96 606.366 1407.61 606.891 1408.66C607.451 1409.78 608.081 1410.99 608.781 1412.28C609.481 1413.54 610.374 1414.72 611.459 1415.8C612.579 1416.85 613.944 1417.74 615.554 1418.48C617.199 1419.18 619.211 1419.53 621.591 1419.53C624.006 1419.53 626.106 1419.14 627.891 1418.37C629.711 1417.57 631.216 1416.55 632.406 1415.33C633.631 1414.07 634.541 1412.67 635.136 1411.13C635.731 1409.59 636.029 1408.07 636.029 1406.56C636.029 1404.67 635.801 1402.94 635.346 1401.36C634.891 1399.75 633.999 1398.39 632.669 1397.27C631.374 1396.15 629.519 1395.27 627.104 1394.64C624.724 1393.98 621.591 1393.65 617.706 1393.65V1385.51C620.891 1385.47 623.569 1385.16 625.739 1384.56C627.944 1383.93 629.694 1383.09 630.989 1382.04C632.319 1380.96 633.264 1379.66 633.824 1378.16C634.419 1376.65 634.716 1375.01 634.716 1373.22C634.716 1371.3 634.419 1369.6 633.824 1368.13C633.229 1366.66 632.389 1365.44 631.304 1364.46C630.254 1363.44 628.994 1362.69 627.524 1362.2C626.054 1361.71 624.426 1361.46 622.641 1361.46C620.926 1361.46 619.334 1361.71 617.864 1362.2C616.429 1362.69 615.134 1363.37 613.979 1364.25C612.859 1365.12 611.914 1366.17 611.144 1367.4C610.374 1368.59 609.814 1369.9 609.464 1371.33C608.974 1372.77 608.309 1373.73 607.469 1374.22C606.664 1374.71 605.474 1374.82 603.899 1374.54L597.966 1373.49ZM678.824 1373.49C679.349 1369.92 680.329 1366.78 681.764 1364.09C683.234 1361.39 685.072 1359.15 687.277 1357.37C689.482 1355.55 692.002 1354.18 694.837 1353.27C697.707 1352.33 700.804 1351.86 704.129 1351.86C707.489 1351.86 710.534 1352.35 713.264 1353.33C716.029 1354.27 718.392 1355.6 720.352 1357.32C722.347 1359.03 723.869 1361.08 724.919 1363.46C726.004 1365.84 726.547 1368.45 726.547 1371.28C726.547 1373.7 726.249 1375.83 725.654 1377.69C725.094 1379.51 724.272 1381.12 723.187 1382.52C722.137 1383.92 720.842 1385.09 719.302 1386.03C717.762 1386.98 716.029 1387.77 714.104 1388.4C718.794 1389.76 722.312 1391.95 724.657 1394.96C727.002 1397.93 728.174 1401.68 728.174 1406.19C728.174 1409.83 727.492 1413.07 726.127 1415.91C724.762 1418.74 722.907 1421.14 720.562 1423.1C718.252 1425.06 715.539 1426.56 712.424 1427.61C709.344 1428.63 706.072 1429.14 702.607 1429.14C698.722 1429.14 695.362 1428.68 692.527 1427.77C689.692 1426.83 687.242 1425.5 685.177 1423.78C683.147 1422.03 681.449 1419.93 680.084 1417.48C678.719 1415.03 677.564 1412.28 676.619 1409.24L681.502 1407.19C682.797 1406.63 684.022 1406.47 685.177 1406.72C686.367 1406.96 687.224 1407.61 687.749 1408.66C688.309 1409.78 688.939 1410.99 689.639 1412.28C690.339 1413.54 691.232 1414.72 692.317 1415.8C693.437 1416.85 694.802 1417.74 696.412 1418.48C698.057 1419.18 700.069 1419.53 702.449 1419.53C704.864 1419.53 706.964 1419.14 708.749 1418.37C710.569 1417.57 712.074 1416.55 713.264 1415.33C714.489 1414.07 715.399 1412.67 715.994 1411.13C716.589 1409.59 716.887 1408.07 716.887 1406.56C716.887 1404.67 716.659 1402.94 716.204 1401.36C715.749 1399.75 714.857 1398.39 713.527 1397.27C712.232 1396.15 710.377 1395.27 707.962 1394.64C705.582 1393.98 702.449 1393.65 698.564 1393.65V1385.51C701.749 1385.47 704.427 1385.16 706.597 1384.56C708.802 1383.93 710.552 1383.09 711.847 1382.04C713.177 1380.96 714.122 1379.66 714.682 1378.16C715.277 1376.65 715.574 1375.01 715.574 1373.22C715.574 1371.3 715.277 1369.6 714.682 1368.13C714.087 1366.66 713.247 1365.44 712.162 1364.46C711.112 1363.44 709.852 1362.69 708.382 1362.2C706.912 1361.71 705.284 1361.46 703.499 1361.46C701.784 1361.46 700.192 1361.71 698.722 1362.2C697.287 1362.69 695.992 1363.37 694.837 1364.25C693.717 1365.12 692.772 1366.17 692.002 1367.4C691.232 1368.59 690.672 1369.9 690.322 1371.33C689.832 1372.77 689.167 1373.73 688.327 1374.22C687.522 1374.71 686.332 1374.82 684.757 1374.54L678.824 1373.49ZM758.633 1421.79C758.633 1420.77 758.808 1419.83 759.158 1418.95C759.543 1418.04 760.05 1417.25 760.68 1416.59C761.345 1415.92 762.115 1415.4 762.99 1415.01C763.9 1414.63 764.863 1414.44 765.878 1414.44C766.893 1414.44 767.838 1414.63 768.713 1415.01C769.623 1415.4 770.41 1415.92 771.075 1416.59C771.74 1417.25 772.265 1418.04 772.65 1418.95C773.035 1419.83 773.228 1420.77 773.228 1421.79C773.228 1422.84 773.035 1423.8 772.65 1424.67C772.265 1425.55 771.74 1426.32 771.075 1426.98C770.41 1427.65 769.623 1428.16 768.713 1428.51C767.838 1428.89 766.893 1429.08 765.878 1429.08C764.863 1429.08 763.9 1428.89 762.99 1428.51C762.115 1428.16 761.345 1427.65 760.68 1426.98C760.05 1426.32 759.543 1425.55 759.158 1424.67C758.808 1423.8 758.633 1422.84 758.633 1421.79ZM804.447 1373.49C804.972 1369.92 805.952 1366.78 807.387 1364.09C808.857 1361.39 810.695 1359.15 812.9 1357.37C815.105 1355.55 817.625 1354.18 820.46 1353.27C823.33 1352.33 826.427 1351.86 829.752 1351.86C833.112 1351.86 836.157 1352.35 838.887 1353.33C841.652 1354.27 844.015 1355.6 845.975 1357.32C847.97 1359.03 849.492 1361.08 850.542 1363.46C851.627 1365.84 852.17 1368.45 852.17 1371.28C852.17 1373.7 851.872 1375.83 851.277 1377.69C850.717 1379.51 849.895 1381.12 848.81 1382.52C847.76 1383.92 846.465 1385.09 844.925 1386.03C843.385 1386.98 841.652 1387.77 839.727 1388.4C844.417 1389.76 847.935 1391.95 850.28 1394.96C852.625 1397.93 853.797 1401.68 853.797 1406.19C853.797 1409.83 853.115 1413.07 851.75 1415.91C850.385 1418.74 848.53 1421.14 846.185 1423.1C843.875 1425.06 841.162 1426.56 838.047 1427.61C834.967 1428.63 831.695 1429.14 828.23 1429.14C824.345 1429.14 820.985 1428.68 818.15 1427.77C815.315 1426.83 812.865 1425.5 810.8 1423.78C808.77 1422.03 807.072 1419.93 805.707 1417.48C804.342 1415.03 803.187 1412.28 802.242 1409.24L807.125 1407.19C808.42 1406.63 809.645 1406.47 810.8 1406.72C811.99 1406.96 812.847 1407.61 813.372 1408.66C813.932 1409.78 814.562 1410.99 815.262 1412.28C815.962 1413.54 816.855 1414.72 817.94 1415.8C819.06 1416.85 820.425 1417.74 822.035 1418.48C823.68 1419.18 825.692 1419.53 828.072 1419.53C830.487 1419.53 832.587 1419.14 834.372 1418.37C836.192 1417.57 837.697 1416.55 838.887 1415.33C840.112 1414.07 841.022 1412.67 841.617 1411.13C842.212 1409.59 842.51 1408.07 842.51 1406.56C842.51 1404.67 842.282 1402.94 841.827 1401.36C841.372 1399.75 840.48 1398.39 839.15 1397.27C837.855 1396.15 836 1395.27 833.585 1394.64C831.205 1393.98 828.072 1393.65 824.187 1393.65V1385.51C827.372 1385.47 830.05 1385.16 832.22 1384.56C834.425 1383.93 836.175 1383.09 837.47 1382.04C838.8 1380.96 839.745 1379.66 840.305 1378.16C840.9 1376.65 841.197 1375.01 841.197 1373.22C841.197 1371.3 840.9 1369.6 840.305 1368.13C839.71 1366.66 838.87 1365.44 837.785 1364.46C836.735 1363.44 835.475 1362.69 834.005 1362.2C832.535 1361.71 830.907 1361.46 829.122 1361.46C827.407 1361.46 825.815 1361.71 824.345 1362.2C822.91 1362.69 821.615 1363.37 820.46 1364.25C819.34 1365.12 818.395 1366.17 817.625 1367.4C816.855 1368.59 816.295 1369.9 815.945 1371.33C815.455 1372.77 814.79 1373.73 813.95 1374.22C813.145 1374.71 811.955 1374.82 810.38 1374.54L804.447 1373.49ZM930.77 1417.64C931.995 1417.64 932.958 1418.01 933.658 1418.74C934.358 1419.44 934.708 1420.35 934.708 1421.47V1428.3H883.573V1424.46C883.573 1423.69 883.73 1422.89 884.045 1422.05C884.36 1421.21 884.868 1420.44 885.568 1419.74L909.088 1396.17C911.083 1394.17 912.85 1392.26 914.39 1390.44C915.965 1388.62 917.295 1386.8 918.38 1384.98C919.5 1383.16 920.34 1381.33 920.9 1379.47C921.495 1377.58 921.793 1375.6 921.793 1373.54C921.793 1371.54 921.478 1369.79 920.848 1368.29C920.253 1366.75 919.413 1365.49 918.328 1364.51C917.278 1363.49 916 1362.74 914.495 1362.25C913.025 1361.73 911.398 1361.46 909.613 1361.46C907.898 1361.46 906.305 1361.71 904.835 1362.2C903.4 1362.69 902.105 1363.37 900.95 1364.25C899.83 1365.12 898.885 1366.17 898.115 1367.4C897.38 1368.59 896.838 1369.9 896.488 1371.33C895.963 1372.77 895.28 1373.73 894.44 1374.22C893.635 1374.71 892.445 1374.82 890.87 1374.54L884.938 1373.49C885.463 1369.92 886.443 1366.78 887.878 1364.09C889.348 1361.39 891.185 1359.15 893.39 1357.37C895.595 1355.55 898.115 1354.18 900.95 1353.27C903.82 1352.33 906.918 1351.86 910.243 1351.86C913.603 1351.86 916.683 1352.36 919.483 1353.38C922.318 1354.36 924.75 1355.78 926.78 1357.63C928.845 1359.45 930.455 1361.67 931.61 1364.3C932.765 1366.92 933.343 1369.88 933.343 1373.17C933.343 1375.97 932.923 1378.56 932.083 1380.94C931.278 1383.32 930.175 1385.6 928.775 1387.77C927.375 1389.94 925.73 1392.05 923.84 1394.12C921.985 1396.15 920.025 1398.21 917.96 1400.31L899.69 1419C901.195 1418.58 902.7 1418.25 904.205 1418.01C905.745 1417.76 907.198 1417.64 908.563 1417.64H930.77ZM964.063 1369.23C964.063 1366.82 964.518 1364.54 965.428 1362.41C966.338 1360.27 967.581 1358.42 969.156 1356.84C970.731 1355.27 972.586 1354.03 974.721 1353.12C976.891 1352.21 979.218 1351.75 981.703 1351.75C984.188 1351.75 986.516 1352.21 988.686 1353.12C990.856 1354.03 992.728 1355.27 994.303 1356.84C995.913 1358.42 997.173 1360.27 998.083 1362.41C998.993 1364.54 999.448 1366.82 999.448 1369.23C999.448 1371.61 998.993 1373.85 998.083 1375.95C997.173 1378.05 995.913 1379.89 994.303 1381.47C992.728 1383.04 990.856 1384.3 988.686 1385.25C986.516 1386.16 984.188 1386.61 981.703 1386.61C979.218 1386.61 976.891 1386.16 974.721 1385.25C972.586 1384.3 970.731 1383.04 969.156 1381.47C967.581 1379.89 966.338 1378.05 965.428 1375.95C964.518 1373.85 964.063 1371.61 964.063 1369.23ZM971.991 1369.29C971.991 1370.65 972.236 1371.93 972.726 1373.12C973.216 1374.31 973.881 1375.34 974.721 1376.22C975.596 1377.09 976.628 1377.79 977.818 1378.32C979.008 1378.81 980.303 1379.05 981.703 1379.05C983.103 1379.05 984.398 1378.81 985.588 1378.32C986.778 1377.79 987.811 1377.09 988.686 1376.22C989.561 1375.34 990.243 1374.31 990.733 1373.12C991.223 1371.93 991.468 1370.65 991.468 1369.29C991.468 1367.89 991.223 1366.59 990.733 1365.4C990.243 1364.18 989.561 1363.13 988.686 1362.25C987.811 1361.34 986.778 1360.64 985.588 1360.15C984.398 1359.63 983.103 1359.36 981.703 1359.36C980.303 1359.36 979.008 1359.63 977.818 1360.15C976.628 1360.64 975.596 1361.34 974.721 1362.25C973.881 1363.13 973.216 1364.18 972.726 1365.4C972.236 1366.59 971.991 1367.89 971.991 1369.29ZM1079.67 1418.37L1079.62 1428.3H1032.48V1352.7H1079.62V1362.62H1044.81V1385.4H1072.64V1395.01H1044.81V1418.37H1079.67ZM1157.86 1419.74V1428.3H1116.65V1419.74H1132.4V1372.38C1132.4 1370.7 1132.45 1368.99 1132.56 1367.24L1120.43 1377.48C1119.91 1377.9 1119.36 1378.18 1118.8 1378.32C1118.28 1378.42 1117.77 1378.42 1117.28 1378.32C1116.83 1378.21 1116.41 1378.05 1116.02 1377.84C1115.67 1377.6 1115.39 1377.34 1115.18 1377.06L1111.66 1372.12L1134.45 1352.54H1143.64V1419.74H1157.86ZM1205.02 1380.63C1206.84 1380.24 1208.57 1379.96 1210.21 1379.79C1211.89 1379.61 1213.5 1379.52 1215.04 1379.52C1219 1379.52 1222.48 1380.12 1225.49 1381.31C1228.54 1382.46 1231.07 1384.07 1233.1 1386.14C1235.17 1388.2 1236.71 1390.64 1237.72 1393.44C1238.77 1396.2 1239.3 1399.21 1239.3 1402.47C1239.3 1406.49 1238.6 1410.15 1237.2 1413.44C1235.8 1416.73 1233.86 1419.55 1231.37 1421.89C1228.89 1424.2 1225.95 1425.99 1222.55 1427.25C1219.19 1428.51 1215.55 1429.14 1211.63 1429.14C1209.32 1429.14 1207.12 1428.91 1205.02 1428.45C1202.95 1428 1201.01 1427.39 1199.19 1426.62C1197.37 1425.81 1195.69 1424.9 1194.15 1423.89C1192.61 1422.84 1191.23 1421.75 1190 1420.63L1193.47 1415.8C1194.2 1414.75 1195.18 1414.23 1196.41 1414.23C1197.18 1414.23 1198.02 1414.51 1198.93 1415.07C1199.84 1415.63 1200.89 1416.24 1202.08 1416.9C1203.3 1417.53 1204.74 1418.13 1206.38 1418.69C1208.03 1419.25 1209.99 1419.53 1212.26 1419.53C1214.75 1419.53 1216.97 1419.13 1218.93 1418.32C1220.89 1417.52 1222.53 1416.4 1223.86 1414.96C1225.23 1413.49 1226.26 1411.74 1226.96 1409.71C1227.66 1407.68 1228.01 1405.46 1228.01 1403.04C1228.01 1400.84 1227.68 1398.86 1227.01 1397.11C1226.38 1395.36 1225.42 1393.87 1224.13 1392.65C1222.87 1391.42 1221.27 1390.5 1219.35 1389.87C1217.42 1389.2 1215.2 1388.87 1212.68 1388.87C1210.83 1388.87 1208.92 1389.03 1206.96 1389.34C1205.03 1389.66 1203.07 1390.15 1201.08 1390.81L1194.04 1388.82L1200.24 1352.7H1236.83V1357.58C1236.83 1359.19 1236.32 1360.5 1235.31 1361.52C1234.29 1362.53 1232.6 1363.04 1230.22 1363.04H1208.06L1205.02 1380.63ZM1319.58 1419.74V1428.3H1278.37V1419.74H1294.12V1372.38C1294.12 1370.7 1294.17 1368.99 1294.27 1367.24L1282.15 1377.48C1281.62 1377.9 1281.08 1378.18 1280.52 1378.32C1279.99 1378.42 1279.49 1378.42 1279 1378.32C1278.54 1378.21 1278.12 1378.05 1277.74 1377.84C1277.39 1377.6 1277.11 1377.34 1276.9 1377.06L1273.38 1372.12L1296.16 1352.54H1305.35V1419.74H1319.58ZM1351.67 1421.79C1351.67 1420.77 1351.84 1419.83 1352.19 1418.95C1352.58 1418.04 1353.08 1417.25 1353.71 1416.59C1354.38 1415.92 1355.15 1415.4 1356.02 1415.01C1356.93 1414.63 1357.9 1414.44 1358.91 1414.44C1359.93 1414.44 1360.87 1414.63 1361.75 1415.01C1362.66 1415.4 1363.44 1415.92 1364.11 1416.59C1364.77 1417.25 1365.3 1418.04 1365.68 1418.95C1366.07 1419.83 1366.26 1420.77 1366.26 1421.79C1366.26 1422.84 1366.07 1423.8 1365.68 1424.67C1365.3 1425.55 1364.77 1426.32 1364.11 1426.98C1363.44 1427.65 1362.66 1428.16 1361.75 1428.51C1360.87 1428.89 1359.93 1429.08 1358.91 1429.08C1357.9 1429.08 1356.93 1428.89 1356.02 1428.51C1355.15 1428.16 1354.38 1427.65 1353.71 1426.98C1353.08 1426.32 1352.58 1425.55 1352.19 1424.67C1351.84 1423.8 1351.67 1422.84 1351.67 1421.79ZM1445.2 1419.74V1428.3H1403.99V1419.74H1419.74V1372.38C1419.74 1370.7 1419.79 1368.99 1419.9 1367.24L1407.77 1377.48C1407.24 1377.9 1406.7 1378.18 1406.14 1378.32C1405.62 1378.42 1405.11 1378.42 1404.62 1378.32C1404.16 1378.21 1403.74 1378.05 1403.36 1377.84C1403.01 1377.6 1402.73 1377.34 1402.52 1377.06L1399 1372.12L1421.79 1352.54H1430.97V1419.74H1445.2ZM1502.59 1420.21C1504.87 1420.21 1506.9 1419.9 1508.68 1419.27C1510.47 1418.6 1511.96 1417.69 1513.15 1416.54C1514.37 1415.35 1515.3 1413.95 1515.93 1412.34C1516.56 1410.73 1516.87 1408.98 1516.87 1407.09C1516.87 1404.78 1516.51 1402.78 1515.77 1401.1C1515.07 1399.42 1514.07 1398.04 1512.78 1396.95C1511.52 1395.83 1510.01 1395.01 1508.26 1394.49C1506.51 1393.93 1504.62 1393.65 1502.59 1393.65C1500.56 1393.65 1498.67 1393.93 1496.92 1394.49C1495.17 1395.01 1493.65 1395.83 1492.36 1396.95C1491.1 1398.04 1490.1 1399.42 1489.36 1401.1C1488.66 1402.78 1488.31 1404.78 1488.31 1407.09C1488.31 1408.98 1488.63 1410.73 1489.26 1412.34C1489.89 1413.95 1490.8 1415.35 1491.99 1416.54C1493.21 1417.69 1494.72 1418.6 1496.5 1419.27C1498.29 1419.9 1500.32 1420.21 1502.59 1420.21ZM1502.59 1360.52C1500.53 1360.52 1498.71 1360.83 1497.13 1361.46C1495.59 1362.09 1494.32 1362.93 1493.3 1363.98C1492.29 1365.03 1491.52 1366.28 1490.99 1367.71C1490.5 1369.11 1490.26 1370.6 1490.26 1372.17C1490.26 1373.75 1490.47 1375.29 1490.89 1376.79C1491.34 1378.3 1492.04 1379.65 1492.99 1380.84C1493.97 1381.99 1495.24 1382.92 1496.82 1383.62C1498.39 1384.32 1500.32 1384.67 1502.59 1384.67C1504.87 1384.67 1506.79 1384.32 1508.37 1383.62C1509.94 1382.92 1511.2 1381.99 1512.15 1380.84C1513.13 1379.65 1513.83 1378.3 1514.25 1376.79C1514.7 1375.29 1514.93 1373.75 1514.93 1372.17C1514.93 1370.6 1514.67 1369.11 1514.14 1367.71C1513.65 1366.28 1512.88 1365.03 1511.83 1363.98C1510.82 1362.93 1509.54 1362.09 1508 1361.46C1506.46 1360.83 1504.66 1360.52 1502.59 1360.52ZM1514.51 1388.87C1519.17 1390.3 1522.65 1392.58 1524.96 1395.69C1527.3 1398.81 1528.48 1402.68 1528.48 1407.3C1528.48 1410.62 1527.85 1413.63 1526.59 1416.33C1525.33 1419.02 1523.56 1421.31 1521.28 1423.2C1519.01 1425.09 1516.28 1426.56 1513.09 1427.61C1509.94 1428.63 1506.44 1429.14 1502.59 1429.14C1498.74 1429.14 1495.23 1428.63 1492.04 1427.61C1488.89 1426.56 1486.18 1425.09 1483.9 1423.2C1481.63 1421.31 1479.86 1419.02 1478.6 1416.33C1477.34 1413.63 1476.71 1410.62 1476.71 1407.3C1476.71 1402.68 1477.87 1398.81 1480.18 1395.69C1482.52 1392.58 1486.02 1390.3 1490.68 1388.87C1486.9 1387.36 1484.04 1385.18 1482.12 1382.31C1480.23 1379.44 1479.28 1375.99 1479.28 1371.96C1479.28 1369.13 1479.84 1366.49 1480.96 1364.04C1482.08 1361.59 1483.66 1359.47 1485.69 1357.68C1487.75 1355.86 1490.22 1354.45 1493.09 1353.43C1495.96 1352.38 1499.13 1351.86 1502.59 1351.86C1506.06 1351.86 1509.21 1352.38 1512.04 1353.43C1514.91 1354.45 1517.36 1355.86 1519.39 1357.68C1521.46 1359.47 1523.05 1361.59 1524.17 1364.04C1525.33 1366.49 1525.9 1369.13 1525.9 1371.96C1525.9 1375.99 1524.94 1379.44 1523.02 1382.31C1521.13 1385.18 1518.29 1387.36 1514.51 1388.87ZM1557.1 1369.23C1557.1 1366.82 1557.55 1364.54 1558.46 1362.41C1559.37 1360.27 1560.61 1358.42 1562.19 1356.84C1563.76 1355.27 1565.62 1354.03 1567.75 1353.12C1569.92 1352.21 1572.25 1351.75 1574.74 1351.75C1577.22 1351.75 1579.55 1352.21 1581.72 1353.12C1583.89 1354.03 1585.76 1355.27 1587.34 1356.84C1588.95 1358.42 1590.21 1360.27 1591.12 1362.41C1592.03 1364.54 1592.48 1366.82 1592.48 1369.23C1592.48 1371.61 1592.03 1373.85 1591.12 1375.95C1590.21 1378.05 1588.95 1379.89 1587.34 1381.47C1585.76 1383.04 1583.89 1384.3 1581.72 1385.25C1579.55 1386.16 1577.22 1386.61 1574.74 1386.61C1572.25 1386.61 1569.92 1386.16 1567.75 1385.25C1565.62 1384.3 1563.76 1383.04 1562.19 1381.47C1560.61 1379.89 1559.37 1378.05 1558.46 1375.95C1557.55 1373.85 1557.1 1371.61 1557.1 1369.23ZM1565.02 1369.29C1565.02 1370.65 1565.27 1371.93 1565.76 1373.12C1566.25 1374.31 1566.91 1375.34 1567.75 1376.22C1568.63 1377.09 1569.66 1377.79 1570.85 1378.32C1572.04 1378.81 1573.34 1379.05 1574.74 1379.05C1576.14 1379.05 1577.43 1378.81 1578.62 1378.32C1579.81 1377.79 1580.84 1377.09 1581.72 1376.22C1582.59 1375.34 1583.28 1374.31 1583.77 1373.12C1584.26 1371.93 1584.5 1370.65 1584.5 1369.29C1584.5 1367.89 1584.26 1366.59 1583.77 1365.4C1583.28 1364.18 1582.59 1363.13 1581.72 1362.25C1580.84 1361.34 1579.81 1360.64 1578.62 1360.15C1577.43 1359.63 1576.14 1359.36 1574.74 1359.36C1573.34 1359.36 1572.04 1359.63 1570.85 1360.15C1569.66 1360.64 1568.63 1361.34 1567.75 1362.25C1566.91 1363.13 1566.25 1364.18 1565.76 1365.4C1565.27 1366.59 1565.02 1367.89 1565.02 1369.29Z" fill="white"/>
<path d="M152.68 1234.15V1262.15H137.885V1182.62H163.79C169.107 1182.62 173.709 1183.24 177.595 1184.49C181.482 1185.74 184.69 1187.48 187.22 1189.71C189.75 1191.95 191.62 1194.63 192.83 1197.74C194.04 1200.86 194.645 1204.27 194.645 1207.97C194.645 1211.82 194.004 1215.36 192.72 1218.59C191.437 1221.78 189.512 1224.53 186.945 1226.84C184.379 1229.15 181.17 1230.95 177.32 1232.23C173.47 1233.51 168.96 1234.15 163.79 1234.15H152.68ZM152.68 1222.6H163.79C166.504 1222.6 168.869 1222.27 170.885 1221.61C172.902 1220.92 174.57 1219.95 175.89 1218.7C177.21 1217.42 178.2 1215.88 178.86 1214.08C179.52 1212.25 179.85 1210.21 179.85 1207.97C179.85 1205.85 179.52 1203.92 178.86 1202.2C178.2 1200.48 177.21 1199.01 175.89 1197.8C174.57 1196.59 172.902 1195.67 170.885 1195.05C168.869 1194.39 166.504 1194.06 163.79 1194.06H152.68V1222.6ZM316.8 1182.62V1194.39H281.545V1216.44H309.32V1227.83H281.545V1250.32H316.8V1262.15H266.64V1182.62H316.8ZM459.995 1262.15H448.555C447.271 1262.15 446.208 1261.84 445.365 1261.21C444.558 1260.55 443.971 1259.75 443.605 1258.79L437.665 1242.57H404.72L398.78 1258.79C398.486 1259.64 397.9 1260.41 397.02 1261.1C396.176 1261.8 395.131 1262.15 393.885 1262.15H382.39L413.63 1182.62H428.755L459.995 1262.15ZM408.515 1232.12H433.87L424.19 1205.66C423.75 1204.49 423.255 1203.12 422.705 1201.54C422.191 1199.93 421.678 1198.18 421.165 1196.31C420.651 1198.18 420.138 1199.93 419.625 1201.54C419.148 1203.15 418.671 1204.56 418.195 1205.77L408.515 1232.12ZM543.975 1231.07V1262.15H529.18V1182.62H553.435C558.862 1182.62 563.5 1183.19 567.35 1184.32C571.237 1185.42 574.409 1186.98 576.865 1189C579.359 1191.02 581.174 1193.44 582.31 1196.26C583.484 1199.05 584.07 1202.13 584.07 1205.5C584.07 1208.18 583.667 1210.71 582.86 1213.09C582.09 1215.47 580.954 1217.64 579.45 1219.58C577.984 1221.52 576.15 1223.23 573.95 1224.69C571.787 1226.16 569.312 1227.33 566.525 1228.21C568.395 1229.28 570.009 1230.8 571.365 1232.78L591.275 1262.15H577.965C576.682 1262.15 575.582 1261.89 574.665 1261.38C573.785 1260.87 573.034 1260.13 572.41 1259.18L555.69 1233.71C555.067 1232.76 554.37 1232.08 553.6 1231.68C552.867 1231.28 551.767 1231.07 550.3 1231.07H543.975ZM543.975 1220.46H553.215C556.002 1220.46 558.422 1220.11 560.475 1219.41C562.565 1218.72 564.27 1217.76 565.59 1216.55C566.947 1215.31 567.955 1213.84 568.615 1212.15C569.275 1210.47 569.605 1208.62 569.605 1206.6C569.605 1202.57 568.267 1199.47 565.59 1197.3C562.95 1195.14 558.899 1194.06 553.435 1194.06H543.975V1220.46ZM676.06 1249.94H707.905V1262.15H661.265V1182.62H676.06V1249.94ZM860.361 1262.15V1182.62H887.806C893.013 1182.62 897.449 1183.11 901.116 1184.1C904.819 1185.09 907.844 1186.51 910.191 1188.34C912.574 1190.17 914.316 1192.39 915.416 1194.99C916.516 1197.6 917.066 1200.53 917.066 1203.79C917.066 1205.66 916.791 1207.46 916.241 1209.18C915.691 1210.87 914.829 1212.47 913.656 1213.97C912.519 1215.44 911.053 1216.77 909.256 1217.98C907.496 1219.19 905.388 1220.22 902.931 1221.06C913.858 1223.52 919.321 1229.42 919.321 1238.77C919.321 1242.15 918.679 1245.26 917.396 1248.12C916.113 1250.98 914.243 1253.46 911.786 1255.55C909.329 1257.6 906.304 1259.22 902.711 1260.39C899.118 1261.56 895.011 1262.15 890.391 1262.15H860.361ZM875.156 1227.28V1250.6H890.171C892.921 1250.6 895.213 1250.27 897.046 1249.61C898.916 1248.95 900.401 1248.07 901.501 1246.97C902.638 1245.87 903.444 1244.59 903.921 1243.12C904.434 1241.65 904.691 1240.09 904.691 1238.44C904.691 1236.72 904.416 1235.18 903.866 1233.82C903.316 1232.43 902.454 1231.26 901.281 1230.3C900.108 1229.31 898.604 1228.56 896.771 1228.05C894.938 1227.54 892.719 1227.28 890.116 1227.28H875.156ZM875.156 1217.05H886.981C892.004 1217.05 895.818 1216.13 898.421 1214.3C901.024 1212.47 902.326 1209.55 902.326 1205.55C902.326 1201.41 901.153 1198.46 898.806 1196.7C896.459 1194.94 892.793 1194.06 887.806 1194.06H875.156V1217.05ZM1042.67 1182.62V1194.39H1007.42V1216.44H1035.19V1227.83H1007.42V1250.32H1042.67V1262.15H992.511V1182.62H1042.67ZM1185.87 1262.15H1174.43C1173.14 1262.15 1172.08 1261.84 1171.24 1261.21C1170.43 1260.55 1169.84 1259.75 1169.48 1258.79L1163.54 1242.57H1130.59L1124.65 1258.79C1124.36 1259.64 1123.77 1260.41 1122.89 1261.1C1122.05 1261.8 1121 1262.15 1119.76 1262.15H1108.26L1139.5 1182.62H1154.63L1185.87 1262.15ZM1134.39 1232.12H1159.74L1150.06 1205.66C1149.62 1204.49 1149.13 1203.12 1148.58 1201.54C1148.06 1199.93 1147.55 1198.18 1147.04 1196.31C1146.52 1198.18 1146.01 1199.93 1145.5 1201.54C1145.02 1203.15 1144.54 1204.56 1144.07 1205.77L1134.39 1232.12ZM1306.43 1243.39C1307.24 1243.39 1307.94 1243.71 1308.52 1244.33L1314.35 1250.65C1311.13 1254.65 1307.15 1257.71 1302.42 1259.84C1297.73 1261.97 1292.08 1263.03 1285.48 1263.03C1279.58 1263.03 1274.26 1262.02 1269.53 1260C1264.84 1257.99 1260.82 1255.18 1257.48 1251.59C1254.15 1248 1251.58 1243.71 1249.78 1238.72C1248.02 1233.73 1247.14 1228.29 1247.14 1222.38C1247.14 1216.41 1248.13 1210.94 1250.11 1205.99C1252.09 1201.01 1254.88 1196.72 1258.47 1193.12C1262.07 1189.53 1266.36 1186.74 1271.34 1184.76C1276.37 1182.75 1281.9 1181.74 1287.95 1181.74C1293.86 1181.74 1299.01 1182.69 1303.41 1184.6C1307.85 1186.47 1311.64 1188.96 1314.79 1192.08L1309.84 1198.95C1309.55 1199.39 1309.17 1199.78 1308.69 1200.11C1308.25 1200.44 1307.63 1200.6 1306.82 1200.6C1305.98 1200.6 1305.11 1200.27 1304.23 1199.61C1303.35 1198.95 1302.24 1198.24 1300.88 1197.47C1299.52 1196.7 1297.8 1195.98 1295.71 1195.32C1293.66 1194.66 1291.03 1194.33 1287.84 1194.33C1284.1 1194.33 1280.66 1194.99 1277.5 1196.31C1274.39 1197.6 1271.69 1199.45 1269.42 1201.87C1267.18 1204.29 1265.42 1207.24 1264.14 1210.72C1262.89 1214.17 1262.27 1218.06 1262.27 1222.38C1262.27 1226.86 1262.89 1230.84 1264.14 1234.32C1265.42 1237.8 1267.15 1240.74 1269.31 1243.12C1271.47 1245.5 1274.02 1247.34 1276.95 1248.62C1279.89 1249.87 1283.04 1250.49 1286.41 1250.49C1288.43 1250.49 1290.25 1250.38 1291.86 1250.16C1293.51 1249.94 1295.01 1249.59 1296.37 1249.11C1297.76 1248.64 1299.06 1248.03 1300.27 1247.3C1301.52 1246.53 1302.75 1245.59 1303.96 1244.49C1304.33 1244.16 1304.71 1243.91 1305.11 1243.72C1305.52 1243.5 1305.96 1243.39 1306.43 1243.39ZM1453.16 1262.15H1438.26V1227.39H1400.97V1262.15H1386.06V1182.62H1400.97V1216.83H1438.26V1182.62H1453.16V1262.15ZM1619.23 1182.62C1619.89 1182.62 1620.44 1182.66 1620.88 1182.73C1621.32 1182.77 1621.71 1182.88 1622.04 1183.06C1622.4 1183.21 1622.75 1183.44 1623.08 1183.77C1623.41 1184.07 1623.78 1184.47 1624.18 1184.98L1665.93 1238.17C1665.78 1236.89 1665.67 1235.64 1665.6 1234.43C1665.56 1233.18 1665.54 1232.03 1665.54 1230.96V1182.62H1678.58V1262.15H1670.93C1669.76 1262.15 1668.79 1261.97 1668.02 1261.6C1667.25 1261.23 1666.49 1260.57 1665.76 1259.62L1624.18 1206.65C1624.29 1207.83 1624.36 1209 1624.4 1210.17C1624.47 1211.31 1624.51 1212.36 1624.51 1213.31V1262.15H1611.48V1182.62H1619.23ZM1797.75 1197.08C1797.34 1197.89 1796.87 1198.46 1796.32 1198.79C1795.8 1199.12 1795.18 1199.28 1794.45 1199.28C1793.71 1199.28 1792.89 1199.01 1791.97 1198.46C1791.05 1197.87 1789.97 1197.23 1788.73 1196.53C1787.48 1195.84 1786.01 1195.21 1784.33 1194.66C1782.68 1194.08 1780.71 1193.78 1778.44 1193.78C1776.39 1193.78 1774.59 1194.04 1773.05 1194.55C1771.55 1195.03 1770.26 1195.71 1769.2 1196.59C1768.17 1197.47 1767.4 1198.53 1766.89 1199.78C1766.38 1200.99 1766.12 1202.33 1766.12 1203.79C1766.12 1205.66 1766.63 1207.22 1767.66 1208.47C1768.72 1209.72 1770.12 1210.78 1771.84 1211.66C1773.56 1212.54 1775.53 1213.33 1777.73 1214.02C1779.93 1214.72 1782.16 1215.47 1784.44 1216.28C1786.75 1217.05 1789 1217.97 1791.2 1219.03C1793.4 1220.06 1795.36 1221.38 1797.09 1222.99C1798.81 1224.57 1800.18 1226.51 1801.21 1228.82C1802.27 1231.13 1802.81 1233.93 1802.81 1237.23C1802.81 1240.83 1802.18 1244.2 1800.94 1247.35C1799.73 1250.47 1797.93 1253.2 1795.55 1255.55C1793.2 1257.86 1790.32 1259.69 1786.91 1261.05C1783.5 1262.37 1779.6 1263.03 1775.2 1263.03C1772.67 1263.03 1770.17 1262.77 1767.72 1262.26C1765.26 1261.78 1762.89 1261.09 1760.62 1260.17C1758.38 1259.25 1756.28 1258.15 1754.3 1256.87C1752.35 1255.59 1750.61 1254.16 1749.07 1252.58L1753.36 1245.48C1753.76 1244.97 1754.24 1244.55 1754.79 1244.22C1755.38 1243.85 1756.02 1243.67 1756.72 1243.67C1757.63 1243.67 1758.62 1244.05 1759.69 1244.82C1760.75 1245.56 1762 1246.38 1763.43 1247.3C1764.89 1248.22 1766.6 1249.06 1768.54 1249.83C1770.52 1250.56 1772.89 1250.93 1775.64 1250.93C1779.85 1250.93 1783.12 1249.94 1785.43 1247.96C1787.74 1245.94 1788.89 1243.06 1788.89 1239.32C1788.89 1237.23 1788.36 1235.53 1787.3 1234.21C1786.27 1232.89 1784.89 1231.79 1783.17 1230.91C1781.45 1229.99 1779.49 1229.22 1777.29 1228.6C1775.09 1227.98 1772.85 1227.3 1770.58 1226.56C1768.3 1225.83 1766.07 1224.95 1763.87 1223.92C1761.67 1222.9 1759.7 1221.56 1757.98 1219.91C1756.26 1218.26 1754.86 1216.21 1753.8 1213.75C1752.77 1211.26 1752.26 1208.19 1752.26 1204.56C1752.26 1201.67 1752.83 1198.84 1753.97 1196.09C1755.14 1193.34 1756.83 1190.91 1759.03 1188.78C1761.26 1186.65 1763.99 1184.95 1767.22 1183.66C1770.45 1182.38 1774.13 1181.74 1778.28 1181.74C1782.97 1181.74 1787.3 1182.47 1791.26 1183.94C1795.22 1185.41 1798.59 1187.46 1801.38 1190.1L1797.75 1197.08ZM1867.23 1182.62H1879.66C1880.94 1182.62 1882 1182.93 1882.85 1183.55C1883.73 1184.14 1884.31 1184.95 1884.61 1185.97L1898.14 1233.55C1898.47 1234.72 1898.76 1236.01 1899.02 1237.4C1899.31 1238.76 1899.58 1240.2 1899.84 1241.74C1900.13 1240.2 1900.45 1238.76 1900.78 1237.4C1901.14 1236.01 1901.53 1234.72 1901.93 1233.55L1917.55 1185.97C1917.84 1185.13 1918.41 1184.36 1919.26 1183.66C1920.14 1182.97 1921.2 1182.62 1922.45 1182.62H1926.79C1928.07 1182.62 1929.14 1182.93 1929.98 1183.55C1930.82 1184.14 1931.41 1184.95 1931.74 1185.97L1947.25 1233.55C1948.06 1235.9 1948.75 1238.5 1949.34 1241.36C1949.6 1239.93 1949.85 1238.55 1950.11 1237.23C1950.4 1235.91 1950.7 1234.69 1950.99 1233.55L1964.52 1185.97C1964.78 1185.06 1965.35 1184.27 1966.23 1183.61C1967.11 1182.95 1968.17 1182.62 1969.42 1182.62H1981.02L1956.33 1262.15H1942.96L1925.58 1207.81C1925.36 1207.11 1925.12 1206.36 1924.87 1205.55C1924.65 1204.75 1924.43 1203.89 1924.21 1202.97C1923.99 1203.89 1923.75 1204.75 1923.49 1205.55C1923.27 1206.36 1923.05 1207.11 1922.83 1207.81L1905.29 1262.15H1891.92L1867.23 1182.62Z" fill="white"/>
<path d="M336.839 1040.25H253.839L142.839 860.25L226.339 749.25C217.005 744.917 210.505 740.417 206.839 735.75L211.839 695.25H325.839L330.839 735.75C326.172 741.083 317.505 746.417 304.839 751.75L218.339 858.25L297.339 977.25C319.005 981.917 333.839 989.083 341.839 998.75L336.839 1040.25ZM162.339 695.25L167.339 736.75C162.005 743.083 152.839 748.75 139.839 753.75V982.25C153.172 987.583 162.339 993.083 167.339 998.75L162.339 1040.25H45.3387L40.3387 998.75C44.6721 993.083 53.8387 987.583 67.8387 982.25V753.75C54.1721 748.75 45.0054 743.083 40.3387 736.75L45.3387 695.25H162.339ZM560.815 853.25L518.815 1042.75H441.815L361.815 753.75C348.149 748.75 338.982 743.083 334.315 736.75L339.315 695.25H454.815L459.815 736.75C454.149 743.417 445.149 748.917 432.815 753.25L468.315 900.75C473.649 922.083 477.815 943.25 480.815 964.25L481.815 972.75H488.815C489.149 953.083 492.315 929.417 498.315 901.75L543.315 698.75H619.815L664.815 900.75C670.149 925.083 673.815 946.25 675.815 964.25L676.815 973.25H683.815C684.482 952.917 688.482 929.083 695.815 901.75L735.315 755.25C721.315 750.25 711.649 744.083 706.315 736.75L711.315 695.25H821.815L826.815 736.75C820.482 744.75 809.315 751.25 793.315 756.25L709.315 1042.75H630.815L590.315 853.75C585.649 831.083 582.149 808.917 579.815 787.25L578.815 777.25H571.815C570.482 800.25 566.815 825.583 560.815 853.25ZM964.784 1044.25C917.451 1044.25 881.951 1030.58 858.284 1003.25C834.951 975.917 823.284 931.75 823.284 870.75C823.284 809.417 836.117 764.25 861.784 735.25C887.784 705.917 924.617 691.25 972.284 691.25C1020.28 691.25 1055.95 704.25 1079.28 730.25C1102.95 756.25 1114.78 799.75 1114.78 860.75C1114.78 921.75 1101.62 967.583 1075.28 998.25C1048.95 1028.92 1012.12 1044.25 964.784 1044.25ZM916.284 773.75C904.284 791.083 898.284 821.25 898.284 864.25C898.284 907.25 904.617 938.583 917.284 958.25C929.951 977.917 947.284 987.75 969.284 987.75C991.617 987.75 1008.95 978.583 1021.28 960.25C1033.62 941.583 1039.78 910.75 1039.78 867.75C1039.78 787.75 1015.78 747.75 967.784 747.75C945.451 747.75 928.284 756.417 916.284 773.75ZM1437.07 1040.25H1354.07L1243.07 860.25L1326.57 749.25C1317.24 744.917 1310.74 740.417 1307.07 735.75L1312.07 695.25H1426.07L1431.07 735.75C1426.41 741.083 1417.74 746.417 1405.07 751.75L1318.57 858.25L1397.57 977.25C1419.24 981.917 1434.07 989.083 1442.07 998.75L1437.07 1040.25ZM1262.57 695.25L1267.57 736.75C1262.24 743.083 1253.07 748.75 1240.07 753.75V982.25C1253.41 987.583 1262.57 993.083 1267.57 998.75L1262.57 1040.25H1145.57L1140.57 998.75C1144.91 993.083 1154.07 987.583 1168.07 982.25V753.75C1154.41 748.75 1145.24 743.083 1140.57 736.75L1145.57 695.25H1262.57ZM1628.05 692.75L1727.55 981.25C1741.55 986.25 1751.38 992.083 1757.05 998.75L1752.05 1040.25H1635.05L1630.05 998.75C1634.05 993.417 1642.05 988.417 1654.05 983.75L1640.55 941.75H1540.55L1528.05 982.25C1539.72 986.917 1548.38 992.417 1554.05 998.75L1549.05 1040.25H1435.05L1430.05 998.75C1436.05 991.083 1447.22 984.75 1463.55 979.75L1559.55 692.75H1628.05ZM1586.55 762.75C1586.55 783.083 1582.38 806.75 1574.05 833.75L1554.55 895.75H1626.05L1607.05 834.75C1599.38 811.417 1595.05 790.25 1594.05 771.25L1593.55 762.75H1586.55ZM1975.82 882.25H1865.82V982.25C1879.15 987.583 1888.32 993.083 1893.32 998.75L1888.32 1040.25H1771.32L1766.32 998.75C1770.65 993.083 1779.82 987.583 1793.82 982.25V753.75C1780.15 748.75 1770.98 743.083 1766.32 736.75L1771.32 695.25H1888.32L1893.32 736.75C1887.98 743.083 1878.82 748.75 1865.82 753.75V832.25H1975.82V753.75C1962.15 748.75 1952.98 743.083 1948.32 736.75L1953.32 695.25H2070.32L2075.32 736.75C2069.98 743.083 2060.82 748.75 2047.82 753.75V982.25C2061.15 987.583 2070.32 993.083 2075.32 998.75L2070.32 1040.25H1953.32L1948.32 998.75C1952.65 993.083 1961.82 987.583 1975.82 982.25V882.25Z" fill="white"/>
<path fill-rule="evenodd" clip-rule="evenodd" d="M1450.3 281.146C1450.3 387.636 1417.13 484.03 1363.52 553.734L1221.55 553.734L1221.55 8.94423L1363.82 8.9442C1417.26 78.6182 1450.3 174.852 1450.3 281.146Z" fill="white"/>
<path fill-rule="evenodd" clip-rule="evenodd" d="M660.776 281.504C660.776 175.017 693.945 78.6258 747.552 8.92188L889.533 8.92188V553.71L747.263 553.71C693.826 484.036 660.776 387.8 660.776 281.504Z" fill="white"/>
<path d="M958.796 345.004C950.829 327.513 963.614 307.641 982.833 307.641H1004.52C1095.69 307.641 1169.61 381.553 1169.61 472.729V553.994L1053.99 553.995L958.796 345.004Z" fill="white"/>
<path d="M1169.61 9.1875L1057.4 9.1875L959.187 217.881C950.943 235.4 963.725 255.542 983.087 255.542H1004.52C1095.7 255.542 1169.61 181.629 1169.61 90.4536V9.1875Z" fill="white"/>
</g>
<defs>
<filter id="filter0_d_3748_11" x="-13.1562" y="0.921875" width="2137.39" height="1469.38" filterUnits="userSpaceOnUse" color-interpolation-filters="sRGB">
<feFlood flood-opacity="0" result="BackgroundImageFix"/>
<feColorMatrix in="SourceAlpha" type="matrix" values="0 0 0 0 0 0 0 0 0 0 0 0 0 0 0 0 0 0 127 0" result="hardAlpha"/>
<feOffset dy="6"/>
<feGaussianBlur stdDeviation="7"/>
<feComposite in2="hardAlpha" operator="out"/>
<feColorMatrix type="matrix" values="0 0 0 0 0 0 0 0 0 0 0 0 0 0 0 0 0 0 0.44 0"/>
<feBlend mode="normal" in2="BackgroundImageFix" result="effect1_dropShadow_3748_11"/>
<feBlend mode="normal" in="SourceGraphic" in2="effect1_dropShadow_3748_11" result="shape"/>
</filter>
</defs>
</svg>
