<svg width="175" height="23" viewBox="0 0 175 23" fill="none" xmlns="http://www.w3.org/2000/svg">
<path d="M64.5383 22.6852H59.3435L52.3962 11.4193L57.6223 4.47193C57.0381 4.20071 56.6313 3.91907 56.4018 3.62699L56.7148 1.09215H63.8499L64.1628 3.62699C63.8707 3.96079 63.3283 4.2946 62.5355 4.6284L57.1216 11.2941L62.0661 18.7421C63.4222 19.0342 64.3506 19.4827 64.8513 20.0878L64.5383 22.6852ZM53.6166 1.09215L53.9296 3.68957C53.5958 4.08597 53.022 4.44064 52.2084 4.75358V19.0551C53.0429 19.3889 53.6166 19.7331 53.9296 20.0878L53.6166 22.6852H46.2938L45.9808 20.0878C46.2521 19.7331 46.8258 19.3889 47.702 19.0551V4.75358C46.8466 4.44064 46.2729 4.08597 45.9808 3.68957L46.2938 1.09215H53.6166Z" fill="#111928"/>
<path d="M78.8696 10.9811L76.2409 22.8417H71.4216L66.4145 4.75358C65.5591 4.44064 64.9854 4.08597 64.6933 3.68957L65.0063 1.09215H72.2353L72.5482 3.68957C72.1935 4.10683 71.6302 4.45107 70.8583 4.72229L73.0802 13.9541C73.414 15.2893 73.6748 16.6141 73.8626 17.9285L73.9251 18.4605H74.3633C74.3841 17.2296 74.5823 15.7483 74.9579 14.0167L77.7743 1.31121H82.5624L85.3788 13.9541C85.7126 15.4771 85.9421 16.8019 86.0673 17.9285L86.1299 18.4918H86.568C86.6098 17.2191 86.8601 15.7274 87.3191 14.0167L89.7913 4.84746C88.9151 4.53452 88.3101 4.14856 87.9763 3.68957L88.2892 1.09215H95.2052L95.5182 3.68957C95.1218 4.19028 94.4229 4.59711 93.4215 4.91005L88.164 22.8417H83.2508L80.716 11.0124C80.4239 9.59376 80.2049 8.20638 80.0588 6.8503L79.9962 6.22441H79.5581C79.4747 7.66395 79.2452 9.24952 78.8696 10.9811Z" fill="#111928"/>
<path d="M104.466 22.9355C101.504 22.9355 99.282 22.0802 97.8007 20.3694C96.3403 18.6587 95.6101 15.8943 95.6101 12.0764C95.6101 8.23768 96.4133 5.41076 98.0198 3.59569C99.6471 1.75976 101.952 0.841797 104.936 0.841797C107.94 0.841797 110.172 1.65545 111.633 3.28275C113.114 4.91005 113.855 7.63265 113.855 11.4506C113.855 15.2685 113.031 18.1371 111.382 20.0565C109.734 21.9759 107.429 22.9355 104.466 22.9355ZM101.431 6.00535C100.68 7.09022 100.304 8.97831 100.304 11.6696C100.304 14.3609 100.701 16.322 101.493 17.5529C102.286 18.7838 103.371 19.3993 104.748 19.3993C106.146 19.3993 107.231 18.8256 108.003 17.6781C108.775 16.5098 109.161 14.58 109.161 11.8887C109.161 6.88159 107.658 4.37805 104.654 4.37805C103.256 4.37805 102.182 4.92048 101.431 6.00535Z" fill="#111928"/>
<path d="M134.339 22.6852H129.144L122.197 11.4193L127.423 4.47193C126.839 4.20071 126.432 3.91907 126.203 3.62699L126.516 1.09215H133.651L133.964 3.62699C133.672 3.96079 133.129 4.2946 132.336 4.6284L126.922 11.2941L131.867 18.7421C133.223 19.0342 134.151 19.4827 134.652 20.0878L134.339 22.6852ZM123.418 1.09215L123.73 3.68957C123.397 4.08597 122.823 4.44064 122.009 4.75358V19.0551C122.844 19.3889 123.418 19.7331 123.73 20.0878L123.418 22.6852H116.095L115.782 20.0878C116.053 19.7331 116.627 19.3889 117.503 19.0551V4.75358C116.648 4.44064 116.074 4.08597 115.782 3.68957L116.095 1.09215H123.418Z" fill="#111928"/>
<path d="M146.605 0.935679L152.833 18.9925C153.709 19.3054 154.324 19.6705 154.679 20.0878L154.366 22.6852H147.043L146.73 20.0878C146.981 19.754 147.481 19.441 148.232 19.1489L147.387 16.5202H141.129L140.346 19.0551C141.076 19.3471 141.619 19.6914 141.974 20.0878L141.661 22.6852H134.526L134.213 20.0878C134.588 19.6079 135.287 19.2115 136.309 18.8986L142.318 0.935679H146.605ZM144.008 5.31688C144.008 6.58951 143.747 8.07077 143.225 9.76066L142.005 13.6412H146.48L145.291 9.82325C144.811 8.36285 144.54 7.03806 144.477 5.84888L144.446 5.31688H144.008Z" fill="#111928"/>
<path d="M168.684 12.7962H161.799V19.0551C162.634 19.3889 163.208 19.7331 163.521 20.0878L163.208 22.6852H155.885L155.572 20.0878C155.843 19.7331 156.417 19.3889 157.293 19.0551V4.75358C156.438 4.44064 155.864 4.08597 155.572 3.68957L155.885 1.09215H163.208L163.521 3.68957C163.187 4.08597 162.613 4.44064 161.799 4.75358V9.66678H168.684V4.75358C167.829 4.44064 167.255 4.08597 166.963 3.68957L167.276 1.09215H174.599L174.912 3.68957C174.578 4.08597 174.004 4.44064 173.191 4.75358V19.0551C174.025 19.3889 174.599 19.7331 174.912 20.0878L174.599 22.6852H167.276L166.963 20.0878C167.234 19.7331 167.808 19.3889 168.684 19.0551V12.7962Z" fill="#111928"/>
<path fill-rule="evenodd" clip-rule="evenodd" d="M32.4597 11.8753C32.4597 16.1915 31.1153 20.0983 28.9424 22.9235H23.188V0.842841L28.9545 0.84284C31.1202 3.66677 32.4597 7.56719 32.4597 11.8753Z" fill="#20631C"/>
<path fill-rule="evenodd" clip-rule="evenodd" d="M0.459686 11.8897C0.459686 7.57373 1.80403 3.66694 3.97677 0.841797L9.73134 0.841797V22.9224L3.96505 22.9224C1.7992 20.0985 0.459686 16.198 0.459686 11.8897Z" fill="#20631C"/>
<path d="M12.5387 14.4642C12.2157 13.7553 12.7339 12.9498 13.5129 12.9498H14.3918C18.0872 12.9498 21.0829 15.9456 21.0829 19.641V22.9347L16.397 22.9347L12.5387 14.4642Z" fill="#20631C"/>
<path d="M21.0832 0.853845L16.5351 0.853845L12.5546 9.3123C12.2204 10.0224 12.7385 10.8387 13.5232 10.8387H14.392C18.0875 10.8387 21.0832 7.84302 21.0832 4.14761V0.853845Z" fill="#20631C"/>
</svg>
