<svg width="6000" height="50" viewBox="0 0 6000 50" fill="none" xmlns="http://www.w3.org/2000/svg">
<path d="M0 50V29.3659C18.6924 29.3386 29.6323 22.2875 40.7739 15.0861L40.834 15.0451C52.3931 7.5977 64.1846 0 85.0869 0C106.026 0 118.098 7.62503 129.947 15.0861C141.365 22.2875 152.575 29.3659 171.312 29.3659C190.6 29.3659 202.782 21.8639 214.839 14.4575C226.651 7.18776 238.341 0 256.473 0C274.605 0 286.557 7.18776 298.632 14.4575C310.891 21.8229 323.277 29.284 342.388 29.3659H342.698C361.436 29.3659 372.39 22.2875 383.546 15.0861L383.606 15.0451C395.166 7.5977 406.957 0 427.859 0C448.762 0 460.829 7.5977 472.658 15.0451L472.719 15.0861C484.137 22.2875 495.347 29.3659 514.084 29.3659H514.309C533.465 29.3113 545.602 21.8366 557.612 14.4575C569.423 7.18776 581.114 0 599.246 0C617.377 0 629.329 7.18776 641.404 14.4575L641.462 14.4985C653.709 21.8502 666.094 29.284 685.191 29.3659H685.471C704.208 29.3659 715.162 22.2875 726.319 15.0861L726.379 15.0451C737.938 7.5977 749.729 0 770.632 0C791.534 0 803.601 7.5977 815.43 15.0451L815.492 15.0861C826.91 22.2875 838.12 29.3659 856.857 29.3659H857.026C876.216 29.3113 888.362 21.8502 900.384 14.4575C912.195 7.18776 923.886 0 942.018 0C960.15 0 972.102 7.18776 984.176 14.4575L984.236 14.4985C996.542 21.8912 1008.99 29.3659 1028.24 29.3659C1046.98 29.3659 1057.93 22.2875 1069.09 15.0861C1080.67 7.62503 1092.47 0 1113.4 0C1134.31 0 1146.37 7.5977 1158.2 15.0451L1158.26 15.0861C1169.68 22.2875 1181.26 29.3659 1200 29.3659C1218.69 29.3386 1229.63 22.2875 1240.77 15.0861L1240.83 15.0451C1252.39 7.5977 1264.19 0 1285.09 0C1305.99 0 1318.06 7.5977 1329.88 15.0451L1329.95 15.0861C1341.37 22.2875 1352.58 29.3659 1371.31 29.3659C1390.6 29.3659 1402.78 21.8639 1414.84 14.4575C1426.65 7.18776 1438.34 0 1456.47 0C1474.61 0 1486.56 7.18776 1498.63 14.4575L1498.7 14.4985C1510.93 21.8502 1523.31 29.284 1542.39 29.3659H1542.7C1561.44 29.3659 1572.39 22.2875 1583.55 15.0861L1583.61 15.0451C1595.17 7.5977 1606.96 0 1627.86 0C1648.76 0 1660.83 7.5977 1672.66 15.0451L1672.72 15.0861C1684.14 22.2875 1695.35 29.3659 1714.08 29.3659H1714.31C1733.47 29.3113 1745.6 21.8366 1757.61 14.4575C1769.42 7.18776 1781.11 0 1799.25 0C1817.38 0 1829.33 7.18776 1841.4 14.4575L1841.46 14.4985C1853.71 21.8502 1866.09 29.284 1885.19 29.3659H1885.47C1904.21 29.3659 1915.16 22.2875 1926.32 15.0861L1926.38 15.0451C1937.94 7.5977 1949.73 0 1970.63 0C1991.53 0 2003.6 7.5977 2015.43 15.0451L2015.49 15.0861C2026.91 22.2875 2038.12 29.3659 2056.86 29.3659H2057.03C2076.22 29.3113 2088.36 21.8502 2100.38 14.4575C2112.2 7.18776 2123.89 0 2142.02 0C2160.15 0 2172.1 7.18776 2184.18 14.4575L2184.24 14.4985C2196.54 21.8912 2208.99 29.3659 2228.24 29.3659C2246.98 29.3659 2257.94 22.2875 2269.09 15.0861L2269.15 15.0451C2280.71 7.5977 2292.5 0 2313.4 0C2334.34 0 2346.42 7.62503 2358.26 15.0861C2369.68 22.2875 2381.26 29.3659 2400 29.3659C2418.69 29.3386 2429.63 22.2875 2440.77 15.0861L2440.83 15.0451C2452.39 7.5977 2464.19 0 2485.09 0C2505.99 0 2518.06 7.5977 2529.88 15.0451L2529.95 15.0861C2541.37 22.2875 2552.58 29.3659 2571.31 29.3659C2590.57 29.3659 2602.74 21.8912 2614.78 14.4985L2614.84 14.4575C2626.65 7.18776 2638.34 0 2656.47 0C2674.61 0 2686.56 7.18776 2698.63 14.4575L2698.7 14.4985C2710.93 21.8502 2723.31 29.284 2742.39 29.3659H2742.7C2761.44 29.3659 2772.39 22.2875 2783.55 15.0861L2783.61 15.0451C2795.17 7.5977 2806.96 0 2827.86 0C2848.76 0 2860.83 7.5977 2872.66 15.0451L2872.72 15.0861C2884.14 22.2875 2895.35 29.3659 2914.08 29.3659H2914.31C2933.44 29.3113 2945.56 21.8639 2957.56 14.4985L2957.61 14.4575C2969.42 7.18776 2981.11 0 2999.25 0C3017.38 0 3029.33 7.18776 3041.4 14.4575L3041.46 14.4985C3053.71 21.8502 3066.09 29.284 3085.19 29.3659H3085.47C3104.21 29.3659 3115.16 22.2875 3126.32 15.0861L3126.38 15.0451C3137.94 7.5977 3149.73 0 3170.63 0C3191.53 0 3203.6 7.5977 3215.43 15.0451L3215.49 15.0861C3226.91 22.2875 3238.12 29.3659 3256.86 29.3659H3257.03C3276.22 29.3113 3288.36 21.8502 3300.38 14.4575C3312.2 7.18776 3323.89 0 3342.02 0C3360.15 0 3372.1 7.18776 3384.18 14.4575L3384.24 14.4985C3396.54 21.8912 3408.99 29.3659 3428.24 29.3659C3446.98 29.3659 3457.94 22.2875 3469.09 15.0861C3480.67 7.62503 3492.47 0 3513.4 0C3534.31 0 3546.37 7.5977 3558.2 15.0451L3558.26 15.0861C3569.68 22.2875 3581.26 29.3659 3600 29.3659C3618.69 29.3386 3629.63 22.2875 3640.77 15.0861L3640.84 15.0451C3652.39 7.5977 3664.19 0 3685.09 0C3705.99 0 3718.06 7.5977 3729.89 15.0451L3729.95 15.0861C3741.37 22.2875 3752.58 29.3659 3771.31 29.3659C3790.6 29.3659 3802.78 21.8639 3814.84 14.4575C3826.65 7.18776 3838.34 0 3856.47 0C3874.61 0 3886.56 7.18776 3898.63 14.4575L3898.7 14.4985C3910.93 21.8502 3923.31 29.284 3942.39 29.3659H3942.7C3961.44 29.3659 3972.39 22.2875 3983.55 15.0861L3983.61 15.0451C3995.17 7.5977 4006.96 0 4027.86 0C4048.76 0 4060.83 7.5977 4072.66 15.0451L4072.72 15.0861C4084.14 22.2875 4095.35 29.3659 4114.09 29.3659H4114.31C4133.44 29.3113 4145.56 21.8639 4157.55 14.4985L4157.61 14.4575C4169.42 7.18776 4181.11 0 4199.25 0C4217.38 0 4229.33 7.18776 4241.4 14.4575L4241.46 14.4985C4253.71 21.8502 4266.1 29.284 4285.19 29.3659H4285.47C4304.21 29.3659 4315.16 22.2875 4326.32 15.0861L4326.38 15.0451C4337.94 7.5977 4349.73 0 4370.63 0C4391.54 0 4403.6 7.5977 4415.43 15.0451L4415.49 15.0861C4426.91 22.2875 4438.12 29.3659 4456.86 29.3659H4457.03C4476.22 29.3113 4488.36 21.8502 4500.39 14.4575C4512.2 7.18776 4523.89 0 4542.02 0C4560.15 0 4572.1 7.18776 4584.18 14.4575L4584.24 14.4985C4596.54 21.8912 4608.99 29.3659 4628.24 29.3659C4646.98 29.3659 4657.94 22.2875 4669.09 15.0861L4669.15 15.0451C4680.71 7.5977 4692.5 0 4713.4 0C4734.34 0 4746.42 7.62503 4758.27 15.0861C4769.68 22.2875 4781.26 29.3659 4800 29.3659C4818.69 29.3386 4829.63 22.2875 4840.77 15.0861C4852.35 7.62503 4864.15 0 4885.09 0C4905.99 0 4918.06 7.5977 4929.89 15.0451L4929.95 15.0861C4941.36 22.2875 4952.58 29.3659 4971.31 29.3659C4990.57 29.3659 5002.75 21.8912 5014.78 14.4985L5014.84 14.4575C5026.65 7.18776 5038.34 0 5056.47 0C5074.61 0 5086.56 7.18776 5098.63 14.4575L5098.7 14.4985C5110.94 21.8502 5123.31 29.284 5142.39 29.3659H5142.7C5161.44 29.3659 5172.39 22.2875 5183.55 15.0861C5195.12 7.62503 5206.92 0 5227.86 0C5248.76 0 5260.83 7.5977 5272.66 15.0451L5272.72 15.0861C5284.14 22.2875 5295.35 29.3659 5314.09 29.3659H5314.31C5333.44 29.3113 5345.56 21.8639 5357.56 14.4985L5357.61 14.4575C5369.42 7.18776 5381.11 0 5399.25 0C5417.38 0 5429.33 7.18776 5441.4 14.4575L5441.46 14.4985C5453.71 21.8502 5466.1 29.284 5485.19 29.3659H5485.47C5504.21 29.3659 5515.16 22.2875 5526.32 15.0861L5526.38 15.0451C5537.94 7.5977 5549.73 0 5570.63 0C5591.53 0 5603.6 7.5977 5615.43 15.0451L5615.49 15.0861C5626.91 22.2875 5638.12 29.3659 5656.86 29.3659H5657.03C5676.22 29.3113 5688.36 21.8502 5700.38 14.4575C5712.2 7.18776 5723.89 0 5742.02 0C5760.15 0 5772.1 7.18776 5784.18 14.4575L5784.24 14.4985C5796.54 21.8912 5808.99 29.3659 5828.24 29.3659C5846.98 29.3659 5857.94 22.2875 5869.09 15.0861L5869.15 15.0451C5880.71 7.5977 5892.5 0 5913.4 0C5934.31 0 5946.37 7.5977 5958.2 15.0451L5958.26 15.0861C5969.68 22.2875 5981.26 29.3659 6000 29.3659V50H0Z" fill="#C6DDF7"/>
</svg>
