<svg width="6001" height="72" viewBox="0 0 6001 72" fill="none" xmlns="http://www.w3.org/2000/svg">
<path d="M0.879883 71.9965V42.3204C32.0703 42.2811 50.3249 32.1401 68.9159 21.7829L69.0161 21.724C88.3038 11.013 107.979 0.0859375 142.857 0.0859375C177.796 0.0859375 197.94 11.0523 217.712 21.7829C236.763 32.1401 255.469 42.3204 286.734 42.3204C318.917 42.3204 339.246 31.5308 359.364 20.8789C379.073 10.4234 398.58 0.0859375 428.835 0.0859375C459.09 0.0859375 479.034 10.4234 499.182 20.8789C519.638 31.4719 540.306 42.2025 572.194 42.3204H572.712C603.977 42.3204 622.255 32.1401 640.872 21.7829L640.972 21.724C660.259 11.013 679.935 0.0859375 714.813 0.0859375C749.691 0.0859375 769.826 11.013 789.564 21.724L789.667 21.7829C808.719 32.1401 827.424 42.3204 858.69 42.3204H859.064C891.029 42.2418 911.279 31.4915 931.32 20.8789C951.028 10.4234 970.536 0.0859375 1000.79 0.0859375C1031.05 0.0859375 1050.99 10.4234 1071.14 20.8789L1071.23 20.9378C1091.67 31.5112 1112.34 42.2025 1144.2 42.3204H1144.67C1175.93 42.3204 1194.21 32.1401 1212.83 21.7829L1212.93 21.724C1232.22 11.013 1251.89 0.0859375 1286.77 0.0859375C1321.65 0.0859375 1341.78 11.013 1361.52 21.724L1361.62 21.7829C1380.67 32.1401 1399.38 42.3204 1430.65 42.3204H1430.93C1462.95 42.2418 1483.22 31.5112 1503.28 20.8789C1522.98 10.4234 1542.49 0.0859375 1572.75 0.0859375C1603 0.0859375 1622.94 10.4234 1643.09 20.8789L1643.19 20.9378C1663.73 31.5702 1684.49 42.3204 1716.62 42.3204C1747.89 42.3204 1766.17 32.1401 1784.78 21.7829C1804.1 11.0523 1823.79 0.0859375 1858.72 0.0859375C1893.6 0.0859375 1913.74 11.013 1933.48 21.724L1933.58 21.7829C1952.63 32.1401 1971.95 42.3204 2003.22 42.3204C2034.41 42.2811 2052.67 32.1401 2071.26 21.7829L2071.36 21.724C2090.64 11.013 2110.32 0.0859375 2145.2 0.0859375C2180.07 0.0859375 2200.21 11.013 2219.95 21.724L2220.05 21.7829C2239.1 32.1401 2257.81 42.3204 2289.07 42.3204C2321.26 42.3204 2341.59 31.5308 2361.7 20.8789C2381.41 10.4234 2400.92 0.0859375 2431.18 0.0859375C2461.43 0.0859375 2481.37 10.4234 2501.52 20.8789L2501.63 20.9378C2522.05 31.5112 2542.7 42.2025 2574.53 42.3204H2575.05C2606.32 42.3204 2624.6 32.1401 2643.21 21.7829L2643.31 21.724C2662.6 11.013 2682.28 0.0859375 2717.15 0.0859375C2752.03 0.0859375 2772.16 11.013 2791.9 21.724L2792.01 21.7829C2811.06 32.1401 2829.76 42.3204 2861.03 42.3204H2861.4C2893.37 42.2418 2913.62 31.4915 2933.66 20.8789C2953.37 10.4234 2972.88 0.0859375 3003.13 0.0859375C3033.39 0.0859375 3053.33 10.4234 3073.48 20.8789L3073.57 20.9378C3094.01 31.5112 3114.68 42.2025 3146.54 42.3204H3147.01C3178.27 42.3204 3196.55 32.1401 3215.17 21.7829L3215.27 21.724C3234.56 11.013 3254.23 0.0859375 3289.11 0.0859375C3323.99 0.0859375 3344.12 11.013 3363.86 21.724L3363.96 21.7829C3383.01 32.1401 3401.72 42.3204 3432.99 42.3204H3433.27C3465.29 42.2418 3485.56 31.5112 3505.62 20.8789C3525.32 10.4234 3544.83 0.0859375 3575.09 0.0859375C3605.34 0.0859375 3625.28 10.4234 3645.43 20.8789L3645.53 20.9378C3666.07 31.5702 3686.83 42.3204 3718.96 42.3204C3750.23 42.3204 3768.51 32.1401 3787.12 21.7829L3787.22 21.724C3806.51 11.013 3826.18 0.0859375 3861.06 0.0859375C3896 0.0859375 3916.15 11.0523 3935.92 21.7829C3954.97 32.1401 3974.29 42.3204 4005.56 42.3204C4036.75 42.2811 4055 32.1401 4073.6 21.7829L4073.7 21.724C4092.98 11.013 4112.66 0.0859375 4147.54 0.0859375C4182.41 0.0859375 4202.55 11.013 4222.29 21.724L4222.39 21.7829C4241.44 32.1401 4260.15 42.3204 4291.41 42.3204C4323.55 42.3204 4343.86 31.5702 4363.95 20.9378L4364.04 20.8789C4383.75 10.4234 4403.26 0.0859375 4433.51 0.0859375C4463.77 0.0859375 4483.71 10.4234 4503.86 20.8789L4503.97 20.9378C4524.39 31.5112 4545.04 42.2025 4576.87 42.3204H4577.39C4608.66 42.3204 4626.93 32.1401 4645.55 21.7829L4645.65 21.724C4664.94 11.013 4684.61 0.0859375 4719.49 0.0859375C4754.37 0.0859375 4774.51 11.013 4794.24 21.724L4794.35 21.7829C4813.4 32.1401 4832.1 42.3204 4863.37 42.3204H4863.74C4895.66 42.2418 4915.9 31.5308 4935.91 20.9378L4936 20.8789C4955.71 10.4234 4975.22 0.0859375 5005.47 0.0859375C5035.73 0.0859375 5055.67 10.4234 5075.82 20.8789L5075.91 20.9378C5096.35 31.5112 5117.02 42.2025 5148.88 42.3204H5149.35C5180.61 42.3204 5198.89 32.1401 5217.51 21.7829L5217.61 21.724C5236.89 11.013 5256.57 0.0859375 5291.45 0.0859375C5326.33 0.0859375 5346.46 11.013 5366.2 21.724L5366.3 21.7829C5385.35 32.1401 5404.06 42.3204 5435.32 42.3204H5435.61C5467.63 42.2418 5487.9 31.5112 5507.96 20.8789C5527.66 10.4234 5547.17 0.0859375 5577.43 0.0859375C5607.68 0.0859375 5627.62 10.4234 5647.77 20.8789L5647.87 20.9378C5668.41 31.5702 5689.17 42.3204 5721.3 42.3204C5752.57 42.3204 5770.85 32.1401 5789.46 21.7829C5808.78 11.0523 5828.46 0.0859375 5863.4 0.0859375C5898.28 0.0859375 5918.42 11.013 5938.16 21.724L5938.26 21.7829C5938.16 21.724 5953.02 34.8041 6000.88 42.3204V71.9965H0.879883Z" fill="#F0F0F0" fill-opacity="0.3"/>
<path d="M0.879883 72V51.3659C19.5723 51.3386 30.5122 44.2875 41.6538 37.0861L41.7139 37.0451C53.2729 29.5977 65.0645 22 85.9668 22C106.906 22 118.978 29.625 130.827 37.0861C142.245 44.2875 153.455 51.3659 172.192 51.3659C191.479 51.3659 203.662 43.8639 215.719 36.4575C227.531 29.1878 239.221 22 257.353 22C275.485 22 287.437 29.1878 299.512 36.4575C311.771 43.8229 324.157 51.284 343.268 51.3659H343.578C362.315 51.3659 373.27 44.2875 384.426 37.0861L384.486 37.0451C396.045 29.5977 407.837 22 428.739 22C449.642 22 461.708 29.5977 473.538 37.0451L473.599 37.0861C485.017 44.2875 496.227 51.3659 514.964 51.3659H515.188C534.345 51.3113 546.481 43.8366 558.492 36.4575C570.303 29.1878 581.994 22 600.125 22C618.257 22 630.209 29.1878 642.284 36.4575L642.342 36.4985C654.589 43.8502 666.974 51.284 686.071 51.3659H686.351C705.088 51.3659 716.042 44.2875 727.199 37.0861L727.259 37.0451C738.818 29.5977 750.609 22 771.512 22C792.414 22 804.481 29.5977 816.31 37.0451L816.372 37.0861C827.79 44.2875 839 51.3659 857.737 51.3659H857.906C877.096 51.3113 889.242 43.8502 901.264 36.4575C913.075 29.1878 924.766 22 942.898 22C961.03 22 972.981 29.1878 985.056 36.4575L985.116 36.4985C997.422 43.8912 1009.87 51.3659 1029.12 51.3659C1047.86 51.3659 1058.81 44.2875 1069.97 37.0861C1081.55 29.625 1093.35 22 1114.28 22C1135.19 22 1147.25 29.5977 1159.08 37.0451L1159.14 37.0861C1170.56 44.2875 1182.14 51.3659 1200.88 51.3659C1219.57 51.3386 1230.51 44.2875 1241.65 37.0861L1241.71 37.0451C1253.27 29.5977 1265.06 22 1285.97 22C1306.87 22 1318.94 29.5977 1330.76 37.0451L1330.83 37.0861C1342.25 44.2875 1353.46 51.3659 1372.19 51.3659C1391.48 51.3659 1403.66 43.8639 1415.72 36.4575C1427.53 29.1878 1439.22 22 1457.35 22C1475.49 22 1487.44 29.1878 1499.51 36.4575L1499.58 36.4985C1511.81 43.8502 1524.19 51.284 1543.27 51.3659H1543.58C1562.32 51.3659 1573.27 44.2875 1584.43 37.0861L1584.49 37.0451C1596.05 29.5977 1607.84 22 1628.74 22C1649.64 22 1661.71 29.5977 1673.54 37.0451L1673.6 37.0861C1685.02 44.2875 1696.23 51.3659 1714.96 51.3659H1715.19C1734.35 51.3113 1746.48 43.8366 1758.49 36.4575C1770.3 29.1878 1781.99 22 1800.13 22C1818.26 22 1830.21 29.1878 1842.28 36.4575L1842.34 36.4985C1854.59 43.8502 1866.97 51.284 1886.07 51.3659H1886.35C1905.09 51.3659 1916.04 44.2875 1927.2 37.0861L1927.26 37.0451C1938.82 29.5977 1950.61 22 1971.51 22C1992.41 22 2004.48 29.5977 2016.31 37.0451L2016.37 37.0861C2027.79 44.2875 2039 51.3659 2057.74 51.3659H2057.91C2077.1 51.3113 2089.24 43.8502 2101.26 36.4575C2113.08 29.1878 2124.77 22 2142.9 22C2161.03 22 2172.98 29.1878 2185.06 36.4575L2185.12 36.4985C2197.42 43.8912 2209.87 51.3659 2229.12 51.3659C2247.86 51.3659 2258.81 44.2875 2269.97 37.0861L2270.03 37.0451C2281.59 29.5977 2293.38 22 2314.28 22C2335.22 22 2347.3 29.625 2359.14 37.0861C2370.56 44.2875 2382.14 51.3659 2400.88 51.3659C2419.57 51.3386 2430.51 44.2875 2441.65 37.0861L2441.71 37.0451C2453.27 29.5977 2465.06 22 2485.97 22C2506.87 22 2518.94 29.5977 2530.76 37.0451L2530.83 37.0861C2542.25 44.2875 2553.46 51.3659 2572.19 51.3659C2591.45 51.3659 2603.62 43.8912 2615.66 36.4985L2615.72 36.4575C2627.53 29.1878 2639.22 22 2657.35 22C2675.49 22 2687.44 29.1878 2699.51 36.4575L2699.58 36.4985C2711.81 43.8502 2724.19 51.284 2743.27 51.3659H2743.58C2762.32 51.3659 2773.27 44.2875 2784.43 37.0861L2784.49 37.0451C2796.05 29.5977 2807.84 22 2828.74 22C2849.64 22 2861.71 29.5977 2873.54 37.0451L2873.6 37.0861C2885.02 44.2875 2896.23 51.3659 2914.96 51.3659H2915.19C2934.32 51.3113 2946.44 43.8639 2958.44 36.4985L2958.49 36.4575C2970.3 29.1878 2981.99 22 3000.13 22C3018.26 22 3030.21 29.1878 3042.28 36.4575L3042.34 36.4985C3054.59 43.8502 3066.97 51.284 3086.07 51.3659H3086.35C3105.09 51.3659 3116.04 44.2875 3127.2 37.0861L3127.26 37.0451C3138.82 29.5977 3150.61 22 3171.51 22C3192.41 22 3204.48 29.5977 3216.31 37.0451L3216.37 37.0861C3227.79 44.2875 3239 51.3659 3257.74 51.3659H3257.91C3277.1 51.3113 3289.24 43.8502 3301.26 36.4575C3313.08 29.1878 3324.77 22 3342.9 22C3361.03 22 3372.98 29.1878 3385.06 36.4575L3385.12 36.4985C3397.42 43.8912 3409.87 51.3659 3429.12 51.3659C3447.86 51.3659 3458.81 44.2875 3469.97 37.0861C3481.55 29.625 3493.35 22 3514.28 22C3535.19 22 3547.25 29.5977 3559.08 37.0451L3559.14 37.0861C3570.56 44.2875 3582.14 51.3659 3600.88 51.3659C3619.57 51.3386 3630.51 44.2875 3641.65 37.0861L3641.72 37.0451C3653.27 29.5977 3665.06 22 3685.97 22C3706.87 22 3718.94 29.5977 3730.77 37.0451L3730.83 37.0861C3742.25 44.2875 3753.46 51.3659 3772.19 51.3659C3791.48 51.3659 3803.66 43.8639 3815.72 36.4575C3827.53 29.1878 3839.22 22 3857.35 22C3875.49 22 3887.44 29.1878 3899.51 36.4575L3899.58 36.4985C3911.81 43.8502 3924.19 51.284 3943.27 51.3659H3943.58C3962.32 51.3659 3973.27 44.2875 3984.43 37.0861L3984.49 37.0451C3996.05 29.5977 4007.84 22 4028.74 22C4049.64 22 4061.71 29.5977 4073.54 37.0451L4073.6 37.0861C4085.02 44.2875 4096.23 51.3659 4114.97 51.3659H4115.19C4134.32 51.3113 4146.44 43.8639 4158.43 36.4985L4158.49 36.4575C4170.3 29.1878 4181.99 22 4200.13 22C4218.26 22 4230.21 29.1878 4242.28 36.4575L4242.34 36.4985C4254.59 43.8502 4266.98 51.284 4286.07 51.3659H4286.35C4305.09 51.3659 4316.04 44.2875 4327.2 37.0861L4327.26 37.0451C4338.82 29.5977 4350.61 22 4371.51 22C4392.42 22 4404.48 29.5977 4416.31 37.0451L4416.37 37.0861C4427.79 44.2875 4439 51.3659 4457.74 51.3659H4457.91C4477.1 51.3113 4489.24 43.8502 4501.27 36.4575C4513.08 29.1878 4524.77 22 4542.9 22C4561.03 22 4572.98 29.1878 4585.06 36.4575L4585.12 36.4985C4597.42 43.8912 4609.87 51.3659 4629.12 51.3659C4647.86 51.3659 4658.82 44.2875 4669.97 37.0861L4670.03 37.0451C4681.59 29.5977 4693.38 22 4714.28 22C4735.22 22 4747.3 29.625 4759.15 37.0861C4770.56 44.2875 4782.14 51.3659 4800.88 51.3659C4819.57 51.3386 4830.51 44.2875 4841.65 37.0861C4853.23 29.625 4865.03 22 4885.97 22C4906.87 22 4918.94 29.5977 4930.77 37.0451L4930.83 37.0861C4942.24 44.2875 4953.46 51.3659 4972.19 51.3659C4991.45 51.3659 5003.63 43.8912 5015.66 36.4985L5015.72 36.4575C5027.53 29.1878 5039.22 22 5057.35 22C5075.49 22 5087.44 29.1878 5099.51 36.4575L5099.58 36.4985C5111.81 43.8502 5124.19 51.284 5143.27 51.3659H5143.58C5162.32 51.3659 5173.27 44.2875 5184.43 37.0861C5196 29.625 5207.8 22 5228.74 22C5249.64 22 5261.71 29.5977 5273.54 37.0451L5273.6 37.0861C5285.02 44.2875 5296.23 51.3659 5314.97 51.3659H5315.19C5334.32 51.3113 5346.44 43.8639 5358.44 36.4985L5358.49 36.4575C5370.3 29.1878 5381.99 22 5400.13 22C5418.26 22 5430.21 29.1878 5442.28 36.4575L5442.34 36.4985C5454.59 43.8502 5466.98 51.284 5486.07 51.3659H5486.35C5505.09 51.3659 5516.04 44.2875 5527.2 37.0861L5527.26 37.0451C5538.82 29.5977 5550.61 22 5571.51 22C5592.41 22 5604.48 29.5977 5616.31 37.0451L5616.37 37.0861C5627.79 44.2875 5639 51.3659 5657.74 51.3659H5657.91C5677.1 51.3113 5689.24 43.8502 5701.26 36.4575C5713.08 29.1878 5724.77 22 5742.9 22C5761.03 22 5772.98 29.1878 5785.06 36.4575L5785.12 36.4985C5797.42 43.8912 5809.87 51.3659 5829.12 51.3659C5847.86 51.3659 5858.81 44.2875 5869.97 37.0861L5870.03 37.0451C5881.59 29.5977 5893.38 22 5914.28 22C5935.19 22 5947.25 29.5977 5959.08 37.0451L5959.14 37.0861C5970.56 44.2875 5982.14 51.3659 6000.88 51.3659V72H0.879883Z" fill="#F0F0F0"/>
</svg>
