<svg width="6001" height="50" viewBox="0 0 6001 50" fill="none" xmlns="http://www.w3.org/2000/svg">
<path d="M0.879883 50V29.3659C19.5723 29.3386 30.5122 22.2875 41.6538 15.0861L41.7139 15.0451C53.2729 7.5977 65.0645 0 85.9668 0C106.906 0 118.978 7.62503 130.827 15.0861C142.245 22.2875 153.455 29.3659 172.192 29.3659C191.479 29.3659 203.662 21.8639 215.719 14.4575C227.531 7.18776 239.221 0 257.353 0C275.485 0 287.437 7.18776 299.512 14.4575C311.771 21.8229 324.157 29.284 343.268 29.3659H343.578C362.315 29.3659 373.27 22.2875 384.426 15.0861L384.486 15.0451C396.045 7.5977 407.837 0 428.739 0C449.642 0 461.708 7.5977 473.538 15.0451L473.599 15.0861C485.017 22.2875 496.227 29.3659 514.964 29.3659H515.188C534.345 29.3113 546.481 21.8366 558.492 14.4575C570.303 7.18776 581.994 0 600.125 0C618.257 0 630.209 7.18776 642.284 14.4575L642.342 14.4985C654.589 21.8502 666.974 29.284 686.071 29.3659H686.351C705.088 29.3659 716.042 22.2875 727.199 15.0861L727.259 15.0451C738.818 7.5977 750.609 0 771.512 0C792.414 0 804.481 7.5977 816.31 15.0451L816.372 15.0861C827.79 22.2875 839 29.3659 857.737 29.3659H857.906C877.096 29.3113 889.242 21.8502 901.264 14.4575C913.075 7.18776 924.766 0 942.898 0C961.03 0 972.981 7.18776 985.056 14.4575L985.116 14.4985C997.422 21.8912 1009.87 29.3659 1029.12 29.3659C1047.86 29.3659 1058.81 22.2875 1069.97 15.0861C1081.55 7.62503 1093.35 0 1114.28 0C1135.19 0 1147.25 7.5977 1159.08 15.0451L1159.14 15.0861C1170.56 22.2875 1182.14 29.3659 1200.88 29.3659C1219.57 29.3386 1230.51 22.2875 1241.65 15.0861L1241.71 15.0451C1253.27 7.5977 1265.06 0 1285.97 0C1306.87 0 1318.94 7.5977 1330.76 15.0451L1330.83 15.0861C1342.25 22.2875 1353.46 29.3659 1372.19 29.3659C1391.48 29.3659 1403.66 21.8639 1415.72 14.4575C1427.53 7.18776 1439.22 0 1457.35 0C1475.49 0 1487.44 7.18776 1499.51 14.4575L1499.58 14.4985C1511.81 21.8502 1524.19 29.284 1543.27 29.3659H1543.58C1562.32 29.3659 1573.27 22.2875 1584.43 15.0861L1584.49 15.0451C1596.05 7.5977 1607.84 0 1628.74 0C1649.64 0 1661.71 7.5977 1673.54 15.0451L1673.6 15.0861C1685.02 22.2875 1696.23 29.3659 1714.96 29.3659H1715.19C1734.35 29.3113 1746.48 21.8366 1758.49 14.4575C1770.3 7.18776 1781.99 0 1800.13 0C1818.26 0 1830.21 7.18776 1842.28 14.4575L1842.34 14.4985C1854.59 21.8502 1866.97 29.284 1886.07 29.3659H1886.35C1905.09 29.3659 1916.04 22.2875 1927.2 15.0861L1927.26 15.0451C1938.82 7.5977 1950.61 0 1971.51 0C1992.41 0 2004.48 7.5977 2016.31 15.0451L2016.37 15.0861C2027.79 22.2875 2039 29.3659 2057.74 29.3659H2057.91C2077.1 29.3113 2089.24 21.8502 2101.26 14.4575C2113.08 7.18776 2124.77 0 2142.9 0C2161.03 0 2172.98 7.18776 2185.06 14.4575L2185.12 14.4985C2197.42 21.8912 2209.87 29.3659 2229.12 29.3659C2247.86 29.3659 2258.81 22.2875 2269.97 15.0861L2270.03 15.0451C2281.59 7.5977 2293.38 0 2314.28 0C2335.22 0 2347.3 7.62503 2359.14 15.0861C2370.56 22.2875 2382.14 29.3659 2400.88 29.3659C2419.57 29.3386 2430.51 22.2875 2441.65 15.0861L2441.71 15.0451C2453.27 7.5977 2465.06 0 2485.97 0C2506.87 0 2518.94 7.5977 2530.76 15.0451L2530.83 15.0861C2542.25 22.2875 2553.46 29.3659 2572.19 29.3659C2591.45 29.3659 2603.62 21.8912 2615.66 14.4985L2615.72 14.4575C2627.53 7.18776 2639.22 0 2657.35 0C2675.49 0 2687.44 7.18776 2699.51 14.4575L2699.58 14.4985C2711.81 21.8502 2724.19 29.284 2743.27 29.3659H2743.58C2762.32 29.3659 2773.27 22.2875 2784.43 15.0861L2784.49 15.0451C2796.05 7.5977 2807.84 0 2828.74 0C2849.64 0 2861.71 7.5977 2873.54 15.0451L2873.6 15.0861C2885.02 22.2875 2896.23 29.3659 2914.96 29.3659H2915.19C2934.32 29.3113 2946.44 21.8639 2958.44 14.4985L2958.49 14.4575C2970.3 7.18776 2981.99 0 3000.13 0C3018.26 0 3030.21 7.18776 3042.28 14.4575L3042.34 14.4985C3054.59 21.8502 3066.97 29.284 3086.07 29.3659H3086.35C3105.09 29.3659 3116.04 22.2875 3127.2 15.0861L3127.26 15.0451C3138.82 7.5977 3150.61 0 3171.51 0C3192.41 0 3204.48 7.5977 3216.31 15.0451L3216.37 15.0861C3227.79 22.2875 3239 29.3659 3257.74 29.3659H3257.91C3277.1 29.3113 3289.24 21.8502 3301.26 14.4575C3313.08 7.18776 3324.77 0 3342.9 0C3361.03 0 3372.98 7.18776 3385.06 14.4575L3385.12 14.4985C3397.42 21.8912 3409.87 29.3659 3429.12 29.3659C3447.86 29.3659 3458.81 22.2875 3469.97 15.0861C3481.55 7.62503 3493.35 0 3514.28 0C3535.19 0 3547.25 7.5977 3559.08 15.0451L3559.14 15.0861C3570.56 22.2875 3582.14 29.3659 3600.88 29.3659C3619.57 29.3386 3630.51 22.2875 3641.65 15.0861L3641.72 15.0451C3653.27 7.5977 3665.06 0 3685.97 0C3706.87 0 3718.94 7.5977 3730.77 15.0451L3730.83 15.0861C3742.25 22.2875 3753.46 29.3659 3772.19 29.3659C3791.48 29.3659 3803.66 21.8639 3815.72 14.4575C3827.53 7.18776 3839.22 0 3857.35 0C3875.49 0 3887.44 7.18776 3899.51 14.4575L3899.58 14.4985C3911.81 21.8502 3924.19 29.284 3943.27 29.3659H3943.58C3962.32 29.3659 3973.27 22.2875 3984.43 15.0861L3984.49 15.0451C3996.05 7.5977 4007.84 0 4028.74 0C4049.64 0 4061.71 7.5977 4073.54 15.0451L4073.6 15.0861C4085.02 22.2875 4096.23 29.3659 4114.97 29.3659H4115.19C4134.32 29.3113 4146.44 21.8639 4158.43 14.4985L4158.49 14.4575C4170.3 7.18776 4181.99 0 4200.13 0C4218.26 0 4230.21 7.18776 4242.28 14.4575L4242.34 14.4985C4254.59 21.8502 4266.98 29.284 4286.07 29.3659H4286.35C4305.09 29.3659 4316.04 22.2875 4327.2 15.0861L4327.26 15.0451C4338.82 7.5977 4350.61 0 4371.51 0C4392.42 0 4404.48 7.5977 4416.31 15.0451L4416.37 15.0861C4427.79 22.2875 4439 29.3659 4457.74 29.3659H4457.91C4477.1 29.3113 4489.24 21.8502 4501.27 14.4575C4513.08 7.18776 4524.77 0 4542.9 0C4561.03 0 4572.98 7.18776 4585.06 14.4575L4585.12 14.4985C4597.42 21.8912 4609.87 29.3659 4629.12 29.3659C4647.86 29.3659 4658.82 22.2875 4669.97 15.0861L4670.03 15.0451C4681.59 7.5977 4693.38 0 4714.28 0C4735.22 0 4747.3 7.62503 4759.15 15.0861C4770.56 22.2875 4782.14 29.3659 4800.88 29.3659C4819.57 29.3386 4830.51 22.2875 4841.65 15.0861C4853.23 7.62503 4865.03 0 4885.97 0C4906.87 0 4918.94 7.5977 4930.77 15.0451L4930.83 15.0861C4942.24 22.2875 4953.46 29.3659 4972.19 29.3659C4991.45 29.3659 5003.63 21.8912 5015.66 14.4985L5015.72 14.4575C5027.53 7.18776 5039.22 0 5057.35 0C5075.49 0 5087.44 7.18776 5099.51 14.4575L5099.58 14.4985C5111.81 21.8502 5124.19 29.284 5143.27 29.3659H5143.58C5162.32 29.3659 5173.27 22.2875 5184.43 15.0861C5196 7.62503 5207.8 0 5228.74 0C5249.64 0 5261.71 7.5977 5273.54 15.0451L5273.6 15.0861C5285.02 22.2875 5296.23 29.3659 5314.97 29.3659H5315.19C5334.32 29.3113 5346.44 21.8639 5358.44 14.4985L5358.49 14.4575C5370.3 7.18776 5381.99 0 5400.13 0C5418.26 0 5430.21 7.18776 5442.28 14.4575L5442.34 14.4985C5454.59 21.8502 5466.98 29.284 5486.07 29.3659H5486.35C5505.09 29.3659 5516.04 22.2875 5527.2 15.0861L5527.26 15.0451C5538.82 7.5977 5550.61 0 5571.51 0C5592.41 0 5604.48 7.5977 5616.31 15.0451L5616.37 15.0861C5627.79 22.2875 5639 29.3659 5657.74 29.3659H5657.91C5677.1 29.3113 5689.24 21.8502 5701.26 14.4575C5713.08 7.18776 5724.77 0 5742.9 0C5761.03 0 5772.98 7.18776 5785.06 14.4575L5785.12 14.4985C5797.42 21.8912 5809.87 29.3659 5829.12 29.3659C5847.86 29.3659 5858.81 22.2875 5869.97 15.0861L5870.03 15.0451C5881.59 7.5977 5893.38 0 5914.28 0C5935.19 0 5947.25 7.5977 5959.08 15.0451L5959.14 15.0861C5970.56 22.2875 5982.14 29.3659 6000.88 29.3659V50H0.879883Z" fill="#C3B89C"/>
</svg>
