<svg width="36" height="36" viewBox="0 0 36 36" fill="none" xmlns="http://www.w3.org/2000/svg">
<path fill-rule="evenodd" clip-rule="evenodd" d="M18 36.0003C27.9411 36.0003 36 27.9413 36 18.0001C36 8.05893 27.9411 0 18 0C8.05887 0 0 8.05893 0 18.0001C0 27.9413 8.05887 36.0003 18 36.0003ZM7.10247 8.62902C5.25217 11.0349 4.10728 14.362 4.10728 18.0375C4.10728 21.7064 5.2481 25.0281 7.09254 27.433L12.0031 27.433V8.62902H7.10247ZM28.3633 27.4339C30.2137 25.028 31.3586 21.7008 31.3586 18.0252C31.3586 14.3564 30.2179 11.0347 28.3735 8.62986L23.4628 8.62986V27.4339H28.3633ZM14.3937 20.2291C14.1187 19.6254 14.5601 18.9395 15.2234 18.9395H15.9719C19.1189 18.9395 21.67 21.4907 21.67 24.6377V27.4426L17.6795 27.4427L14.3937 20.2291ZM17.797 8.63818H21.6702V11.4432C21.6702 14.5902 19.119 17.1414 15.972 17.1414H15.2321C14.5638 17.1414 14.1226 16.4461 14.4072 15.8414L17.797 8.63818Z" fill="#20631C"/>
</svg>
