<svg width="24" height="24" viewBox="0 0 24 24" fill="none" xmlns="http://www.w3.org/2000/svg">
<path fill-rule="evenodd" clip-rule="evenodd" d="M12 24.0002C18.6274 24.0002 24 18.6276 24 12.0001C24 5.37262 18.6274 0 12 0C5.37258 0 0 5.37262 0 12.0001C0 18.6276 5.37258 24.0002 12 24.0002ZM4.73498 5.75268C3.50145 7.35662 2.73819 9.57464 2.73819 12.025C2.73819 14.4709 3.49873 16.6854 4.72836 18.2887L8.00204 18.2887V5.75268H4.73498ZM18.9089 18.2893C20.1425 16.6853 20.9057 14.4672 20.9057 12.0168C20.9057 9.5709 20.1453 7.35649 18.9157 5.75324L15.6419 5.75324V18.2893H18.9089ZM9.59578 13.4861C9.41246 13.0836 9.70671 12.6263 10.149 12.6263H10.6479C12.7459 12.6263 14.4467 14.3271 14.4467 16.4251V18.2951L11.7863 18.2951L9.59578 13.4861ZM11.8647 5.75878H14.4468V7.62877C14.4468 9.72679 12.746 11.4276 10.648 11.4276H10.1548C9.70922 11.4276 9.41508 10.9641 9.60479 10.561L11.8647 5.75878Z" fill="#20631C"/>
</svg>
